<?xml version="1.0" encoding="UTF-8"?><svg id="a" xmlns="http://www.w3.org/2000/svg" viewBox="0 0 2600 2000"><defs><style>.h{fill:#ce3932;}.i{fill:#fff;}.j{fill:#1d3f70;}.k{fill:#dce6ff;}.l{fill:#f9f8f3;}.m{fill:#23659b;}.n{fill:#1e4c2b;}.o{fill:#f99370;}.p{fill:#3a72aa;}.q{fill:#d4ffdd;}.r{fill:#f4d4be;}.s{fill:#163356;}.t{fill:#e57d61;}.u{fill:#eb5648;}.v{fill:#d1a68f;}.w{fill:#38844c;}.x{fill:#662948;}.y{fill:#c92828;}.a`{fill:#8e4a35;}.aa{fill:#7640cc;}.ab{fill:#225b31;}.ac{fill:#103663;}.ad{fill:#395b96;}.ae{fill:#e8c0a6;}.af{fill:#c16256;}.ag{fill:#9358e0;}</style></defs><rect id="b" class="i" width="2600" height="2000"/><g><g id="c"><path class="q" d="M538.37,1574.81s-276.99-679.38-77.66-830.66c133.24-101.12,274.46,121.79,443.02,3.87,150.07-104.98-59.15-369.45,191.24-438.64,263.18-72.72,478.79,516.2,699.62,434.77,267.96-98.81,534.51,101.77,304.16,831.96l-1560.38-1.3Z"/><path class="k" d="M321.64,1516.56c-4.65-13.5-9.25-27.5-13.67-41.59l10.9-3.07c4.39,14,8.97,27.9,13.58,41.32l-10.81,3.35Zm1950.21-17.44l-11.29-1.32c1.87-14.38,3.65-28.85,5.29-43.03l11.31,1.17c-1.64,14.23-3.43,28.75-5.31,43.18Zm-1976.44-66.04c-3.98-13.93-7.84-28.11-11.47-42.17l11.05-2.57c3.61,13.97,7.45,28.07,11.41,41.91l-10.98,2.82Zm1986.4-20.39l-11.32-1.01c1.44-14.43,2.77-28.95,3.96-43.15l11.34,.85c-1.19,14.25-2.53,28.83-3.98,43.31Zm-2008.27-64.19c-3.28-14.19-6.41-28.54-9.29-42.64l11.17-2.05c2.86,14.02,5.97,28.28,9.23,42.38l-11.11,2.31Zm2015.51-22.5l-11.35-.68c.96-14.42,1.81-28.97,2.51-43.24l11.36,.5c-.7,14.33-1.55,28.94-2.52,43.42Zm-2032.95-63c-2.53-14.36-4.87-28.85-6.96-43.05l11.26-1.49c2.07,14.11,4.4,28.49,6.91,42.76l-11.22,1.77Zm2037.2-23.88l-11.37-.31c.44-14.49,.75-29.05,.91-43.29l11.37,.11c-.16,14.3-.47,28.93-.91,43.49Zm-2049.87-62.4c-1.7-14.51-3.17-29.1-4.39-43.37l11.34-.87c1.21,14.16,2.67,28.65,4.35,43.05l-11.3,1.19Zm2039.46-24.5c-.13-14.5-.42-29.06-.86-43.28l11.37-.32c.44,14.29,.73,28.92,.87,43.5l-11.37,.09Zm-2046.83-62.35c-.75-14.59-1.25-29.24-1.49-43.55l11.37-.17c.23,14.18,.73,28.71,1.47,43.19l-11.36,.53Zm2044.13-24.16c-.78-14.48-1.74-29.01-2.85-43.18l11.34-.8c1.12,14.26,2.08,28.87,2.87,43.43l-11.36,.55Zm-2034.14-62.75l-11.37-.22c.32-14.63,.93-29.29,1.82-43.56l11.35,.63c-.88,14.13-1.49,28.65-1.8,43.15Zm2027.34-23.52c-1.52-14.48-3.24-28.93-5.11-42.98l11.28-1.35c1.89,14.13,3.62,28.69,5.15,43.26l-11.32,1.07Zm-2021.94-62.66l-11.32-1.08c1.55-14.58,3.43-29.15,5.6-43.3l11.26,1.55c-2.15,14-4.01,28.41-5.54,42.83Zm2010.46-23.13c-2.37-14.39-4.96-28.72-7.72-42.59l11.18-1.99c2.78,13.99,5.4,28.43,7.78,42.93l-11.24,1.66Zm-1345.07-1.52c-15.8-2.36-27.23-9.18-43.07-20.95l7.19-8.35c13.87,10.29,23.89,16.46,37.09,18.59l-1.21,10.72Zm39.46-25.65l-10.13-4.9c5.21-9.66,9.81-23.07,13.68-39.85l11.11,2.3c-4.14,17.93-8.93,31.82-14.66,42.45Zm-115.91-26.22c-9.06-9.56-18.74-20.57-29.6-33.65l8.94-6.67c10.7,12.89,20.23,23.72,29.12,33.11l-8.46,7.2Zm-575.81-8.84l-11.17-2.05c2.95-14.39,6.28-28.73,9.91-42.64l11.04,2.59c-3.58,13.73-6.88,27.9-9.78,42.1Zm1980.41-22.68c-3.37-14.24-7-28.35-10.8-41.95l11-2.76c3.83,13.73,7.5,27.98,10.9,42.35l-11.1,2.36Zm-1266.39-28.09l-11.28-1.38c1.75-12.87,3.31-26.96,4.79-43.07l11.33,.93c-1.49,16.27-3.07,30.5-4.84,43.52Zm-195.67-8.76c-9.24-11.83-18.83-24.34-27.1-35.14l9.21-6.33c8.25,10.77,17.82,23.26,27.03,35.05l-9.14,6.41Zm832.65-.89c-8.86,0-17.55-2.51-25.83-7.45l6.06-9.12c12.44,7.44,24.68,7.46,37.89,1.52l4.89,9.73c-7.81,3.53-15.56,5.32-23.02,5.32Zm-1329.12-23.23l-10.88-3.15c4.52-14.01,9.48-27.93,14.74-41.4l10.67,3.74c-5.18,13.27-10.07,27-14.53,40.81Zm1389.33-10.28l-8.36-7.31c8.62-8.85,17.87-19.77,28.26-33.38l9.21,6.32c-10.66,13.96-20.19,25.2-29.12,34.37Zm-118.38-7.41c-7.36-10.76-14.65-23.43-22.3-38.74l10.28-4.61c7.43,14.87,14.48,27.14,21.56,37.49l-9.54,5.86Zm664.21-4.77c-4.58-13.97-9.47-27.71-14.53-40.86l10.68-3.69c5.12,13.31,10.07,27.23,14.71,41.36l-10.86,3.2Zm-1492.75-23.71c-10.41-13.48-19.08-24.54-27.29-34.82l9.07-6.51c8.25,10.33,16.96,21.44,27.4,34.96l-9.18,6.37Zm257.98-8.01l-11.35-.7c.86-12.63,1.74-26.82,2.68-43.39l11.36,.58c-.94,16.61-1.82,30.84-2.69,43.51Zm-668.83-26.54l-10.4-4.35c6.24-13.4,12.9-26.56,19.97-39.43l10.08,4.98c-6.96,12.66-13.5,25.61-19.65,38.8Zm1412.93,0l-9.5-5.92c8.08-11.65,16.43-23.98,24.88-36.45l9.57,5.83c-8.47,12.5-16.83,24.85-24.95,36.54Zm-214.16-15.94c-5.15-12.25-10.47-25.61-16.27-40.85l10.7-3.66c5.76,15.13,11.04,28.38,16.14,40.51l-10.56,3.99Zm673.56-6.72c-6.11-13.5-12.58-26.61-19.22-38.97l10.14-4.89c6.75,12.57,13.33,25.9,19.54,39.61l-10.45,4.25Zm-1516.86-11.76c-10.32-12.14-19.93-22.95-29.37-33.03l8.51-7.15c9.56,10.22,19.28,21.15,29.72,33.43l-8.86,6.76Zm318.41-26.03l-11.36-.54c.77-14.4,1.53-28.81,2.34-43.47l11.36,.57c-.81,14.65-1.57,29.05-2.34,43.45Zm788.93-12.5l-9.49-5.94c9.5-13.63,18-25.42,25.98-36.04l9.26,6.25c-7.9,10.52-16.33,22.21-25.76,35.73Zm-1420.61-3.04l-9.59-5.8c8.94-13.27,18.15-25.25,27.39-35.61l8.69,6.96c-8.91,10-17.82,21.59-26.49,34.46Zm1125.11-21.93c-5.22-14.49-10.33-28.98-14.65-41.25l10.79-3.41c4.31,12.25,9.42,26.72,14.63,41.18l-10.76,3.48Zm-872.47-.75c-11.62-10.73-23.05-20.2-33.97-28.16l6.94-8.54c11.27,8.22,23.03,17.97,34.97,28.98l-7.93,7.72Zm1536.19-.46c-8.15-12.6-16.69-24.52-25.4-35.43l9.07-6.5c8.93,11.19,17.68,23.4,26.02,36.3l-9.7,5.63Zm-1730.43-40.64l-6.9-8.57c13.58-9.82,27.72-16.9,42.01-21.05l3.33,10.31c-13,3.77-25.94,10.27-38.44,19.31Zm1415.41-3.3l-8.84-6.79c10.67-12.47,20.77-23.21,30.9-32.81l8.05,7.62c-9.84,9.34-19.69,19.8-30.11,31.98Zm-837.23-4.24l-11.35-.64c.98-15.67,1.96-29.9,2.99-43.5l11.34,.77c-1.02,13.56-2,27.75-2.98,43.37Zm-455.5-2.26c-14.19-6.69-28.15-10.97-41.49-12.7l1.54-10.68c14.57,1.89,29.71,6.51,45.01,13.73l-5.07,9.65Zm1553.11-17.42c-10.95-10.63-22.29-20.02-33.69-27.89l6.7-8.71c11.92,8.23,23.74,18.01,35.14,29.08l-8.14,7.53Zm-638.22-13.43c-5.66-16.04-10.32-29.11-14.67-41.15l10.76-3.49c4.36,12.07,9.03,25.17,14.7,41.23l-10.79,3.42Zm441.99-22.15l-6.52-8.83c13.99-9.27,28.11-16.14,41.99-20.41l3.51,10.25c-12.8,3.94-25.92,10.33-38.98,18.99Zm124.09-13.21c-14.09-5.63-28.34-9.12-42.38-10.36l1.06-10.73c15.19,1.35,30.58,5.1,45.74,11.16l-4.42,9.93Zm-1018.85-18.18l-11.33-.95c1.42-15.12,2.96-29.73,4.58-43.41l11.3,1.21c-1.61,13.6-3.15,28.12-4.56,43.16Zm422.96-28.61c-5.5-14.54-10.67-27.83-15.83-40.63l10.62-3.85c5.19,12.87,10.39,26.23,15.91,40.84l-10.71,3.64Zm-412.62-57.53l-11.26-1.54c2.3-15.09,4.83-29.61,7.52-43.14l11.18,1.99c-2.66,13.38-5.16,27.74-7.44,42.69Zm379.89-23.34c-6.11-13.93-12.27-27.26-18.31-39.62l10.32-4.53c6.1,12.49,12.32,25.95,18.49,40.01l-10.5,4.14Zm-362.79-61.52l-11.03-2.61c3.97-15.05,8.34-29.23,13-42.14l10.76,3.49c-4.55,12.62-8.84,26.51-12.72,41.27Zm324.29-16.78c-7.48-13.35-15.12-25.89-22.71-37.26l9.61-5.76c7.74,11.6,15.53,24.37,23.15,37.96l-10.05,5.06Zm-294.48-63.98l-10.2-4.77c7.47-14.34,15.75-27.02,24.61-37.69l8.93,6.67c-8.38,10.08-16.23,22.12-23.35,35.79Zm245.7-8.24c-9.94-11.81-20.19-22.27-30.49-31.09l7.63-7.99c10.75,9.21,21.43,20.1,31.75,32.36l-8.89,6.72Zm-190.62-55.49l-6.13-9.08c13.47-8.17,28.32-13.49,44.12-15.79l1.73,10.65c-14.23,2.08-27.59,6.86-39.72,14.22Zm124.25,0c-13.25-6.77-27.05-11.4-41.02-13.75l1.99-10.61c15.16,2.56,30.11,7.57,44.42,14.88l-5.4,9.49Z"/><path class="k" d="M2260.34,1482.27c-86.83-5.66-72.66,45.49-196.42,45.49-113.16,0-110.05-114.63-185.77-139-139.45-44.87-254.41,182.21-308.48,68.24-102.68-302.39-402.16-454.04-540.32,0-54.06,113.96-180.49-89.39-308.48-68.24-78.78,13.01-72.61,139-185.77,139-123.76,0-109.6-51.15-196.42-45.49-93.48,6.1-121.4,96.63-121.4,96.63H2381.75s-27.92-90.53-121.4-96.63Z"/></g><g id="d"><polygon class="ab" points="1482.95 1100.75 1476.45 1186.58 1006.88 1186.58 1006.47 1424.89 432.89 1425.29 431.23 1642.85 458.63 1670.25 2125.14 1670.25 2125.14 1120 2099.4 1094.26 1482.95 1100.75"/><polygon class="n" points="407.16 1399.56 458.63 1451.03 458.63 1670.25 407.16 1618.77 407.16 1399.56"/><polygon class="n" points="981.14 1160.84 1032.61 1212.31 1032.61 1451.03 981.14 1399.56 981.14 1160.84"/><polygon class="n" points="1450.72 1068.52 1502.19 1120 1502.19 1212.31 1450.72 1160.84 1450.72 1068.52"/><polygon class="w" points="2073.67 1068.52 2125.14 1120 1502.19 1120 1450.72 1068.52 2073.67 1068.52"/><polygon class="w" points="981.14 1160.84 1032.61 1212.31 1502.19 1212.31 1450.72 1160.84 981.14 1160.84"/><polygon class="w" points="407.16 1399.56 458.63 1451.03 1032.61 1451.03 981.14 1399.56 407.16 1399.56"/></g><g id="e"><path class="o" d="M1562.04,632.59c2.24,3.44-4.4,7.48-6.13,10.36,6.28-.04,11.89-1.34,11.92-1.32,6.95-3.51,13.69-7.38,20.26-11.56,11.61-.09,8.08,26.38-15.28,33.86-8.4,2.69-16.59,6.03-30.33,3.91-4.5-.7-5.76-13.38-3-16.9,4.83-3.78,19.22-21.58,22.56-18.35Z"/><path class="t" d="M1041.09,767.19c1.51,3.81,8.88,.15,12.44,1.29-3.66,5.1-8.42,8.63-8.42,8.67-6.88,3.64-13.94,6.89-21.16,9.83-6.79,9.42,16.84,21.86,36.46,7.13,7.06-5.3,14.52-10.04,20.74-22.47,2.04-4.07-4.33-13.03-8.81-13.03-7,0-31.95,3.99-31.26,8.58Z"/><path class="o" d="M1349.33,635.42c32.36,15.09,66,32.36,102.13,34.65,21.12-.34,42.35-5.44,62.66-11.49,8.44-2.54,16.9-5.4,25.2-8.39,11.42-4.44,19.89,12.38,9.67,18.93-28.29,19.29-60.65,34.08-94.81,38.86-25.01,2.48-49.42-3.17-72.88-10.3-18.27-5.77-35.95-12.76-53.03-21.35-27.08-14.16-6.31-54.74,21.06-40.91Z"/><path class="p" d="M1546.31,670.93s-2.56,2.21-7.16,5.68c-16.47,12.36-59.16,40.6-104.79,40.13-22.08-.22-41.64-2.63-57.42-5.55-2.36-.44-4.62-.88-6.81-1.34-4.35-.9-8.35-1.82-11.97-2.72-3.2-.79-6.08-1.56-8.66-2.3-9.16-2.59-14.25-4.58-14.25-4.58,9.48-42.62,2.99-67.99-2.74-80.55-2.99-6.55-5.77-9.62-5.95-9.81h0l.08,.02s.08,.03,.12,.06c.69,.27,3.08,1.24,6.79,2.81,10.84,4.6,32.94,14.39,56.98,27.39,25.37,13.72,64.1,32.55,137.78,13.26,2.68-.69,5.4-1.43,8.19-2.21,0,0-1.48,11.49,9.8,19.73Z"/><path class="o" d="M1550.91,1091.73l-65.16,2.35c-2.98,.11-5.41-2.3-5.37-5.28,.02-1.44,.13-3.14,.39-5.07,.75-5.46,.94-10.98,.64-16.48-.14-2.63-.39-5.26-.76-7.88l-6.34-45.54c-.42-3.04,1.88-5.78,4.95-5.89l28.76-1.04c3.12-.11,5.63,2.53,5.35,5.63l-3.73,41.84c-.82,9.15,5.37,17.44,14.37,19.34,6.42,1.35,12.91,2.07,17.57,3.09,.6,.14,1.2,.27,1.78,.42h0c4.95,1.22,9.06,2.9,11.53,6.25,2.47,3.36,.18,8.1-3.99,8.25Z"/><path class="u" d="M1478.42,1087.59c.29,3.19,2.01,6.77,5.7,6.56l67.59-2.44c3.49-.12,5.84-3.71,4.49-6.92-2.89-7.27-12.61-17.92-44.61-18.57-4.57,.61-14.97,2.55-30.18,1.05,0,0-4.9,8.34-2.99,20.33Z"/><path class="h" d="M1556.2,1084.78l-77.78,2.81c.37,2.36,1.11,4.64,2.38,6.68l70.92-2.56c3.44-.12,5.79-3.6,4.53-6.81l-.05-.11Z"/><path class="j" d="M1534.79,1035.97c.34,8.81,.38,14.03,.38,14.03,0,0-32.44,14.17-65.86,5.18-2.5-.66-4.99-1.46-7.49-2.41-.93-3.75-1.82-8-2.69-12.64-7.39-39.37-13.53-106.14-36.56-123.68-23.89-17.15-68.13-14.81-95.45-16.12-.77-.04-1.52-.07-2.26-.12-40.94-2.38-72.98-31.85-98.41-76.93-3.75-6.64,43.95-12.93,43.95-12.93l110.3-9.2c28.39,7.08,78.52,17.22,110.82,52.24,34.57,37.48,41.77,144.13,43.27,182.57Z"/><path class="ac" d="M1469.31,1055.18h0c-2.5-.66-4.99-1.46-7.49-2.41-8.88-35.62-13.51-116.71-39.25-136.32-23.89-17.15-68.13-14.81-95.45-16.12l8.89-19.28s74.99,.86,99.93,34.15c24.95,33.29,33.38,139.96,33.38,139.96Z"/><path class="o" d="M1317.9,1203.73l-64.8-7.27c-2.96-.33-5.01-3.07-4.54-6.01,.23-1.42,.59-3.08,1.14-4.96,1.54-5.29,2.55-10.72,3.06-16.2,.25-2.63,.83-29.02,.85-31.67,0,0,33.4-3.34,32.67-.32l-2.39,35.59c3.02,8.03,1.43,5.86,10.06,9.06,6.15,2.28,12.46,3.94,16.92,5.64,.57,.22,1.15,.45,1.7,.68h0c4.71,1.94,8.54,4.21,10.48,7.88,1.95,3.68-1.02,8.04-5.16,7.58Z"/><path class="u" d="M1246.81,1188.96c-.18,3.19,.99,6.99,4.68,7.32l67.21,7.54c3.47,.39,6.33-2.81,5.46-6.19-1.79-7.62-9.83-19.58-41.39-24.93-4.61-.07-15.18,.32-30.01-3.41,0,0-6.07,7.53-5.95,19.67Z"/><path class="h" d="M1324.16,1197.64l-77.35-8.67c.02,2.39,.42,4.75,1.37,6.95l70.52,7.91c3.43,.38,6.26-2.71,5.48-6.07l-.03-.12Z"/><path class="o" d="M1326.53,609.85c3.05-13.72,2.97-34.03,1.89-42.43-1.8-16.63-28.27-13.03-25.65,3.4,.89-.44,.47,29.31-2.23,37.29-16.15,3.05,26.65,30.03,38.94,24.36,7.75-3.58-12.96-22.61-12.96-22.61Z"/><path class="t" d="M1302.67,569.44c.01,.19,.01,.39,.03,.58,.02,.27,.04,.53,.08,.79,.64-.33,.62,16.1-.6,27.9,10.57,6.2,23.18,5.28,25.5,5.05,1.8-12.42,1.47-28.09,1.07-33.98-.16-1.39-.29-2.2-.31-2.37-.05-.38-.12-.75-.2-1.11-.85-3.83-3.36-6.93-6.66-8.65h0c-2.29-1.19-4.94-1.7-7.69-1.34-2.72,.37-5.12,1.55-7,3.27-.08,.07-.16,.14-.23,.21-2.55,2.45-4.08,5.92-3.97,9.65Z"/><path class="a`" d="M1285.29,546.82s.23-13.97,4.59-23.61l7.99,3.91-12.58,19.69Z"/><path class="j" d="M1336.47,801.39c2.66,69.57-5.03,167.2-10.63,212.67-5.48,44.44-14.95,103.59-19.26,129.95h0c-1.4,8.58-2.26,13.68-2.26,13.68,0,0-33.7,16.1-65.7-4.03,0,0,.17-5.06,.39-13.6,.71-27.28,1.86-90.06-.72-136.87-2.51-45.67-33.26-124.36-11.84-179.89l110.03-21.9Z"/><path class="o" d="M1285.08,587.69c12.46,12.14,32.01,13.96,46.11,5.9h0c1.05-.65,2.04-1.36,2.99-2.15h.01c44.57-44.91-16.03-118.37-43.64-54.23-9.33,18.06-25.59,27.75-5.48,50.48Z"/><path class="af" d="M1304.27,551.29c-.45-.88-.1-1.95,.78-2.4,.88-.45,1.96-.1,2.41,.78,.45,.88,.1,1.95-.78,2.4-.88,.45-1.96,.1-2.41-.78Z"/><path class="af" d="M1289.23,548.78c-.45-.88-.1-1.96,.78-2.4s1.96-.1,2.41,.78c.45,.88,.1,1.95-.78,2.4-.88,.45-1.96,.1-2.41-.78Z"/><path class="af" d="M1293.91,564.25c1.05,.12,2.12,.06,3.02-.23,.36-.11,.55-.5,.44-.85-.11-.36-.5-.55-.85-.44-2.27,.73-5.48-.4-5.93-1.43-.15-.36,.33-.72,.77-.95,3.83-2.08,6.4-9.34,6.51-9.65,.12-.35-.06-.74-.42-.86-.37-.13-.74,.06-.86,.42-.02,.07-2.5,7.07-5.87,8.9-1.84,1-1.57,2.2-1.36,2.68,.53,1.23,2.51,2.17,4.56,2.41Z"/><path class="t" d="M1292.63,532.78c9.7-5.12,27.29-.47,35.92-.54,0,0-1.83,14.77,13.08,25.28,1.27,13.58,3.5,19.5-10.44,36.07h0c1.05-.65,2.04-1.36,2.99-2.15h.01c42.92-42.83-13.04-115.87-41.57-58.66Z"/><path class="a`" d="M1285.28,503.36c5.56-10.98,22.07-16.95,36.33-3.39,10.98,10.44,22.83,10.36,22.6,21.36,22.02,9.99,11.11,34.24,11.11,34.24l-11.04-1.3c-12.61-10.2-12.24-25.19-12.24-25.19h0c-2.81,.14-5.77,.02-8.39-.65-8.12-2.07-20.14-3.07-29.3,.31-9.16,3.38-15.29-13.1-9.07-25.37Z"/><path class="o" d="M1356.89,564.47c-1.19,5.67-5.86,9.48-10.42,8.53-4.57-.96-7.3-6.33-6.11-12,1.19-5.67,5.86-9.48,10.42-8.53,4.57,.96,7.3,6.33,6.11,12Z"/><path class="af" d="M1346.06,556.97c.18-.07,4.36-1.69,6.71,.49,.6,.55,1,1.3,1.23,2.22h0c.02,.09,.05,.17,.07,.26h0c.34,1.71,.08,3.99-.78,6.83-.1,.32-.41,.51-.73,.48-.04,0-.08-.01-.12-.02-.36-.11-.56-.49-.45-.84,.7-2.3,.97-4.18,.83-5.59-3.9,.7-5.86,5.07-5.87,5.12-.12,.28-.41,.44-.7,.41-.06,0-.12-.03-.19-.05-.34-.14-.5-.54-.36-.89,.09-.22,2.22-5.1,6.8-5.95-.16-.38-.37-.72-.64-.97-1.73-1.6-5.27-.24-5.3-.23-.35,.13-.74-.04-.88-.38-.14-.35,.04-.74,.38-.88Z"/><path class="p" d="M1380.69,801.17s-42.36,40.82-154.25,22.12c0,0,1.49-40.91,3.27-80.53,.15-3.41,.31-6.79,.46-10.16v-.02c1.43-30.87,2.98-58.68,4.04-62.64,10.65-39.83,43.91-54.92,58.88-59.81,4.58-1.49,7.45-2.03,7.45-2.03,0,9.87,17.09,16.34,22.99,12.06,4.92-3.56,3.12-9.94,3.02-10.3h0l.08,.02s.08,.03,.12,.06c2.37,1.02,4.62,2.19,6.79,3.51,15.1,9.27,25.04,26,30.5,49.99,1.94,8.5,3.31,17.91,4.15,28.23,.15,1.79,.28,3.62,.39,5.47,.24,3.87,.78,8.12,1.53,12.63,0,.04,0,.06,0,.06,4.64,28.35,17,67.41,10.57,91.33Z"/><path class="af" d="M1313.46,548.8c.14,.02,.29,0,.43-.07,.39-.19,.56-.66,.37-1.06-.12-.24-2.9-5.93-10.23-7.18-.43-.07-.84,.22-.92,.65-.07,.43,.22,.84,.65,.92,6.5,1.11,8.97,6.09,9.07,6.3,.12,.26,.37,.42,.63,.44Z"/><path class="af" d="M1288.64,543.17c.24,.03,.5-.06,.68-.26,2.04-2.25,6.39-2.04,6.44-2.04,.44,.02,.81-.31,.84-.75,.02-.44-.31-.82-.75-.84-.21-.01-5.14-.25-7.7,2.56-.3,.32-.27,.83,.05,1.12,.13,.12,.28,.18,.44,.2Z"/><path class="t" d="M1224.72,664.31c-25.27,25.45-50.68,40.93-73.68,54.86-18.07,10.94-36.26,22.56-55.82,30.71-8.14,3.37-16.51,6.5-24.83,9.43-11.66,3.78-7.59,22.17,4.47,20.78,34.11-2.94,70.22-10.2,99.52-28.41,23.53-14.62,52.33-30.04,69.45-47.58,16.1-16.49,31.7-42.88,39.51-60.33,12.03-28.09-33.88-16.97-58.64,20.55Z"/><path class="p" d="M1300.54,608.11s-.88,3.76-3.03,10.47c-5.07,15.77-17.22,47.84-41.7,85.78-6.84,10.6-15.59,20-25.64,28.23-38.77,31.78-96.96,46.39-139.98,46.92-2.74,.03-5.48,0-8.21-.12,0,0,3.02-13.79-5.88-22.13,0,0,2.49-1.22,6.57-3.31,14.72-7.58,50.21-26.57,65.09-41.29,18.39-18.2,68.12-99.57,144.85-104.32,.47-.03,.94-.06,1.42-.09,2.14-.11,4.32-.15,6.5-.14Z"/><path class="ac" d="M1534.79,1035.97c.34,8.81,.38,14.03,.38,14.03,0,0-32.44,14.17-65.86,5.18-2.5-.66-4.99-1.46-7.49-2.41-.93-3.75-1.82-8-2.69-12.64,0,0,38.3,10.36,75.65-4.16h0Z"/><path class="ac" d="M1306.57,1144.01c-1.4,8.58-2.26,13.68-2.26,13.68,0,0-33.7,16.1-65.7-4.03,0,0,.17-5.06,.39-13.6,0,0,23.48,17.21,67.57,3.96Z"/><path class="m" d="M1082.68,753.95c-4.09,2.1-6.58,3.31-6.58,3.31,8.9,8.34,5.88,22.12,5.88,22.12,2.73,.12,5.47,.16,8.22,.12,.04-.31,2.06-17.46-7.52-25.56Z"/><path class="m" d="M1546.31,670.93s-2.56,2.22-7.17,5.67h0c-13.18-9.85-10.85-22.87-10.85-22.87l.03-.32c2.67-.7,5.4-1.43,8.19-2.22,0,0-1.47,11.49,9.8,19.74Z"/><path class="af" d="M1293.83,571.6c-1.85,0-3.14-.34-3.17-.35-.34-.09-.54-.45-.45-.79,.09-.34,.44-.54,.79-.45,.34,.09,8.37,2.17,12.52-5.24,.17-.31,.57-.42,.88-.25,.31,.17,.42,.57,.25,.88-2.93,5.23-7.67,6.2-10.81,6.2Z"/><path class="m" d="M1271.66,677.7c-.57,1.36-18,42.08-41.94,65.07,.15-3.41,.31-6.79,.46-10.16,0,0,0-.02,0-.02,0,0,24.98-26.23,41.47-54.89Z"/><path class="m" d="M1376.93,711.18c-2.36-.44-4.62-.88-6.81-1.34,0,0,0-.02,0-.06-.05-.71-.63-7.63-1.92-18.06v-.04c-.97-7.81-2.33-17.59-4.15-28.21v-.02l-.03-.15s6.18,20.44,12.92,47.88Z"/><path class="m" d="M1333.55,612.76c0,.23,0,.46,0,.7-.03,2-.29,4.18-1.03,6.23-1.67,4.69-5.78,8.71-15.07,8.33-10.23-.41-16.34-4.87-19.93-9.45-2.53-3.22-3.82-6.48-4.42-8.43-.33-1.05-.45-1.72-.47-1.81h0l1.42-.09c2.14-.11,4.32-.15,6.5-.14,0,9.87,17.09,16.34,22.99,12.06,4.92-3.56,3.12-9.94,3.02-10.3,0,0,0,0,0,0l.08,.03c.48,.2,2.94,1.18,6.91,2.87Z"/></g><g id="f"><path class="o" d="M1053.94,767.92s-18.14-1.08-29.2,8.09c-11.06,9.17-18.27,24.45-18.27,24.45,0,0,12.46,2.66,13.58,8.85,0,0,14.56-12.14,19.63-20.32,5.07-8.17,14.26-21.07,14.26-21.07Z"/><path class="y" d="M816.35,758.35s-27.22-27.26-64.66,15.17c-37.44,42.43-14.07,42.37-73.05,64-49.06,17.99-63.52,73.05,1.36,89.1,62.03,15.35,101.48-34.38,138.6-31.84,37.12,2.55,41.64-76.95,29.82-97-11.82-20.05-32.07-39.43-32.07-39.43Z"/><path class="o" d="M831.2,924.82c39.32,4.32,81.33-.68,115.7-21.74,37.51-25.16,68.6-61.94,82.61-105.21,1.94-5.62-3.89-11.4-9.47-9.49-.18,.21-7.76,2.11-7.74,2.56-2.42,3.52-4.98,6.94-7.66,10.28-34.59,42.27-84.46,77.18-141.35,72.82-8.49-.17-17.01-.82-25.42-1.9-34.52-3.71-41.13,47.61-6.68,52.68Z"/><path class="ag" d="M943.05,904.81s-.18,3.77-2.45,8h0c-8.59,13.4-41.8,21.05-72.62,20.74-3.25-.03-6.47-.15-9.63-.35-4.08-.27-8.06-.69-11.87-1.28-1.94-14.95-13.56-51.18-15.47-66.01,10.45-1.25,28.48,2.81,46,4.04,17.91,2.62,32.47-10.64,44.53-4.62,0,0-1.19,28.35,21.52,39.48Z"/><path class="o" d="M578.5,1248.1s20.69-3.1,37.48-7.87l6.08,36.8-39.18-1.98s-12.49-9.96-4.37-26.95Z"/><path class="o" d="M793.13,1398.98l3.25-24.07,32.3,.3s-4.26,10.52-8.25,24.07c0,0-13.95,11.82-27.29-.3Z"/><path class="y" d="M816.42,758.74c35.82-10.62,34.76,48.41,31.27,59.99l-31.27-59.99Z"/><path class="j" d="M559.41,1247.7c-2.13,.62-4.15,1.56-5.88,2.96l10.55,65c.51,3.16,3.99,4.94,6.8,3.41,.03-.02,.07-.04,.1-.06,6.42-3.53,15.21-13.85,11.89-43.97,0,0-4.69-9.7-4.37-26.95,0,0-10.44-2.91-19.09-.4Z"/><path class="ad" d="M570.98,1319.01l-11.57-71.31c-2.13,.62-4.15,1.56-5.88,2.96l10.55,65c.51,3.16,3.99,4.94,6.8,3.41l.1-.06Z"/><path class="j" d="M789.47,1417.72c.24,2.21,.83,4.36,1.91,6.3l65.82,.72c3.2,.04,5.55-3.09,4.52-6.12l-.04-.11c-2.38-6.94-11.04-17.36-41.27-19.24,0,0-10.36,2.96-27.29-.3,0,0-4.65,9.79-3.66,18.74Z"/><path class="ad" d="M861.69,1418.51l-72.22-.79c.24,2.21,.83,4.36,1.91,6.3l65.82,.72c3.2,.04,5.55-3.09,4.52-6.12l-.04-.11Z"/><path class="ae" d="M598.91,1280.49c3.03,.63,6.41,1.19,10.09,1.66,0,0,.01,0,.02,.01,46.82,6.02,142.71-1.43,177.1-38.33h0c4.69-4.91,9.04-10.04,13.04-15.34,30.35-40.18,41.69-91.28,45.47-142.37,1.32-17.7,1.72-35.39,1.7-52.64-6.66-39.1-42.58-50.54-70.9-40.98-22.19,7.47-39.72,27.84-34.86,57.87v-.12c8.51,24.34,10.23,46.98,6.43,67.61-11.03,59.78-68.48,102.55-141.69,119.81-3.96,.93-7.96,1.79-12,2.57,0,0-4.91,22.9,5.59,40.27Z"/><path class="v" d="M789.48,1022.58l51.56,83.77,1.76-.97c.8-6.9,1.45-13.95,1.95-21.16,.35-4.75,.62-9.58,.85-14.48,.49-10.52,.72-21.34,.74-32.47l-17.66-4.97-39.19-9.72Z"/><path class="v" d="M779.22,1250.21s13.27-11.16,19.93-21.72c18.86-29.87,19.84-32.19,30.32-66.68l-12.12-66.92-70.68-4.49c.57,14.45,3.08,20.74-2.98,40.76,0,0,37.14,31.72,35.52,119.05Z"/><path class="ae" d="M727.6,1096.11c6.53,7.65,13.48,14.44,19.4,21.73,29.01,35.7,45.18,72.52,52.15,110.64,8.13,44.32,3.83,90.39-7.12,138.51-.86,3.78-1.76,7.55-2.7,11.35,0,0,26.85,9,41.81,2.32,1.59-3.36,3.14-6.69,4.65-10h0c44.7-97.65,57.89-173.75,8.83-284.55-9.65-21.8-21.7-44.94-36.41-69.87-10.31-12.61-21.63-20.22-32.78-23.76-46.7-14.83-93.84,49.7-47.83,103.62Z"/><path class="ag" d="M845.84,1027.52c.49,6.77,.49,10.05,.49,10.05-86.98,17.47-134.4-6.92-134.4-6.92-.52,.18-.46-2.9,.07-8.26,1.07-10.75,4.03-30.66,8.02-51.78,.71-3.76,1.46-7.55,2.23-11.35,5.4-26.55,12.17-52.76,18.63-63.2,13.05-36.73,57.62-42.86,85.88-31.25,4.41,1.62,26,39.47,30.53,54.19,7.64,24.85-18.47,43.66-15.22,75.05,2.19,15.25,3.26,26.31,3.77,33.48Z"/><path class="aa" d="M794.36,865.6c1.16,1.12,2.06,2.1,1.05,3.83-1.78,3.07-.19,10.92,4.14,12.45,.97,.35,2.1,.37,3.36-.06,6.8-2.33,7.01,.64,12.22,6.15,5.2,5.53,10.52,2.56,12.54-2.12,2.02-4.67,6.48-1.7,7.74-7.22,.31-1.36,.26-2.67,0-3.88-.66-3.19-4.39-8.84-4.39-8.84,0,0-3.93-1.24-4.26-1.1-10.42-5.89-22.94-6.95-34.76-5.15h-.01c-.62,3.16,1.05,4.65,2.38,5.95Z"/><path class="o" d="M829.3,846l-2.61,18.82s5.61,13.8-6.68,12.74c-17.5-1.5-20.79-18.65-20.79-18.65l2.76-15.24,27.32,2.32Z"/><path class="t" d="M801.98,843.68l-1.23,6.82c10.96,6.65,24.68,6.16,27.1,5.96l1.45-10.45-27.32-2.32Z"/><path class="o" d="M849.83,839.05c-9.24,10.43-24.15,14.02-36.33,12.04-5.06-.74-9.85-2.53-13.91-5.57h-.01c-16.57-13.75-22.85-42.83-14.44-61.95,12.17-28.04,47.07-25.44,56.36,3.84,1.8,4.4,5.03,9.18,8.94,12.67,10.35,9.42,11.16,24.99-.6,38.97Z"/><path class="l" d="M841.32,823.55l-16.33-7.33s-.51,8.73,5.91,10.77c6.13,1.95,10.42-3.44,10.42-3.44Z"/><path class="t" d="M790.42,823.83s1.45,11.77,12.01,23.55c-.99-.56-1.93-1.18-2.84-1.86h-.01c-16.57-13.75-22.85-42.83-14.44-61.95,6.19-16.41,26.66-26.27,43.15-14.7,0,0,8.42,24.8-36.5,46.41l-1.36,8.55Z"/><path class="af" d="M828.16,802.61c.41-.93,0-2.02-.93-2.43-.93-.41-2.02,0-2.43,.93-.41,.93,0,2.02,.93,2.43,.93,.41,2.02,0,2.43-.93Z"/><path class="y" d="M823.55,765.69s7.17,26.14-33.39,45.4l-10.18,6.21s-8.95-17.6-1.95-38.32c7.01-20.72,39.77-28.87,45.52-13.29Z"/><path class="af" d="M843.48,799.23c.41-.93,0-2.02-.93-2.43-.93-.41-2.02,0-2.43,.93-.41,.93,0,2.02,.93,2.43,.93,.41,2.02,0,2.43-.93Z"/><path class="af" d="M841.44,824.24c-.13,.02-.27,0-.4-.05l-16.33-7.33c-.35-.16-.51-.57-.35-.92,.16-.35,.57-.51,.92-.35l16.33,7.33c.35,.16,.51,.57,.35,.92-.1,.22-.3,.36-.52,.4Z"/><path class="af" d="M839.51,815.4c-1.07,.18-2.17,.18-3.12-.07-.37-.1-.59-.48-.49-.85,.1-.37,.48-.59,.85-.49,2.37,.63,5.61-.71,6.01-1.79,.14-.38-.38-.72-.84-.94-4.05-1.94-7.07-9.27-7.2-9.58-.15-.36,.03-.76,.38-.91,.37-.15,.76,.03,.91,.38,.03,.07,2.95,7.14,6.51,8.85,1.94,.93,1.73,2.18,1.55,2.68-.48,1.3-2.46,2.36-4.56,2.72Z"/><path class="o" d="M774.81,818.97c1.53,5.77,6.53,9.45,11.17,8.22,4.64-1.23,7.16-6.9,5.63-12.67-1.53-5.77-6.53-9.45-11.17-8.22-4.64,1.23-7.16,6.9-5.63,12.67Z"/><path class="af" d="M785.54,810.68c-15.87-4.82-2.79,23.02-6.74,4.24,4.06,.5,6.29,4.94,6.31,4.99,3.48,1.71-.94-5.9-6.05-6.37,.91-4.07,8.87,.22,6.48-2.86Z"/><path class="r" d="M782.73,824.96c.04,.86,.78,1.53,1.64,1.48,.86-.04,1.53-.78,1.48-1.64-.04-.86-.78-1.53-1.64-1.48-.86,.04-1.53,.78-1.48,1.64Z"/><path class="o" d="M653.25,1090.87c-3.86,.42-3.36-8.78-5.67-11.46-3.23,5.33-4.95,11.64-4.99,11.65-.64,7.7-.87,15.41-.75,23.14-5.78,10.22-5.67-19.33-6.19-22.23-.04,0-.08-.01-.11-.02-2.34,7.74-4.26,15.63-5.51,23.62-8.26,9.17-.96-22.95-.59-25.99l-.05-.03c-3.44,6.91-6.03,14.24-7.81,21.75-9.14,8.5,.8-23.55,2.16-26.34l-.06-.07c-3.49,5.03-6.33,10.51-8.88,16.09-9.65,6.7,2.89-19.81,4.41-22.23,.21-2.19,6.13-14.61,13.01-24.69,2.55-3.73,17.63-3.07,19.18,1.1,1.45,3.9,3.02,16.89,3.25,18.93,1.09,3.9,2.55,14.28-1.4,16.77Z"/><path class="aa" d="M913.68,871.21c2.1,7.11-4.53,7.39-.79,14.6,3.74,7.21,10.87,3.77,13.37,16.91,2.46,12.95,13.98,10.17,14.33,10.07h.01c2.27-4.22,3.34-7.96,3.34-7.96-22.72-11.12-22.41-39.84-22.41-39.84-2.78-2.21-6.34-1.99-10.47-1.01,.84,2.08,1.89,4.71,2.63,7.22Z"/><path class="af" d="M819.39,798.24c.09-.02,.19-.05,.28-.09,5.7-2.97,8.93-8.12,9.07-8.33,.27-.44,.14-1.02-.3-1.29-.44-.27-1.02-.14-1.29,.3-.03,.05-3.1,4.93-8.34,7.66-.46,.24-.64,.8-.4,1.26,.19,.37,.6,.56,.99,.49Z"/><path class="af" d="M842.39,791.05c.43-.07,.76-.44,.78-.89,.02-.52-.39-.95-.91-.96-.04,0-3.73-.14-6.94-2.55-.41-.31-1-.22-1.31,.19-.31,.41-.23,1,.19,1.31,3.7,2.78,7.84,2.92,8.01,2.93,.06,0,.12,0,.18-.01Z"/><path class="v" d="M792.04,1366.99c-.86,3.78-1.76,7.55-2.7,11.35,0,0,26.34,9.51,41.81,2.32,1.59-3.36,3.14-6.69,4.65-10,0,0-13.28,7.36-43.76-3.67Z"/><path class="v" d="M598.91,1280.49c3.03,.63,6.41,1.19,10.09,1.66,0,0-9.16-14.97-3.69-44.5-3.96,.93-7.96,1.79-12,2.57,0,0-4.91,22.9,5.59,40.27Z"/><path class="o" d="M773.84,916.41c-51.27,24.05-73.35,51.35-99.13,100.37-8.15,15.07-15.75,30.62-22.47,46.4-4.82,12.03-23.9,5.62-20.52-6.84,9.28-37.68,23.93-73.62,42.92-107.56,18.6-31.27,47.04-55.82,78.64-73.25,27.46-14.05,48.27,27.16,20.56,40.88Z"/><path class="ag" d="M768.25,925.48c-17.53,4.38-32.37,27.53-43.69,35.42-3.92,2.73-7.54,4.48-10.6,5.6-5.77,2.11-9.53,1.98-9.53,1.98-6.57-18.4-27.84-22.9-27.84-22.9-3.44-3.4-5.05-7.46-5.13-12.02-.32-16.93,22.11-36.64,49.38-57.44,33.37-25.45,68.34-16.07,68.34-16.07,15.77,29.8-3.4,61.05-20.92,65.42Z"/><path class="aa" d="M784.2,906.72c-1.7,2.81-28.08,47.59-64.76,66.98,.71-3.76,1.31-7.04,2.08-10.84,0,0,39.48-22.4,62.68-56.14Z"/><path class="aa" d="M867.97,933.55c-3.25-.03-6.47-.15-9.63-.35-.7-19.29-9.18-32.94-9.45-33.36,10.17,11.19,16.09,25.04,19.08,33.71Z"/><path class="aa" d="M713.95,966.5c-5.77,2.11-9.53,1.98-9.53,1.98-6.57-18.4-27.84-22.9-27.84-22.9-3.44-3.4-5.05-7.46-5.13-12.02,6.45-.47,7.99,8.72,13.9,9.38,5.91,.65,8.98-2.02,13.58,1.06,4.6,3.1,2.19,10.11,5.91,14.27,3.72,4.16,9.07,1.2,9.11,8.23Z"/><path class="aa" d="M846.33,1037.56c-86.98,17.47-134.4-6.92-134.4-6.92-.52,.18-.46-2.9,.07-8.26,3.66-.66,8.3-.37,13,2.93,10.3,7.22,5.44,9.86,18.05,9.41,12.62-.44,7.8-5.47,15.68-2.19,7.88,3.29,8.98,9.2,16.43,7.45,7.45-1.75,6.36-4.81,11.94-3.94,5.59,.88,9.75,6.33,17.19,4.26,7.45-2.07,8.39-7.52,13.62-7.21,5.22,.32,9.82,4.92,14.42,4.04,4.04-.77,6.78-8.12,13.51-9.61,.49,6.77,.49,10.05,.49,10.05Z"/></g><g id="g"><path class="t" d="M1555.2,643.5s9.61-15.42,23.5-19.13c13.88-3.72,32.89-.39,32.89-.39,0,0-5.4,4.59-3.37,19.63,0,0-17.99,1.06-27.59,.46-9.6-.59-25.44-.56-25.44-.56Z"/><path class="x" d="M1747.54,418.05s-13.68-.32-21.2,14.26c-8.93,17.32,2.42,30.43-.97,42.08-3.39,11.65-9.23,19.93-4.64,31.61,4.58,11.67-3.01,18.97,.93,28.57,3.94,9.6,9.85,9.28,9.59,22.17-.26,12.89,11.04,23.87,21.44,16.22,10.4-7.64,16.16,9.11,32.77-1.34s17.3-22.76,36.57-26.23c19.28-3.47,11.63-30.24,27.97-40.2,16.34-9.96,14.93-25.64,1.25-36.33-13.67-10.68-22.55-13.33-32.5-39.09-11.2-28.99-52.97-41.53-71.21-11.72Z"/><path class="t" d="M1804.16,554.19c-13.89,37.7-36.57,78.98-77.45,92.06-38.98,9.45-79.17,5.17-117.84-2.61-14.18-.54-15.09-19.95-.55-19.85,34.75,1.57,71.3,1.58,104.62-8.87,29.49-10.92,42.72-45.11,53.11-72.72,7.99-25.51,46.18-13.6,38.1,11.98Z"/><path class="u" d="M1795.33,607.43c-1.96,4.62-4.23,8.95-6.73,12.99-4.06,6.54-8.75,12.32-13.92,17.41-.97,.97-1.96,1.9-2.98,2.81-21.19,19.17-49.17,27.45-72.45,27.92-25.87,.51-61.95-7.98-78.61-16.63-5.16-2.68-8.46-5.37-9.01-7.82-2.33-10.33,2.92-20.03,2.92-20.03,1.7-2.02,5.38-3.65,10.27-5,17.4-4.8,50.11-6.06,63.33-9.02,16.94-3.8,43.22-13.73,58.71-47.61,9.27-20.3,19.01-30.31,25.32-35.06,4.22-3.18,7.16-3.96,7.16-3.96,0,0,10.59,12.72,16.92,31.54,.48,1.42,.94,2.87,1.35,4.36,3.97,14.04,5.06,30.88-2.26,48.1Z"/><path class="h" d="M1788.6,620.42c-4.82,7.77-10.55,14.48-16.9,20.22-4.96-6.31-14.52-20.4-15.82-36.73-1.78-22.21,14.49-48.43,14.49-48.43l18.23,64.94Z"/><path class="o" d="M2027.69,1077.59l51.95-42.67c-1.39-3.5-14.26-13.95-17.57-19-1.57-1.98-18.02-21.08-19.42-23.2l-19.38-18.5-22.9,18.81,36.38,34.46c4.31,4.09,5.11,10.65,1.92,15.67-6.59,11.52-18.91,18.7-18.97,31.25,.45,3.84,5.01,5.63,7.99,3.18Z"/><path class="j" d="M2077.12,1028.62c1.23,1.93,2.15,4.04,2.53,6.3l-52.46,43.09c-2.55,2.1-6.46,1.1-7.59-2-2.63-7.26-2.41-21.1,20.73-42.22,0,0,10.24-4.31,21.75-17.87,0,0,10.06,4.87,15.04,12.7Z"/><path class="ad" d="M2019.56,1075.9l57.56-47.28c1.23,1.93,2.15,4.04,2.53,6.3l-52.46,43.09c-2.58,2.13-6.56,1.06-7.63-2.11Z"/><path class="o" d="M1774.59,511.47l4.74,11.96s6.34,70.93,18.44,70.91c21.43-.02,7.27-76.29,8.39-80.49,0,0-3.9-7.96-5.23-11.82l-26.34,9.43Z"/><path class="o" d="M1769.51,1093.64l67.23,.11c1.15-3.58-2.13-19.84-1.48-25.83,.05-2.53,.87-16.34,1.13-18.86l-4.56-37.99-29.64-.05,6.16,49.73c.73,5.9-2.83,11.47-8.49,13.31-12.41,4.69-26.49,2.41-34.51,12.05-2.09,3.25,.28,7.53,4.14,7.54Z"/><path class="j" d="M1838.8,1087.27c-.28,2.27-.91,4.48-2.05,6.47l-67.89-.11c-3.3,0-5.68-3.26-4.59-6.37,2.59-7.27,11.55-17.82,42.85-19.4,0,0,10.64,3.18,28.15,.04,0,0,4.67,10.15,3.53,19.36Z"/><path class="ad" d="M1764.31,1087.16l74.49,.12c-.28,2.27-.91,4.48-2.05,6.47l-67.89-.11c-3.35,0-5.74-3.35-4.55-6.48Z"/><path class="t" d="M1793.19,474.15c.11,.48,.2,.97,.27,1.45-.76-.17,3.83,16.95,8.39,28.92-9.29,9.4-22.56,12.15-25.04,12.55-6.03-15.05-10.03-29.58-11.11-39.1-1.05-16.4,24.03-19.86,27.5-3.82Z"/><path class="o" d="M1803.81,455.12c3.42,12.23,5.49,26.83-.03,38.5h-.01c-15.11,33.58-80.29,22.34-68.19-17.13,4.33-10.45,.23-23.53,3.05-33.23,11.05-37.15,57.91-19.98,65.19,11.86Z"/><path class="l" d="M1757.27,490.67l8.55-7.23c2.27,5.69-3,10.89-8.55,7.23Z"/><path class="af" d="M1757.13,468.14c-1.95-1.5,.44-4.53,2.35-2.98,1.95,1.5-.44,4.53-2.35,2.98Z"/><path class="af" d="M1741.52,472.39c-1.95-1.5,.44-4.53,2.35-2.98,1.95,1.5-.44,4.53-2.35,2.98Z"/><path class="af" d="M1757.32,491.1c.27,.04,8.56-7.24,8.78-7.33,.18-.16,.21-.43,.05-.61-.2-1.06-8.91,7.24-9.16,7.18-.33,.26-.08,.83,.33,.77Z"/><path class="j" d="M1778.86,1031.17c1.06,7.9,1.78,12.24,1.78,12.24,28.35,9.43,66.24,11.49,91.49,1.86-20.76-71.97-12.31-267.6,2.41-291.72,0,0,51.6,172.89,103.41,269.5,2.19,4.08,4.38,8.02,6.57,11.79,0,0,58.94,.68,89.28-51.71,0,0-3.22-3.8-8.3-10.68-15.25-20.64-47.31-62.72-60.01-120.08-28.29-127.82-61.27-186.04-85.43-208.38-33.41-30.88-102.53,6.04-124.82,50.3-31.15,98.25-28.58,256.29-16.38,336.88Z"/><path class="af" d="M1752.89,485.25c1.06-.48,3.58-1.16,2.86-2.57-.27-.29-.73-.31-1.01-.04-1.86,1.71-5.47,2.04-6.34,1.25-.31-.28,0-.84,.32-1.26,2.81-3.52,2.8-15.99,.56-12.05,0,.08,.73,7.93-1.71,11.19-2.5,4.22,2.23,4.42,5.33,3.49Z"/><path class="t" d="M1803.81,455.12c3.42,12.23,5.49,26.83-.03,38.5h-.01c2.13-8.48-1.15-23.75-1.15-23.75l-5.19-5.07c-45.41,5.48-56.41-27.71-56.41-27.71,15.13-30.69,55.97-10.43,62.8,18.03Z"/><path class="x" d="M1743.67,432.23s11.26,32.76,52.56,29.29l9.46-12.86c1.18-30-37.7-55.31-62.02-16.43Z"/><path class="o" d="M1813.7,457.54c3.37,14.06-14.42,18.11-17.47,3.98-3.37-14.06,14.42-18.11,17.47-3.98Z"/><path class="af" d="M1810.75,462.13c1.38-4.05-2.28-9.21-4.13-9.53-3.52-.85-7.61,2.37-6.67,3.52,1.42,.91,2.76-3.04,6.23-2.15,3.46,.71,2.54,7.79,4.58,8.17Z"/><path class="af" d="M1804.24,464.03c1.3-.69-.45-5.76,4.44-8.64,.35-.19,.48-.63,.29-.97-4.84-1.05-7.03,11.01-4.72,9.61Z"/><path class="r" d="M1809.32,466.79c.9,1.89-2.08,3.26-2.93,1.35-.9-1.89,2.08-3.26,2.93-1.35Z"/><path class="u" d="M1920.06,644c-31.42,26.09-79.56,53.74-124.83,50.29,0,0-6.23-3.29-5.77-12.56,1.05-21.29-6.85-32.96-14.78-43.9-10.74-14.8-21.54-28.25-10.32-62.4,2.77-8.35,6.84-22.62,10.18-34.89,1.84-6.79,3.72-12.89,4.79-17.1,6.56,26.26,12.38,34.77,16.92,31.54,4.94-3.51,8.08-21.01,8.1-44.92,2.93-.48,5.85-.68,8.74-.6,35.27,.88,67.63,41.57,92.91,89.55,2.34,4.44,4.62,8.95,6.84,13.49,1.43,2.17,2.9,4.45,4.25,6.8,1.98,3.48,3.69,7.13,4.56,10.83,1.1,4.62,.92,9.31-1.6,13.87Z"/><path class="s" d="M1977.95,1023.05c2.19,4.08,4.38,8.02,6.57,11.79,0,0,58.94,.68,89.28-51.71,0,0-3.22-3.8-8.3-10.68,0,0-26.58,44.21-87.55,50.6Z"/><path class="af" d="M1762.2,460.45c-.28,.13-.62,.12-.89-.07-4.42-3.11-8.07-2.45-8.11-2.44-.47,.09-.94-.21-1.03-.69-.1-.47,.21-.94,.68-1.03,.18-.04,4.39-.85,9.47,2.73,.4,.28,.49,.83,.21,1.22-.09,.13-.21,.22-.34,.29Z"/><path class="af" d="M1738.92,465.31c-.33,.16-.73,.1-1-.17-.34-.34-.34-.9,0-1.24,.07-.07,1.87-1.85,6.8-4.8,.42-.25,.95-.11,1.2,.3,.25,.42,.11,.95-.3,1.2-4.7,2.81-6.44,4.51-6.46,4.53-.07,.07-.15,.13-.24,.17Z"/><path class="h" d="M1921.33,641.13s-66.71,52.19-128.14,51.54c0,0-.52,1.73,.98,5.05,0,0,60.93,6.37,128.55-51.16,0,0,2.07-3.22-1.38-5.43Z"/><path class="s" d="M1858.47,1049.09c8.83-1.77,13.66-3.83,13.66-3.83-10.63-58.06-12.63-107.49-12.32-150.56,.64-86.88,14.73-141.16,14.73-141.16,0,0-9.21-4.85-12.8-13.22,0,0-40.05,166.5-3.27,308.77Z"/><path class="s" d="M1778.86,1031.17c1.06,7.9,1.78,12.24,1.78,12.24,28.35,9.43,66.23,11.49,91.49,1.86-.66-3.58-1.28-7.14-1.88-10.66,0,0-47.45,10.44-91.39-3.44Z"/><path class="h" d="M1921.65,630.12c-7.09-8.86-21.96-23.94-47.18-34.15-37.67-15.25-48.25-47.78-48.25-47.78l79.78,50.81c2.34,4.44,4.62,8.95,6.84,13.49,3.55,5.39,7.34,11.44,8.81,17.63Z"/><path class="o" d="M1858.27,515.74c28.17,18.94,56.14,38.74,80.55,62.48,18.06,19.21,31.07,42.35,42.19,65.94,2.96,10.52,18.82,28.77,4.22,35.97-9.94,3.62-13.63-8.1-18.07-14.45-6.42-10.09-13.29-20.06-20.43-29.56-9.79-12.81-20.46-25.52-32.84-35.38-8.05-6.12-17.85-12.86-26.29-18.57-16.32-10.87-34.38-22.39-50.98-32.87-22.1-14.51-.78-47.75,21.65-33.57Z"/><path class="o" d="M1970.77,699.54c3.32,.96,3.33-8.74,5.33-11.25,3.24,5.14,5.02,11.25,5.06,11.27,.76,7.48,1.11,14.99,1.13,22.52-.05,2.41,3.73,2.67,3.97,.24,.89-7.29,1.47-14.64,1.68-21.99,.04,0,.07-.01,.11-.02,2.41,7.5,4.42,15.15,5.77,22.91,8.1,9.33,.58-22.69,.13-25.32l.05-.03c3.46,6.67,6.11,13.77,7.98,21.06,9.02,8.47-1.19-23.13-2.55-25.62l.06-.06c3.48,4.84,6.35,10.13,8.92,15.52,9.43,6.55-2.97-18.88-4.4-21.1-.82-2.79-5.34-11.81-14.68-22.39-2.91-3.31-13.9,2.27-15.33,6.35-1.34,3.83-1.71,9.34-1.9,11.33-.98,3.3-5.16,14.95-1.31,16.59Z"/><path class="u" d="M1987.32,657.44s-8.18,12.74-18.15,10.95c-.98-.18-4.16-1.54-8.41-4.13-6.37-3.88-15.16-10.5-22.51-19.96-5.46-7.01-11.5-15.73-21.17-25-9.93-9.5-21.24-24.31-42.1-33.64-29.45-13.16-42.2-22.35-52.73-45.24-4.19-9.11-16.88-15.97-17.91-30.36,0,0,3.12-1.25,8.67-2.51,13.66-3.09,42-6.21,74.41,9.33,39.14,18.76,94.76,87.02,101.06,124.78,1.04,6.2,.74,11.58-1.18,15.79Z"/><path class="h" d="M1812.2,544.78c-.74,9.4-.84,16.26-4.34,18.12-4.52,2.41-8.63-1.66-10.26-3.56-.52-.61-.81-1.04-.81-1.04,0,0-2.19,13.8-10.4,8.54-6.33-4.05-9.65-16.89-11.85-26.3-1.68-7.25-2.37-13.14-2.37-13.14,4.24-3.44,7.16-3.96,7.16-3.96,6.56,26.26,12.38,34.77,16.92,31.54,4.94-3.51,8.08-21.01,8.1-44.92,0,0,3.12-1.25,8.67-2.51h.04s0,.69,.03,1.91c.07,5.54,.15,22.07-.89,35.32Z"/><path class="h" d="M1620.63,651.93c-5.16-2.68-8.46-5.37-9.01-7.82-2.33-10.33,2.92-20.03,2.92-20.03,1.7-2.02,5.38-3.65,10.27-5,0,0-9.7,16.96-4.18,32.85Z"/><path class="h" d="M1987.32,657.44s-8.18,12.74-18.15,10.95c-.98-.18-4.16-1.54-8.41-4.13,1.17-1.24,16.76-4.25,27.73-22.61,1.04,6.2,.74,11.58-1.18,15.79Z"/></g></g></svg>