<svg version="1.1" id="Layer_1" xmlns="http://www.w3.org/2000/svg" xmlns:xlink="http://www.w3.org/1999/xlink" x="0px" y="0px"
	 width="100%" viewBox="0 0 1414 2000" enable-background="new 0 0 1414 2000" xml:space="preserve">
<path fill="#FFFFFF" opacity="1.000000" stroke="none" 
	d="
M1.000000,545.000000 
	C1.000000,364.833344 1.013617,185.166687 0.906278,5.500120 
	C0.904039,1.750931 1.750734,0.906322 5.499954,0.907108 
	C473.833221,1.005246 942.166504,1.005242 1410.499756,0.907163 
	C1414.248169,0.906378 1415.093384,1.750172 1415.092773,5.499779 
	C1414.996338,669.166321 1414.996338,1332.832886 1415.092651,1996.499512 
	C1415.093140,2000.247314 1414.250732,2001.093750 1410.500488,2001.092896 
	C942.167175,2000.994751 473.833923,2000.994873 5.500660,2001.092896 
	C1.753128,2001.093628 0.906263,2000.251221 0.907023,1996.500610 
	C1.005078,1512.833740 1.000000,1029.166870 1.000000,545.000000 
z"/>
<path fill="#7A512E" opacity="1.000000" stroke="none" 
	d="
M844.692261,1814.020264 
	C842.612366,1811.797729 840.275024,1812.913086 838.296875,1812.912109 
	C720.131836,1812.849365 601.965149,1812.509521 483.803009,1813.094971 
	C453.584412,1813.244751 423.282074,1788.264160 422.245453,1753.459961 
	C422.190918,1751.627930 422.189545,1749.793823 422.189484,1747.960693 
	C422.186523,1613.629272 422.381592,1479.297241 422.044739,1344.966675 
	C421.963196,1312.449829 443.206421,1287.840332 470.900879,1281.464111 
	C475.783783,1280.339966 480.746735,1279.962769 485.769562,1279.963745 
	C634.100830,1279.991455 782.432068,1279.955444 930.763306,1280.008545 
	C966.395142,1280.021362 993.943970,1307.306641 993.971313,1342.882202 
	C994.075989,1479.046997 994.028503,1615.211670 993.992981,1751.376465 
	C993.988953,1767.005127 988.461426,1780.632446 978.122620,1792.713013 
	C974.188599,1790.800537 971.870667,1787.787720 972.379517,1782.897949 
	C980.652222,1771.980347 983.448120,1759.872559 983.445740,1746.855225 
	C983.421265,1613.189941 983.416687,1479.524536 983.446655,1345.859253 
	C983.450928,1326.553345 976.516357,1310.806519 960.405396,1299.577515 
	C951.168213,1293.139404 940.681702,1290.777466 929.669006,1290.621948 
	C915.171814,1290.417358 900.669983,1290.569946 886.170105,1290.569824 
	C753.671448,1290.568848 621.172729,1290.567505 488.674072,1290.572021 
	C476.960236,1290.572510 465.745880,1292.576904 455.884094,1299.378906 
	C440.436401,1310.033447 433.219330,1325.084839 432.599976,1343.579346 
	C432.538635,1345.411621 432.569550,1347.245728 432.569519,1349.078979 
	C432.569000,1480.411011 432.581024,1611.743042 432.530731,1743.075073 
	C432.528412,1749.107300 433.069397,1755.064941 434.000397,1760.985962 
	C437.456482,1782.966919 458.514221,1801.456909 481.016235,1802.383423 
	C483.347839,1802.479492 485.682404,1802.429932 488.015625,1802.430054 
	C587.514648,1802.430786 687.013611,1802.405396 786.512634,1802.449585 
	C810.003479,1802.460083 833.495483,1802.182251 857.430664,1802.678711 
	C859.234619,1803.016479 860.378052,1803.679443 861.212708,1804.771973 
	C862.516724,1806.478149 864.263611,1808.282837 863.123108,1810.546753 
	C862.101868,1812.573730 859.865906,1811.821899 858.145142,1811.530884 
	C853.445618,1810.736328 849.337830,1812.657593 844.692261,1814.020264 
z"/>
<path fill="#F5F6F7" opacity="1.000000" stroke="none" 
	d="
M187.814972,143.335663 
	C553.940979,142.990524 919.690247,142.995590 1285.439453,143.000626 
	C1286.105957,143.000626 1286.772461,143.000153 1287.438965,143.000702 
	C1293.992554,143.006104 1293.999023,143.006134 1293.999023,149.402832 
	C1294.000122,486.491974 1293.989746,823.581116 1294.101807,1160.670288 
	C1294.103394,1165.536499 1293.170898,1168.023926 1287.441406,1166.993408 
	C1285.484009,1164.901245 1286.384033,1162.785645 1287.090332,1160.782471 
	C1289.005615,1155.350586 1289.425171,1149.775024 1289.424438,1144.055542 
	C1289.384766,827.763855 1289.380737,511.472107 1289.442017,195.180420 
	C1289.443359,187.734848 1288.549194,180.559387 1285.772217,173.663544 
	C1284.679199,170.949570 1284.679565,168.145493 1284.552979,165.315430 
	C1284.287720,159.383591 1282.257568,156.719666 1276.110718,154.606171 
	C1272.125854,154.332428 1268.625854,154.417252 1265.127563,154.417221 
	C909.725342,154.413025 554.323181,154.414490 198.920975,154.395538 
	C195.600739,154.395355 192.248489,154.773819 188.514893,153.677277 
	C185.815323,150.316360 186.132950,147.032928 187.814972,143.335663 
z"/>
<path fill="#FFBD5A" opacity="1.000000" stroke="none" 
	d="
M188.124619,142.531586 
	C188.069946,146.024918 187.948135,149.064331 187.837524,152.559692 
	C188.025955,153.202972 188.203186,153.390320 188.439316,153.960831 
	C183.324814,183.647827 159.590866,205.981842 129.673889,209.346008 
	C127.055344,209.369766 124.808823,209.659912 122.334335,208.472443 
	C93.782310,207.977951 74.048943,194.310242 61.911919,169.461166 
	C50.508163,146.113388 56.351971,116.251091 73.962852,97.145088 
	C99.775185,69.141357 147.167999,69.482925 172.215881,99.093483 
	C182.646927,111.424629 188.457275,125.656700 188.124619,142.531586 
z"/>
<path fill="#FFBD5A" opacity="1.000000" stroke="none" 
	d="
M76.883499,1297.862793 
	C77.909256,1270.715576 101.347275,1244.666626 129.209030,1239.278931 
	C159.167206,1233.485840 188.910767,1247.798340 201.894562,1275.347168 
	C221.242096,1316.398560 196.328461,1364.020386 150.893738,1369.707031 
	C112.740036,1374.482422 84.671295,1348.950439 77.859856,1318.664551 
	C76.348984,1311.946777 76.621727,1305.124634 76.883499,1297.862793 
z"/>
<path fill="#E3E3E5" opacity="1.000000" stroke="none" 
	d="
M1269.297607,1166.713379 
	C894.637878,1166.974609 520.296448,1166.976929 145.487732,1166.975830 
	C141.100739,1164.926147 136.528641,1163.912598 133.810349,1159.960205 
	C132.292770,1157.753418 130.917267,1155.526733 135.183929,1154.112183 
	C139.847763,1155.341431 144.162704,1155.393066 148.506363,1155.392822 
	C520.572144,1155.375854 892.637939,1155.377441 1264.703735,1155.379150 
	C1268.869507,1155.379150 1273.042236,1155.496094 1277.572632,1154.332520 
	C1282.034790,1154.715576 1282.265747,1156.858276 1280.321167,1159.715210 
	C1277.753906,1163.487183 1273.695312,1165.016357 1269.297607,1166.713379 
z"/>
<path fill="#EFF0F2" opacity="1.000000" stroke="none" 
	d="
M134.090424,1154.491699 
	C132.362137,1160.343506 137.314346,1161.135132 139.983307,1163.388550 
	C141.403183,1164.587524 143.943268,1164.105225 144.956680,1166.625732 
	C139.189865,1166.979736 133.351501,1166.805298 127.531578,1167.057373 
	C123.505447,1167.231689 121.537277,1165.977539 121.969803,1161.696655 
	C122.186394,1159.552856 122.006752,1157.369141 122.006721,1155.203491 
	C122.002266,839.851013 121.997826,524.498535 121.985611,208.697113 
	C124.362358,208.188522 126.746880,208.128876 129.575409,208.121216 
	C131.479584,209.590851 131.494553,211.458481 131.572098,213.287186 
	C131.677979,215.784210 131.622665,218.284348 131.622681,220.783142 
	C131.624222,526.152344 131.629013,831.521545 131.588242,1136.890747 
	C131.587463,1142.762085 131.719193,1148.533936 134.090424,1154.491699 
z"/>
<path fill="#EFF0F2" opacity="1.000000" stroke="none" 
	d="
M1269.449097,1166.984375 
	C1269.360474,1164.421021 1271.751343,1164.663208 1273.336548,1163.701416 
	C1276.484253,1161.791504 1280.699219,1160.617065 1280.124268,1155.279297 
	C1279.486084,1154.234619 1279.285767,1153.355469 1279.734375,1152.616455 
	C1283.159668,1146.971558 1282.372437,1140.717529 1282.372681,1134.595459 
	C1282.384766,815.098877 1282.383423,495.602234 1282.383301,176.105621 
	C1282.383301,174.272308 1282.258667,172.428909 1282.404785,170.607529 
	C1282.889160,164.567017 1281.458008,159.380722 1275.927124,155.354782 
	C1275.650513,154.577591 1275.608154,154.245041 1275.780518,153.457779 
	C1283.314819,155.075851 1286.232544,158.428787 1285.911987,165.713745 
	C1285.636841,171.962738 1289.684937,176.921417 1290.255737,182.890671 
	C1290.457275,184.999619 1291.009644,187.101181 1291.009521,189.273773 
	C1290.999634,509.486115 1290.996094,829.698425 1291.029785,1149.910767 
	C1291.030396,1155.729370 1288.310425,1160.772461 1287.002808,1166.602295 
	C1281.303101,1166.992188 1275.610962,1166.994263 1269.449097,1166.984375 
z"/>
<path fill="#060606" opacity="1.000000" stroke="none" 
	d="
M843.949402,1814.102051 
	C849.679749,1809.256592 855.993164,1809.448120 862.531311,1810.948486 
	C862.870300,1807.992920 860.437256,1806.599731 859.634583,1804.226562 
	C857.213135,1803.188599 856.003052,1801.414062 854.895630,1799.521973 
	C848.589661,1788.747559 841.819885,1778.254272 835.478271,1767.501343 
	C828.768433,1756.124023 830.749573,1746.097656 840.937134,1739.868530 
	C851.441223,1733.445679 864.582947,1736.558838 871.019165,1747.072388 
	C875.711853,1754.737793 880.379211,1762.420044 885.002686,1770.126221 
	C887.071594,1773.574585 889.154419,1774.303833 892.667419,1772.117798 
	C896.836548,1769.523315 901.301880,1767.823486 906.390137,1769.833496 
	C908.987244,1770.859619 911.262634,1769.500854 913.400146,1768.145996 
	C917.382019,1765.622192 921.588623,1764.510742 926.239014,1765.953125 
	C929.417236,1766.938843 932.127441,1765.610840 934.775513,1764.159180 
	C939.415405,1761.615479 944.304688,1760.246460 949.632385,1760.767700 
	C955.901917,1761.381104 961.324463,1763.655273 964.666626,1769.277466 
	C967.430542,1773.926880 971.522095,1777.870972 972.269226,1783.847900 
	C973.842590,1786.974731 975.617188,1789.771851 977.652710,1792.770996 
	C985.243713,1802.483643 986.767151,1813.662231 987.453552,1825.182617 
	C987.917664,1832.971924 988.938965,1840.728882 989.745605,1848.496704 
	C990.073181,1851.651367 988.955872,1853.764893 986.048218,1855.346313 
	C966.253174,1866.112305 946.542908,1877.034058 926.764893,1887.831421 
	C922.060852,1890.399536 919.198853,1889.916992 916.967346,1885.046509 
	C912.084290,1874.389038 903.980042,1868.488770 893.051270,1864.574829 
	C878.430298,1859.338989 864.348389,1852.592651 850.056213,1846.445679 
	C843.573853,1843.657837 839.296448,1838.661743 837.076355,1832.117432 
	C834.518677,1824.578125 837.913208,1818.916870 843.949402,1814.102051 
z"/>
<path fill="#FFFFFF" opacity="1.000000" stroke="none" 
	d="
M972.428772,1784.209717 
	C969.783813,1780.327881 967.536926,1776.455444 965.208313,1772.632812 
	C959.007385,1762.453613 947.456116,1759.224243 936.776001,1764.757080 
	C932.621521,1766.909302 929.023926,1769.747192 923.634216,1767.114502 
	C919.769409,1765.226807 915.983765,1768.201416 912.613586,1770.286377 
	C910.121643,1771.828125 908.095581,1772.569580 904.935059,1771.219971 
	C900.017334,1769.120239 895.483765,1771.849243 891.470886,1774.512085 
	C888.157166,1776.711060 886.609863,1775.990601 884.727966,1772.681641 
	C879.974182,1764.322754 874.847046,1756.174683 869.809265,1747.979126 
	C862.459412,1736.022217 846.604187,1734.467163 837.040466,1744.726440 
	C832.011536,1750.121094 831.491394,1757.624390 835.900208,1765.006470 
	C843.562378,1777.836060 851.353516,1790.588867 859.227295,1803.707764 
	C857.714355,1804.170532 856.064880,1804.412231 854.415344,1804.412476 
	C732.083252,1804.430176 609.750610,1804.223145 487.419586,1804.584717 
	C459.652313,1804.666748 440.695068,1787.442017 434.149139,1769.136108 
	C431.882507,1762.797241 431.024109,1756.202393 431.023499,1749.502075 
	C431.011475,1614.170166 430.966797,1478.838257 431.050049,1343.506348 
	C431.069427,1311.992554 454.198151,1289.050171 485.807343,1289.038330 
	C633.972473,1288.983032 782.137573,1288.982666 930.302734,1289.038574 
	C961.929443,1289.050415 984.983215,1311.965454 985.001648,1343.527588 
	C985.080627,1478.859497 985.029541,1614.191528 985.049744,1749.523438 
	C985.051331,1760.256470 982.761169,1770.329590 976.879028,1779.413208 
	C975.739075,1781.173462 974.986938,1783.344604 972.428772,1784.209717 
z"/>
<path fill="#E6E8EB" opacity="1.000000" stroke="none" 
	d="
M1275.526978,153.002167 
	C1275.996704,153.173843 1275.998413,153.344650 1276.000000,153.771683 
	C1274.591431,155.513214 1272.711548,155.483795 1270.890137,155.575867 
	C1268.726807,155.685211 1266.559082,155.629028 1264.393311,155.629044 
	C909.348877,155.630295 554.304443,155.632248 199.260010,155.602097 
	C195.634460,155.601791 191.908310,156.244019 188.058655,154.252380 
	C187.701477,153.897675 187.702484,153.444122 187.775604,153.229889 
	C550.252136,153.010864 912.655457,153.006073 1275.526978,153.002167 
z"/>
<path fill="#FFFFFF" opacity="1.000000" stroke="none" 
	d="
M187.494980,154.200928 
	C190.200043,153.936752 192.698593,154.010025 195.197159,154.010056 
	C555.152283,154.016174 915.107361,154.016983 1275.531250,154.022964 
	C1284.249878,157.706497 1284.070923,164.835785 1284.068970,172.367752 
	C1283.983154,495.053345 1283.986206,817.738953 1284.075317,1140.424561 
	C1284.076782,1145.590088 1283.643921,1150.291382 1280.035645,1154.617920 
	C1275.837158,1157.018433 1271.397339,1157.015015 1266.880371,1157.014648 
	C892.666504,1156.978027 518.452637,1156.978760 144.238800,1157.014038 
	C140.903229,1157.014404 137.671844,1157.015503 134.406296,1155.007080 
	C130.899826,1151.636230 129.942337,1147.695801 129.943298,1143.136719 
	C130.009277,831.785706 130.005447,520.434631 130.013489,208.628403 
	C159.970490,203.689377 180.955872,184.023209 187.494980,154.200928 
z"/>
<path fill="#060606" opacity="1.000000" stroke="none" 
	d="
M114.996231,130.639709 
	C113.998619,125.600334 116.167511,124.719429 120.346870,124.918663 
	C127.496445,125.259491 127.508850,125.008011 127.509109,131.991257 
	C127.509384,139.461716 127.323624,146.938843 127.591743,154.399658 
	C127.713905,157.798752 126.255516,158.151855 123.480881,158.087280 
	C120.877235,158.026672 119.046936,158.051880 119.262787,154.490631 
	C119.573570,149.363174 119.087334,144.186035 119.425087,139.061996 
	C119.677780,135.228287 119.137360,132.289627 114.996231,130.639709 
z"/>
<path fill="#060606" opacity="1.000000" stroke="none" 
	d="
M132.525742,1297.805786 
	C130.409729,1293.197021 132.860855,1290.264038 136.265579,1288.013672 
	C140.347717,1285.315186 146.985336,1285.870483 150.332581,1288.855225 
	C153.591354,1291.760986 154.309494,1297.521240 151.974915,1302.278442 
	C149.957291,1306.389771 146.323273,1309.135864 142.450012,1313.169800 
	C145.654099,1313.169800 148.032028,1313.267212 150.398209,1313.142090 
	C152.724579,1313.019287 154.023331,1313.375977 154.074417,1316.292114 
	C154.130966,1319.520996 152.563309,1319.723022 150.096436,1319.668579 
	C145.101318,1319.558228 140.101242,1319.684326 135.104996,1319.603638 
	C133.740265,1319.581665 131.707077,1320.352173 131.313019,1318.312866 
	C130.955750,1316.463989 130.590057,1314.382446 132.494629,1312.779541 
	C135.549225,1310.208862 138.584015,1307.593872 141.413040,1304.782227 
	C143.535446,1302.672974 145.437653,1300.244019 145.583542,1297.047607 
	C145.661682,1295.335938 145.201187,1293.636108 143.249878,1293.097046 
	C141.664444,1292.659058 139.792099,1293.054810 139.480148,1294.650635 
	C138.652191,1298.886230 135.574341,1297.768799 132.525742,1297.805786 
z"/>
<path fill="#FDFDFD" opacity="1.000000" stroke="none" 
	d="
M938.416748,1775.288086 
	C940.552185,1774.290894 942.301331,1773.295776 944.178467,1772.712402 
	C949.194763,1771.153442 953.000122,1772.534668 955.701721,1776.940186 
	C961.781799,1786.855103 967.737183,1796.846558 973.818176,1806.760742 
	C975.455444,1809.430176 975.743591,1812.342651 976.034729,1815.325684 
	C976.922791,1824.425659 977.780334,1833.530884 978.855408,1842.609619 
	C979.240906,1845.865234 978.811462,1847.909912 975.462708,1849.687256 
	C959.502869,1858.158203 943.696594,1866.922729 927.938904,1875.766479 
	C925.144104,1877.335083 923.473206,1877.171265 922.330139,1874.214966 
	C919.009644,1865.627441 912.177917,1861.480225 903.940796,1858.255005 
	C888.216858,1852.098633 872.778748,1845.212158 857.221252,1838.630615 
	C854.299927,1837.394653 851.456543,1836.055420 849.495361,1833.394531 
	C847.571533,1830.784424 845.624512,1828.015015 847.773926,1824.800903 
	C849.878723,1821.653687 852.777405,1819.242920 856.960693,1820.164551 
	C861.977661,1821.270020 866.940369,1822.629517 871.906799,1823.953003 
	C874.603333,1824.671631 877.221924,1825.069214 879.156372,1822.491211 
	C881.097290,1819.904785 879.913818,1817.530762 878.470093,1815.161133 
	C867.750305,1797.567505 857.062073,1779.954590 846.360291,1762.349976 
	C842.249817,1755.588135 842.471741,1752.640991 847.332825,1749.680176 
	C852.716858,1746.400757 857.480652,1747.744019 861.148987,1753.730347 
	C867.309692,1763.784058 873.382019,1773.891968 879.513916,1783.963501 
	C882.738831,1789.260254 884.585327,1789.744873 890.083618,1786.780640 
	C892.125488,1785.679932 894.112976,1784.478516 896.150269,1783.368896 
	C898.828613,1781.909790 901.308472,1779.660645 904.243408,1783.449341 
	C905.423950,1784.973389 907.958252,1784.521118 909.836060,1783.489014 
	C912.157471,1782.212769 914.460876,1780.902466 916.750366,1779.569580 
	C919.754578,1777.820557 922.539185,1775.747437 925.936768,1779.279419 
	C927.348389,1780.747070 929.706665,1780.148193 931.570374,1779.113281 
	C933.745361,1777.905396 935.916138,1776.690063 938.416748,1775.288086 
z"/>
<path fill="#00A651" opacity="1.000000" stroke="none" 
	d="
M791.051025,1411.776367 
	C816.500000,1413.917603 834.114258,1426.349609 843.477051,1449.792603 
	C847.089966,1458.838623 849.959167,1462.698242 858.726929,1467.169556 
	C873.215881,1474.558716 882.567078,1492.197632 880.789185,1510.415649 
	C879.022644,1528.516968 868.172668,1539.463013 851.379639,1545.108398 
	C844.422852,1547.447144 837.300598,1549.113281 830.042358,1550.123901 
	C826.860657,1550.566895 825.718811,1551.765381 825.972046,1555.240356 
	C826.594727,1563.785522 822.868896,1570.746948 816.805908,1576.509277 
	C801.245911,1591.298096 768.738281,1597.210938 748.482300,1581.964355 
	C746.103149,1581.738281 745.033386,1580.148682 743.813049,1578.856934 
	C740.237305,1575.071167 740.216125,1575.004395 736.381653,1578.790283 
	C733.632690,1581.504272 730.524719,1583.585571 726.546021,1585.015259 
	C722.298706,1586.844971 718.061462,1585.962280 713.655457,1586.797607 
	C704.263000,1587.133423 696.014587,1584.687622 688.124023,1579.631226 
	C687.582520,1579.284302 687.362183,1579.150757 686.826782,1578.792480 
	C686.105835,1578.249390 685.713806,1577.914673 685.050354,1577.302734 
	C677.401001,1569.078979 673.115540,1559.736938 672.175598,1548.901978 
	C671.824219,1544.851196 672.451233,1540.896240 674.056274,1537.213013 
	C675.250549,1534.472290 674.860840,1532.535156 672.548584,1530.677490 
	C669.013489,1527.837158 666.316589,1524.209473 663.817627,1520.475830 
	C652.577271,1503.681641 656.087524,1482.975220 676.048584,1471.558228 
	C677.346313,1470.815918 678.740967,1470.249268 680.343872,1469.269897 
	C682.933167,1467.292114 681.623779,1465.070679 681.317932,1463.068115 
	C679.985535,1454.343506 680.574707,1445.959229 684.158020,1437.697998 
	C691.553833,1420.647095 711.598083,1415.339111 723.414917,1417.081543 
	C732.206787,1418.377930 740.679138,1420.759521 747.685120,1426.667725 
	C749.493835,1428.192993 750.816223,1428.506104 752.635132,1426.405151 
	C762.680359,1414.802002 775.820496,1410.960205 791.051025,1411.776367 
z"/>
<path fill="#12954A" opacity="1.000000" stroke="none" 
	d="
M681.082031,1469.606445 
	C676.540771,1473.099365 671.834595,1475.668335 667.738464,1479.490479 
	C656.986511,1489.523682 656.517761,1506.220703 663.399048,1517.546509 
	C666.488647,1522.631836 669.956238,1527.599731 675.060669,1531.003174 
	C676.727356,1532.114502 677.268250,1533.270630 676.415283,1535.163818 
	C669.441956,1550.641846 675.605347,1563.369385 684.910950,1575.424683 
	C685.215698,1575.819458 685.522949,1576.212280 685.970215,1576.930420 
	C686.275146,1577.373901 686.438965,1577.492798 686.824463,1577.819214 
	C687.046143,1578.026733 686.983643,1578.018555 686.985046,1577.987061 
	C689.750916,1582.724609 686.961975,1586.909668 685.399658,1591.594360 
	C679.766235,1600.749268 670.943848,1604.888306 661.568542,1608.923584 
	C655.718689,1609.826904 650.433838,1612.423096 644.346436,1610.512573 
	C633.455872,1610.201050 623.398071,1608.512451 615.063110,1601.399902 
	C612.980713,1599.622803 611.357971,1596.232666 609.210754,1595.948120 
	C607.513916,1595.723267 605.533447,1599.421265 603.340698,1600.862183 
	C591.044861,1608.942871 578.055237,1607.570312 565.798950,1601.662476 
	C554.144287,1596.044556 549.365784,1585.267212 549.043091,1572.556519 
	C549.002136,1570.942505 549.221619,1569.031494 550.060608,1567.738281 
	C552.876038,1563.398315 551.410095,1561.147095 547.570435,1557.997803 
	C528.833191,1542.629761 532.618164,1519.923584 555.197327,1510.858643 
	C557.927734,1509.762329 558.508423,1508.600586 557.786072,1505.751221 
	C553.607788,1489.269775 559.978333,1476.600464 576.168701,1469.177734 
	C581.217590,1465.465942 586.800842,1465.424805 592.176697,1465.851929 
	C600.316040,1466.498535 608.380371,1467.956909 615.121948,1473.195679 
	C617.314880,1474.899780 619.070862,1474.882935 621.141602,1472.741333 
	C633.840271,1459.607910 660.393799,1457.237427 677.203247,1465.663940 
	C678.827271,1466.478149 680.546570,1467.241333 681.082031,1469.606445 
z"/>
<path fill="#108A47" opacity="1.000000" stroke="none" 
	d="
M681.386719,1469.993164 
	C679.441162,1467.316528 676.527954,1466.490356 673.988281,1465.621826 
	C656.594360,1459.672607 639.239685,1459.831909 624.697510,1471.737671 
	C618.660706,1476.679932 616.276672,1475.308228 610.834717,1472.228027 
	C600.418396,1466.332397 588.882629,1465.617432 576.875000,1468.981445 
	C572.829224,1446.894775 580.714050,1429.197021 598.644104,1421.005615 
	C603.395996,1418.834717 603.998352,1416.898560 602.882507,1412.065918 
	C599.917297,1399.223877 601.068848,1386.554565 607.376221,1374.740967 
	C621.758728,1347.802124 657.065247,1349.339844 674.643005,1365.171509 
	C676.243591,1366.613037 677.630920,1368.291626 679.030273,1369.768433 
	C679.595093,1369.618286 680.032227,1369.634399 680.138184,1369.454956 
	C690.934631,1351.172852 708.158569,1345.789429 727.858582,1346.521240 
	C758.570129,1347.661865 786.433899,1376.527100 786.908325,1407.261719 
	C786.956055,1410.352783 787.867920,1411.458862 791.062012,1411.663818 
	C779.918457,1413.301880 768.220825,1414.092163 758.786011,1422.105957 
	C757.648682,1423.072021 756.487488,1424.021851 755.442688,1425.083008 
	C750.526978,1430.075317 750.524048,1430.111694 744.519409,1426.006958 
	C730.236084,1416.243164 709.526062,1415.185181 695.551331,1425.635010 
	C686.941956,1432.072632 682.972107,1440.808228 682.048889,1451.149414 
	C681.590637,1456.282471 681.969421,1461.440186 683.338623,1466.448730 
	C683.813416,1468.185425 684.527039,1469.785522 681.386719,1469.993164 
z"/>
<path fill="#774E2A" opacity="1.000000" stroke="none" 
	d="
M683.785156,1592.483887 
	C685.704041,1587.869507 687.132751,1583.522827 686.920410,1578.382568 
	C694.704102,1582.482788 702.893738,1585.525879 712.333740,1585.942383 
	C714.144165,1586.753662 714.212769,1588.161987 714.211792,1589.459106 
	C714.208191,1594.237061 714.525513,1599.000854 714.762329,1602.784424 
	C717.999695,1596.898560 721.586914,1590.213013 726.862305,1584.125000 
	C731.459473,1581.717651 735.199341,1578.801758 738.242249,1575.076782 
	C739.996460,1572.929321 741.120239,1573.152466 742.651489,1575.354126 
	C744.138062,1577.491211 746.066162,1579.321289 747.980591,1581.565552 
	C740.560547,1595.309448 731.002319,1607.582764 724.107788,1621.480347 
	C720.141479,1629.475220 717.930542,1637.515015 718.544617,1646.809326 
	C719.542236,1661.908325 718.937134,1677.108643 719.176636,1692.263672 
	C719.334412,1702.247925 719.746582,1712.224731 722.007263,1722.028320 
	C722.984802,1726.267334 723.221252,1730.603149 722.909241,1734.948608 
	C722.378723,1742.334106 718.612244,1746.250488 711.339172,1746.823486 
	C707.518982,1747.124512 703.723145,1746.888184 699.893188,1746.340210 
	C691.491211,1745.137939 685.944458,1736.087402 685.966125,1729.244995 
	C686.020935,1711.921875 685.341309,1694.592529 685.476929,1677.287842 
	C685.555786,1667.223145 681.406311,1660.121094 674.795471,1653.695435 
	C668.092346,1647.180054 661.493652,1640.579834 656.629211,1632.528564 
	C652.331787,1625.415771 648.283081,1618.152832 644.050903,1610.633179 
	C649.682556,1610.183960 655.205444,1608.810547 661.187195,1607.823242 
	C663.884338,1608.570190 664.626770,1610.739746 665.764343,1612.525269 
	C670.230225,1619.534912 674.720093,1626.525635 680.081787,1632.904175 
	C680.897461,1633.874512 681.494690,1635.126221 683.370422,1635.571533 
	C683.908936,1631.615112 683.692017,1627.818604 683.624939,1624.057373 
	C683.474060,1615.598633 684.318726,1607.104004 682.796265,1598.689331 
	C682.427734,1596.652222 683.137878,1594.747803 683.785156,1592.483887 
z"/>
<path fill="#060606" opacity="1.000000" stroke="none" 
	d="
M899.364746,1700.308716 
	C891.778748,1707.542114 884.330505,1714.413940 877.215454,1721.614868 
	C874.745056,1724.115356 873.312927,1724.163330 870.921570,1721.668335 
	C866.690308,1717.253662 866.559326,1717.397949 871.173523,1712.984253 
	C878.253113,1706.212158 885.653320,1699.733398 892.275574,1692.539185 
	C896.945190,1687.466553 898.724854,1691.987671 901.412659,1694.225830 
	C905.392883,1697.540283 900.458740,1698.194214 899.364746,1700.308716 
z"/>
<path fill="#060606" opacity="1.000000" stroke="none" 
	d="
M822.327393,1773.802368 
	C813.727539,1782.178833 805.125610,1790.034058 797.019592,1798.371338 
	C794.042480,1801.433350 792.250549,1801.373169 789.782532,1798.350830 
	C788.737854,1797.071411 787.442322,1795.996948 785.897522,1794.470337 
	C795.721802,1785.061523 805.489624,1775.706787 815.419983,1766.196411 
	C817.913147,1768.750610 820.217468,1771.111328 822.327393,1773.802368 
z"/>
<path fill="#060606" opacity="1.000000" stroke="none" 
	d="
M810.383545,1700.626099 
	C814.979675,1704.981201 819.269775,1709.149780 823.676514,1713.191284 
	C825.405396,1714.776733 825.344116,1715.768433 823.661316,1717.497925 
	C818.600098,1722.699707 818.705322,1722.788940 813.553284,1717.858154 
	C806.470520,1711.079468 799.367310,1704.322021 792.295654,1697.531738 
	C790.847351,1696.141235 788.196472,1694.372070 791.514587,1692.778564 
	C793.914490,1691.625977 794.567749,1684.913574 799.341614,1690.028564 
	C802.737427,1693.667114 806.516357,1696.948120 810.383545,1700.626099 
z"/>
<path fill="#060606" opacity="1.000000" stroke="none" 
	d="
M842.139832,1707.638428 
	C842.094788,1696.354980 842.295166,1685.535278 841.984375,1674.730225 
	C841.868958,1670.715576 843.080811,1669.625488 846.918518,1669.896362 
	C850.147949,1670.124146 852.855286,1669.445435 852.613220,1674.521484 
	C852.145996,1684.314941 852.236023,1694.155151 852.587830,1703.958130 
	C852.741638,1708.244141 851.390442,1709.704224 847.344360,1708.947754 
	C845.629700,1708.627319 843.679260,1709.754761 842.139832,1707.638428 
z"/>
<path fill="#060606" opacity="1.000000" stroke="none" 
	d="
M770.971191,1746.842041 
	C770.916809,1737.883545 770.916809,1737.883545 779.410767,1737.883545 
	C788.863464,1737.883667 798.323914,1738.108032 807.765198,1737.779907 
	C811.881897,1737.636719 812.000183,1739.678711 811.688660,1742.581909 
	C811.426514,1745.024658 813.129761,1748.287354 808.052307,1748.144043 
	C796.618713,1747.821655 785.169739,1748.049561 773.727051,1748.031738 
	C772.779602,1748.030273 771.704102,1748.351440 770.971191,1746.842041 
z"/>
<path fill="#060606" opacity="1.000000" stroke="none" 
	d="
M889.080872,1748.043457 
	C886.745789,1747.679565 883.869202,1749.129761 883.218140,1747.101440 
	C882.397766,1744.545898 882.843140,1741.510620 883.103394,1738.715942 
	C883.214111,1737.526733 884.726074,1737.899048 885.661621,1737.897583 
	C897.441101,1737.878418 909.221252,1737.960083 920.999756,1737.851074 
	C926.052917,1737.804443 923.504639,1741.478638 923.812866,1743.511841 
	C924.109009,1745.465088 925.044067,1748.201782 920.925110,1748.114868 
	C910.477539,1747.894287 900.022156,1748.042725 889.080872,1748.043457 
z"/>
<path fill="#DAEEE2" opacity="1.000000" stroke="none" 
	d="
M1224.995117,375.000000 
	C1224.990723,600.997009 1224.986816,826.493958 1224.980469,1051.990967 
	C1224.980225,1061.453735 1220.427612,1066.012939 1210.929443,1066.012939 
	C951.100281,1066.012207 691.271057,1066.004028 431.441895,1066.000610 
	C355.276520,1065.999512 279.111145,1066.007202 202.945770,1066.015747 
	C193.791962,1066.016724 188.997772,1061.349487 188.997925,1052.377075 
	C189.002014,808.213806 189.007126,564.050476 189.013321,319.887177 
	C189.013565,309.988007 193.009949,305.955627 202.899353,305.955750 
	C433.394226,305.958710 663.889099,305.971375 894.383972,305.974854 
	C1000.048340,305.976471 1105.712769,305.963531 1211.377075,305.953400 
	C1219.764526,305.952576 1224.990967,311.121185 1224.993286,319.479218 
	C1224.998657,337.819489 1224.995117,356.159729 1224.995117,375.000000 
z"/>
<path fill="#EFF0F2" opacity="1.000000" stroke="none" 
	d="
M857.000000,276.006165 
	C720.235901,276.006195 583.971863,276.006195 447.707764,276.006195 
	C447.707947,275.545685 447.708130,275.085144 447.708313,274.624634 
	C620.568481,274.624634 793.428650,274.624634 966.288818,274.624634 
	C966.292847,275.085114 966.296814,275.545624 966.300842,276.006104 
	C930.033875,276.006104 893.766968,276.006104 857.000000,276.006165 
z"/>
<path fill="#E6E8EB" opacity="1.000000" stroke="none" 
	d="
M292.000000,1095.985352 
	C602.905640,1095.985352 913.311279,1095.985352 1223.716919,1095.985352 
	C1223.716919,1096.207397 1223.717041,1096.429321 1223.717041,1096.651367 
	C879.237305,1096.651367 534.757507,1096.651367 190.277695,1096.651367 
	C190.275970,1096.429321 190.274246,1096.207397 190.272522,1095.985352 
	C224.015015,1095.985352 257.757507,1095.985352 292.000000,1095.985352 
z"/>
<path fill="#FDC234" opacity="1.000000" stroke="none" 
	d="
M268.000000,234.269684 
	C300.959167,234.269699 333.418365,234.269257 365.877533,234.270477 
	C367.209106,234.270523 368.541168,234.266510 369.872131,234.300018 
	C371.285950,234.335587 371.938904,235.079422 371.958740,236.504883 
	C371.979889,238.027435 371.589996,239.144547 369.818787,239.191635 
	C368.654449,239.222595 367.489471,239.245804 366.324799,239.245865 
	C312.891998,239.248428 259.459198,239.248169 206.026382,239.247330 
	C205.027695,239.247314 204.028183,239.208160 203.030518,239.237366 
	C201.317535,239.287521 200.660980,238.427155 200.694092,236.781509 
	C200.726562,235.165894 201.402054,234.281845 203.081512,234.288971 
	C204.246490,234.293915 205.411591,234.270432 206.576630,234.270355 
	C226.884415,234.269089 247.192215,234.269470 268.000000,234.269684 
z"/>
<path fill="#315A3C" opacity="1.000000" stroke="none" 
	d="
M398.154419,226.900330 
	C390.673798,227.071167 386.478912,224.570999 384.394012,218.991760 
	C382.777740,214.666702 384.397491,209.109314 388.176086,206.015015 
	C393.478790,201.672638 401.389435,202.695190 405.307068,208.229431 
	C409.347687,213.937424 407.948425,221.516251 402.119141,225.161774 
	C401.006592,225.857544 399.720581,226.275864 398.154419,226.900330 
z"/>
<path fill="#5E7F68" opacity="1.000000" stroke="none" 
	d="
M351.709473,209.986160 
	C352.444336,209.895447 352.893677,209.804474 353.678833,209.790375 
	C355.999939,214.606155 354.859894,219.484146 354.461548,224.770752 
	C351.574677,229.217438 347.006836,230.514725 343.827515,228.138611 
	C342.755188,227.337158 341.460114,226.268173 342.320160,224.875336 
	C343.048676,223.695496 344.395599,224.390228 345.428741,225.001450 
	C346.408569,225.581161 347.246613,226.607132 348.545044,226.287949 
	C349.699371,226.004181 350.964111,225.447571 351.047424,224.166687 
	C351.170746,222.271149 349.649933,222.834930 348.556702,222.891418 
	C348.059113,222.917130 347.524902,222.824768 347.069122,222.974350 
	C343.799103,224.047562 341.792175,217.738785 339.934174,220.357483 
	C337.686951,223.524765 335.147797,222.295883 332.823273,222.922623 
	C330.439941,223.565231 327.747894,223.598770 326.263794,220.253677 
	C324.905212,218.289230 324.361694,216.522369 325.355225,214.099060 
	C325.910706,212.942444 326.295563,212.231918 326.863342,211.273300 
	C327.492371,210.522415 327.998657,210.096603 328.923706,209.694244 
	C330.475555,209.042770 331.739044,209.029785 333.376160,209.549957 
	C334.300293,209.796768 334.851532,209.970291 335.698303,210.142181 
	C336.618103,210.258133 337.587128,210.067902 337.841949,210.409866 
	C339.929626,213.211487 341.740021,212.735229 343.931427,210.420944 
	C345.210846,209.069763 347.142456,208.807587 349.382202,209.570007 
	C350.294495,209.824936 350.850677,209.962234 351.709473,209.986160 
z"/>
<path fill="#5E7F68" opacity="1.000000" stroke="none" 
	d="
M237.845581,215.236755 
	C239.805283,216.310287 240.155762,214.931778 240.834549,213.678299 
	C243.766296,208.264557 248.780746,207.385361 252.820541,211.812485 
	C254.301865,213.435852 254.992096,214.015442 256.495117,212.099106 
	C260.184814,207.394852 264.813202,209.442078 269.191650,210.740570 
	C267.828156,211.760574 268.101898,213.606476 266.439270,214.413086 
	C265.784973,214.549194 265.460052,214.530960 265.140198,214.465668 
	C263.476898,214.126251 261.358490,212.787796 260.626068,215.427841 
	C259.861603,218.183273 262.290771,218.500977 264.504517,219.147675 
	C265.948639,219.760361 266.998505,220.329239 267.201843,222.002930 
	C262.854370,222.872467 258.515045,223.920609 255.693619,219.152237 
	C255.002899,217.984909 254.210770,218.757019 253.357285,219.483673 
	C246.982513,224.911087 244.285538,224.426926 240.381760,217.299438 
	C240.023621,216.645538 239.489792,216.403244 238.419205,216.849762 
	C237.681335,216.673523 237.529617,216.164764 237.845581,215.236755 
z"/>
<path fill="#5E7F68" opacity="1.000000" stroke="none" 
	d="
M323.261292,219.622070 
	C323.011871,221.160629 323.322845,222.576065 321.581268,222.630478 
	C319.982849,222.680466 319.813721,221.469238 319.822937,220.215500 
	C319.832733,218.885986 319.804901,217.556244 319.809937,216.226654 
	C319.817474,214.237595 319.439880,212.461014 316.981323,212.381577 
	C314.570831,212.303696 313.917664,213.922287 313.889771,215.983292 
	C313.874054,217.146561 313.902039,218.311401 313.852020,219.473007 
	C313.797363,220.742844 314.194550,222.470505 312.294617,222.589264 
	C310.137329,222.724136 310.818451,220.849319 310.721375,219.673340 
	C310.612335,218.351868 310.714539,217.014435 310.655670,215.687012 
	C310.571594,213.789688 309.685425,212.471985 307.672974,212.402847 
	C305.563416,212.330368 304.814972,213.764069 304.652069,215.610672 
	C304.579224,216.436493 304.721130,217.292725 304.568115,218.097595 
	C304.265350,219.690079 305.624023,222.490158 302.866425,222.443970 
	C300.584747,222.405746 301.817688,219.793900 301.563019,218.324280 
	C301.395264,217.356110 301.661438,216.314865 301.508759,215.341568 
	C300.835602,211.049408 302.309113,208.796417 306.953064,209.242020 
	C310.595703,209.591553 314.146240,210.259842 317.928192,209.308960 
	C320.309937,208.710144 322.171539,210.772675 322.938232,213.661484 
	C324.379333,215.636368 324.387299,217.380981 323.261292,219.622070 
z"/>
<path fill="#5E7F68" opacity="1.000000" stroke="none" 
	d="
M234.686646,216.453644 
	C233.077286,216.068497 232.999710,217.913269 232.283768,219.109009 
	C230.832077,221.533630 228.884308,223.440811 225.884064,222.841568 
	C222.881836,222.241928 221.585495,222.883698 221.983414,226.135941 
	C222.129791,227.332413 222.338776,229.163208 220.271851,228.944138 
	C218.385712,228.744232 218.859802,226.995255 218.841354,225.756317 
	C218.789642,222.282303 218.623505,218.791046 218.899887,215.338394 
	C219.058517,213.356857 217.304153,209.969696 220.860260,209.729950 
	C224.806000,209.463913 229.627106,207.484573 232.205643,212.793091 
	C232.837341,214.093582 232.696671,215.791641 234.686646,216.453644 
z"/>
<path fill="#5E7F68" opacity="1.000000" stroke="none" 
	d="
M204.641327,221.481445 
	C200.980972,216.936783 202.952972,211.983582 202.676315,207.312683 
	C202.622604,206.405731 203.493759,205.843445 204.405579,205.919037 
	C205.384521,206.000214 205.745468,206.805954 205.760010,207.690338 
	C205.803665,210.343201 205.827209,212.997025 205.807114,215.650101 
	C205.790176,217.881607 206.353989,219.694229 208.984940,219.758713 
	C211.829926,219.828445 212.619019,217.988571 212.605606,215.514420 
	C212.592117,213.026886 212.597351,210.538803 212.635864,208.051620 
	C212.651749,207.026459 212.819794,205.994446 214.139465,205.883255 
	C215.767151,205.746109 216.047485,206.854294 216.056580,208.127335 
	C216.071930,210.283234 216.126694,212.441330 216.055634,214.594910 
	C215.804047,222.219437 212.235001,224.496567 204.641327,221.481445 
z"/>
<path fill="#5E7F68" opacity="1.000000" stroke="none" 
	d="
M357.307068,215.904205 
	C357.907928,213.716995 358.148041,211.712692 360.059662,210.508255 
	C362.870911,208.737015 365.594269,208.505112 368.318878,210.570541 
	C371.660156,213.103500 370.788971,216.465332 369.675964,219.546402 
	C368.339142,223.247177 365.208984,223.461533 361.561798,222.504761 
	C360.606049,222.200546 360.025238,221.902817 359.322815,221.183563 
	C357.908234,219.602234 357.695984,217.902054 357.307068,215.904205 
z"/>
<path fill="#5E7F68" opacity="1.000000" stroke="none" 
	d="
M283.218079,221.904297 
	C277.625275,223.578644 272.954315,223.356461 271.496582,216.484070 
	C271.376251,215.916672 270.396149,216.072800 269.547302,216.938232 
	C268.729187,216.795853 268.534668,216.201736 268.939697,215.109070 
	C269.988220,215.470581 271.264709,216.915436 271.674042,215.066452 
	C273.032776,208.928696 277.390137,208.936768 282.477478,209.055328 
	C284.088165,210.087296 283.239105,211.046280 281.973450,212.190613 
	C281.381439,212.551331 281.078674,212.683884 280.767761,212.796646 
	C279.098694,213.401932 276.831665,213.538635 276.774658,215.869064 
	C276.707672,218.606781 279.211334,218.539719 281.384583,219.195526 
	C282.631714,219.789490 283.204712,220.512833 283.218079,221.904297 
z"/>
<path fill="#5E7F68" opacity="1.000000" stroke="none" 
	d="
M294.851562,208.973267 
	C294.899231,207.139679 295.274170,205.811630 297.060516,206.081924 
	C298.296997,206.268997 298.195862,207.520401 298.199158,208.492584 
	C298.212555,212.445374 298.209137,216.398300 298.188660,220.351074 
	C298.183411,221.365707 298.051331,222.506760 296.782684,222.567505 
	C295.293518,222.638809 294.894989,221.461029 294.881256,220.225021 
	C294.840942,216.602005 294.856689,212.978363 294.851562,208.973267 
z"/>
<path fill="#315A3C" opacity="1.000000" stroke="none" 
	d="
M283.487793,222.422119 
	C282.741028,221.600433 282.379578,220.948105 281.918823,220.029633 
	C281.190582,217.486343 281.516907,215.056961 280.800140,212.492279 
	C281.423462,211.147430 283.046936,210.960556 282.904419,209.116943 
	C282.832306,208.070969 282.838715,207.376907 282.985596,206.362976 
	C283.602081,205.445389 284.205444,205.402161 285.072754,205.903564 
	C286.339722,211.010788 285.543304,215.912445 285.695190,220.785477 
	C285.730377,221.914871 285.065155,222.578659 283.487793,222.422119 
z"/>
<path fill="#315A3C" opacity="1.000000" stroke="none" 
	d="
M235.332275,216.760681 
	C235.168594,216.270477 235.142044,216.519043 235.156281,216.558380 
	C235.311569,213.524597 235.452606,210.451492 235.666290,206.919174 
	C235.829620,205.341141 236.611908,205.474609 237.669739,205.790848 
	C238.040268,208.684357 238.108917,211.347397 238.125366,214.449768 
	C238.011185,215.385391 237.949188,215.881653 237.980179,216.744293 
	C238.043961,218.871643 238.779022,220.738449 237.369156,222.375427 
	C234.589264,221.409225 236.112000,218.937088 235.332275,216.760681 
z"/>
<path fill="#EFF0F2" opacity="1.000000" stroke="none" 
	d="
M979.665527,274.977997 
	C986.575745,273.406036 993.432983,274.160004 1000.305237,275.016388 
	C993.421021,275.790527 986.556091,276.670532 979.665527,274.977997 
z"/>
<path fill="#EFF0F2" opacity="1.000000" stroke="none" 
	d="
M419.364746,274.008820 
	C423.991119,274.008545 428.169525,274.008545 432.347961,274.008545 
	C432.332367,274.563019 432.316772,275.117493 432.301178,275.671967 
	C426.783020,276.299622 421.249207,275.996277 415.458160,275.827637 
	C416.199432,273.326202 417.799835,274.296844 419.364746,274.008820 
z"/>
<path fill="#A0ADAF" opacity="1.000000" stroke="none" 
	d="
M356.900940,215.341980 
	C357.264587,215.556000 357.221741,215.544891 357.242432,215.538269 
	C354.025513,217.997864 357.180328,222.100189 354.577026,225.014832 
	C354.199219,220.420929 354.133148,215.620728 354.040863,210.343903 
	C357.800354,210.208664 354.437683,213.977997 356.900940,215.341980 
z"/>
<path fill="#315A3C" opacity="1.000000" stroke="none" 
	d="
M269.287109,214.342575 
	C269.156311,215.287354 269.081177,215.863480 269.118713,216.864426 
	C268.894714,219.098175 270.729736,221.484848 267.454834,222.478668 
	C266.470917,221.684052 265.848419,221.018967 265.083130,220.110626 
	C264.501465,218.041382 264.602417,216.270187 265.737000,214.288940 
	C267.184296,213.321320 266.507477,211.127655 268.757751,211.025269 
	C269.184357,212.005142 269.263580,212.989532 269.287109,214.342575 
z"/>
<path fill="#A0ADAF" opacity="1.000000" stroke="none" 
	d="
M323.237427,219.796677 
	C322.985291,218.312729 322.924713,216.593338 322.926331,214.447906 
	C323.630493,213.993103 324.272491,213.964371 325.220154,213.794281 
	C325.674561,215.457886 325.823242,217.262802 325.995728,219.517975 
	C325.174408,219.715424 324.498230,218.387314 323.237427,219.796677 
z"/>
<path fill="#A0ADAF" opacity="1.000000" stroke="none" 
	d="
M237.984741,205.685669 
	C237.415726,206.140747 236.859802,206.260178 236.021423,206.419785 
	C235.255615,205.709061 235.172958,204.989853 236.108322,204.566406 
	C236.953735,204.183685 237.584091,204.565399 237.984741,205.685669 
z"/>
<path fill="#5E7F68" opacity="1.000000" stroke="none" 
	d="
M285.370117,205.930847 
	C284.734894,206.143967 284.198090,206.122406 283.393677,206.071976 
	C283.647034,204.172760 284.497864,204.529984 285.370117,205.930847 
z"/>
<path fill="#A0ADAF" opacity="1.000000" stroke="none" 
	d="
M359.166748,221.239990 
	C359.748688,221.242630 360.385590,221.556366 361.140961,222.116516 
	C360.308380,222.774506 359.658356,222.430679 359.166748,221.239990 
z"/>
<path fill="#A0ADAF" opacity="1.000000" stroke="none" 
	d="
M351.768494,209.765823 
	C351.409241,211.058380 350.699860,210.742706 349.849457,209.949631 
	C350.335083,209.669876 350.938538,209.607559 351.768494,209.765823 
z"/>
<path fill="#A0ADAF" opacity="1.000000" stroke="none" 
	d="
M335.755859,209.970383 
	C335.272888,211.149902 334.602600,210.778809 333.835327,209.924240 
	C334.331177,209.715576 334.931427,209.727310 335.755859,209.970383 
z"/>
<path fill="#A0ADAF" opacity="1.000000" stroke="none" 
	d="
M328.935516,209.492920 
	C328.691681,210.039368 328.144958,210.494232 327.322205,210.987152 
	C327.158478,210.076996 327.624298,209.474182 328.935516,209.492920 
z"/>
<path fill="#F5F6F7" opacity="1.000000" stroke="none" 
	d="
M726.703857,1583.914429 
	C723.117493,1590.613037 719.103333,1597.373169 714.698120,1604.791870 
	C712.625488,1598.464111 712.932739,1592.665283 712.732178,1586.461182 
	C717.232483,1585.225342 721.911133,1585.653931 726.703857,1583.914429 
z"/>
<path fill="#774E2A" opacity="1.000000" stroke="none" 
	d="
M686.935486,1577.843262 
	C686.754150,1577.979614 686.518860,1577.838257 686.225830,1577.428711 
	C686.423889,1577.258179 686.661682,1577.393188 686.935486,1577.843262 
z"/>
<path fill="#FDFDFD" opacity="1.000000" stroke="none" 
	d="
M683.707520,1592.320312 
	C683.989197,1607.550537 683.989197,1622.946411 683.989197,1639.021240 
	C674.859192,1630.039917 668.442749,1619.227173 661.775757,1608.128418 
	C669.871460,1604.127808 678.196594,1600.514771 683.707520,1592.320312 
z"/>
<path fill="#060606" opacity="1.000000" stroke="none" 
	d="
M1012.662781,621.566345 
	C994.021545,631.834167 975.697571,641.905090 957.375183,651.978882 
	C950.399963,655.813843 947.625977,655.511902 944.256348,648.391724 
	C939.905212,639.197571 932.968201,634.186646 923.635010,630.689392 
	C908.737549,625.107239 894.293945,618.320435 879.605103,612.170410 
	C875.321411,610.376892 871.863098,607.690979 869.124207,604.026550 
	C864.199280,597.437317 863.498169,590.813538 867.043457,585.051453 
	C871.485046,577.832581 878.995728,574.294861 886.895996,575.657654 
	C888.357239,575.909729 889.844849,576.008423 892.207581,576.279785 
	C888.079590,569.418945 884.319580,563.135132 880.525269,556.872070 
	C875.364319,548.353088 870.133118,539.876343 865.012756,531.333191 
	C858.984131,521.274719 860.501343,512.671204 869.197571,507.006287 
	C879.022339,500.606262 890.966614,502.265991 897.034424,511.400330 
	C902.812256,520.098083 908.163513,529.093323 913.369507,538.148987 
	C915.206177,541.343872 916.703430,541.804871 919.786133,539.868042 
	C924.739746,536.755798 929.852966,533.839844 935.983765,537.455505 
	C937.638489,538.431396 939.041870,536.631409 940.385742,535.854797 
	C945.505737,532.896057 950.493286,529.782471 956.541992,533.757385 
	C958.125000,534.797668 959.304443,533.092346 960.562195,532.490540 
	C964.273804,530.714600 967.590027,528.294800 971.977173,527.848877 
	C982.102356,526.819702 989.677673,529.794922 994.720215,539.256653 
	C999.392395,548.023499 1004.774719,556.436890 1010.233643,564.750244 
	C1013.578552,569.844177 1014.681458,575.272644 1015.107849,581.176880 
	C1015.874268,591.787354 1016.948303,602.379761 1018.116455,612.955139 
	C1018.596130,617.297607 1016.994751,619.969482 1012.662781,621.566345 
z"/>
<path fill="#838D95" opacity="1.000000" stroke="none" 
	d="
M739.706543,700.351807 
	C740.654358,697.697144 738.109070,693.612671 741.873718,693.389099 
	C745.319458,693.184509 742.575867,697.646484 744.489990,699.698120 
	C746.714661,697.315247 749.305298,695.500916 752.951599,696.200256 
	C755.447510,696.679016 756.384705,698.553650 757.368530,700.518311 
	C760.599670,695.568298 766.447449,694.509888 770.798889,698.104736 
	C771.325439,698.539734 772.124023,699.248352 772.309570,698.747986 
	C773.809265,694.703979 779.435669,697.975403 781.080383,693.452393 
	C781.859497,691.309875 784.482910,692.398621 784.673096,694.773438 
	C784.977173,698.570923 785.015137,702.434082 784.671936,706.224731 
	C784.408875,709.129700 776.433105,709.846802 773.579041,707.282593 
	C772.987305,706.750977 772.594727,705.997620 772.084351,705.311523 
	C767.856201,710.433899 760.957092,710.044312 757.647583,704.419006 
	C756.150146,706.287415 754.837219,708.348022 752.226074,708.658325 
	C749.733765,708.954529 747.656860,708.312927 746.027954,706.301453 
	C744.657776,704.609497 744.127991,705.317505 743.506348,707.050476 
	C742.884827,708.783081 741.557434,709.235779 740.063599,707.307129 
	C739.232422,704.961731 738.232666,702.947571 739.706543,700.351807 
z"/>
<path fill="#060606" opacity="1.000000" stroke="none" 
	d="
M850.891357,538.859924 
	C841.894836,547.653870 832.930481,556.028931 824.177429,564.619263 
	C819.653320,569.059265 819.086914,563.031067 816.756104,561.966675 
	C813.946411,560.683655 815.077881,558.936646 816.964966,557.171326 
	C824.831604,549.812378 832.708069,542.451416 840.264282,534.779358 
	C843.180298,531.818542 845.156494,531.919861 847.581604,534.941772 
	C848.613281,536.227356 849.861328,537.339355 850.891357,538.859924 
z"/>
<path fill="#060606" opacity="1.000000" stroke="none" 
	d="
M897.117065,484.578491 
	C894.742432,482.908661 895.735901,481.748352 897.058533,480.492493 
	C905.384460,472.586670 913.739197,464.709595 921.954102,456.689545 
	C923.949890,454.741028 925.361328,454.588013 927.199646,456.719055 
	C928.605774,458.349152 930.275330,459.752045 932.093140,461.513092 
	C922.740173,470.474548 913.494507,479.287201 904.318481,488.171844 
	C902.842773,489.600708 901.848145,489.318390 900.632202,487.959595 
	C899.637146,486.847626 898.479431,485.881226 897.117065,484.578491 
z"/>
<path fill="#060606" opacity="1.000000" stroke="none" 
	d="
M852.838501,479.183716 
	C854.163452,483.789459 849.662720,484.247528 847.867371,486.528351 
	C846.280273,488.544830 845.063354,485.786621 844.052185,484.840088 
	C836.161987,477.454773 828.459351,469.867798 820.515320,462.542084 
	C818.265930,460.467773 818.067566,459.344666 820.470459,457.213501 
	C825.352722,452.883240 825.199402,452.749451 829.866089,457.224915 
	C837.426636,464.475586 845.013611,471.698761 852.838501,479.183716 
z"/>
<path fill="#060606" opacity="1.000000" stroke="none" 
	d="
M881.083130,438.283508 
	C881.083923,449.246582 880.842773,459.744507 881.198853,470.222168 
	C881.347351,474.591553 878.963440,474.144989 876.308960,473.966980 
	C873.687805,473.791229 870.281189,475.428131 870.474243,470.097351 
	C870.847595,459.787659 870.550293,449.454620 870.618896,439.131836 
	C870.628479,437.684326 869.878723,434.931702 872.412781,435.466797 
	C875.299500,436.076355 879.525574,432.428711 881.083130,438.283508 
z"/>
<path fill="#060606" opacity="1.000000" stroke="none" 
	d="
M915.247009,503.089417 
	C926.667297,503.089233 937.622620,503.330963 948.558716,502.976624 
	C953.292908,502.823212 952.425781,505.573761 952.515808,508.305725 
	C952.607483,511.086853 952.898071,513.305298 948.645508,513.184509 
	C937.375305,512.864319 926.089905,513.051453 914.810791,513.096924 
	C912.660645,513.105591 910.425781,513.120361 911.239136,510.127380 
	C911.922791,507.611542 908.404297,502.769226 915.247009,503.089417 
z"/>
<path fill="#060606" opacity="1.000000" stroke="none" 
	d="
M834.911377,513.075867 
	C824.293823,513.075867 814.162842,512.875977 804.046570,513.175415 
	C800.071411,513.293091 799.118591,512.108459 799.094421,508.239044 
	C799.069092,504.182037 800.077148,502.858398 804.291809,502.987000 
	C814.573303,503.300690 824.873901,503.230347 835.160400,503.013275 
	C838.801636,502.936432 840.475037,503.534424 840.239746,507.755310 
	C840.041748,511.307251 840.109619,514.066528 834.911377,513.075867 
z"/>
<path fill="#A0ADAF" opacity="1.000000" stroke="none" 
	d="
M551.419434,738.504395 
	C553.572571,738.564026 553.081726,736.741333 553.706421,735.712341 
	C554.430908,734.518799 554.197266,732.300476 556.218018,732.547058 
	C558.873962,732.871033 556.644531,735.358704 557.730225,736.867920 
	C560.393799,733.941223 562.545471,729.843750 567.553284,732.394409 
	C569.416565,733.343384 570.647583,734.371399 571.087646,736.729553 
	C571.461060,738.730591 571.198853,741.252258 574.014526,742.555481 
	C575.887939,743.422546 574.740112,745.632263 573.779785,746.916138 
	C572.574646,748.527466 571.652222,747.781982 570.990479,746.167480 
	C570.156555,744.132812 568.767761,745.712341 567.616699,745.797241 
	C563.910339,746.070557 560.089722,746.656860 558.783630,741.694092 
	C558.515320,740.674316 557.711731,739.963318 556.587036,739.982300 
	C555.281128,740.004272 555.142822,741.079834 554.903625,742.065613 
	C554.451782,743.927917 553.627808,745.898926 551.473145,745.657837 
	C549.518738,745.439148 548.994080,743.227356 548.250977,741.610413 
	C547.912231,740.873291 548.061401,739.864563 547.624512,739.230225 
	C546.877747,738.146057 547.606384,735.221436 544.704102,736.560669 
	C541.632507,737.978027 544.383972,739.151245 545.001160,740.253296 
	C546.403442,742.757263 545.554321,744.694580 543.219666,745.482178 
	C540.540344,746.385925 537.565979,746.668091 535.682129,743.631042 
	C535.308655,743.029053 535.507690,742.349731 536.103577,741.868774 
	C537.138855,741.033203 537.919617,741.716919 538.769104,742.263855 
	C539.731812,742.883728 541.006287,743.756714 541.549011,742.077271 
	C541.926270,740.909851 540.444031,740.573181 539.584351,740.257751 
	C536.965698,739.296814 533.978821,738.285400 535.952393,734.789978 
	C537.388611,732.246338 539.298767,731.189209 543.239868,732.213501 
	C547.296326,733.268005 549.934631,734.322449 551.419434,738.504395 
z"/>
<path fill="#A0ADAF" opacity="1.000000" stroke="none" 
	d="
M774.117126,736.395142 
	C774.251526,733.003601 775.857605,731.499207 778.749695,731.164551 
	C782.040833,730.783752 783.384094,732.998657 784.662659,735.864319 
	C787.433777,731.668640 790.273132,728.487793 794.711792,733.742493 
	C795.578247,734.768250 796.914368,733.792664 797.714355,732.910156 
	C799.379761,731.072815 801.397522,730.596008 803.555237,731.622131 
	C805.823730,732.700867 806.117432,734.894714 806.052429,737.156555 
	C806.009460,738.649475 806.167175,740.164124 805.970459,741.633545 
	C805.428406,745.681702 801.318115,747.580444 798.315796,744.910645 
	C796.360352,743.171753 795.521057,742.369019 793.263184,744.716064 
	C790.582031,747.503113 787.641907,746.276550 784.466736,741.497070 
	C783.720093,745.157288 781.724976,747.271790 778.065979,746.627686 
	C774.254272,745.956848 773.690918,743.121399 774.108032,739.809692 
	C774.231323,738.830872 774.125488,737.823059 774.117126,736.395142 
z"/>
<path fill="#A0ADAF" opacity="1.000000" stroke="none" 
	d="
M847.182068,732.935181 
	C849.317688,735.886292 849.266479,738.899048 848.692383,741.842773 
	C848.355286,743.570740 847.634766,745.552551 845.425049,745.770630 
	C843.373840,745.973206 841.001953,746.701599 839.726624,744.112244 
	C838.382202,741.382690 837.234131,742.068848 836.153259,744.277100 
	C835.572876,745.462708 834.351318,746.393555 833.383423,745.827026 
	C829.525818,743.569092 824.715027,746.290527 821.025269,743.253662 
	C820.391479,742.731995 819.108337,742.986267 818.123108,742.907104 
	C816.007019,742.737000 815.463257,741.311523 816.347351,739.810425 
	C817.929443,737.124207 819.458923,734.093384 821.826111,732.259521 
	C825.054565,729.758484 824.961670,734.135742 826.420349,735.380005 
	C831.092957,729.972168 831.138550,729.913269 836.579590,734.126465 
	C838.289612,735.450562 838.793091,734.284790 839.659851,733.235168 
	C841.846252,730.587463 844.293152,730.288208 847.182068,732.935181 
z"/>
<path fill="#A0ADAF" opacity="1.000000" stroke="none" 
	d="
M598.125854,742.204529 
	C595.892578,741.981689 595.974365,739.202759 593.626953,739.218079 
	C591.752136,737.622925 592.836365,736.749878 594.703491,735.928894 
	C596.322327,736.687744 597.502319,737.494324 599.117188,738.598083 
	C599.117188,736.798096 599.056458,735.491821 599.132019,734.193542 
	C599.234192,732.438110 600.668030,731.372986 601.645020,732.736450 
	C603.725281,735.639648 605.214722,733.590271 606.853699,732.654785 
	C611.049866,730.260071 614.527527,731.966064 616.035828,736.760254 
	C616.691528,738.844360 615.411499,741.932922 619.297363,742.877991 
	C620.870728,743.260742 619.655334,746.051331 618.568298,747.132263 
	C616.989929,748.701965 616.400269,747.301636 616.167969,745.781311 
	C615.932983,744.243530 615.208252,744.587769 614.094788,745.050964 
	C610.910217,746.375610 607.659973,746.897278 604.888184,744.142273 
	C603.237793,742.501831 602.715942,744.703125 601.305908,744.945557 
	C600.005371,744.191528 599.694031,742.779785 598.125854,742.204529 
z"/>
<path fill="#A0ADAF" opacity="1.000000" stroke="none" 
	d="
M651.208496,745.929199 
	C646.883972,745.304260 645.465027,742.498779 644.653809,738.372742 
	C643.021301,741.755432 637.561340,739.671387 637.435425,744.977112 
	C637.406189,746.207031 635.363464,744.871704 635.299072,743.797302 
	C635.110657,740.653992 634.471863,737.234558 635.424805,734.399048 
	C636.754639,730.442139 640.569031,731.552490 642.845947,733.297913 
	C644.986633,734.939087 646.140991,734.667908 647.840210,733.219849 
	C650.406372,731.032959 653.000061,730.557251 655.797852,733.026428 
	C658.428894,735.348389 659.210938,738.405457 658.420593,741.426086 
	C657.615112,744.504578 655.163330,746.358459 651.208496,745.929199 
z"/>
<path fill="#A0ADAF" opacity="1.000000" stroke="none" 
	d="
M762.761719,736.876770 
	C762.257690,740.345703 760.835449,744.193909 766.753723,742.503967 
	C767.790649,742.207886 768.615051,743.198486 768.665771,744.318787 
	C768.729553,745.725159 767.644165,745.833008 766.606873,745.773865 
	C765.792542,745.727478 764.884521,745.751221 764.191528,745.400818 
	C759.137207,742.844971 753.398193,747.858643 748.453369,743.950684 
	C748.053589,743.634644 747.021118,743.692932 746.526306,743.987183 
	C738.359680,748.843262 743.109802,741.510864 743.408081,740.243469 
	C744.088257,737.353821 744.634094,733.011841 747.688171,732.610168 
	C751.095947,732.161926 750.076172,737.087402 751.917664,739.001343 
	C753.152100,740.284241 752.373413,742.368469 754.341431,743.537964 
	C756.122437,741.413452 757.940674,739.488403 755.570923,736.487915 
	C754.841187,735.563904 754.636047,734.142517 755.286255,733.172302 
	C756.353333,731.580200 757.219604,733.230469 758.124390,733.678894 
	C758.903015,734.064758 759.636292,734.203186 760.487915,733.844666 
	C761.455078,733.437500 762.239929,731.699646 763.408142,732.849670 
	C764.591614,734.014648 762.977844,735.264099 762.761719,736.876770 
z"/>
<path fill="#A0ADAF" opacity="1.000000" stroke="none" 
	d="
M868.220947,741.578430 
	C868.966614,742.993103 870.563843,743.920898 869.241638,745.342285 
	C868.483093,746.157715 867.446533,745.799072 866.486389,745.309937 
	C865.753418,744.936584 863.129211,741.116760 862.918213,740.225586 
	C862.706909,739.333130 862.167358,738.518372 861.402283,737.633057 
	C861.411316,742.472778 860.923767,746.630127 854.636963,746.043335 
	C853.725220,745.958313 853.219421,746.714783 853.002747,747.622253 
	C852.712097,748.839661 852.727600,750.772339 850.859497,750.156189 
	C849.386169,749.670227 850.107544,747.818420 850.052307,746.570496 
	C849.949219,744.242065 849.986938,741.905823 850.017883,739.573425 
	C850.068298,735.770386 853.687073,732.981995 857.238159,734.548584 
	C861.170532,736.283264 865.014832,735.477356 869.052185,735.313110 
	C870.401917,737.557678 867.163696,739.095581 868.220947,741.578430 
z"/>
<path fill="#A0ADAF" opacity="1.000000" stroke="none" 
	d="
M688.555359,733.617310 
	C694.936035,730.558044 697.852661,731.862427 699.258911,737.738647 
	C700.002625,740.846130 699.428528,743.573425 696.833801,745.134338 
	C694.390686,746.604004 691.196716,746.832336 688.907593,744.833862 
	C686.457825,742.695251 685.177612,739.719116 686.610596,736.328369 
	C686.989624,735.431458 687.715149,734.680969 688.555359,733.617310 
z"/>
<path fill="#838D95" opacity="1.000000" stroke="none" 
	d="
M716.328918,704.496094 
	C720.722107,705.204834 718.872314,702.051086 719.223083,700.332947 
	C719.543335,698.763794 718.956726,696.543091 721.269043,696.428650 
	C724.024414,696.292358 723.537354,698.697571 723.647461,700.451294 
	C723.699585,701.281067 723.591797,702.123047 723.670349,702.948669 
	C724.016602,706.586853 723.463867,708.934204 718.736267,708.767944 
	C714.281006,708.611206 711.443787,707.566406 712.042358,702.585571 
	C712.293091,700.498413 710.549133,696.837708 713.526611,696.649841 
	C716.870911,696.438782 715.114075,700.219604 715.633789,702.240479 
	C715.798218,702.880066 715.890930,703.538147 716.328918,704.496094 
z"/>
<path fill="#838D95" opacity="1.000000" stroke="none" 
	d="
M628.129822,702.314941 
	C628.335144,693.913696 633.496460,690.839539 640.664307,694.999878 
	C641.861084,696.135925 641.678345,697.062378 640.835083,698.263062 
	C639.310974,699.153137 638.004028,698.863831 636.701050,698.771667 
	C635.115540,698.659546 633.530701,698.809021 633.670471,700.925293 
	C633.791931,702.764404 635.159912,703.319946 636.838501,703.179138 
	C638.303223,703.056335 639.766663,702.732422 641.528992,703.437134 
	C642.678284,704.604126 642.141113,705.390930 641.151001,706.361267 
	C636.502625,708.951660 632.451843,709.411316 629.006958,704.494019 
	C628.552246,703.675293 628.213379,703.198730 628.129822,702.314941 
z"/>
<path fill="#838D95" opacity="1.000000" stroke="none" 
	d="
M738.155518,704.324707 
	C737.497498,707.012085 735.760864,707.998169 733.659729,708.085632 
	C731.065796,708.193542 728.546265,707.953491 728.792603,711.762146 
	C728.818909,712.168518 728.043884,712.904724 727.542114,713.007690 
	C726.591675,713.202637 725.966614,712.470032 725.953735,711.570984 
	C725.892151,707.258728 725.288879,702.822998 726.104675,698.672180 
	C726.726807,695.507019 730.343445,696.558350 732.837280,696.624329 
	C734.962402,696.680603 736.679321,697.598572 737.722778,699.993652 
	C739.146973,701.391174 739.068726,702.678894 738.155518,704.324707 
z"/>
<path fill="#A0ADAF" opacity="1.000000" stroke="none" 
	d="
M739.223816,744.551086 
	C736.099487,744.235474 731.576111,747.996216 730.916016,741.600891 
	C729.202942,742.794739 730.903625,745.704651 728.468079,745.519104 
	C726.278015,745.352295 727.239136,743.213867 727.048889,741.880249 
	C726.932739,741.065735 726.893494,740.194763 727.052124,739.395203 
	C727.503357,737.121033 725.587219,733.640564 728.675781,732.856506 
	C730.738403,732.332947 731.142761,735.766846 732.306274,737.444885 
	C734.988220,741.312866 735.235229,736.132690 737.206665,735.890259 
	C741.275269,737.828369 738.790222,741.339478 739.223816,744.551086 
z"/>
<path fill="#A0ADAF" opacity="1.000000" stroke="none" 
	d="
M647.707642,694.433411 
	C648.638184,691.669739 650.511963,690.999084 652.571411,691.295776 
	C655.001587,691.645874 654.759644,693.743958 654.816589,695.590088 
	C654.840759,696.371887 655.250122,697.141724 655.821350,698.173706 
	C657.744141,700.748169 657.429138,703.403625 657.307251,706.332153 
	C655.975769,707.080139 654.838867,707.486084 653.340820,707.927368 
	C651.648865,706.657288 652.116821,704.971436 652.009521,703.483826 
	C651.878174,704.753357 652.237854,706.167786 651.245728,707.697388 
	C650.240662,707.916565 649.461914,707.868652 648.293091,707.802551 
	C645.621155,703.540161 646.221069,699.186523 647.707642,694.433411 
z"/>
<path fill="#838D95" opacity="1.000000" stroke="none" 
	d="
M702.133789,696.554077 
	C704.448669,697.785400 705.220398,699.737305 705.371948,701.683655 
	C705.667480,705.479492 703.890930,708.100830 699.943481,708.632019 
	C695.922302,709.173035 693.444824,707.092224 693.094910,703.220825 
	C692.770569,699.632507 694.021179,696.594177 698.319763,696.214294 
	C699.459473,696.113525 700.627014,696.327148 702.133789,696.554077 
z"/>
<path fill="#A0ADAF" opacity="1.000000" stroke="none" 
	d="
M702.220520,734.345215 
	C704.506409,732.859009 707.116333,732.084961 709.916992,732.120605 
	C711.254639,732.137634 713.120056,732.033447 713.238647,733.557068 
	C713.397278,735.597534 711.310242,734.625671 710.198792,734.970581 
	C709.618042,735.150696 709.032959,735.316772 708.466736,735.484192 
	C708.559082,737.547791 710.163208,736.895691 711.062073,737.349731 
	C711.824402,737.734741 712.600342,738.163635 712.397034,739.171997 
	C712.310364,739.602173 711.766174,740.342468 711.616699,740.299072 
	C707.168152,739.006287 709.145325,748.308594 703.266968,745.021362 
	C702.015198,741.537476 702.806335,738.093689 702.220520,734.345215 
z"/>
<path fill="#838D95" opacity="1.000000" stroke="none" 
	d="
M678.492554,706.965210 
	C677.550659,708.996948 676.177490,708.930664 674.813782,707.888855 
	C673.632996,706.986816 673.030212,706.088623 671.253235,707.597473 
	C669.570251,709.026367 668.800354,707.157654 668.791138,705.454407 
	C668.775085,702.478394 668.730591,699.501099 668.800476,696.526733 
	C668.829041,695.312012 668.314636,693.454407 670.184326,693.362000 
	C671.911377,693.276672 671.906494,694.984192 672.011047,696.321899 
	C672.071350,697.092896 672.246338,697.854919 672.357178,698.543152 
	C673.791992,698.791687 674.332581,697.748840 675.172729,697.302795 
	C675.931763,696.899841 676.743530,696.633911 677.435425,697.325684 
	C678.163269,698.053467 677.893250,698.996948 677.300110,699.536316 
	C674.008301,702.530457 676.924500,704.458130 678.492554,706.965210 
z"/>
<path fill="#A0ADAF" opacity="1.000000" stroke="none" 
	d="
M592.050720,738.014587 
	C588.412292,740.483643 583.015442,739.890198 582.094849,745.698425 
	C580.371399,741.629395 580.953003,737.726318 581.179810,733.925049 
	C581.321533,731.551331 583.590393,732.148499 585.144653,732.173340 
	C587.447571,732.210144 589.018799,733.868164 591.192505,735.138489 
	C592.960754,735.755493 592.567566,736.804260 592.050720,738.014587 
z"/>
<path fill="#A0ADAF" opacity="1.000000" stroke="none" 
	d="
M674.813965,739.391541 
	C674.720886,742.982910 674.088806,745.687195 670.006897,745.957947 
	C666.644287,746.180908 664.460999,744.789429 663.602905,741.695129 
	C662.722107,738.518555 664.299194,736.052429 667.098633,734.835693 
	C671.154907,733.072815 673.136108,735.880188 674.813965,739.391541 
z"/>
<path fill="#A0ADAF" opacity="1.000000" stroke="none" 
	d="
M722.881348,737.241455 
	C723.051636,740.755676 722.137085,744.065979 724.867798,746.590393 
	C725.523254,747.196472 725.852539,748.076294 724.907532,748.657104 
	C724.187256,749.099792 723.337219,748.904053 722.581238,748.386902 
	C717.830383,745.136597 717.941895,732.499878 722.755920,728.934631 
	C723.455261,728.416748 724.244568,727.927002 725.020691,728.416199 
	C726.126648,729.113098 725.851379,730.203247 725.132507,730.970581 
	C723.572327,732.635620 722.653137,734.479309 722.881348,737.241455 
z"/>
<path fill="#A0ADAF" opacity="1.000000" stroke="none" 
	d="
M814.854492,744.590454 
	C812.754272,746.508545 810.395752,744.503479 808.261719,745.593994 
	C807.654480,745.904297 806.945374,744.722595 807.232849,744.290588 
	C809.317810,741.156372 806.953308,737.894836 807.394348,734.694824 
	C809.560425,734.421814 811.034790,737.255554 813.490662,735.090515 
	C814.828796,733.910706 815.142334,736.229492 814.691467,737.029236 
	C813.267639,739.554749 814.391968,741.846069 814.854492,744.590454 
z"/>
<path fill="#838D95" opacity="1.000000" stroke="none" 
	d="
M685.304077,702.010620 
	C685.020935,700.494202 684.607727,699.399719 684.491577,698.274536 
	C684.291992,696.340759 685.115540,694.710815 686.649109,693.595337 
	C687.481323,692.989990 688.991150,692.998230 689.241150,693.967529 
	C689.687378,695.697693 692.067383,697.131653 690.277222,699.295227 
	C688.850769,701.019287 688.689514,702.936829 689.910217,704.760071 
	C690.640869,705.851379 692.100037,706.881592 690.276062,707.889160 
	C688.878113,708.661438 687.445679,707.890076 686.356384,706.626160 
	C685.271729,705.367676 685.308777,703.906372 685.304077,702.010620 
z"/>
<path fill="#A0ADAF" opacity="1.000000" stroke="none" 
	d="
M876.569946,738.961792 
	C875.551331,742.738159 876.334534,747.103577 871.790588,748.650635 
	C870.882202,747.736206 871.010315,746.920654 871.479065,746.200500 
	C874.955322,740.860107 874.032532,735.658203 871.028198,730.519592 
	C870.599121,729.785522 870.040283,728.987854 870.995605,728.416382 
	C871.759094,727.959534 872.546997,728.459778 873.234314,729.000916 
	C876.390808,731.485840 875.636841,735.318604 876.569946,738.961792 
z"/>
<path fill="#A0ADAF" opacity="1.000000" stroke="none" 
	d="
M630.041992,738.018982 
	C630.093811,736.440186 630.053284,735.273193 630.227539,734.139160 
	C630.357117,733.296204 630.927795,732.636536 631.875610,732.562195 
	C632.876892,732.483582 633.562744,733.189819 633.609619,733.984375 
	C633.819031,737.537292 634.952515,741.278198 632.193665,744.402283 
	C630.187012,746.674561 627.943848,746.736084 625.933533,744.475342 
	C625.097961,743.535767 625.109375,741.687012 626.818970,742.226074 
	C631.448425,743.685730 629.624146,740.228210 630.041992,738.018982 
z"/>
<path fill="#838D95" opacity="1.000000" stroke="none" 
	d="
M657.419312,706.947266 
	C655.992615,704.286316 655.770996,701.779236 656.139526,698.813477 
	C657.581909,696.597839 659.633057,696.668640 661.613403,696.752502 
	C663.261841,696.822266 665.675537,697.157837 665.519470,698.898804 
	C665.305847,701.283081 663.341553,699.543640 662.099792,699.341248 
	C660.803345,699.129883 659.759277,699.540588 659.255859,700.777039 
	C658.734863,702.056641 658.693604,703.461609 659.511963,704.593811 
	C660.422485,705.853699 661.697815,705.940125 663.012085,705.043152 
	C663.947449,704.404602 665.167053,703.325378 665.872681,704.913452 
	C666.526245,706.384216 665.245422,707.511475 663.924683,707.853943 
	C661.842834,708.393616 659.661438,708.673340 657.419312,706.947266 
z"/>
<path fill="#A0ADAF" opacity="1.000000" stroke="none" 
	d="
M639.760498,698.314941 
	C640.750000,697.546021 641.021301,696.826599 640.880127,695.630981 
	C642.000427,694.940063 643.154175,694.552856 644.664307,694.101013 
	C647.400208,698.255859 646.695129,702.641602 645.410645,707.408691 
	C643.923889,707.440552 642.748291,707.105591 641.206909,706.668396 
	C641.129395,705.933777 641.417725,705.301392 641.848450,704.441650 
	C641.481445,702.212708 639.858521,700.693237 639.760498,698.314941 
z"/>
<path fill="#A0ADAF" opacity="1.000000" stroke="none" 
	d="
M679.123169,739.611938 
	C678.260742,741.766663 679.978699,745.235718 677.003235,745.126404 
	C675.089233,745.056213 676.340027,741.714966 676.000427,739.870972 
	C675.911804,739.389893 676.037720,738.873352 675.995422,738.379028 
	C675.812195,736.240051 676.665894,734.862488 678.832153,734.411743 
	C679.904907,734.188599 680.885803,734.402649 681.414612,735.393555 
	C682.650208,737.709412 679.935303,737.927917 679.123169,739.611938 
z"/>
<path fill="#838D95" opacity="1.000000" stroke="none" 
	d="
M645.440918,707.894165 
	C645.087036,703.502441 645.074585,699.229370 645.041382,694.496399 
	C645.777466,693.933838 646.534180,693.831238 647.647827,693.892456 
	C647.975159,698.336060 647.945557,702.615906 647.909424,707.340088 
	C647.196045,707.860596 646.489197,707.936768 645.440918,707.894165 
z"/>
<path fill="#838D95" opacity="1.000000" stroke="none" 
	d="
M591.739868,738.649292 
	C591.780640,737.413940 591.823425,736.592834 591.720581,735.516113 
	C591.285339,734.056885 591.363098,732.683655 592.722961,732.558105 
	C594.269714,732.415161 594.691223,733.931213 595.072937,735.552368 
	C594.571716,736.843750 593.107849,737.152344 593.240112,738.919922 
	C593.059204,741.000916 593.824890,742.877563 592.486206,744.788330 
	C591.248901,742.846069 591.973022,740.879089 591.739868,738.649292 
z"/>
<path fill="#838D95" opacity="1.000000" stroke="none" 
	d="
M651.344727,708.017578 
	C651.187988,704.866882 650.537903,701.720642 651.619019,698.020203 
	C654.047546,701.132202 652.543274,704.264771 652.986084,707.514526 
	C652.543091,707.998657 652.106567,708.034668 651.344727,708.017578 
z"/>
<path fill="#838D95" opacity="1.000000" stroke="none" 
	d="
M739.412354,744.793640 
	C738.681335,742.138184 739.743286,739.140259 737.756653,736.115051 
	C738.493042,733.483765 739.848694,733.088806 740.173096,735.843750 
	C740.510620,738.710876 740.825378,741.735107 739.412354,744.793640 
z"/>
<path fill="#A0ADAF" opacity="1.000000" stroke="none" 
	d="
M738.109863,704.791199 
	C737.847717,703.411011 737.855225,702.229004 737.846069,700.695862 
	C738.306030,700.252014 738.782715,700.159302 739.618530,700.018127 
	C740.008118,702.020264 740.038513,704.070984 740.035767,706.559143 
	C739.461670,706.327576 738.920654,705.658508 738.109863,704.791199 
z"/>
<path fill="#5E7F68" opacity="1.000000" stroke="none" 
	d="
M701.937683,734.443115 
	C703.829102,737.193359 702.467102,740.685669 702.895691,744.462524 
	C700.743958,741.754456 702.354065,738.220459 701.937683,734.443115 
z"/>
<path fill="#838D95" opacity="1.000000" stroke="none" 
	d="
M597.920959,742.468872 
	C600.741760,740.061584 600.548767,742.629700 600.982056,744.621582 
	C599.267151,745.235352 598.671143,743.977051 597.920959,742.468872 
z"/>
<path fill="#A0ADAF" opacity="1.000000" stroke="none" 
	d="
M627.909851,702.164917 
	C628.402954,702.534973 628.667297,703.045776 628.895142,703.861938 
	C628.090027,703.784607 627.031006,703.585693 627.909851,702.164917 
z"/>
<path fill="#A0ADAF" opacity="1.000000" stroke="none" 
	d="
M393.368835,219.922516 
	C393.496735,218.585831 393.978973,217.427567 393.615784,216.680145 
	C392.689026,214.772995 392.783783,213.279068 395.003876,212.993332 
	C397.184723,212.712677 397.039612,214.571945 397.053589,216.104584 
	C397.065521,217.415421 397.245728,218.723892 397.289551,220.035492 
	C397.333496,221.350952 396.717804,222.346603 395.404114,222.548813 
	C393.751190,222.803268 393.726013,221.325317 393.368835,219.922516 
z"/>
<path fill="#E6E8EB" opacity="1.000000" stroke="none" 
	d="
M335.858154,216.016083 
	C335.556702,219.485657 333.516998,220.139099 330.919281,219.841690 
	C328.864014,219.606400 328.237305,218.014114 328.178162,216.279846 
	C328.112610,214.358154 328.666229,212.576584 330.901611,212.162125 
	C333.650482,211.652466 335.371918,212.798111 335.858154,216.016083 
z"/>
<path fill="#E6E8EB" opacity="1.000000" stroke="none" 
	d="
M351.792664,216.044495 
	C351.427643,218.950348 349.991974,220.405746 347.433624,220.123276 
	C345.406097,219.899414 344.199463,218.460480 344.123779,216.383698 
	C344.062897,214.712967 344.280029,212.691360 346.139496,212.333069 
	C348.712006,211.837418 351.071777,212.577286 351.792664,216.044495 
z"/>
<path fill="#E6E8EB" opacity="1.000000" stroke="none" 
	d="
M247.905487,212.079010 
	C251.104004,213.165878 251.439972,215.338211 250.619400,217.761948 
	C249.955444,219.723129 248.339081,220.554810 246.276047,220.098083 
	C244.385986,219.679672 243.527573,218.172348 243.444061,216.453979 
	C243.312836,213.753677 244.560226,212.028641 247.905487,212.079010 
z"/>
<path fill="#EFF0F2" opacity="1.000000" stroke="none" 
	d="
M265.750946,213.737457 
	C265.793182,215.763260 266.412720,217.613831 265.186554,219.580673 
	C262.614349,220.202805 260.187561,220.543198 259.132141,217.739120 
	C258.553314,216.201233 258.459381,214.372406 259.829132,213.147705 
	C261.716583,211.460190 263.705231,211.736969 265.750946,213.737457 
z"/>
<path fill="#EFF0F2" opacity="1.000000" stroke="none" 
	d="
M222.660583,213.766571 
	C224.746231,211.593781 226.854523,211.434891 228.576294,213.276093 
	C229.889435,214.680298 229.793961,216.714691 228.870773,218.438065 
	C227.953461,220.150452 226.328339,220.604630 224.614136,219.868790 
	C221.993256,218.743713 221.553696,216.622391 222.660583,213.766571 
z"/>
<path fill="#E3E3E5" opacity="1.000000" stroke="none" 
	d="
M362.515137,212.213684 
	C364.621979,211.687607 366.730804,211.745087 366.600433,213.869934 
	C366.480896,215.818588 364.193970,214.866791 362.915771,214.848190 
	C360.709442,214.816086 360.934723,213.662735 362.515137,212.213684 
z"/>
<path fill="#FFFFFF" opacity="1.000000" stroke="none" 
	d="
M365.012268,219.544983 
	C363.538635,219.766876 362.381622,219.828674 362.140594,218.628311 
	C361.941772,217.638168 362.887329,217.290894 363.714081,217.343079 
	C364.891663,217.417374 366.590454,217.202393 365.012268,219.544983 
z"/>
<path fill="#E6E8EB" opacity="1.000000" stroke="none" 
	d="
M280.500916,212.149475 
	C282.275818,214.321182 283.478180,216.492722 281.858124,219.417297 
	C278.720215,220.399460 275.613220,220.694656 275.188782,216.427078 
	C274.853088,213.052582 276.849243,211.706863 280.500916,212.149475 
z"/>
<path fill="#FDFDFD" opacity="1.000000" stroke="none" 
	d="
M932.862976,548.864380 
	C937.606262,550.788635 940.367615,547.278259 943.633240,545.659607 
	C947.366699,543.809082 950.600647,540.529724 954.982849,544.803467 
	C956.227905,546.017639 958.728455,545.194580 960.598145,544.068054 
	C963.722412,542.185791 966.950928,540.459778 970.220398,538.839111 
	C976.047852,535.950562 981.301331,537.469116 984.653076,542.941406 
	C989.330627,550.578491 993.806213,558.344604 998.666321,565.862732 
	C1002.048767,571.094910 1004.466309,576.407288 1004.805847,582.810425 
	C1005.280884,591.772278 1006.340759,600.708496 1007.351624,609.632874 
	C1007.619324,611.995667 1006.998535,613.153748 1004.884521,614.298523 
	C988.543518,623.147400 972.257629,632.099548 956.029907,641.154541 
	C953.596619,642.512451 952.197021,642.465393 951.113403,639.770752 
	C947.498657,630.781616 940.249146,626.395081 931.521179,623.002686 
	C915.463074,616.761230 899.747253,609.642334 883.847717,602.987122 
	C881.277039,601.911133 879.190369,600.341064 877.674805,598.134888 
	C876.022827,595.730103 873.736877,593.191956 876.186584,590.061401 
	C878.482117,587.127869 881.043640,584.457275 885.367126,585.467102 
	C890.695190,586.711670 896.086975,587.744873 901.320984,589.305908 
	C904.185120,590.160156 906.157043,589.512085 907.895020,587.419434 
	C909.765930,585.166626 908.635010,583.121643 907.375000,581.052551 
	C896.242737,562.771729 885.089966,544.503113 874.042114,526.171387 
	C870.132629,519.684265 872.218262,514.886292 879.580017,513.357178 
	C884.109192,512.416504 887.135986,514.830383 889.387329,518.549133 
	C895.485901,528.622681 901.615845,538.677185 907.752747,548.727417 
	C911.367371,554.646851 912.940308,555.061157 918.959534,551.790344 
	C921.441162,550.441833 924.091980,549.328674 926.363037,547.689026 
	C928.970947,545.806213 930.788696,546.370605 932.862976,548.864380 
z"/>
<path fill="#DAEEE2" opacity="1.000000" stroke="none" 
	d="
M748.273804,702.783447 
	C748.624146,700.413452 749.679993,699.070740 751.899475,699.382080 
	C753.208984,699.565857 753.712219,700.662781 753.780701,701.925964 
	C753.858459,703.360352 753.388611,704.584717 752.052795,705.192078 
	C749.983887,706.132568 749.077698,704.712341 748.273804,702.783447 
z"/>
<path fill="#DAEEE2" opacity="1.000000" stroke="none" 
	d="
M766.866577,701.474121 
	C767.084045,703.794556 766.470764,705.098938 764.250122,705.092285 
	C762.958923,705.088440 761.962158,704.556641 761.512817,703.351685 
	C760.973877,701.906311 761.591980,700.728333 762.775757,699.909241 
	C764.550293,698.681213 765.865417,699.311096 766.866577,701.474121 
z"/>
<path fill="#DAEEE2" opacity="1.000000" stroke="none" 
	d="
M775.968872,702.978943 
	C775.920593,700.976257 776.307556,699.586548 778.192261,699.353394 
	C779.613403,699.177612 780.235352,700.207458 780.636108,701.337769 
	C781.128784,702.727661 780.880005,704.067749 779.522766,704.731628 
	C778.031311,705.461304 776.617432,705.277954 775.968872,702.978943 
z"/>
<path fill="#DAEEE2" opacity="1.000000" stroke="none" 
	d="
M561.120117,739.772339 
	C561.349670,735.831421 563.075928,734.427368 566.643677,735.462219 
	C566.732971,737.865234 562.974487,736.906738 563.562622,739.370605 
	C564.020386,741.288208 566.390625,740.495178 567.863037,741.924072 
	C564.566650,743.853271 562.603943,742.988647 561.120117,739.772339 
z"/>
<path fill="#DAEEE2" opacity="1.000000" stroke="none" 
	d="
M540.181152,735.161865 
	C541.122314,735.252075 541.825806,735.429565 541.636963,736.237671 
	C541.473633,736.936584 540.819153,737.126465 540.174133,736.903931 
	C539.167297,736.556458 539.099487,735.952820 540.181152,735.161865 
z"/>
<path fill="#DAEEE2" opacity="1.000000" stroke="none" 
	d="
M571.401978,743.398132 
	C571.508606,743.308777 571.560913,743.626404 571.560913,743.626404 
	C571.560913,743.626404 571.295349,743.487488 571.401978,743.398132 
z"/>
<path fill="#DAEEE2" opacity="1.000000" stroke="none" 
	d="
M803.876831,737.481689 
	C803.865295,739.800110 804.428467,742.027466 801.818604,742.814636 
	C800.719055,743.146301 799.789978,742.544067 799.432556,741.551453 
	C798.688110,739.483887 798.255676,736.996643 799.661011,735.383118 
	C801.945862,732.759644 802.817566,735.513245 803.876831,737.481689 
z"/>
<path fill="#DAEEE2" opacity="1.000000" stroke="none" 
	d="
M791.555054,735.636475 
	C791.908875,736.794922 792.181580,737.645569 792.058655,738.434509 
	C791.810242,740.027832 793.078979,742.553345 790.220337,742.762207 
	C788.268066,742.904846 787.930176,741.039368 788.053345,739.507507 
	C788.215149,737.494324 786.991150,734.195618 791.555054,735.636475 
z"/>
<path fill="#DAEEE2" opacity="1.000000" stroke="none" 
	d="
M780.811890,741.167480 
	C780.263611,743.487610 778.966309,743.381714 777.553223,742.497620 
	C776.928894,742.107056 776.932129,741.268738 777.359253,740.806396 
	C778.402039,739.677734 779.584106,739.734558 780.811890,741.167480 
z"/>
<path fill="#DAEEE2" opacity="1.000000" stroke="none" 
	d="
M834.014893,740.490479 
	C833.409363,742.213501 832.611389,743.490906 831.089783,742.361084 
	C829.213135,740.967896 830.030090,738.760803 830.058716,736.866943 
	C830.080139,735.443970 831.072021,734.811829 832.388245,735.039612 
	C834.109985,735.337646 834.036743,736.814636 834.097290,738.119324 
	C834.127563,738.771362 834.084900,739.426758 834.014893,740.490479 
z"/>
<path fill="#DAEEE2" opacity="1.000000" stroke="none" 
	d="
M845.183167,742.107178 
	C843.074158,743.421631 841.994141,742.735596 841.976929,740.787170 
	C841.960510,738.923584 840.988586,736.633057 842.909058,735.319824 
	C844.287354,734.377380 845.427307,735.549438 845.750488,736.979004 
	C846.111023,738.573853 846.164612,740.230469 845.183167,742.107178 
z"/>
<path fill="#DAEEE2" opacity="1.000000" stroke="none" 
	d="
M607.664795,742.078491 
	C606.344299,735.772949 606.770813,735.128784 611.498108,735.572144 
	C608.736572,739.877869 608.736572,739.877869 612.342590,741.918152 
	C611.005249,743.529175 609.505493,743.237549 607.664795,742.078491 
z"/>
<path fill="#DAEEE2" opacity="1.000000" stroke="none" 
	d="
M652.806152,740.882263 
	C654.690918,741.248840 654.741699,742.061157 653.495850,742.688721 
	C652.090332,743.396790 650.493225,743.301636 649.516296,741.869568 
	C648.419678,740.262268 648.497620,738.318970 649.245056,736.671265 
	C650.165649,734.641724 651.870544,734.715454 653.799622,735.661682 
	C653.342773,737.536011 648.507996,738.183228 652.806152,740.882263 
z"/>
<path fill="#DAEEE2" opacity="1.000000" stroke="none" 
	d="
M638.629395,735.466431 
	C640.009399,735.027222 641.248291,734.621094 641.716309,736.134460 
	C642.001953,737.057861 641.444824,737.702942 640.510132,737.814941 
	C638.989380,737.997192 637.885254,737.640076 638.629395,735.466431 
z"/>
<path fill="#DAEEE2" opacity="1.000000" stroke="none" 
	d="
M857.424316,738.568909 
	C858.306458,740.907471 857.968018,742.631042 855.560120,742.918457 
	C854.028015,743.101318 852.973267,741.909424 853.149353,740.413208 
	C853.430298,738.026489 855.043701,737.542542 857.424316,738.568909 
z"/>
<path fill="#DAEEE2" opacity="1.000000" stroke="none" 
	d="
M695.171875,741.327515 
	C694.153870,743.996216 692.435242,743.036194 690.973755,741.959595 
	C689.215515,740.664490 689.676697,738.641357 690.155701,736.973206 
	C690.818054,734.666809 692.673950,734.905640 694.375000,735.277100 
	C695.520752,737.330994 688.181641,739.748230 695.171875,741.327515 
z"/>
<path fill="#DAEEE2" opacity="1.000000" stroke="none" 
	d="
M639.571167,697.999512 
	C640.242493,700.088501 644.991943,700.208435 642.170532,703.875244 
	C640.697998,703.667175 639.366638,703.597534 638.123962,704.237976 
	C635.922302,705.372498 633.935486,705.462097 632.476624,703.164856 
	C631.519287,701.657349 631.374268,699.861389 632.433228,698.450989 
	C633.988770,696.379211 636.095825,696.509094 638.222351,697.715759 
	C638.500549,697.873657 638.860107,697.888367 639.571167,697.999512 
z"/>
<path fill="#DAEEE2" opacity="1.000000" stroke="none" 
	d="
M729.173096,701.373352 
	C730.200745,699.232544 731.562195,698.710144 733.263489,699.900513 
	C734.440857,700.724182 734.842468,701.906189 734.266418,703.349182 
	C733.817993,704.472656 733.261780,705.549988 731.908630,705.463440 
	C729.628296,705.317627 728.904419,703.821350 729.173096,701.373352 
z"/>
<path fill="#DAEEE2" opacity="1.000000" stroke="none" 
	d="
M697.752563,705.064758 
	C695.304810,702.515320 696.008179,700.645020 698.621033,699.440552 
	C700.045044,698.784119 701.362000,699.638794 701.600891,701.114746 
	C702.021545,703.712952 701.464600,705.805237 697.752563,705.064758 
z"/>
<path fill="#DAEEE2" opacity="1.000000" stroke="none" 
	d="
M666.948120,740.997498 
	C666.929199,739.038696 667.201538,737.498657 669.120544,737.419128 
	C670.243408,737.372620 671.400513,737.949402 671.727051,739.244080 
	C672.068115,740.596436 671.922424,741.943298 670.520142,742.630249 
	C669.017273,743.366394 667.647888,743.260010 666.948120,740.997498 
z"/>
</svg>