<?xml version="1.0" encoding="utf-8"?>
<!-- Generator: Adobe Illustrator 27.5.0, SVG Export Plug-In . SVG Version: 6.00 Build 0)  -->
<svg version="1.1" xmlns="http://www.w3.org/2000/svg" xmlns:xlink="http://www.w3.org/1999/xlink" x="0px" y="0px"
	 viewBox="0 0 750 500" style="enable-background:new 0 0 750 500;" xml:space="preserve">
<g id="BACKGROUND">
	<rect style="fill:#FFFFFF;" width="750" height="500"/>
	<g>
		<path style="opacity:0.23;fill:#708FEA;" d="M670.236,440.25c8.727-11.106,14.208-25.008,18.002-38.793
			c18.605-67.604,3.972-146.991-39.864-202.329c-14.025-17.705-28.737-18.709-49.276-19.739c-21.37-1.072-42.65-8.531-60.274-20.586
			c-23.742-16.241-41.304-40.857-66.589-54.572c-37.333-20.25-85.15-12.17-121.014,10.581
			c-39.477,25.043-71.865,67.592-118.481,71.13c-34.514,2.619-67.997-17.77-102.371-13.709
			c-27.848,3.29-52.147,22.993-65.257,47.781c-13.11,24.788-16.032,53.995-12.864,81.857c6.167,54.245,35.615,105.323,78.98,138.381
			H670.236z"/>
		<path style="opacity:0.23;fill:#708FEA;" d="M531.775,111.456c3.04,19.543,20.577,33.828,38.926,41.209
			c18.349,7.38,38.357,9.794,56.89,16.701c12.858,4.792,25.507,12.602,33.561,23.366c6.662,8.903,20.006,9.405,26.82,0.618
			c7.442-9.596,11.664-21.7,10.855-33.739c-1.584-23.565-14.939-45.516-33.576-60.024c-18.637-14.508-42.118-21.981-65.666-23.812
			c-13.697-1.065-27.815-0.246-40.547,4.915C546.306,85.852,529.663,97.881,531.775,111.456z"/>
	</g>
</g>
<g id="OBJECTS">
	<g>
		<g>
			<path style="fill:#5376DB;" d="M461.065,359.352c0.257-13.345,5.183-26.104,7.727-39.207c4.98-25.65,0.035-51.016-12.854-73.744
				c6.277,15.793,4.574,33.523,2.027,50.326c-2.547,16.803-5.837,33.984-2.446,50.638c0.571,2.804,1.41,5.714,3.453,7.717
				L461.065,359.352z"/>
			<path style="fill:#5376DB;" d="M453.961,385.064c0.401-18.093-2.735-36.261-9.197-53.166
				c-3.746-9.799-8.606-19.221-11.164-29.395c-2.586-10.288-2.733-21.007-3.958-31.544c-0.416-3.58-1.045-7.346-3.355-10.113
				c2.729,5.658,1.752,12.778,1.301,19.044c-0.38,5.274-0.76,10.548-1.14,15.823c-0.823,11.424-1.556,23.396,3.129,33.848
				c1.863,4.158,4.519,7.902,6.785,11.855c7.563,13.195,10.638,28.456,11.945,43.65H453.961z"/>
			<path style="fill:#708FEA;" d="M449.63,385.064h9.234c1.783-14.59,1.211-29.39,0.499-44.087
				c-0.247-5.109-0.516-10.256-1.764-15.216c-1.3-5.168-3.63-10.009-5.434-15.023c-4.587-12.754-5.71-26.736-3.217-40.059
				c0.741-3.962,1.796-7.869,2.295-11.869c0.543-4.348,0.423-8.748,0.303-13.127c-0.183-6.648-0.384-13.408-2.47-19.723
				c-3.251-9.845-11.466-16.949-18.95-24.125c8.425,9.092,9.955,22.651,8.77,34.989c-1.185,12.338-4.638,24.477-4.492,36.871
				c0.149,12.659,4.041,24.932,7.665,37.062C449.284,334.904,455.585,360.677,449.63,385.064z"/>
			<path style="fill:#5376DB;" d="M471.573,385.064c-0.843-20.038,7.432-39.688,16.285-57.908c2.385-4.908,4.845-9.851,6.017-15.181
				c2.044-9.296-0.807-18.597-4.179-27.498c3.536,12.077-0.556,25.139-6.632,36.159c-6.076,11.02-14.132,20.917-19.481,32.306
				c-3.93,8.368-6.332,17.451-7.053,26.668c-0.141,1.799-0.201,3.661,0.021,5.453H471.573z"/>
			<path style="fill:#708FEA;" d="M459.641,382.446c-4.368-2.556-4.265-6.224-4.968-11.227c-0.71-5.05-0.96-10.164-0.758-15.26
				c0.404-10.19,2.619-20.315,6.597-29.71c1.774-4.189,3.884-8.233,5.554-12.464c4.608-11.674,5.73-24.658,3.473-37.004
				c-3.059-16.734-12.061-31.93-15.124-48.663c-1.221-6.668-1.373-13.952,2.075-19.789c3.153,16.667,10.918,32.602,20.128,46.846
				c3.16,4.887,6.582,9.707,8.464,15.213c1.102,3.222,1.649,6.613,1.908,10.009c1.165,15.228-3.376,30.329-9.17,44.46
				s-12.907,27.768-17.313,42.392c-1.384,4.595-5.063,8.809-3.933,13.473c-0.01-0.038-0.02-0.076-0.03-0.115"/>
		</g>
		<path style="fill:#8CA4EA;" d="M458.766,379.864h-0.235H439.59c-1.884,0-3.412,1.528-3.412,3.412v32.197
			c0,7.973,3.045,15.727,8.758,21.289c0.318,0.309,0.637,0.606,0.958,0.888c1.992,1.752,4.572,2.683,7.225,2.683l0,0h11.059h0
			c2.651,0,5.23-0.93,7.221-2.68c0.318-0.28,0.636-0.575,0.951-0.881c5.719-5.563,8.769-13.322,8.769-21.3v-32.196
			c0-1.884-1.527-3.412-3.412-3.412H458.766z"/>
	</g>
	<g>
		<g>
			<path style="fill:#FFD000;" d="M213.015,290.534H108.254c-4.08,0-8.223-3.307-9.254-7.387L84.18,224.499
				c-1.031-4.08,1.44-7.387,5.52-7.387h104.761c4.08,0,8.223,3.307,9.254,7.387l14.821,58.648
				C219.566,287.227,217.095,290.534,213.015,290.534z"/>
			<g>
				<g>
					<polygon style="fill:none;stroke:#FFFFFF;stroke-width:0.8954;stroke-miterlimit:10;" points="124.143,249.122 
						104.668,249.122 99.747,229.648 119.222,229.648 					"/>
					<g>
						
							<text transform="matrix(0.9393 0 0.245 0.9695 127.2299 242.6148)" style="fill:#01124A; font-family:'Montserrat-Bold'; font-size:11.3009px;">TO-DO</text>
					</g>
				</g>
				<g>
					<polygon style="fill:none;stroke:#FFFFFF;stroke-width:0.8954;stroke-miterlimit:10;" points="131.441,277.999 
						111.966,277.999 107.044,258.524 126.519,258.524 					"/>
					<g>
						
							<text transform="matrix(0.9393 0 0.245 0.9695 134.5838 271.7146)" style="fill:#01124A; font-family:'Montserrat-Bold'; font-size:11.3009px;">TO-DO</text>
					</g>
				</g>
			</g>
		</g>
		<g>
			<g>
				<path style="fill:#01124A;" d="M159.598,74.166c0,0-8.22,11.257-6.824,22.951l65.289,317.868
					c1.056,5.141,2.998,10.079,5.893,14.456c3.409,5.155,8.608,10.37,15.767,10.612l156.296,0.061c0,0-5.563-6.609-5.124-19.585
					L174.995,102.348l-8.996-25.39L159.598,74.166z"/>
				<path style="fill:#021D75;" d="M393.463,440.327l-138.95-4.7c-9.973-0.337-19.899-8.767-22.171-18.827L157.687,86.244
					c-2.272-10.061,3.97-17.943,13.943-17.606l138.95,4.7c9.973,0.337,19.899,8.767,22.171,18.828l74.655,330.555
					C409.678,432.782,403.436,440.664,393.463,440.327z"/>
				<path style="fill:#708FEA;" d="M388.382,430.631l-132.033-1.205c-9.575-0.324-19.103-8.414-21.285-18.074l-22.816-101.005
					l-41.89-185.463l-6.552-29.043l-0.881-3.882c-2.182-9.66,3.817-17.225,13.383-16.901l132.442,4.48
					c9.566,0.324,19.103,8.414,21.285,18.074l0.795,3.512l6.612,29.134l41.323,182.093l23,101.379
					C403.947,423.39,397.957,430.955,388.382,430.631z"/>
				<g>
					<path style="fill:#FFFFFF;" d="M337.442,130.259l-167.084-5.374l-6.552-29.043l-0.881-3.882
						c-2.182-9.66,3.817-17.225,13.383-16.901l132.442,4.48c9.566,0.324,19.103,8.414,21.285,18.074l0.795,3.512L337.442,130.259z"
						/>
					<g>
						<g>
							<g>
								
									<text transform="matrix(0.9683 0.0328 0.2149 0.9766 233.6485 122.3191)" style="fill:#021D75; font-family:'Montserrat-Bold'; font-size:16.3471px;">JUNE</text>
							</g>
							<g>
								<g>
									<path style="fill:#01124A;" d="M292.384,117.592l0.348,1.582l-5.258,2.008l-0.335-1.521l3.694-1.337l-4.345-1.62
										l-0.332-1.509L292.384,117.592z"/>
								</g>
							</g>
							<g>
								<path style="fill:#01124A;" d="M221.284,113.001l0.332,1.509l-3.691,1.349l4.342,1.608l0.335,1.521l-6.228-2.397
									l-0.348-1.582L221.284,113.001z"/>
							</g>
						</g>
						<g>
							<path style="fill:#FF5757;" d="M254.388,265.673c0.642,2.919-1.183,5.206-4.076,5.108c-2.894-0.098-5.76-2.543-6.403-5.462
								c-0.642-2.919,1.183-5.205,4.077-5.108C250.879,260.309,253.746,262.755,254.388,265.673z"/>
							<g>
								
									<text transform="matrix(0.9683 0.0328 0.2149 0.9766 204.5027 207.1527)" style="fill:#FFFFFF; font-family:'Montserrat-Bold'; font-size:5.7168px;">SUN</text>
								
									<text transform="matrix(0.9683 0.0328 0.2149 0.9766 219.7114 236.3883)" style="fill:#FFFFFF; font-family:'Montserrat-Bold'; font-size:5.7168px;">6</text>
								
									<text transform="matrix(0.9683 0.0328 0.2149 0.9766 221.0609 251.1845)" style="fill:#FFFFFF; font-family:'Montserrat-Bold'; font-size:5.7168px;">13</text>
								
									<text transform="matrix(0.9683 0.0328 0.2149 0.9766 222.763 265.9897)" style="fill:#FFFFFF; font-family:'Montserrat-Bold'; font-size:5.7168px;">20</text>
								
									<text transform="matrix(0.9683 0.0328 0.2149 0.9766 226.3596 280.8591)" style="fill:#FFFFFF; font-family:'Montserrat-Bold'; font-size:5.7168px;">27</text>
							</g>
							<g>
								
									<text transform="matrix(0.9683 0.0328 0.2149 0.9766 242.3128 237.1528)" style="fill:#FFFFFF; font-family:'Montserrat-Bold'; font-size:5.7168px;">7</text>
								
									<text transform="matrix(0.9683 0.0328 0.2149 0.9766 243.0307 251.9277)" style="fill:#FFFFFF; font-family:'Montserrat-Bold'; font-size:5.7168px;">14</text>
								
									<text transform="matrix(0.9683 0.0328 0.2149 0.9766 246.8484 266.8045)" style="fill:#FFFFFF; font-family:'Montserrat-Bold'; font-size:5.7168px;">21</text>
								
									<text transform="matrix(0.9683 0.0328 0.2149 0.9766 248.6354 281.6127)" style="fill:#FFFFFF; font-family:'Montserrat-Bold'; font-size:5.7168px;">28</text>
								
									<text transform="matrix(0.9683 0.0328 0.2149 0.9766 224.9461 207.8443)" style="fill:#FFFFFF; font-family:'Montserrat-Bold'; font-size:5.7168px;">MON</text>
							</g>
							<g>
								
									<text transform="matrix(0.9683 0.0328 0.2149 0.9766 260.281 223.013)" style="fill:#FFFFFF; font-family:'Montserrat-Bold'; font-size:5.7168px;">1</text>
								
									<text transform="matrix(0.9683 0.0328 0.2149 0.9766 262.0671 237.8211)" style="fill:#FFFFFF; font-family:'Montserrat-Bold'; font-size:5.7168px;">8</text>
								
									<text transform="matrix(0.9683 0.0328 0.2149 0.9766 263.5269 252.6211)" style="fill:#FFFFFF; font-family:'Montserrat-Bold'; font-size:5.7168px;">15</text>
								
									<text transform="matrix(0.9683 0.0328 0.2149 0.9766 265.7282 267.4432)" style="fill:#FFFFFF; font-family:'Montserrat-Bold'; font-size:5.7168px;">22</text>
								
									<text transform="matrix(0.9683 0.0328 0.2149 0.9766 268.7378 282.2928)" style="fill:#FFFFFF; font-family:'Montserrat-Bold'; font-size:5.7168px;">29</text>
								
									<text transform="matrix(0.9683 0.0328 0.2149 0.9766 247.9213 208.6215)" style="fill:#FFFFFF; font-family:'Montserrat-Bold'; font-size:5.7168px;">TUE</text>
							</g>
							<g>
								
									<text transform="matrix(0.9683 0.0328 0.2149 0.9766 282.2656 223.7567)" style="fill:#FFFFFF; font-family:'Montserrat-Bold'; font-size:5.7168px;">2</text>
								
									<text transform="matrix(0.9683 0.0328 0.2149 0.9766 285.2741 238.6062)" style="fill:#FFFFFF; font-family:'Montserrat-Bold'; font-size:5.7168px;">9</text>
								
									<text transform="matrix(0.9683 0.0328 0.2149 0.9766 286.3752 253.394)" style="fill:#FFFFFF; font-family:'Montserrat-Bold'; font-size:5.7168px;">16</text>
								
									<text transform="matrix(0.9683 0.0328 0.2149 0.9766 288.7976 268.2237)" style="fill:#FFFFFF; font-family:'Montserrat-Bold'; font-size:5.7168px;">23</text>
								
									<text transform="matrix(0.9683 0.0328 0.2149 0.9766 291.5748 283.0653)" style="fill:#FFFFFF; font-family:'Montserrat-Bold'; font-size:5.7168px;">30</text>
								
									<text transform="matrix(0.9683 0.0328 0.2149 0.9766 267.7928 209.2938)" style="fill:#FFFFFF; font-family:'Montserrat-Bold'; font-size:5.7168px;">WED</text>
							</g>
							<g>
								
									<text transform="matrix(0.9683 0.0328 0.2149 0.9766 302.5372 224.4425)" style="fill:#FFFFFF; font-family:'Montserrat-Bold'; font-size:5.7168px;">3</text>
								
									<text transform="matrix(0.9683 0.0328 0.2149 0.9766 303.154 239.2111)" style="fill:#FFFFFF; font-family:'Montserrat-Bold'; font-size:5.7168px;">10</text>
								
									<text transform="matrix(0.9683 0.0328 0.2149 0.9766 306.7522 254.0833)" style="fill:#FFFFFF; font-family:'Montserrat-Bold'; font-size:5.7168px;">17</text>
								
									<text transform="matrix(0.9683 0.0328 0.2149 0.9766 308.5983 268.8935)" style="fill:#FFFFFF; font-family:'Montserrat-Bold'; font-size:5.7168px;">24</text>
								
									<text transform="matrix(0.9683 0.0328 0.2149 0.9766 290.461 210.0606)" style="fill:#FFFFFF; font-family:'Montserrat-Bold'; font-size:5.7168px;">THU</text>
							</g>
							<g>
								
									<text transform="matrix(0.9683 0.0328 0.2149 0.9766 322.0583 225.1029)" style="fill:#FFFFFF; font-family:'Montserrat-Bold'; font-size:5.7168px;">4</text>
								
									<text transform="matrix(0.9683 0.0328 0.2149 0.9766 324.8023 239.9434)" style="fill:#FFFFFF; font-family:'Montserrat-Bold'; font-size:5.7168px;">11</text>
								
									<text transform="matrix(0.9683 0.0328 0.2149 0.9766 326.5891 254.7544)" style="fill:#FFFFFF; font-family:'Montserrat-Bold'; font-size:5.7168px;">18</text>
								
									<text transform="matrix(0.9683 0.0328 0.2149 0.9766 329.1227 269.5878)" style="fill:#FFFFFF; font-family:'Montserrat-Bold'; font-size:5.7168px;">25</text>
								
									<text transform="matrix(0.9683 0.0328 0.2149 0.9766 313.3537 210.8351)" style="fill:#FFFFFF; font-family:'Montserrat-Bold'; font-size:5.7168px;">FRI</text>
							</g>
							<g>
								
									<text transform="matrix(0.9683 0.0328 0.2149 0.9766 344.8427 225.8737)" style="fill:#FFFFFF; font-family:'Montserrat-Bold'; font-size:5.7168px;">5</text>
								
									<text transform="matrix(0.9683 0.0328 0.2149 0.9766 345.9709 240.6595)" style="fill:#FFFFFF; font-family:'Montserrat-Bold'; font-size:5.7168px;">12</text>
								
									<text transform="matrix(0.9683 0.0328 0.2149 0.9766 348.9806 255.5119)" style="fill:#FFFFFF; font-family:'Montserrat-Bold'; font-size:5.7168px;">19</text>
								
									<text transform="matrix(0.9683 0.0328 0.2149 0.9766 351.1658 270.3335)" style="fill:#FFFFFF; font-family:'Montserrat-Bold'; font-size:5.7168px;">26</text>
								
									<text transform="matrix(0.9683 0.0328 0.2149 0.9766 334.0396 211.5348)" style="fill:#FFFFFF; font-family:'Montserrat-Bold'; font-size:5.7168px;">SAT</text>
							</g>
						</g>
						<g>
							
								<text transform="matrix(0.9683 0.0328 0.2149 0.9766 244.0015 172.9464)" style="fill:#FFFFFF; font-family:'Montserrat-Bold'; font-size:48.147px;">21</text>
							
								<text transform="matrix(0.9683 0.0328 0.2149 0.9766 250.083 190.4245)" style="fill:#FFFFFF; font-family:'Montserrat-Bold'; font-size:8.8129px;">MONDAY</text>
						</g>
					</g>
					<path style="fill:#303A9E;" d="M330.83,101.124l-167.024-5.283l-0.881-3.882c-2.182-9.66,3.817-17.225,13.383-16.901
						l132.442,4.48c9.566,0.324,19.103,8.414,21.285,18.074L330.83,101.124z"/>
					<path style="fill:#FFFFFF;" d="M388.382,430.631l-132.033-1.205c-9.575-0.324-19.103-8.414-21.285-18.074l-22.816-101.005
						c1.626-7.533,8.606-14.187,16.087-13.934l131.986,4.465c7.266,0.246,14.48,4.978,18.444,11.473l23,101.379
						C403.947,423.39,397.957,430.955,388.382,430.631z"/>
					<g>
						<g>
							<g>
								<g>
									
										<text transform="matrix(0.9683 0.0328 0.2149 0.9766 251.9081 334.1266)" style="fill:#01124A; font-family:'Montserrat-Bold'; font-size:10.9565px;">8:30</text>
									<g>
										
											<text transform="matrix(0.9683 0.0328 0.2149 0.9766 285.9405 335.3091)" style="fill:#01124A; font-family:'Montserrat-Medium'; font-size:10.9565px;">Lorem ipsum</text>
									</g>
								</g>
								<g>
									
										<text transform="matrix(0.9683 0.0328 0.2149 0.9766 259.2552 366.4142)" style="fill:#01124A; font-family:'Montserrat-Bold'; font-size:10.9565px;">9:30</text>
									<g>
										
											<text transform="matrix(0.9683 0.0328 0.2149 0.9766 293.0439 367.5894)" style="fill:#01124A; font-family:'Montserrat-Medium'; font-size:10.9565px;">Lorem ipsum</text>
									</g>
								</g>
								<g>
									
										<text transform="matrix(0.9683 0.0328 0.2149 0.9766 261.6972 398.2793)" style="fill:#01124A; font-family:'Montserrat-Bold'; font-size:10.9565px;">10:30</text>
									<g>
										
											<text transform="matrix(0.9683 0.0328 0.2149 0.9766 300.1472 399.8697)" style="fill:#01124A; font-family:'Montserrat-Medium'; font-size:10.9565px;">Lorem ipsum</text>
									</g>
								</g>
							</g>
						</g>
						<g>
							<g>
								<g>
									
										<rect x="304.525" y="272.104" transform="matrix(0.0338 -0.9994 0.9994 0.0338 -52.0772 639.9639)" style="fill:#708FEA;" width="0.85" height="149.624"/>
								</g>
								<g>
									
										<rect x="312.068" y="306.385" transform="matrix(0.0338 -0.9994 0.9994 0.0338 -79.0499 680.6242)" style="fill:#708FEA;" width="0.85" height="149.624"/>
								</g>
							</g>
						</g>
					</g>
				</g>
				<g>
					<g>
						<path style="fill:#708FEA;" d="M173.888,184.734c-0.606-0.02-1.141-0.452-1.269-1.072l-13.272-64.506
							c-0.15-0.726,0.318-1.436,1.045-1.586c0.729-0.149,1.436,0.318,1.586,1.045l13.272,64.506
							c0.149,0.726-0.318,1.436-1.045,1.586C174.098,184.729,173.992,184.738,173.888,184.734z"/>
					</g>
				</g>
			</g>
			<g style="opacity:0.19;">
				
					<linearGradient id="SVGID_1_" gradientUnits="userSpaceOnUse" x1="99.39" y1="146.3565" x2="388.7328" y2="450.3662" gradientTransform="matrix(0.9994 0.0338 -0.0338 0.9994 14.8254 -8.4107)">
					<stop  offset="0" style="stop-color:#FFFFFF"/>
					<stop  offset="0.6475" style="stop-color:#708FEA"/>
				</linearGradient>
				<path style="fill:url(#SVGID_1_);" d="M212.607,311.935c7.907,8.461,15.814,16.922,23.721,25.382
					c28.883,30.906,57.766,61.811,86.65,92.717l65.404,0.597c8.759,0.296,14.496-6.016,13.745-14.487l-3.477-3.72
					c-71.802-76.829-143.604-153.659-215.406-230.489l29.004,128.411L212.607,311.935z"/>
				
					<linearGradient id="SVGID_00000175288935849709332850000014908158539913248169_" gradientUnits="userSpaceOnUse" x1="52.089" y1="191.3746" x2="341.4304" y2="495.3829" gradientTransform="matrix(0.9994 0.0338 -0.0338 0.9994 14.8254 -8.4107)">
					<stop  offset="0" style="stop-color:#FFFFFF"/>
					<stop  offset="0.6475" style="stop-color:#708FEA"/>
				</linearGradient>
				<path style="fill:url(#SVGID_00000175288935849709332850000014908158539913248169_);" d="M216.97,331.249l18.094,80.104
					c2.182,9.66,11.709,17.75,21.285,18.074l52.825,0.482C278.439,397.022,247.704,364.135,216.97,331.249z"/>
				
					<linearGradient id="SVGID_00000022527302807739630990000000491458505195044784_" gradientUnits="userSpaceOnUse" x1="186.8878" y1="63.0806" x2="476.2293" y2="367.089" gradientTransform="matrix(0.9994 0.0338 -0.0338 0.9994 14.8254 -8.4107)">
					<stop  offset="0" style="stop-color:#FFFFFF"/>
					<stop  offset="0.6475" style="stop-color:#708FEA"/>
				</linearGradient>
				<path style="fill:url(#SVGID_00000022527302807739630990000000491458505195044784_);" d="M245.565,77.401l-69.257-2.343
					c-0.291-0.01-0.568,0.01-0.852,0.015c19.498,20.863,38.995,41.726,58.493,62.589l138.902,148.628l-21.786-96.002L245.565,77.401
					z"/>
			</g>
		</g>
		<g>
			<path style="fill:#FF5757;" d="M435.409,187.967H330.648c-4.08,0-8.199-3.307-9.201-7.387l-14.402-58.648
				c-1.002-4.08,1.493-7.387,5.573-7.387h104.761c4.08,0,8.199,3.307,9.201,7.387l14.402,58.648
				C441.983,184.66,439.488,187.967,435.409,187.967z"/>
			<g>
				<g>
					
						<text transform="matrix(0.9409 0 0.2385 0.9711 326.0565 142.5476)" style="fill:#FFFFFF; font-family:'Montserrat-Bold'; font-size:18.0144px;">8:30</text>
				</g>
				<g>
					
						<text transform="matrix(0.9409 0 0.2385 0.9711 332.8609 170.2567)" style="fill:#FFFFFF; font-family:'Montserrat-Bold'; font-size:18.0144px;">MEETING</text>
				</g>
				<g>
					<polygon style="fill:#FFFFFF;" points="418.426,145.504 326.775,145.504 326.566,144.651 418.217,144.651 					"/>
				</g>
			</g>
		</g>
	</g>
	<g>
		<g>
			<g>
				<path style="fill:#E9A879;" d="M594.593,437.463h24.048c-0.362-2.38-1.853-5.341-2.221-6.046
					c0.448-1.493,0.711-2.608,0.711-2.608s0.664-2.489,1.651-6.429h-12.379l0.763,7.442c-3.193,2.213-9.154,6.229-12.002,7.398
					C594.964,437.303,594.777,437.383,594.593,437.463z"/>
				<path style="fill:#01124A;" d="M589.961,440.297h21.917l1.75-1.75v1.75h5.816c0.846-2.04-0.755-4.71-0.982-6
					c-0.25-1.417-2.125-2.712-2.125-2.712c-1.458,0.038-3.208,3.712-3.792,3.712c-0.583,0-1.083-3.833-2.5-4.667
					c-1.417-0.833-4.151-1.176-5.167,0.083c-3.833,4.75-10,5.833-13.75,7.25c-2.311,0.873-2.215,1.792-1.803,2.37
					C589.53,440.311,589.741,440.297,589.961,440.297z"/>
			</g>
			<g>
				<path style="fill:#E79E6C;" d="M562.988,437.463h24.047c-0.289-2.337-1.651-5.235-2.03-6.006
					c0.314-1.785,0.461-3.168,0.461-3.168s0.308-2.269,0.749-5.909h-12.414l1.749,7.597c-3.307,2.242-9.174,6.103-11.985,7.244
					C563.363,437.303,563.174,437.383,562.988,437.463z"/>
				<path style="fill:#01124A;" d="M558.128,440.297h21.917l1.75-1.75v1.75h5.816c0.846-2.04-0.755-4.71-0.982-6
					c-0.25-1.417-2.125-2.712-2.125-2.712c-1.458,0.038-3.208,3.712-3.792,3.712c-0.583,0-1.083-3.833-2.5-4.667
					c-1.417-0.833-4.151-1.176-5.167,0.083c-3.833,4.75-10,5.833-13.75,7.25c-2.311,0.873-2.215,1.792-1.803,2.37
					C557.697,440.311,557.908,440.297,558.128,440.297z"/>
			</g>
			<g>
				<path style="fill:#01124A;" d="M627.544,223.713l-31.323,1.431l-0.011-0.264l-31.833,1.5c0,0-5.333,11.833-6.833,26
					c-1.5,14.167-2.833,93.667-2.333,97.833c0.5,4.167,19,79,19,79h12.833c0,0,6.833-50.333-4.333-81.667l9.083-43.363
					c3.779,33.433,13.75,124.197,13.75,124.197h12.667c0,0,11.333-37.333,10.833-54.833s-5-32.167-5-32.167s5.667-92.333,6-100.667
					C630.378,232.38,627.544,223.713,627.544,223.713z"/>
				<g>
					<g>
						<path style="fill:#4E609C;" d="M591.211,303.547c-0.649-3.278-1.189-6.571-1.713-9.866c-0.535-3.293-0.992-6.597-1.449-9.901
							c-0.433-3.307-0.865-6.614-1.219-9.932l-0.528-4.977c-0.14-1.664-0.314-3.323-0.424-4.991c0.335,1.638,0.605,3.284,0.91,4.926
							l0.805,4.94c0.534,3.293,0.992,6.597,1.447,9.901c0.432,3.307,0.864,6.615,1.218,9.932
							C590.622,296.895,590.971,300.214,591.211,303.547z"/>
						<path style="fill:#4E609C;" d="M589.211,287.213l-8.551,34.569c-1.382,5.77-2.838,11.526-4.107,17.312
							c-0.311,1.443-0.632,2.903-0.841,4.33l-0.053,0.508c0.008,0.034,0.004,0.062-0.012,0.099c0.014,0.05,0.061,0.115,0.088,0.172
							c0.15,0.237,0.373,0.478,0.646,0.697c0.531,0.447,1.165,0.846,1.769,1.341c0.304,0.242,0.6,0.529,0.865,0.867
							c0.263,0.344,0.46,0.795,0.499,1.283c-0.014,0.238-0.009,0.49-0.094,0.702l-0.099,0.319c-0.006,0.052-0.018,0.098-0.034,0.151
							c-0.023,0.299-0.016,0.648,0.023,1.003c0.143,1.424,0.465,2.88,0.771,4.32c1.264,5.778,2.796,11.52,4.107,17.318
							c0.649,2.902,1.291,5.808,1.657,8.792c0.282,3.023,0.152,5.973,0.142,8.949c-0.184,11.876-0.585,23.74-1.109,35.601
							l0.195-17.806c0.078-5.934,0.146-11.869,0.144-17.8c-0.006-1.482-0.005-2.966-0.034-4.445
							c-0.025-1.482-0.022-2.959-0.197-4.399c-0.371-2.907-1.024-5.805-1.685-8.689c-1.335-5.774-2.897-11.497-4.196-17.311
							c-0.302-1.463-0.619-2.913-0.766-4.444c-0.037-0.383-0.054-0.778-0.012-1.219c0.025-0.128,0.061-0.262,0.099-0.39l0.064-0.213
							c0.063-0.136,0.04-0.263,0.062-0.393c-0.026-0.506-0.459-1.023-1.008-1.461c-0.54-0.451-1.166-0.847-1.77-1.357
							c-0.302-0.248-0.603-0.549-0.844-0.94c-0.054-0.108-0.116-0.201-0.158-0.324c-0.026-0.148-0.042-0.305-0.045-0.456
							l0.063-0.598c0.229-1.508,0.555-2.947,0.876-4.403c1.317-5.799,2.751-11.558,4.251-17.303
							C582.896,310.102,585.981,298.638,589.211,287.213z"/>
						<path style="fill:#4E609C;" d="M624.211,232.213c0.192,4.063,0.36,8.128,0.481,12.195c0.099,4.063,0.258,8.145-0.035,12.215
							l-1.346,24.368c-0.858,16.246-1.798,32.492-2.36,48.744c-0.136,4.059-0.293,8.131-0.229,12.17
							c0.011,0.503,0.031,1.005,0.068,1.497c0.019,0.245,0.046,0.485,0.085,0.7l0.032,0.126c0.027,0.079-0.028-0.075-0.064-0.048
							l0.304,0.25c0.794,0.675,1.585,1.487,1.996,2.57c0.205,0.535,0.28,1.12,0.253,1.681c0.004,0.267-0.085,0.594-0.065,0.784
							c-0.009,0.209-0.013,0.435,0.01,0.695c0.049,0.989,0.159,2.006,0.261,3.012c0.847,8.079,1.989,16.152,2.333,24.315
							c0.082,2.033,0.114,4.106-0.171,6.15c-0.269,2.039-0.68,4.032-1.082,6.03c-0.83,3.989-1.759,7.951-2.71,11.908
							c-1.938,7.904-3.987,15.779-6.095,23.637c1.949-7.899,3.84-15.812,5.618-23.749c0.897-3.966,1.787-7.934,2.568-11.921
							c0.378-1.993,0.766-3.992,1.005-5.99c0.255-1.991,0.202-4.008,0.098-6.033c-0.462-8.096-1.573-16.159-2.469-24.252
							c-0.107-1.017-0.221-2.023-0.276-3.065c-0.023-0.248-0.025-0.53-0.009-0.829c-0.003-0.321,0.062-0.491,0.058-0.734
							c0.019-0.453-0.039-0.898-0.2-1.313c-0.317-0.835-0.982-1.548-1.732-2.175l-0.286-0.234c-0.097-0.082-0.245-0.335-0.24-0.382
							l-0.065-0.243c-0.053-0.285-0.082-0.551-0.104-0.813c-0.041-0.523-0.063-1.037-0.076-1.55
							c-0.079-4.096,0.06-8.159,0.186-12.23c0.646-16.268,1.571-32.514,2.594-48.754l1.625-24.354
							c0.372-4.046,0.296-8.112,0.277-12.179C624.409,240.347,624.323,236.28,624.211,232.213z"/>
						<path style="fill:#4E609C;" d="M566.461,230.547c0.252,1.856,0.245,3.746,0.056,5.617c-0.19,1.872-0.562,3.736-1.173,5.535
							c-0.636,1.788-1.49,3.513-2.638,5.041c-1.184,1.504-2.693,2.731-4.37,3.556c1.477-1.163,2.71-2.51,3.734-4.009
							c0.963-1.543,1.732-3.191,2.328-4.912c0.606-1.72,1.007-3.512,1.349-5.319C566.06,234.244,566.327,232.41,566.461,230.547z"/>
						<path style="fill:#4E609C;" d="M620.086,234.797l0.221,4.438c0.095,1.468,0.204,2.929,0.414,4.368
							c0.198,1.438,0.488,2.863,0.997,4.192c0.512,1.304,1.311,2.59,2.743,3.126c-0.755-0.053-1.476-0.434-2.07-0.939
							c-0.586-0.522-1.036-1.177-1.384-1.865c-0.706-1.381-1.053-2.885-1.277-4.376C619.344,240.747,619.45,237.721,620.086,234.797
							z"/>
					</g>
				</g>
			</g>
		</g>
		<g>
			<g>
				<g>
					<path style="fill:#E9A879;" d="M507.899,149.672c0,0,1.875,6.813,2.188,8.063s2.938,5.188,2.938,5.188l-7.688,3.438l-6.625-12
						l2.75-5.563L507.899,149.672z"/>
					<g>
						<g>
							<path d="M507.307,152.661l-5.272,3.712l-0.307,0.209c-0.422,0.302-1.011,0.197-1.313-0.225l-9.832-13.993
								c-0.304-0.432-0.199-1.021,0.223-1.323l0.305-0.219l5.274-3.702c0.404-0.288,0.972-0.19,1.25,0.216l9.898,14.073
								C507.812,151.815,507.714,152.382,507.307,152.661z"/>
							<path style="fill:#00005E;" d="M502.035,156.373l-0.307,0.209c-0.422,0.302-1.011,0.197-1.313-0.225l-9.832-13.993
								c-0.304-0.432-0.199-1.021,0.223-1.323l0.305-0.219L502.035,156.373z"/>
							<path style="fill:#708FEA;" d="M507.319,152.645l-4.951,3.424l-0.307,0.21c-0.422,0.303-1.011,0.199-1.313-0.222
								l-9.859-13.975c-0.305-0.431-0.201-1.02,0.22-1.323l0.305-0.22l4.953-3.415c0.404-0.289,0.971-0.192,1.251,0.214
								l9.925,14.054C507.822,151.798,507.724,152.366,507.319,152.645z"/>
						</g>
						<g>
							<g>
								<path style="fill:#E9A879;" d="M509.336,156.297c-0.063,0.063-0.188-6.938-1-8.438s-5.75-3.5-5.75-3.5
									s-0.875,2.5,1.688,3.438l1.25,1.625c0,0-0.438,3.188,0.063,5L509.336,156.297z"/>
								<path style="fill:#E9A879;" d="M500.274,156.672c0,0,1.313-0.375,1.313-0.875s-3.25-2.188-3.25-2.188
									s0.75,0.313,1.125-0.313s-3.438-3.438-3.438-3.438s1.063-0.563,0.813-0.938s-2.188-0.688-2.188-0.688l-1.188-1.688
									c0,0-0.5,3.438,1.125,3.875c0,0,1.688,3,3,3.375C497.586,153.797,498.274,156.422,500.274,156.672z"/>
							</g>
						</g>
					</g>
				</g>
				<g>
					<path style="fill:#FFD000;" d="M580.711,113.047c0,0-20.75,6.75-27.25,13.5s-18.25,57.75-18.25,57.75s-2-1.75-2.75-2.25
						s-20.5-23.25-20.5-23.25s-10.25,3.25-10.5,5.75s16.25,47,26.75,52.75s14,2,14.75,1s28.75-35.5,30.25-40
						S580.711,113.047,580.711,113.047z"/>
					<g>
						<g>
							<path style="fill:#F5AF00;" d="M544.211,193.547c-1.654-1.361-3.198-2.824-4.678-4.346c-1.478-1.525-2.911-3.091-4.277-4.719
								l-0.903-1.077l1.298,0.43c0.685,0.227,1.365,0.473,2.044,0.723c0.672,0.276,1.353,0.517,2.016,0.823
								c-0.726-0.084-1.433-0.231-2.15-0.344c-0.71-0.138-1.419-0.282-2.122-0.443l0.394-0.647c1.523,1.483,2.979,3.027,4.39,4.614
								C541.631,190.148,542.976,191.796,544.211,193.547z"/>
							<path style="fill:#F5AF00;" d="M536.878,182.88c0.286-0.556,0.695-0.831,1.133-1.041c0.45-0.181,0.93-0.294,1.534-0.126
								c-0.286,0.558-0.694,0.833-1.133,1.041C537.96,182.933,537.48,183.047,536.878,182.88z"/>
							<path style="fill:#F5AF00;" d="M561.679,183.777c-0.557,1.711-1.564,3.248-2.635,4.69c-1.1,1.428-2.31,2.754-3.399,4.15
								c-1.075,1.398-2.118,2.832-2.688,4.451c-0.144,0.402-0.286,0.804-0.364,1.222c-0.114,0.409-0.157,0.82-0.272,1.323
								c-0.098,0.478-0.426,1.094-0.947,1.38c-0.492,0.291-0.966,0.377-1.338,0.519c-1.515,0.523-2.404,2.11-3.111,3.693
								c-0.368,0.801-0.708,1.634-1.123,2.456c-0.414,0.82-0.9,1.594-1.423,2.335c-2.115,2.94-4.526,5.576-6.891,8.267
								c1.029-1.471,2.106-2.898,3.155-4.345c1.078-1.422,2.15-2.86,3.095-4.348c0.467-0.749,0.899-1.512,1.277-2.297
								c0.372-0.785,0.687-1.618,1.043-2.452c0.358-0.832,0.764-1.672,1.333-2.445c0.56-0.773,1.354-1.457,2.304-1.804
								c0.466-0.162,0.885-0.253,1.166-0.425c0.274-0.159,0.411-0.392,0.513-0.778c0.09-0.368,0.151-0.847,0.279-1.301
								c0.093-0.463,0.249-0.904,0.421-1.339c0.682-1.748,1.795-3.243,2.979-4.6c1.185-1.364,2.452-2.626,3.613-3.971
								C559.852,186.835,560.914,185.4,561.679,183.777z"/>
							<path style="fill:#F5AF00;" d="M543.352,205.431c0.821-0.026,1.504,0.221,2.154,0.532c0.636,0.339,1.239,0.744,1.702,1.423
								c-0.822,0.028-1.505-0.219-2.154-0.532C544.419,206.513,543.816,206.108,543.352,205.431z"/>
							<path style="fill:#F5AF00;" d="M503.437,165.984c1.346-1.112,2.829-1.95,4.344-2.724c0.769-0.37,1.526-0.736,2.345-1.037
								c0.811-0.3,1.706-0.526,2.584-0.425c-0.816,0.315-1.527,0.715-2.254,1.132c-0.718,0.428-1.473,0.841-2.229,1.224
								C506.697,164.898,505.135,165.577,503.437,165.984z"/>
						</g>
					</g>
				</g>
			</g>
			<g>
				<g>
					<path style="fill:#E9A879;" d="M577.417,118.876c5.506,3.586,11.546,5.507,18.102,5.851c6.512,0.342,13.574,0.492,19.37-2.91
						c1.571-0.922,3.045-2.006,4.454-3.182c-10.339-3.953-13.024-7.276-13.024-7.276c-3.317-3.623-5.436-16.87-5.436-16.87
						l-7.512,5.447l-7.486-0.468c0,0-0.653,8.787-4.103,12.237c0,0-1.703,1.84-8.126,4.691
						C574.932,117.251,576.196,118.081,577.417,118.876z"/>
					<path style="fill:#E27F5C;" d="M585.423,102.896c3.437,0.906,7.676,0.646,11.508-2.104c1.687-1.208,3.083-2.906,4.218-4.77
						c-0.052-0.302-0.104-0.562-0.146-0.781c-0.792,1-1.698,1.896-2.708,2.624c-4.187,3-8.853,3.041-12.435,1.833
						C585.818,100.188,585.693,101.385,585.423,102.896z"/>
				</g>
				<g>
					<polygon style="fill:#FFFFFF;" points="563.086,225.297 563.086,227.797 584.461,234.672 588.336,229.797 590.711,235.297 
						630.211,228.422 629.336,224.422 					"/>
					<g>
						<path style="fill:#FFD000;" d="M626.711,208.047c0,0,3.75,11.75,3.75,18.25c0,0-43,6.25-67.75,0c0,0-0.31-23.21-0.73-40.93
							c-0.23-9.93-0.5-18.13-0.77-19.57c-0.09-0.49-0.22-1.43-0.39-2.73c-1.14-9.32-3.71-36.64-2.61-39.27
							c1.25-3,22.5-10.75,22.5-10.75s3,7.5,9.5,7.25s16.11-8.94,16.11-8.94s14.14,6.69,16.89,7.19s8.75,8.5,9,11.25
							c0.12,1.31-1.13,19.2-2.46,37.54c-0.55,7.45-1.11,14.98-1.59,21.49C627.331,199.887,626.711,208.047,626.711,208.047z"/>
						<g>
							<path style="opacity:0.5;fill:#FFD000;" d="M629.751,167.337c-0.55,7.45-1.11,14.98-1.59,21.49l-10.93-10.93l-10.78,10.77
								l-11.94-11.94l-10.78,10.78l-11.94-11.95l-9.81,9.81c-0.23-9.93-0.5-18.13-0.77-19.57c-0.09-0.49-0.22-1.43-0.39-2.73
								l10.88,10.88l10.78-10.77l11.94,11.94l10.78-10.78l11.94,11.95l10.78-10.78L629.751,167.337z"/>
							<g>
								<g>
									<path style="fill:#F5AF00;" d="M562.378,193.047c-0.345-4.035-0.58-8.073-0.799-12.112
										c-0.221-4.039-0.352-8.081-0.533-12.121c-0.1-4.043-0.243-8.085-0.302-12.129l-0.069-6.067
										c0.014-2.024-0.007-4.046,0.037-6.071c0.183,2.017,0.301,4.036,0.453,6.054l0.348,6.058
										c0.219,4.039,0.353,8.081,0.531,12.121c0.097,4.043,0.244,8.085,0.3,12.129
										C562.403,184.953,562.445,188.998,562.378,193.047z"/>
									<path style="fill:#F5AF00;" d="M558.044,146.38c0.905,1.607,1.517,3.303,2.061,5.02c0.514,1.726,0.957,3.475,1.106,5.313
										c-0.907-1.606-1.519-3.302-2.061-5.02C558.638,149.966,558.195,148.218,558.044,146.38z"/>
									<path style="fill:#F5AF00;" d="M584.044,120.13c0.958,1.238,2.011,2.375,3.158,3.364c1.146,0.984,2.436,1.788,3.831,2.161
										c0.699,0.165,1.418,0.249,2.124,0.162c0.706-0.083,1.387-0.324,2.03-0.67c1.274-0.721,2.348-1.872,3.19-3.184
										c-0.495,1.482-1.401,2.902-2.774,3.845c-0.678,0.479-1.48,0.791-2.312,0.946c-0.841,0.136-1.691,0.047-2.508-0.132
										c-1.616-0.453-3.013-1.405-4.113-2.563C585.549,122.916,584.672,121.568,584.044,120.13z"/>
								</g>
							</g>
						</g>
					</g>
					<g>
						<g>
							<path style="fill:#BCD8E0;" d="M590.211,120.297l-3.063-7.656l-3.156,5.813C583.992,118.453,587.711,120.984,590.211,120.297
								z"/>
							<path style="fill:#BCD8E0;" d="M598.961,121.609l-5.656-7.344l-3.094,6.031C590.211,120.297,594.367,121.859,598.961,121.609
								z"/>
						</g>
						<g>
							<polygon style="fill:#FFFFFF;" points="590.211,120.297 592.524,111.547 604.524,107.359 610.961,112.547 599.274,122.422 
								593.336,114.797 							"/>
							<polygon style="fill:#FFFFFF;" points="590.211,120.297 588.336,111.484 583.711,107.609 575.899,114.797 580.711,113.047 
								583.774,119.297 587.336,114.109 							"/>
						</g>
					</g>
				</g>
			</g>
			<g>
				<g>
					<g>
						<path style="fill:#E79E6C;" d="M631.952,209.355c-0.078-0.137-0.152-0.276-0.229-0.413
							c-8.491,9.343-15.516,18.36-12.737,20.084c2.562,1.589,11.35-2.392,20.762-7.667
							C636.764,217.632,634.274,213.46,631.952,209.355z"/>
					</g>
					<g>
						<path style="fill:#E6965F;" d="M611.451,235.036c0,0-6.247,2.655-7.108,2.787s-2.714-0.076-2.854-0.426
							c-0.14-0.35,2.334-0.875,2.334-0.875l7.187-3.874L611.451,235.036z"/>
						<path style="fill:#E79E6C;" d="M621.6,222.292c0,0,3.448,4.622,2.291,6.87c-1.157,2.248-9.043,7.942-10.743,8.547
							c-1.699,0.605-10.391,3.715-11.102,3.08c-0.711-0.635,8.037-6.46,8.037-6.46s1.442-0.964-0.135-2.05
							c0,0,1.723-4.83,3.32-5.977C614.866,225.155,619.333,222.905,621.6,222.292z"/>
						<path style="fill:#E79E6C;" d="M612.061,231.85c0,0-4.224,0.859-4.965,1.291c-0.741,0.432-2.618,0.879-2.663,0.195
							c-0.045-0.683,7.349-6.753,9.363-7.141c2.015-0.388,2.257,2.787,2.257,2.787L612.061,231.85z"/>
					</g>
				</g>
				<g>
					<path style="fill:#FFD000;" d="M627.961,119.297c-1.539-1.197-11.093-4.468-16.981-6.418c-2.364,2.53-4.702,5.09-6.984,7.694
						l-4.785,18.973l50.5,45.75l-27.75,32.25l8.5,8.75c0,0,48-25.25,48-40.5S630.211,121.047,627.961,119.297z"/>
					<g>
						<g>
							<path style="fill:#F5AF00;" d="M613.544,152.713c2.96,2.182,5.716,4.588,8.421,7.048c2.685,2.482,5.318,5.021,7.745,7.785
								c-2.962-2.181-5.717-4.587-8.421-7.048C618.607,158.014,615.973,155.475,613.544,152.713z"/>
							<path style="fill:#F5AF00;" d="M612.044,157.213c1.345-0.166,2.638-0.031,3.919,0.174c1.275,0.237,2.538,0.546,3.748,1.159
								c-1.346,0.168-2.639,0.033-3.919-0.174C614.517,158.133,613.255,157.824,612.044,157.213z"/>
							<path style="fill:#F5AF00;" d="M649.878,183.547c0.327-0.799,0.852-1.367,1.425-1.879c0.593-0.489,1.234-0.922,2.075-1.121
								c-0.325,0.801-0.851,1.368-1.425,1.879C651.359,182.913,650.718,183.346,649.878,183.547z"/>
							<path style="fill:#F5AF00;" d="M650.711,184.547c0.602-0.55,1.276-0.803,1.967-0.986c0.698-0.152,1.413-0.233,2.2-0.014
								c-0.602,0.552-1.276,0.805-1.967,0.986C652.213,184.683,651.498,184.763,650.711,184.547z"/>
							<path style="fill:#F5AF00;" d="M650.878,186.047c0.417-0.394,0.833-0.483,1.25-0.5c0.417,0.015,0.833,0.103,1.25,0.5
								c-0.417,0.396-0.833,0.485-1.25,0.5C651.711,186.529,651.294,186.441,650.878,186.047z"/>
							<path style="fill:#F5AF00;" d="M623.378,218.213c0.627-1.512,1.5-2.843,2.431-4.13c0.956-1.269,1.972-2.494,3.235-3.536
								c-0.626,1.514-1.499,2.844-2.432,4.13C625.655,215.945,624.639,217.17,623.378,218.213z"/>
							<path style="fill:#F5AF00;" d="M615.549,131.875c-0.187-0.683-0.006-1.43,0.249-2.09c0.277-0.665,0.646-1.258,1.01-1.847
								c0.74-1.179,1.592-2.286,2.512-3.332c1.865-2.065,4.04-3.877,6.518-5.139c-2.016,1.906-3.972,3.773-5.773,5.805
								c-0.91,1.005-1.77,2.053-2.622,3.115c-0.413,0.542-0.859,1.063-1.212,1.622C615.854,130.559,615.592,131.178,615.549,131.875
								z"/>
							<path style="fill:#F5AF00;" d="M611.257,114.689c2.978,2.206,6.332,3.809,9.888,4.8c0.883,0.287,1.772,0.612,2.602,1.094
								c0.414,0.241,0.809,0.523,1.167,0.852c0.366,0.328,0.655,0.697,0.973,0.984c0.322,0.294,0.641,0.473,1.05,0.521
								c0.406,0.059,0.895,0.028,1.404,0.143c1.005,0.224,1.837,0.83,2.531,1.476c1.358,1.34,2.532,2.719,3.785,4.095l3.684,4.147
								l7.289,8.363c4.775,5.647,9.526,11.313,14.189,17.051l6.967,8.628c2.247,2.912,4.786,5.7,6.348,9.08
								c-1.76-3.268-4.342-5.949-6.726-8.768l-7.181-8.449c-4.785-5.634-9.527-11.302-14.357-16.893
								c-4.774-5.621-9.622-11.255-14.527-16.699c-0.633-0.621-1.349-1.151-2.16-1.351c-0.394-0.105-0.841-0.087-1.348-0.167
								c-0.518-0.064-1.036-0.371-1.377-0.717c-0.359-0.344-0.634-0.715-0.951-1.01c-0.315-0.304-0.669-0.571-1.048-0.804
								c-0.758-0.47-1.61-0.801-2.472-1.115C617.47,118.802,614.088,117.071,611.257,114.689z"/>
							<path style="fill:#F5AF00;" d="M626.613,217.046c1.014,1.11,2.174,1.8,3.361,2.675c0.581,0.443,1.174,0.912,1.673,1.497
								c0.5,0.574,0.918,1.272,1.031,2.03c-0.972-1.15-2.119-1.85-3.3-2.725c-0.578-0.442-1.172-0.905-1.678-1.48
								C627.193,218.48,626.758,217.798,626.613,217.046z"/>
						</g>
					</g>
				</g>
			</g>
		</g>
		<g>
			<g>
				<path style="fill:#E9A879;" d="M609.263,81.659c-0.75-0.528-1.738-0.37-2.383-0.174c1.89-7.128-0.977-14.563-7.274-17.615
					c-7.249-3.51-16.247,0.094-20.122,8.061c-0.448,0.948-0.812,1.906-1.083,2.875c-0.01,0.01-0.01,0.021-0.021,0.042
					c-0.875,2.385-1.708,6.207-1.635,10.196c0.042,2.916,0.583,5.926,1.958,8.509c0.635,1.208,1.448,2.333,2.489,3.301
					c2.927,3.197,10.602,5.666,17.101,1.01c2.405-1.729,4.202-4.437,5.526-7.206C609.565,91.624,610.428,82.48,609.263,81.659z"/>
				<g>
					<path style="fill:#EDBA95;" d="M591.629,89.748c0,2.648,2.147,4.795,4.795,4.795c2.648,0,4.795-2.147,4.795-4.795
						s-2.147-4.795-4.795-4.795C593.776,84.953,591.629,87.1,591.629,89.748z"/>
					<path style="fill:#EDBA95;" d="M576.745,85.044c0.042,2.916,0.583,5.926,1.958,8.509c1.146-0.864,1.885-2.25,1.885-3.801
						C580.589,87.429,578.943,85.492,576.745,85.044z"/>
					<path style="fill:#01124A;" d="M607.414,85.827c0.302-0.625,0.468-1.305,0.445-1.98c0-0.344-0.042-0.659-0.279-0.824
						c-0.228-0.177-0.54-0.204-0.823-0.107c-0.577,0.203-0.994,0.739-1.283,1.337c-0.289,0.605-0.57,1.255-0.812,1.885
						c-0.253,0.627-0.457,1.281-0.53,1.929c-0.015,0.147-0.001,0.296,0.043,0.375c0.042,0.074,0.092,0.1,0.195,0.084
						c0.218-0.046,0.488-0.302,0.705-0.531c0.437-0.483,0.726-1.113,0.8-1.775c0.091-0.648-0.043-1.392-0.594-1.84
						c0.633,0.353,0.866,1.156,0.849,1.859c-0.027,0.722-0.294,1.434-0.748,2.013c-0.24,0.273-0.454,0.579-0.919,0.714
						c-0.235,0.071-0.574-0.055-0.691-0.298c-0.123-0.229-0.122-0.443-0.113-0.638c0.066-0.733,0.267-1.42,0.518-2.081
						c0.271-0.658,0.554-1.275,0.877-1.913c0.324-0.616,0.809-1.3,1.594-1.503c0.377-0.104,0.835-0.039,1.142,0.24
						c0.339,0.284,0.353,0.753,0.322,1.082C608.049,84.566,607.818,85.259,607.414,85.827z"/>
					<g>
						<g>
							<path style="fill:#F1CEB7;" d="M587.3,85.256c-0.014,0.132-0.217,0.219-0.454,0.194c-0.237-0.025-0.418-0.152-0.404-0.284
								c0.014-0.132,0.217-0.219,0.454-0.194C587.133,84.996,587.314,85.124,587.3,85.256z"/>
						</g>
						<path style="fill:#01124A;" d="M586.518,81.85c0.018,0.475-0.049,0.95-0.168,1.413c-0.108,0.465-0.336,0.908-0.495,1.324
							c-0.187,0.409-0.257,0.826-0.099,1.219c0.149,0.391,0.479,0.737,0.925,0.894c-0.484,0.009-0.959-0.311-1.203-0.765
							c-0.271-0.465-0.169-1.059,0.008-1.497c0.207-0.445,0.406-0.838,0.574-1.27C586.234,82.743,586.374,82.302,586.518,81.85z"/>
						<path style="fill:#01124A;" d="M587.597,86.608c0.018-0.245,0.126-0.363,0.228-0.493c0.134-0.097,0.257-0.199,0.503-0.206
							c0.002,0.227-0.119,0.357-0.228,0.493C587.959,86.505,587.823,86.619,587.597,86.608z"/>
					</g>
					<g>
						<g>
							<path style="fill:#01124A;" d="M588.669,91.007c-0.402,0.279-0.904,0.349-1.383,0.361c-0.241-0.018-0.483-0.034-0.715-0.098
								c-0.234-0.055-0.457-0.15-0.668-0.262C586.853,91.107,587.731,91.174,588.669,91.007z"/>
							<g>
								<path style="fill:#01124A;" d="M591.067,88.1c-0.468,0.498-1.075,0.857-1.72,1.106c-0.646,0.252-1.348,0.38-2.047,0.364
									c-0.695-0.034-1.398-0.136-2.033-0.419c-0.328-0.109-0.62-0.302-0.926-0.45c-0.286-0.189-0.563-0.39-0.826-0.601
									c0.635,0.248,1.24,0.514,1.877,0.671c0.629,0.181,1.274,0.256,1.915,0.278c0.644,0.027,1.285-0.076,1.917-0.223
									C589.857,88.668,590.473,88.424,591.067,88.1z"/>
							</g>
						</g>
					</g>
					<g>
						<g>
							<g>
								<g>
									<g>
										<ellipse style="fill:#01124A;" cx="583.385" cy="82.697" rx="0.917" ry="1.858"/>
									</g>
								</g>
								<g>
									<path style="fill:#E9A879;" d="M583.866,84.793l0.224-0.47c-0.069-0.032-1.722-0.809-2.784-0.156l0.273,0.443
										C582.264,84.19,583.462,84.599,583.866,84.793z"/>
								</g>
							</g>
							<g>
								<g>
									<path style="fill:#01124A;" d="M584.398,78.254c-0.574,0.301-0.98,0.268-1.414,0.218c-0.432-0.024-0.86,0.01-1.278,0.092
										c-0.418,0.087-0.833,0.219-1.233,0.428c-0.415,0.188-0.79,0.468-1.201,0.756l-0.021,0.014
										c-0.12,0.084-0.285,0.055-0.369-0.065c-0.058-0.083-0.062-0.188-0.019-0.272c0.243-0.478,0.56-0.945,0.988-1.319
										c0.412-0.392,0.933-0.68,1.482-0.869c0.551-0.194,1.139-0.275,1.715-0.253c0.573-0.001,1.172,0.144,1.547,0.787
										c0.089,0.153,0.038,0.35-0.116,0.44c-0.004,0.002-0.008,0.004-0.011,0.006L584.398,78.254z"/>
									<path style="fill:#01124A;" d="M584.772,77.104c-0.247,0.234-0.381,0.431-0.52,0.606l-0.2,0.257
										c-0.073,0.091-0.169,0.165-0.3,0.288c0.294,0.203,0.719,0.04,0.914-0.229C584.856,77.752,584.923,77.415,584.772,77.104z"
										/>
								</g>
							</g>
						</g>
						<g>
							<g>
								<g>
									<g>
										<path style="fill:#01124A;" d="M592.114,82.697c0,1.026-0.411,1.858-0.917,1.858c-0.506,0-0.917-0.832-0.917-1.858
											s0.41-1.858,0.917-1.858C591.703,80.838,592.114,81.67,592.114,82.697z"/>
									</g>
								</g>
								<g>
									<path style="fill:#E9A879;" d="M590.716,84.793c0.015-0.007,1.464-0.686,2.287-0.182l0.273-0.443
										c-1.063-0.655-2.715,0.123-2.784,0.156L590.716,84.793z"/>
								</g>
							</g>
							<g>
								<g>
									<path style="fill:#01124A;" d="M589.988,77.771c0.375-0.644,0.974-0.789,1.547-0.787c0.576-0.021,1.164,0.059,1.715,0.253
										c0.549,0.19,1.07,0.478,1.482,0.869c0.427,0.374,0.744,0.841,0.988,1.319c0.066,0.13,0.015,0.29-0.116,0.356
										c-0.09,0.046-0.194,0.035-0.272-0.019l-0.021-0.015c-0.411-0.288-0.785-0.568-1.201-0.756
										c-0.4-0.209-0.815-0.342-1.233-0.428c-0.419-0.083-0.847-0.117-1.278-0.092c-0.434,0.05-0.84,0.083-1.414-0.218
										l-0.068-0.036c-0.157-0.082-0.218-0.277-0.135-0.434C589.983,77.78,589.985,77.775,589.988,77.771z"/>
									<path style="fill:#01124A;" d="M589.811,77.104c0.247,0.234,0.381,0.431,0.52,0.606l0.2,0.257
										c0.073,0.091,0.169,0.165,0.3,0.288c-0.294,0.203-0.719,0.04-0.914-0.229C589.726,77.752,589.659,77.415,589.811,77.104z"
										/>
								</g>
							</g>
						</g>
					</g>
				</g>
			</g>
			<g>
				<path style="fill:#01124A;" d="M608.881,69.047c0,0-0.14-3.46-1.75-5.33c-2-2.34-19.09-7.34-25.92-0.84
					c-4.21,4.01-4.43,11.34-3.99,16.38c0,0,4.302-9.522,5.302-9.772s4.25,3.813,6.938,4.375c1.944,0.407,6.245-1.345,8.474-2.345
					c1.339-0.601,2.987,0.055,3.372,1.471c0.109,0.402,0.12,0.86-0.033,1.374c-0.688,2.313-1.563,4.313-1.313,5.438
					s2.125,5.813,2.125,5.813c0.922-0.16,1.763-0.614,2.403-1.297c0.835-0.89,2.047-2.146,2.972-2.959
					c0.245-0.039,0.501-0.063,0.76-0.046c0.88-1.62,1.98-3.81,2.49-5.43C611.631,72.967,609.791,69.717,608.881,69.047z"/>
				<path style="opacity:0.5;fill:#01124A;" d="M603.117,68.676c-4.245-1.052-8.076-3.31-12.095-4.964
					c-2.083-0.857-4.423-1.913-6.814-2.763c-1.126,0.481-2.142,1.114-2.997,1.928c-1.703,1.623-2.746,3.792-3.364,6.13
					c4.659-0.815,9.758-0.103,14.045,1.432c1.474,0.528,2.901,1.152,4.311,1.814c0.642-0.261,1.242-0.519,1.732-0.738
					c1.339-0.601,2.987,0.055,3.372,1.471c0.109,0.402,0.12,0.86-0.033,1.374c-0.034,0.114-0.07,0.223-0.104,0.336
					c1.857,0.921,3.727,1.812,5.662,2.551c0.971,0.371,2.024,0.551,3.111,0.584c0.304-0.688,0.583-1.362,0.769-1.954
					c0.771-2.439-0.396-5.111-1.33-6.308C607.307,69.497,605.208,69.195,603.117,68.676z"/>
			</g>
		</g>
	</g>
	<line style="fill:none;stroke:#708FEA;stroke-width:2;stroke-miterlimit:10;" x1="60.5" y1="441" x2="689.5" y2="441"/>
</g>
</svg>
