<?xml version="1.0" encoding="utf-8"?>
<!-- Generator: Adobe Illustrator 26.1.0, SVG Export Plug-In . SVG Version: 6.00 Build 0)  -->
<svg version="1.1" id="Layer_1" xmlns="http://www.w3.org/2000/svg" xmlns:xlink="http://www.w3.org/1999/xlink" x="0px" y="0px"
	 viewBox="0 0 500 500" style="enable-background:new 0 0 500 500;" xml:space="preserve">
<style type="text/css">
	.st0{fill:#B7D7D9;}
	.st1{fill:none;stroke:#B7D7D9;stroke-width:0.9834;stroke-miterlimit:10;}
	.st2{fill:#FFFFFF;}
	.st3{fill:#8DBAB8;}
	.st4{fill:#699A9E;}
	.st5{fill:#345B60;}
	.st6{fill:#4D898D;}
	.st7{fill:#203936;}
	.st8{fill:#2D4F4C;}
	.st9{fill:#D0D0D0;}
	.st10{fill:#C3C3C3;}
	.st11{fill:#EBEBEB;}
	.st12{fill:#393D45;}
	.st13{fill:#DFF3FF;}
	.st14{fill:#C3014F;}
	.st15{fill:#F1DA3D;}
	.st16{fill:#599DDF;}
	.st17{fill:#C7C7C7;}
	.st18{opacity:9.000000e-02;fill:#FFFFFF;enable-background:new    ;}
	.st19{fill:#4F85B5;}
	.st20{fill:#FDF9CC;}
	.st21{fill:#C30155;}
	.st22{opacity:0.18;fill:#581113;enable-background:new    ;}
	.st23{fill:#335470;}
	.st24{fill:none;stroke:#828B91;stroke-width:0.6919;stroke-linecap:round;stroke-miterlimit:10;}
	.st25{fill:none;stroke:#919CA2;stroke-width:1.8684;stroke-linecap:round;stroke-miterlimit:10;}
	.st26{fill:url(#SVGID_1_);}
	.st27{fill:#406E8A;}
	.st28{fill:#589BC6;}
</style>
<g id="OBJECTS">
	<g>
		<g>
			<g>
				<path class="st0" d="M90.3,141.7c-33.2,20.5-52.6,31-50.3,60.5c2,24.8,24.4,34.4,46.2,79c18.3,37.4-17.8,60.3-5.4,101.9
					c8.5,28.5,32.3,43.1,61.1,47.2c39.1,5.5,60.9-9.4,99-20.3c56.3-16.1,69.2-22.4,121.9-4.9c51.4,17.1,93.7-29.4,97.2-62.9
					c3.6-34.6-5.6-57.5-23.1-83c-15.6-22.7-25.9-38.5-26.2-65.3c-0.4-36.9,14.6-49,8.4-78.2c-6.8-32.3-34.2-49.5-49.2-53.1
					c-58.3-13.9-91.8,29.5-132.6,28.5c-44.1-1-66.7-43.8-104.3-29.4S128.4,118.1,90.3,141.7z"/>
			</g>
			<path class="st1" d="M103.2,141.8c-33.4,18.9-52.9,28.5-51.7,57.6c1,24.5,22.6,34.7,42.5,79.4c16.6,37.5-19.8,58.6-9.2,100
				c7.3,28.4,30.1,43.6,58.3,48.7c38.3,6.9,60.2-6.9,98-16.2c56-13.7,68.8-19.4,119.9-0.2c49.9,18.8,93.2-25.4,97.9-58.1
				c4.9-33.8-3.3-56.7-19.6-82.5c-14.4-22.9-24-38.8-23.3-65.2c1-36.3,16.1-47.6,11.2-76.6c-5.5-32-31.8-50-46.3-54
				c-56.8-15.9-91.3,25.5-131.4,23c-43.2-2.6-63.9-45.6-101.4-32.8S141.5,120.1,103.2,141.8z"/>
			<path class="st1" d="M82.6,165.6c-30.3,23.6-48.1,36-42.6,64.5c4.6,24.1,27.5,31,53.7,72.3c21.9,34.6-11,60.8,5.6,100.2
				c11.4,27,36.2,38.7,64.8,39.6c38.9,1.2,58.6-15.7,94.6-30.4c53.4-21.8,65.2-29.3,118.6-17.8c52.1,11.2,88.4-38.8,88.3-71.9
				c-0.1-34.2-11.6-55.6-31.5-78.7c-17.6-20.6-29.5-34.8-32.7-61c-4.4-36,9-49.4-0.2-77.4c-10.1-30.8-38.8-44.8-53.8-46.6
				c-58.5-7.3-86.6,38.6-126.5,42.1c-43.2,3.7-69.9-35.7-105.1-17.6S117.3,138.5,82.6,165.6z"/>
			<ellipse class="st0" cx="437.7" cy="126.6" rx="13.2" ry="20.2"/>
			<circle class="st0" cx="423.8" cy="93.2" r="3.5"/>
			
				<ellipse transform="matrix(0.3827 -0.9239 0.9239 0.3827 -176.7095 551.9263)" class="st0" cx="324.7" cy="408.2" rx="14.2" ry="25.4"/>
			<path class="st0" d="M90.8,303.8c6.2,4.8,4.2,17.7-4.4,28.7s-20.6,16.1-26.8,11.3S55.4,326.1,64,315
				C72.6,304,84.7,298.9,90.8,303.8z"/>
			<path class="st0" d="M454,147.5c0,1.4-1.2,2.6-2.6,2.6s-2.6-1.2-2.6-2.6s1.2-2.6,2.6-2.6C452.9,145,454,146.1,454,147.5z"/>
			<circle class="st0" cx="288.2" cy="414.2" r="7.1"/>
			<path class="st0" d="M313.6,427.2c0,2.4-1.9,4.3-4.3,4.3c-2.4,0-4.3-1.9-4.3-4.3c0-2.4,1.9-4.3,4.3-4.3
				C311.6,422.9,313.6,424.8,313.6,427.2z"/>
			<circle class="st0" cx="64.9" cy="292.1" r="9.6"/>
			<path class="st0" d="M45.8,315.6c0,0.8-0.7,1.5-1.5,1.5s-1.5-0.7-1.5-1.5s0.7-1.5,1.5-1.5S45.8,314.8,45.8,315.6z"/>
			<path class="st0" d="M40.7,288.8c0,1.7-1.4,3.1-3.1,3.1s-3.1-1.4-3.1-3.1s1.4-3.1,3.1-3.1C39.3,285.6,40.7,287,40.7,288.8z"/>
			<g>
				<path class="st2" d="M311.8,152.8c0,0.7-0.6,1.3-1.3,1.3s-1.3-0.6-1.3-1.3c0-0.7,0.6-1.3,1.3-1.3
					C311.2,151.5,311.8,152.1,311.8,152.8z"/>
				<path class="st2" d="M348.3,130.6c0,0.6-0.5,1.1-1.1,1.1c-0.6,0-1.1-0.5-1.1-1.1c0-0.6,0.5-1.1,1.1-1.1
					C347.8,129.5,348.3,130,348.3,130.6z"/>
				<path class="st2" d="M329.6,157.8c0,0.3-0.3,0.6-0.6,0.6c-0.3,0-0.6-0.3-0.6-0.6s0.3-0.6,0.6-0.6
					C329.3,157.2,329.6,157.5,329.6,157.8z"/>
				<path class="st2" d="M393.2,175.5c0,0.5-0.4,1-1,1s-1-0.4-1-1s0.4-1,1-1S393.2,175,393.2,175.5z"/>
				<circle class="st2" cx="225.9" cy="156.4" r="1.4"/>
				<path class="st2" d="M201.7,154.8c0,0.6-0.5,1.1-1.1,1.1s-1.1-0.5-1.1-1.1s0.5-1.1,1.1-1.1C201.2,153.7,201.7,154.2,201.7,154.8
					z"/>
				<path class="st2" d="M178.3,103.7c0,0.9-0.7,1.6-1.6,1.6s-1.6-0.7-1.6-1.6s0.7-1.6,1.6-1.6C177.5,102.1,178.3,102.8,178.3,103.7
					z"/>
				<path class="st2" d="M142,132.2c0,0.4-0.3,0.6-0.6,0.6c-0.4,0-0.6-0.3-0.6-0.6s0.3-0.6,0.6-0.6C141.7,131.6,142,131.9,142,132.2
					z"/>
				<path class="st2" d="M131.7,159.3c0,0.6-0.5,1.1-1.1,1.1s-1.1-0.5-1.1-1.1s0.5-1.1,1.1-1.1S131.7,158.7,131.7,159.3z"/>
				<circle class="st2" cx="74.8" cy="236.9" r="1.5"/>
				<circle class="st2" cx="65.1" cy="195.2" r="2.7"/>
				<path class="st2" d="M117.8,307.7c0,0.6-0.5,1.1-1.1,1.1c-0.6,0-1.1-0.5-1.1-1.1s0.5-1.1,1.1-1.1
					C117.3,306.6,117.8,307.1,117.8,307.7z"/>
				<path class="st2" d="M110.5,331.2c0,1.1-0.9,2-2,2c-1.1,0-2-0.9-2-2s0.9-2,2-2C109.6,329.2,110.5,330.1,110.5,331.2z"/>
				<path class="st2" d="M130.6,352.4c0,0.7-0.6,1.3-1.3,1.3c-0.7,0-1.3-0.6-1.3-1.3c0-0.7,0.6-1.3,1.3-1.3
					C130,351.1,130.6,351.7,130.6,352.4z"/>
				<circle class="st2" cx="354.9" cy="356.2" r="2.2"/>
				<path class="st2" d="M373.5,352.7c0,0.3-0.2,0.5-0.5,0.5s-0.5-0.2-0.5-0.5s0.2-0.5,0.5-0.5S373.5,352.4,373.5,352.7z"/>
				<circle class="st2" cx="381" cy="376.5" r="1.6"/>
				<path class="st2" d="M426.8,304.8c0,0.6-0.5,1.1-1.1,1.1s-1.1-0.5-1.1-1.1s0.5-1.1,1.1-1.1S426.8,304.2,426.8,304.8z"/>
				<path class="st2" d="M407.8,294c0,0.7-0.6,1.3-1.3,1.3s-1.3-0.6-1.3-1.3s0.6-1.3,1.3-1.3S407.8,293.3,407.8,294z"/>
				<circle class="st2" cx="438.3" cy="287.8" r="1.6"/>
				<path class="st2" d="M370.3,111.6c0,0.9-0.7,1.6-1.6,1.6c-0.9,0-1.6-0.7-1.6-1.6s0.7-1.6,1.6-1.6
					C369.5,110,370.3,110.7,370.3,111.6z"/>
				<circle class="st2" cx="344.2" cy="80.3" r="2"/>
				<path class="st2" d="M174.9,353.6c0,0.6-0.5,1.1-1.1,1.1s-1.1-0.5-1.1-1.1s0.5-1.1,1.1-1.1S174.9,353,174.9,353.6z"/>
				<path class="st2" d="M130.6,397.8c0,1.6-1.3,2.9-2.9,2.9c-1.6,0-2.9-1.3-2.9-2.9s1.3-2.9,2.9-2.9
					C129.3,394.9,130.6,396.2,130.6,397.8z"/>
			</g>
		</g>
		<g>
			<ellipse class="st3" cx="241.7" cy="242.4" rx="136.3" ry="119.8"/>
			<ellipse class="st3" cx="241.7" cy="275.9" rx="136.3" ry="119.8"/>
			<ellipse class="st4" cx="243.7" cy="373.5" rx="76.1" ry="4.1"/>
			<g>
				<path class="st5" d="M362.5,239.7c13.6-0.5,28.9-10.9,36.8-17.1c11.7-9.1,22.2-20.6,26.8-29.2l-2.1-1.1
					c-8.9,16.8-40.6,44.2-61.5,45L362.5,239.7z"/>
				<path class="st6" d="M432.4,177.7c2.3,9.2-1.7,16.3-9.2,18.3C422.1,186.3,426.2,181.1,432.4,177.7z"/>
				<path class="st6" d="M408.4,214.7c12.6-5.7,24-1.8,28.9,8.5C423.5,227.3,414.9,222.8,408.4,214.7z"/>
				<path class="st6" d="M410.4,209.7c-6.2-5.9-6.6-13.3-1.8-18.5C414.1,198.1,413.6,204.1,410.4,209.7z"/>
				<path class="st6" d="M407.8,236.4c-8.2,2.7-14.9-0.5-17.2-7.2C399.4,227.6,404.4,231,407.8,236.4z"/>
				<path class="st6" d="M385.2,229.2c-4.5-13.6,0.9-24.8,12-28.7C399.8,215.1,394.3,223.5,385.2,229.2z"/>
			</g>
			<g>
				<path class="st5" d="M131.6,237.8c-12.5-5.1-23.3-20-28.6-28.4c-7.9-12.5-13.8-26.7-15.1-36.3l2.4-0.3c2.6,18.7,23,55,42.2,62.8
					L131.6,237.8z"/>
				<path class="st6" d="M87.5,156.4c-5.3,7.8-3.9,15.8,2.3,20.2C94.1,167.9,92.1,161.6,87.5,156.4z"/>
				<path class="st6" d="M97.3,199c-9.9-9.6-21.7-9.8-29.8-1.8C79,205.6,88.5,204.4,97.3,199z"/>
				<path class="st6" d="M97.2,193.6c7.8-3.4,10.7-10.2,8-16.7C97.6,181.6,96.1,187.3,97.2,193.6z"/>
				<path class="st6" d="M90.6,219.4c6.7,5.3,14,4.6,18.5-0.9C101.4,214.1,95.6,215.5,90.6,219.4z"/>
				<path class="st6" d="M114.1,220.3c8.8-11.2,7.6-23.5-1.5-30.8C105.2,202.3,107.5,212,114.1,220.3z"/>
			</g>
			<g>
				<path class="st5" d="M162.5,180.5c-5.3-4.5-8.2-13.5-9.5-18.4c-1.9-7.4-2.5-15.3-1.7-20.2l1.2,0.2c-1.7,9.6,2.6,30.6,10.7,37.5
					L162.5,180.5z"/>
				<path class="st6" d="M153.7,133.6c-3.8,3-4.4,7.1-2,10.3C155.1,140.3,155.2,136.9,153.7,133.6z"/>
				<path class="st6" d="M151.8,156c-3.3-6.3-9.1-8.2-14.3-5.6C141.7,156.4,146.6,157.3,151.8,156z"/>
				<path class="st6" d="M152.6,153.4c4.4-0.4,6.8-3.3,6.5-6.9C154.7,147.6,153,150.2,152.6,153.4z"/>
				<path class="st6" d="M145.2,165c2.5,3.6,6.2,4.5,9.2,2.5C151.4,164.1,148.3,163.9,145.2,165z"/>
				<path class="st6" d="M156.6,169.2c6.1-4.1,7.4-10.3,4.2-15.3C155.1,158.9,154.7,164,156.6,169.2z"/>
			</g>
			<g>
				<path class="st5" d="M336.6,181.5c6.6-2.1,12.7-9.3,15.8-13.5c4.5-6.1,8.1-13.2,9.2-18l-1.2-0.3c-2.1,9.5-14,27.3-24.2,30.6
					L336.6,181.5z"/>
				<path class="st6" d="M362.5,141.4c2.4,4.2,1.4,8.3-2,10.3C358.6,147,359.9,143.9,362.5,141.4z"/>
				<path class="st6" d="M355.8,162.9c5.4-4.6,11.6-4.2,15.4,0.2C364.9,167,360,166,355.8,162.9z"/>
				<path class="st6" d="M356,160.1c-3.9-2.1-5.1-5.7-3.4-8.9C356.3,153.9,356.8,157,356,160.1z"/>
				<path class="st6" d="M358.4,173.7c-3.7,2.4-7.4,1.8-9.4-1.2C353.1,170.5,356,171.4,358.4,173.7z"/>
				<path class="st6" d="M346.3,173.2c-4.1-6.1-3-12.4,2-15.8C351.6,164.3,350,169.1,346.3,173.2z"/>
			</g>
			<g>
				<path class="st5" d="M353.9,257.5c19-5.8,31.5-24.5,28-55.9C349,217.8,349.1,247.5,353.9,257.5z"/>
				<path class="st7" d="M353.9,257.5c3.7-3.1,13.2-21.9,24.8-48.4C364,234.9,354.5,252.4,353.9,257.5z"/>
				<g>
					<g>
						<path class="st7" d="M357.1,250.6c-0.3-2.1-2.4-4-4.4-3.7c3.1-1.3,4.7,2.6,4.7,2.6L357.1,250.6z"/>
						<path class="st7" d="M360.3,244.2c-1.8-3.4-4.9-5.2-7.1-5.2c5.4-1,7.9,3.7,7.9,3.7L360.3,244.2z"/>
						<path class="st7" d="M364.5,236.1c-1.2-3.3-4.4-5.8-8.1-6.1c4.5-0.4,8,2.7,8.8,5.1C364.9,235.7,364.5,236.1,364.5,236.1z"/>
						<path class="st7" d="M369.2,226.9c-2-3.8-3.3-5.1-7.4-5.9c3.7-0.6,7.7,2.7,8.3,4.4C369.7,226.4,369.2,226.9,369.2,226.9z"/>
						<path class="st7" d="M373.4,219.4c-0.9-2-2.8-3.8-5.1-4.3c2.9,0,5.5,3.2,5.5,3.2L373.4,219.4z"/>
						<path class="st7" d="M376.6,213c-0.7-1.3-2.5-2.5-4.2-2.8c2.2-0.2,4.6,2.2,4.6,2.2L376.6,213z"/>
					</g>
				</g>
				<g>
					<g>
						<path class="st7" d="M357.8,251c1.9-0.9,4.7-0.4,5.6,1.4c-0.8-3.3-4.9-2.3-4.9-2.3L357.8,251z"/>
						<path class="st7" d="M361.1,244.7c3.8-0.6,7.1,0.9,8.4,2.7c-2.4-4.9-7.7-4.2-7.7-4.2L361.1,244.7z"/>
						<path class="st7" d="M365.1,236.6c3.4-0.9,7.2,0.1,9.7,3c-2.3-3.9-6.8-4.9-9.2-4.1C365.3,235.9,365.1,236.6,365.1,236.6z"/>
						<path class="st7" d="M369.9,227.3c4.2-0.6,6.1-0.3,9.1,2.6c-1.7-3.3-6.7-4.7-8.5-4.1C370,226.6,369.9,227.3,369.9,227.3z"/>
						<path class="st7" d="M373.4,219.5c2.2-0.4,4.7,0.1,6.5,1.6c-1.7-2.4-5.8-2.6-5.8-2.6L373.4,219.5z"/>
						<path class="st7" d="M376.8,213.1c1.5-0.2,3.5,0.6,4.8,1.8c-1.1-1.9-4.5-2.4-4.5-2.4L376.8,213.1z"/>
					</g>
				</g>
			</g>
			<g>
				<path class="st8" d="M134.1,262.1c-20.5-9.6-45.3-3.3-66.1,25.9C108,299.3,130.6,274.2,134.1,262.1z"/>
				<path class="st7" d="M134.1,262.1c-5.4-0.2-27.9,8.5-57.7,22C108.4,273.5,129.8,266,134.1,262.1z"/>
				<g>
					<g>
						<path class="st7" d="M126.1,265.5c-1.3,2-1,5.2,0.9,6.5c-3.7-1.3-2-5.8-2-5.8L126.1,265.5z"/>
						<path class="st7" d="M118.6,268.5c-1.1,4.2,0.1,8.1,2,9.9c-5.3-3.3-3.9-9.2-3.9-9.2L118.6,268.5z"/>
						<path class="st7" d="M108.9,272.1c-1.5,3.7-0.7,8.2,2.2,11.3c-4.1-3.1-4.7-8.3-3.5-10.9C108.2,272.2,108.9,272.1,108.9,272.1z
							"/>
						<path class="st7" d="M97.8,276.3c-1.2,4.7-1.1,6.9,1.8,10.6c-3.6-2.3-4.5-8.1-3.6-10C97,276.3,97.8,276.3,97.8,276.3z"/>
						<path class="st7" d="M88.7,279.4c-0.7,2.4-0.5,5.3,1,7.5c-2.5-2.2-2.2-6.8-2.2-6.8L88.7,279.4z"/>
						<path class="st7" d="M81,282.4c-0.4,1.7,0.2,4,1.4,5.6c-2-1.4-2.2-5.4-2.2-5.4L81,282.4z"/>
					</g>
				</g>
				<g>
					<g>
						<path class="st7" d="M125.9,264.6c-2.3-0.6-4.2-3.2-3.7-5.4c-1.9,3.4,2.3,5.7,2.3,5.7L125.9,264.6z"/>
						<path class="st7" d="M118.3,267.5c-3.7-2.4-5.3-6.1-5.1-8.7c-1.8,6,3.3,9.4,3.3,9.4L118.3,267.5z"/>
						<path class="st7" d="M108.7,271.2c-3.6-1.8-6-5.6-5.9-9.9c-1,5,2,9.3,4.7,10.5C108.1,271.6,108.7,271.2,108.7,271.2z"/>
						<path class="st7" d="M97.6,275.5c-4-2.7-5.4-4.4-5.7-9.1c-1.1,4.1,2.1,9,4,9.9C97,276,97.6,275.5,97.6,275.5z"/>
						<path class="st7" d="M88.7,279.3c-2.2-1.3-3.9-3.6-4.2-6.3c-0.4,3.3,2.9,6.6,2.9,6.6L88.7,279.3z"/>
						<path class="st7" d="M81,282.2c-1.4-1-2.5-3.1-2.7-5.1c-0.5,2.4,2,5.5,2,5.5L81,282.2z"/>
					</g>
				</g>
			</g>
			<g>
				<path class="st5" d="M152.5,262.2c-9.8-30.1-40-49.4-89.8-42.8C89.6,271.2,136.8,270.2,152.5,262.2z"/>
				<path class="st7" d="M152.5,262.2c-5-5.8-35.4-20.4-77.8-37.9C116.3,246.9,144.5,261.4,152.5,262.2z"/>
				<g>
					<g>
						<path class="st7" d="M141.4,257.3c-3.3,0.6-6.3,4-5.8,7.2c-2.2-5,4-7.6,4-7.6L141.4,257.3z"/>
						<path class="st7" d="M131.2,252.4c-5.4,2.9-8.1,7.9-8.1,11.5c-1.7-8.5,5.7-12.8,5.7-12.8L131.2,252.4z"/>
						<path class="st7" d="M118.2,246c-5.2,2-9.1,7.1-9.4,13.1c-0.8-7.2,4-12.8,7.8-14.1C117.5,245.3,118.2,246,118.2,246z"/>
						<path class="st7" d="M103.3,238.7c-5.9,3.2-8.1,5.5-9.1,12c-1.1-5.8,4-12.3,6.8-13.3C102.5,237.9,103.3,238.7,103.3,238.7z"/>
						<path class="st7" d="M91.3,232.4c-3.2,1.6-5.9,4.6-6.7,8.2c-0.1-4.6,4.9-8.8,4.9-8.8L91.3,232.4z"/>
						<path class="st7" d="M80.9,227.3c-2.1,1.2-3.9,4.1-4.4,6.8c-0.4-3.4,3.4-7.4,3.4-7.4L80.9,227.3z"/>
					</g>
				</g>
				<g>
					<g>
						<path class="st7" d="M142.1,256.1c-1.6-3-0.7-7.4,2.1-8.9c-5.3,1.3-3.5,7.8-3.5,7.8L142.1,256.1z"/>
						<path class="st7" d="M131.9,251.1c-1-6,1.2-11.3,4-13.5c-7.8,3.9-6.5,12.4-6.5,12.4L131.9,251.1z"/>
						<path class="st7" d="M118.9,244.9c-1.6-5.3,0-11.5,4.4-15.5c-6.1,3.8-7.6,11-6.3,14.8C117.9,244.7,118.9,244.9,118.9,244.9z"
							/>
						<path class="st7" d="M103.9,237.7c-1.1-6.7-0.7-9.7,3.8-14.6c-5.2,2.8-7.2,10.8-6.2,13.6C102.8,237.6,103.9,237.7,103.9,237.7
							z"/>
						<path class="st7" d="M91.5,232.2c-0.7-3.5-0.1-7.5,2.3-10.3c-3.7,2.8-3.9,9.3-3.9,9.3L91.5,232.2z"/>
						<path class="st7" d="M81.1,227.2c-0.3-2.4,0.8-5.6,2.7-7.7c-3,1.8-3.7,7.3-3.7,7.3L81.1,227.2z"/>
					</g>
				</g>
			</g>
			<g>
				<path class="st5" d="M158.9,182.8c0.4-11.7-7.7-22.3-25.9-26.3C135.9,178,152.4,183.6,158.9,182.8z"/>
				<path class="st7" d="M158.9,182.8c-1-2.6-9.7-11.6-22.3-23.1C148.3,172.9,156.2,181.6,158.9,182.8z"/>
				<g>
					<g>
						<path class="st7" d="M155.7,179.7c-1.2-0.2-2.7,0.6-2.9,1.8c-0.1-2,2.3-2.2,2.3-2.2L155.7,179.7z"/>
						<path class="st7" d="M152.7,176.7c-2.2,0.3-3.8,1.7-4.3,3c0.5-3.2,3.6-3.7,3.6-3.7L152.7,176.7z"/>
						<path class="st7" d="M149,172.9c-2.1,0.1-4.1,1.3-4.9,3.4c0.6-2.6,3-3.9,4.5-3.9C148.9,172.5,149,172.9,149,172.9z"/>
						<path class="st7" d="M144.8,168.4c-2.5,0.4-3.5,0.9-4.7,3c0.4-2.2,3-3.8,4.1-3.8C144.6,168.1,144.8,168.4,144.8,168.4z"/>
						<path class="st7" d="M141.4,164.7c-1.3,0.1-2.7,0.8-3.4,2c0.6-1.6,2.8-2.4,2.8-2.4L141.4,164.7z"/>
						<path class="st7" d="M138.4,161.6c-0.9,0.2-1.9,0.9-2.4,1.8c0.3-1.2,2.1-2.1,2.1-2.1L138.4,161.6z"/>
					</g>
				</g>
				<g>
					<g>
						<path class="st7" d="M156.1,179.4c-0.2-1.2,0.7-2.7,1.9-2.9c-2-0.2-2.2,2.3-2.2,2.3L156.1,179.4z"/>
						<path class="st7" d="M153.2,176.4c0.4-2.2,1.8-3.8,3.1-4.2c-3.2,0.4-3.8,3.5-3.8,3.5L153.2,176.4z"/>
						<path class="st7" d="M149.4,172.6c0.1-2.1,1.5-4,3.5-4.8c-2.6,0.6-4,2.9-4.1,4.4C149.1,172.4,149.4,172.6,149.4,172.6z"/>
						<path class="st7" d="M145.1,168.1c0.5-2.5,1-3.5,3.2-4.6c-2.2,0.3-3.9,2.8-3.9,3.9C144.7,168,145.1,168.1,145.1,168.1z"/>
						<path class="st7" d="M141.5,164.7c0.2-1.3,0.9-2.6,2.1-3.3c-1.6,0.5-2.5,2.7-2.5,2.7L141.5,164.7z"/>
						<path class="st7" d="M138.5,161.6c0.2-0.9,1-1.9,1.9-2.3c-1.3,0.2-2.2,2.1-2.2,2.1L138.5,161.6z"/>
					</g>
				</g>
			</g>
			<g>
				<path class="st5" d="M324.9,184.1c-3.2-11.3,2.1-23.5,18.7-31.7C346.2,173.8,331.4,183.3,324.9,184.1z"/>
				<path class="st7" d="M324.9,184.1c0.3-2.8,6.7-13.6,16.1-27.8C332.9,171.9,327.3,182.2,324.9,184.1z"/>
				<g>
					<g>
						<path class="st7" d="M327.3,180.3c1.1-0.5,2.8-0.1,3.2,1c-0.4-2-2.8-1.5-2.8-1.5L327.3,180.3z"/>
						<path class="st7" d="M329.5,176.6c2.3-0.2,4.1,0.7,4.9,1.9c-1.2-3-4.4-2.7-4.4-2.7L329.5,176.6z"/>
						<path class="st7" d="M332.1,172c2-0.4,4.3,0.3,5.6,2.1c-1.3-2.4-3.9-3.1-5.3-2.7C332.2,171.6,332.1,172,332.1,172z"/>
						<path class="st7" d="M335.2,166.7c2.5-0.2,3.6,0,5.3,1.8c-0.9-2-3.8-3-4.9-2.7C335.3,166.3,335.2,166.7,335.2,166.7z"/>
						<path class="st7" d="M337.6,162.2c1.3-0.2,2.8,0.2,3.8,1.1c-0.9-1.4-3.3-1.7-3.3-1.7L337.6,162.2z"/>
						<path class="st7" d="M339.7,158.5c0.9-0.1,2,0.4,2.8,1.2c-0.6-1.1-2.6-1.6-2.6-1.6L339.7,158.5z"/>
					</g>
				</g>
				<g>
					<g>
						<path class="st7" d="M326.9,180.1c-0.1-1.2-1.3-2.4-2.5-2.3c1.9-0.7,2.7,1.7,2.7,1.7L326.9,180.1z"/>
						<path class="st7" d="M329,176.4c-0.9-2.1-2.7-3.2-4-3.3c3.2-0.4,4.6,2.5,4.6,2.5L329,176.4z"/>
						<path class="st7" d="M331.7,171.8c-0.6-2-2.4-3.6-4.6-3.9c2.7-0.1,4.6,1.8,5,3.3C332,171.5,331.7,171.8,331.7,171.8z"/>
						<path class="st7" d="M334.8,166.5c-1-2.3-1.8-3.1-4.2-3.7c2.2-0.2,4.4,1.8,4.7,2.9C335.1,166.2,334.8,166.5,334.8,166.5z"/>
						<path class="st7" d="M337.5,162.2c-0.5-1.2-1.5-2.3-2.9-2.7c1.7,0.1,3.1,2.1,3.1,2.1L337.5,162.2z"/>
						<path class="st7" d="M339.6,158.5c-0.4-0.8-1.4-1.6-2.4-1.8c1.3-0.1,2.6,1.5,2.6,1.5L339.6,158.5z"/>
					</g>
				</g>
			</g>
			<g>
				<path class="st5" d="M158.9,337.7c0.1,11.7-8.1,22.1-26.4,25.7C135.7,342.1,152.4,336.8,158.9,337.7z"/>
				<path class="st7" d="M158.9,337.7c-1.1,2.6-10,11.4-22.8,22.6C148,347.4,156.1,338.9,158.9,337.7z"/>
				<g>
					<g>
						<path class="st7" d="M155.5,340.7c-1.2,0.2-2.7-0.7-2.9-1.8c-0.2,2,2.3,2.2,2.3,2.2L155.5,340.7z"/>
						<path class="st7" d="M152.5,343.7c-2.2-0.4-3.8-1.8-4.2-3.1c0.4,3.2,3.5,3.8,3.5,3.8L152.5,343.7z"/>
						<path class="st7" d="M148.8,347.5c-2.1-0.1-4-1.4-4.9-3.5c0.6,2.6,2.9,4,4.4,4C148.6,347.8,148.8,347.5,148.8,347.5z"/>
						<path class="st7" d="M144.4,351.8c-2.5-0.4-3.5-1-4.6-3.1c0.3,2.2,2.9,3.8,4,3.9C144.2,352.2,144.4,351.8,144.4,351.8z"/>
						<path class="st7" d="M140.9,355.5c-1.3-0.2-2.6-0.9-3.3-2.1c0.5,1.6,2.8,2.5,2.8,2.5L140.9,355.5z"/>
						<path class="st7" d="M137.9,358.5c-0.9-0.2-1.9-1-2.4-1.9c0.3,1.3,2.1,2.2,2.1,2.2L137.9,358.5z"/>
					</g>
				</g>
				<g>
					<g>
						<path class="st7" d="M155.9,341.1c-0.2,1.2,0.6,2.7,1.8,2.9c-2,0.2-2.2-2.3-2.2-2.3L155.9,341.1z"/>
						<path class="st7" d="M152.9,344c0.4,2.2,1.8,3.8,3,4.3c-3.2-0.4-3.8-3.6-3.8-3.6L152.9,344z"/>
						<path class="st7" d="M149.1,347.8c0.1,2.1,1.4,4.1,3.4,4.9c-2.6-0.6-4-3-4-4.5C148.8,348,149.1,347.8,149.1,347.8z"/>
						<path class="st7" d="M144.7,352.1c0.4,2.5,0.9,3.5,3.1,4.7c-2.2-0.3-3.8-2.9-3.8-4C144.3,352.3,144.7,352.1,144.7,352.1z"/>
						<path class="st7" d="M141,355.5c0.2,1.3,0.9,2.6,2.1,3.3c-1.6-0.5-2.5-2.8-2.5-2.8L141,355.5z"/>
						<path class="st7" d="M138,358.5c0.2,0.9,0.9,1.9,1.8,2.4c-1.3-0.3-2.2-2.1-2.2-2.1L138,358.5z"/>
					</g>
				</g>
			</g>
			<g>
				<path class="st8" d="M327.7,277.9c26.6,18.1,62.9,14.9,98.8-21.3C372.8,231.6,335.4,261.7,327.7,277.9z"/>
				<path class="st7" d="M327.7,277.9c7.6,1.6,41.1-5.6,86.2-17.8C366.4,267.8,334.6,273.5,327.7,277.9z"/>
				<g>
					<g>
						<path class="st7" d="M339.6,275c2.3-2.5,2.5-7.1,0.2-9.3c4.9,2.6,1.5,8.6,1.5,8.6L339.6,275z"/>
						<path class="st7" d="M350.9,272.6c2.5-5.7,1.6-11.4-0.6-14.3c6.7,5.8,3.3,13.8,3.3,13.8L350.9,272.6z"/>
						<path class="st7" d="M365.4,269.7c2.9-4.8,2.9-11.4-0.5-16.4c5.1,5.3,4.7,12.7,2.5,16.2C366.4,269.7,365.4,269.7,365.4,269.7z
							"/>
						<path class="st7" d="M381.9,266.3c2.8-6.3,3.1-9.4-0.2-15.3c4.5,4,4.4,12.4,2.8,14.9C383,266.4,381.9,266.3,381.9,266.3z"/>
						<path class="st7" d="M395.4,263.9c1.6-3.2,1.9-7.4,0.3-10.8c2.9,3.7,1.5,10.1,1.5,10.1L395.4,263.9z"/>
						<path class="st7" d="M406.9,261.5c0.9-2.2,0.6-5.7-0.7-8.2c2.5,2.5,1.8,8.1,1.8,8.1L406.9,261.5z"/>
					</g>
				</g>
				<g>
					<g>
						<path class="st7" d="M339.8,276.3c3.1,1.4,5.2,5.5,3.9,8.5c3.4-4.4-2-8.5-2-8.5L339.8,276.3z"/>
						<path class="st7" d="M351.1,274c4.6,4.2,6.1,9.8,5.2,13.4c3.8-8-2.5-14-2.5-14L351.1,274z"/>
						<path class="st7" d="M365.5,270.9c4.6,3.3,7.2,9.3,6.1,15.2c2.5-6.9-0.8-13.6-4.2-15.8C366.4,270.5,365.5,270.9,365.5,270.9z"
							/>
						<path class="st7" d="M382,267.5c5,4.7,6.6,7.4,6,14.1c2.5-5.5-0.9-13.2-3.4-14.8C383,266.9,382,267.5,382,267.5z"/>
						<path class="st7" d="M395.4,264.1c2.8,2.3,4.7,6,4.5,9.8c1.2-4.5-2.6-9.9-2.6-9.9L395.4,264.1z"/>
						<path class="st7" d="M406.9,261.8c1.7,1.7,2.9,5,2.6,7.8c1.3-3.3-1.5-8.1-1.5-8.1L406.9,261.8z"/>
					</g>
				</g>
			</g>
			<g>
				<polygon class="st9" points="264.7,340.3 215.8,340.3 207.6,370 272.9,370 				"/>
				<g>
					<polygon class="st10" points="264.7,340.3 215.8,340.3 213.6,348.1 266.8,348.1 					"/>
					<polygon class="st10" points="207.6,370 272.9,370 271.3,364.2 209.2,364.2 					"/>
				</g>
				<path class="st11" d="M278.9,368h-77.7c-1.7,0-3,1.3-3,3v1.5h83.7V371C281.9,369.4,280.5,368,278.9,368z"/>
				<path class="st11" d="M117.8,320.8v15.1c0,3.6,2.9,6.5,6.5,6.5H356c3.6,0,6.5-2.9,6.5-6.5v-15.1H117.8z"/>
				<path class="st12" d="M362.5,181.6c0-3.6-2.9-6.5-6.5-6.5H124.4c-3.6,0-6.5,2.9-6.5,6.5v139.2h244.7V181.6z"/>
				<rect x="127.5" y="184.2" class="st13" width="227.2" height="128.1"/>
				<polygon class="st0" points="239.8,312.3 127.5,312.3 127.5,184.2 190.6,184.2 				"/>
				<path class="st2" d="M199.3,252.7v-8.2l-7.1-0.8c-0.5-1.9-1.2-3.7-2.2-5.3l4.5-5.6l-5.8-5.8l-5.6,4.5c-1.6-1-3.4-1.7-5.3-2.2
					l-0.8-7.1h-8.2l-0.8,7.1c-1.9,0.5-3.7,1.2-5.3,2.2L157,227l-5.8,5.8l4.5,5.6c-1,1.6-1.7,3.4-2.2,5.3l-7.1,0.8v8.2l7.1,0.8
					c0.5,1.9,1.2,3.7,2.2,5.4l-4.5,5.6l5.8,5.8l5.6-4.5c1.6,1,3.5,1.7,5.4,2.2l0.8,7.1h8.2l0.8-7.1c1.9-0.5,3.7-1.2,5.4-2.2l5.6,4.5
					l5.8-5.8l-4.5-5.6c1-1.6,1.7-3.5,2.2-5.4L199.3,252.7z M172.8,260.6c-6.6,0-12-5.4-12-12s5.4-12,12-12s12,5.4,12,12
					S179.5,260.6,172.8,260.6z"/>
				<g>
					<rect x="290.5" y="249.4" class="st14" width="42" height="42"/>
					<ellipse class="st15" cx="266.9" cy="270.4" rx="21" ry="21"/>
					<polygon class="st16" points="289.3,203.8 264.9,246 313.6,246 					"/>
				</g>
				<path class="st17" d="M244.5,331.1c0,2.1-1.7,3.9-3.9,3.9c-2.1,0-3.9-1.7-3.9-3.9s1.7-3.9,3.9-3.9S244.5,328.9,244.5,331.1z"/>
				<path class="st18" d="M362.5,181.6c0-3.6-2.9-6.5-6.5-6.5H124.4c-1.8,0-3.5,0.8-4.7,2l242.9,133V181.6z"/>
			</g>
			<g>
				<path class="st16" d="M356.1,306l-9.9,10.2c0,0,5.5,7.2,16.1,17.5c9,8.7,38.7,32.3,47.5,39.3c1.4,1.1,3.4,1,4.7-0.3
					c1.3-1.3,1.3-3.3,0.2-4.7c-7.4-8.8-33-38.9-40.7-46.4C364.9,312.7,356.1,306,356.1,306z"/>
				<path class="st19" d="M406.9,367.7c-5.1-3.1-34-25.9-41.8-34.5c-6.7-7.4-8.5-16.7-5-24c-2.5-2-4-3.2-4-3.2l-9.9,10.2
					c0,0,5.5,7.2,16.1,17.5c9,8.7,38.7,32.3,47.5,39.3c1.4,1.1,3.4,1,4.7-0.3c1.3-1.3,1.3-3.3,0.2-4.7c-0.4-0.5-0.8-1-1.3-1.6
					C412.7,368.7,410,369.5,406.9,367.7z"/>
				<path class="st20" d="M343.4,315.1c-4.9,1.2-9.8-2.3-10.3-14c-0.3-9.3-3.2-14.8-8.3-17.6c13.8-1.3,29.2,8.2,29.8,20
					C351.7,306.6,343.4,315.1,343.4,315.1z"/>
				<path class="st21" d="M332.6,296.7c0.3,1.2,2.6-0.7,1.4-4.2c-0.7-2.3-0.9-3-0.1-3c0.4,0,1,0.5,1.6,1.5c0.4,0.7,1.2,1,1.7,0.3
					c0.5-0.6,0.1-1.1-0.5-1.5c-1.1-0.7-1.8-1.1-1.4-1.7c0.7-1.2,3.3,0.2,5.6,3.3s3.6-0.3,1.5-1.4s-4.7-2.7-4.7-3.5s2-0.2,3.5,0.8
					s1.8,0.3,1.3-0.2c-0.4-0.5-7-3.2-10-3.6s-6.9-0.5-7.8-0.1C326.5,284.5,331.6,287.9,332.6,296.7z"/>
				<path class="st22" d="M345.6,303.1c-4.8-0.1-7-6.4-9.9-11.4c-2.5-4.4-7.1-7.3-10.8-8.2c1.9,1.2,6.7,4.7,7.7,13.2
					c0,0.2,0.1,0.3,0.3,0.3c0.2,1.2,0.3,2.6,0.3,4c0.4,11.7,5.4,15.3,10.3,14c0,0,8.3-8.5,11.3-11.6c-0.1-2.7-1.1-5.2-2.5-7.6
					C351.5,300.9,348.4,303.2,345.6,303.1z"/>
				<path class="st23" d="M357.7,305.9L345.8,318c-0.8,0.8-2.1,0.8-2.9,0l-0.3-0.2c-0.8-0.8-0.8-2.1,0-2.9l11.8-12.1
					c0.8-0.8,2.1-0.8,2.9,0l0.3,0.2C358.4,303.8,358.4,305.1,357.7,305.9z"/>
			</g>
			<g>
				<path class="st15" d="M276.9,147.2c0-16.9-14.3-30.5-31.4-29.3c-14.4,1-26.2,12.7-27.2,27.1c-0.6,8.2,2.2,15.7,7.1,21.3
					c4.8,5.6,7.3,12.9,7.3,20.3v1.3h29.4v-1.2c0-7.5,2.9-14.7,7.8-20.4C274.2,161.2,276.9,154.6,276.9,147.2z"/>
				<g>
					<path class="st2" d="M247.7,122.5c3.3-0.5,6.8,0.3,9.9,1.6c3.1,1.4,5.9,3.4,8.3,5.9c2.3,2.5,4.1,5.5,5.2,8.8
						c1.1,3.2,1.3,6.7,0.6,10c-0.6-3.3-1.5-6.3-2.8-9.1c-1.4-2.8-3.1-5.3-5.2-7.6c-2.1-2.3-4.5-4.2-7.1-5.9
						C253.8,124.6,250.9,123.3,247.7,122.5z"/>
				</g>
				<path class="st24" d="M231.2,160.3c0.7,0.8,2.7,1,4.2,0.7c0.6-0.1,1.2-0.4,1.6-0.7c0.3-0.3,0.4-0.8,0-1.1
					c-0.4-0.3-1.2-0.4-1.8-0.2c-0.6,0.2-0.6,0.7-0.2,1s1.1,0.5,1.8,0.6c1.2,0.1,2.4,0.1,3.5-0.2c2-0.5,4.6-1.5,6.4-1.5
					c2,0,2.5,1.4,2.3,2.5c-0.1,0.3-0.4,0.5-0.9,0.6c-0.7,0.2-1.7-0.2-1.6-1.1c0.1-1.9,4.3-2.4,6.1-2.2s3.1,0.8,3.9,1.2
					c0.8,0.5,2.4,0.4,3.2-0.1c0.4-0.3,0.5-0.7,0-0.9c-0.5-0.3-1.5,0-1.7,0.4c-0.2,0.4,0.3,0.8,0.8,1.1c1,0.5,2.4,0.8,3.7,0.9
					c1.4,0.1,2.8-0.1,4.1-0.3"/>
				<line class="st25" x1="237.2" y1="154.7" x2="242.8" y2="188"/>
				<line class="st25" x1="258.4" y1="154.7" x2="252.8" y2="188"/>
				
					<linearGradient id="SVGID_1_" gradientUnits="userSpaceOnUse" x1="229.3253" y1="318.9698" x2="253.0767" y2="361.6119" gradientTransform="matrix(1 0 0 -1 0 502)">
					<stop  offset="0" style="stop-color:#E7C13C"/>
					<stop  offset="1" style="stop-color:#E7C13C;stop-opacity:0"/>
				</linearGradient>
				<path class="st26" d="M230.9,123c-7.2,4.9-12.1,12.9-12.7,22.1c-0.6,8.2,2.2,15.7,7.1,21.3c4.8,5.6,7.3,12.9,7.3,20.3v1.3h29.4
					v-1.2c0-7.5,2.9-14.7,7.8-20.4c1.5-1.7,2.8-3.6,3.8-5.7C237.8,175,223.8,144.8,230.9,123z"/>
				<ellipse class="st27" cx="247.1" cy="201.9" rx="13.7" ry="7.4"/>
				<g>
					<path class="st28" d="M263,192.7h-31.5c-0.9,0-1.6-0.7-1.6-1.6v-1.7c0-0.9,0.7-1.6,1.6-1.6H263c0.9,0,1.6,0.7,1.6,1.6v1.7
						C264.6,191.9,263.9,192.7,263,192.7z"/>
					<path class="st28" d="M263,202.2h-31.5c-0.9,0-1.6-0.7-1.6-1.6V199c0-0.9,0.7-1.6,1.6-1.6H263c0.9,0,1.6,0.7,1.6,1.6v1.7
						C264.6,201.5,263.9,202.2,263,202.2z"/>
					<path class="st27" d="M263,197.4h-31.5c-0.9,0-1.6-0.7-1.6-1.6v-1.7c0-0.9,0.7-1.6,1.6-1.6H263c0.9,0,1.6,0.7,1.6,1.6v1.7
						C264.6,196.7,263.9,197.4,263,197.4z"/>
				</g>
			</g>
			<g>
				<polygon class="st2" points="275.1,124.1 285.3,104.3 296.6,107.4 				"/>
				<polygon class="st2" points="277.6,126.3 295.7,115.3 299.1,122.3 				"/>
				<polygon class="st2" points="277.8,129.1 302.1,127.7 310.5,137.5 				"/>
			</g>
			<g>
				<polygon class="st2" points="212.2,139.1 193.1,127.8 185.2,136.5 				"/>
				<polygon class="st2" points="211.8,141.3 183.9,145.1 191.4,149.4 				"/>
				<polygon class="st2" points="213,136.8 206.4,130.7 208.2,129.5 				"/>
			</g>
		</g>
	</g>
</g>
</svg>
