<svg xmlns="http://www.w3.org/2000/svg" viewBox="0 0 500 500"><g id="freepik--background-complete--inject-97"><path d="M65,55.17V305.06H214.41V55.17Zm5.51,5.52H208.9V299.55H70.5Z" style="fill:#ebebeb"></path><rect x="70.5" y="60.69" width="138.39" height="238.86" style="fill:#fff"></rect><rect x="70.51" y="187.36" width="138.4" height="5.51" style="fill:#ebebeb"></rect><rect x="54.84" y="305.06" width="169.73" height="15.82" style="fill:#dbdbdb"></rect><path d="M208.9,222.28H70.51V60.68H208.9Zm-133.29-5.1H203.8V65.79H75.61Z" style="fill:#dbdbdb"></path><rect x="114.68" y="60.68" width="2.76" height="156.5" style="fill:#dbdbdb"></rect><rect x="161.98" y="60.68" width="2.76" height="156.5" style="fill:#dbdbdb"></rect><path d="M285.58,55.17V305.06H435V55.17Zm5.51,5.52h138.4V299.55H291.09Z" style="fill:#ebebeb"></path><rect x="291.09" y="60.69" width="138.39" height="238.86" style="fill:#fff"></rect><rect x="291.1" y="187.36" width="138.4" height="5.51" style="fill:#ebebeb"></rect><rect x="275.43" y="305.06" width="169.73" height="15.82" style="fill:#dbdbdb"></rect><path d="M429.49,222.28H291.1V60.68H429.49Zm-133.29-5.1H424.39V65.79H296.2Z" style="fill:#dbdbdb"></path><rect x="335.27" y="60.68" width="2.76" height="156.5" style="fill:#dbdbdb"></rect><rect x="382.57" y="60.68" width="2.76" height="156.5" style="fill:#dbdbdb"></rect><path d="M155.54,188a16.77,16.77,0,1,1-23.82,23.43,18.43,18.43,0,0,1-10.34,1.76,18.92,18.92,0,0,1-3.87-36.7l0-.75a16.8,16.8,0,1,1,33.54.38" style="fill:#fff"></path><path d="M155.54,188c18.93,16.91-8,42.9-24.75,24.19l1.47.31c-16.61,8.44-35.11-9.69-27.06-26.51a20.32,20.32,0,0,1,11.92-10.64l-.81,1.19c-1-24.78,35.81-25.54,34.71-.42,0-23.24-34.42-22.24-32.25,1.2-9.9,2.7-15.47,14.3-11.44,23.69,3.58,9.49,15.89,14.05,24.72,8.91,15,18.51,40.29-5.44,23.49-21.92Z" style="fill:#dbdbdb"></path><path d="M153.91,171.43a172.84,172.84,0,0,1,30.68-4.76,172.84,172.84,0,0,1-30.68,4.76Z" style="fill:#dbdbdb"></path><path d="M160.56,187.22a147.44,147.44,0,0,1,26.52-10.7,146.13,146.13,0,0,1-26.52,10.7Z" style="fill:#dbdbdb"></path><path d="M151.07,181.1a176.75,176.75,0,0,1,30.18-8.61,175.84,175.84,0,0,1-30.18,8.61Z" style="fill:#dbdbdb"></path><path d="M364.63,175.28a20.21,20.21,0,1,1,39.9-5.41,22.15,22.15,0,0,1,11.25,5.77A22.79,22.79,0,0,1,393,213.85l-.51.74A20.24,20.24,0,1,1,360.42,190" style="fill:#fff"></path><path d="M364.63,175.28c-6.05-30,38.69-35.63,41.35-5.47l-1.2-1.37c22.14,3.85,26.89,34.71,7,45.12a24.55,24.55,0,0,1-19.19,1.67l1.65-.56c-17,24.61-53-1.23-33.8-24.67-16.81,22.41,17.16,46.32,32,22.13,11.49,4.54,25.25-2.62,28.14-14.6,3.39-11.74-5.19-25-17.42-26.44-1.08-28.67-42.8-23.84-38.5,4.19Z" style="fill:#dbdbdb"></path><path d="M354.26,192.41a207.73,207.73,0,0,1-33-17.56,208.11,208.11,0,0,1,33,17.56Z" style="fill:#dbdbdb"></path><path d="M359.25,172.37a176.72,176.72,0,0,1-33.32-8.82,176.72,176.72,0,0,1,33.32,8.82Z" style="fill:#dbdbdb"></path><path d="M364,185.13a213.51,213.51,0,0,1-35.34-13.48A213.17,213.17,0,0,1,364,185.13Z" style="fill:#dbdbdb"></path></g><g id="freepik--Character--inject-97"><path d="M287.67,236.47C350.94,279.07,404.85,320.28,408,340.1c7,44.41-14.47,57.35-18.92,57.64-30.32,2-105-92.19-135.17-137.68C227,219.47,253.91,213.74,287.67,236.47Z" style="fill:#1E4C2B"></path><path d="M264.18,224.81l-5.66,9.69L252,223.39A30.53,30.53,0,0,1,264.18,224.81ZM269,252.43l-.44-.74-10-17.19-9.86,16.89q2.16,4,5.23,8.67c1.62,2.45,3.38,5,5.25,7.75.15.23.31.45.47.68,3.51,5.07,7.41,10.55,11.63,16.29l8.31-14.25Zm42.09,0-.05-.08h0l-.44-.74-.21.35q-7-4.87-14.28-9.82l-5.76,9.87h0l-.44.73-10.35,17.74,10,17.15.43.75,10.59,18.14,10.36-17.74h0l.42-.73,10.25-17.56Zm37.23,26.91-1.54-1.16q-3-2.26-6.13-4.58l-.61-.45q-6.79-5-14-10.19l-4.39,7.52,10,17.12.44.74,10.61,18.18L353,288.88h0l.44-.74,1.95-3.34C353.07,283,350.71,281.21,348.31,279.39Zm-37.31,45-.43-.74-10-17.11-5.42,9.28c3.82,4.74,7.74,9.49,11.7,14.17.17.21.34.41.52.61,4.2,5,8.45,9.84,12.71,14.58l1.52-2.61Zm42,0-.43-.74-10-17.07L332.4,324.13l-.43.73h0L321.61,342.6l6.82,11.68c1.3,1.39,2.6,2.75,3.9,4.1l.54.56c4.58,4.73,9.11,9.19,13.52,13.29L353,360.9l.43-.74h0l10.25-17.55Zm42,0-.43-.75-6.3-10.79h0c-1.49-1.44-3-2.9-4.68-4.41l-9.22,15.78h0l-.43.74L363.68,342.6l9.94,17,.43.74,10.66,18.27L395,360.94l.43-.73h0l10.27-17.6ZM408,340.1c-.05-.33-.12-.67-.2-1l-2.05,3.51,3.25,5.56Q408.65,344.32,408,340.1Zm-23.28,38.54-9.07,15.54c5.06,2.52,9.6,3.81,13.43,3.56a12,12,0,0,0,5.32-2.51ZM280.16,231.81l-.82,1.4-.44.74-10.35,17.74-9.41,16.12c.15.23.31.45.47.68L269,252.43l10.35-17.74.43-.73,1-1.77Zm30.43,19.84-.21.35-10,17.2-.43.74-10.35,17.74-7.05,12.09c.16.21.32.43.49.64l7-12,10.36-17.74.43-.74L311,252.43l0,0h0ZM340,273.2l-8.43,14.45L321.36,305.2l-.44.74-10.35,17.74L306.86,330c.17.21.34.41.52.61l3.62-6.21,10.36-17.74.43-.74L332,288.39l8.6-14.74ZM369,295.64l-5.58,9.56-.43.74-10.33,17.7-10.25,17.55-.43.74-9.6,16.45.54.56,9.5-16.26.42-.75L353,324.38l10.33-17.7.44-.74,5.72-9.81Zm27.26,25.28-1.56,2.67-10.27,17.6-.43.74-10.33,17.7-10.25,17.56-.43.74-3.32,5.69c.2.16.39.32.59.46l3.16-5.41.44-.74,10.24-17.56,10.33-17.69.43-.75,10.27-17.59,1.65-2.83C396.57,321.31,396.39,321.12,396.21,320.92Zm9.18,56.27-.44.74-9.72,16.66A22.28,22.28,0,0,0,397,393l8.38-14.35.43-.74.87-1.5c.29-.9.55-1.85.79-2.83Zm.43.74-.43-.74-9.92-17h0l-10.66-18.27-.43-.74-9.94-17h0l-10.63-18.22-.44-.74-10-17.07-5.1-8.74-1.54-1.16,6.2,10.64h0l10,17.06.43.74L374,324.91l9.94,17,.43.75L395,360.94l9.91,17,.44.74.34.59c.12-.3.23-.6.34-.91Zm-42,0-.44-.74-9.94-17h0l-10.64-18.22-.43-.74-10-17.06-10.61-18.19-.43-.74-10-17.1h0L300.78,270l-.44-.75-10-17.14h0L279.77,234l-.43-.75-1.59-2.71c-.42-.23-.83-.45-1.24-.65l2.39,4.1.44.74,10.56,18.1,10,17.15.44.75,10.59,18.13h0l10,17.11.44.74L332,324.86h0l10,17.06.44.75L353,360.9l9.94,17,.43.74,7.52,12.88,1.31.77Z" style="fill:#030402;opacity:0.1"></path><path d="M391.41,397a7.34,7.34,0,0,1-2.34.73c-30.33,2-105-92.19-135.18-137.68-13-19.67-13.44-31.15-6.55-35.17Z" style="opacity:0.1"></path><path d="M342,457.56H122.77c11.14-53.5,44.32-194.21,87.14-232,18.08-16,47.45-11,57-.57C296.66,257.45,330.82,402.62,342,457.56Z" style="fill:#1E4C2B"></path><path d="M226.8,216.77,216.45,234.5l-5.67-9.72A40.48,40.48,0,0,1,226.8,216.77Zm21.38-.67-.44-.07.24.41,10.54,18.06,6.57-11.26C261.13,219.93,255.09,217.35,248.18,216.1ZM187,256.18c-3.23,5.8-6.37,12.06-9.44,18.68-.12.28-.25.56-.38.84-3,6.58-5.95,13.51-8.78,20.67l5.95,10.2,10.42-17.86h0l.44-.74,10.17-17.43Zm29.41-21.68-21,36,21,36,21-36Zm42.07,0-21,36,21,36,21-36Zm36.1,46-.33-.92c-2.66-7.29-5.35-14.18-8.05-20.51l-6.69,11.46,10,17.15.43.75,10.59,18.14,1.85-3.17h0C299.88,295.46,297.27,287.78,294.62,280.5Zm-142,60.87c-.55,1.76-1.1,3.51-1.64,5.27l2.36-4Zm21.75-34.8-21,36,21,36,21-36Zm42.06,0-21,36,21,36,21-36Zm42.07,0-21,36,21,36,21-36Zm51.12,20.19c-.1-.33-.2-.65-.29-1-.86-2.9-1.73-5.79-2.61-8.65h0l-6.16-10.55-10.22,17.51-.43.74L279.55,342.6l10,17.11.44.74,10.61,18.19L311,360.86l.43-.74,5.18-8.89C314.34,343.05,312,334.85,309.64,326.76ZM142.81,396.61h0l-.43-.73h0l-3.62-6.2c-2,7.57-3.85,14.93-5.58,22-.17.73-.35,1.46-.52,2.19a2.49,2.49,0,0,0-.09.37c-.06.23-.12.46-.17.69-2.25,9.29-4.25,18-6,25.72l5.91,10.12,10.49-18h0l.44-.74,10.1-17.31Zm31.58-18-21,36,21,36,21-36Zm42.06,0-21,36,21,36,21-36Zm42.07,0-21,36,21,36,21-36Zm42.06,0-21,36,21,36,21-36Zm38.76,66.41c-1.19-5.6-2.54-11.75-4-18.32l-.24-1.07c-1.73-7.62-3.63-15.8-5.68-24.34l-7.79,13.35,9.94,17,.43.74h0Zm-207,5.66-4,6.85h8Zm42.06,0-4,6.85h8Zm42.06,0-4,6.85h8Zm42.07,0-4,6.85h8Zm42.06,0-4,6.85h8Zm40.51,2.67-2.44,4.18H342C341.68,456.22,341.39,454.83,341.09,453.38ZM247.74,216l-.36-.06-10.06,17.24-.43.74-10.37,17.78h0L216.31,269.2l-.43.74-10.4,17.83-10.17,17.42-.44.74L184.45,323.8,174.3,341.19l-.44.74-10.45,17.9h0l-10.12,17.34-.43.75-10.48,17.93h0l-9.2,15.75c-.17.73-.35,1.46-.52,2.19a2.49,2.49,0,0,0-.09.37l.15-.26,10.09-17.31h0l10.48-17.93.43-.74,10.13-17.35,10.45-17.9.43-.75,10.15-17.38,10.43-17.87.43-.74,10.18-17.42h0l10.39-17.82.44-.75,10.19-17.47,10.38-17.78.43-.74L248,216.44l.2-.34Zm28.52,22.44-7.71,13.22L258.33,269.2l-.44.74-10.37,17.78-10.2,17.47-.43.74-10.4,17.83-10.18,17.43-.43.74-10.42,17.86h0l-10.15,17.38-.44.75-10.45,17.9L174.3,413.17l-.44.75-10.47,17.94h0l-10.1,17.3-.44.75-4.46,7.64h.87l4-6.9.44-.74,10.1-17.31,10.47-17.94.43-.75,10.13-17.35,10.45-17.9.43-.74,10.15-17.39,10.43-17.86.43-.75,10.17-17.43,10.4-17.82.44-.74L248,288.47h0l10.39-17.77.42-.74L269,252.43l7.7-13.2C276.55,239,276.41,238.72,276.26,238.47Zm18,41.11-4.73,8.1-10.22,17.51-.44.74-10.37,17.78h0l-10.19,17.47-.44.74L247.5,359.75l-10.18,17.43-.43.74-10.43,17.87-10.15,17.38-.43.75-10.45,17.9-10.12,17.35-.44.74-4.47,7.65h.88l4-6.9.43-.74,10.12-17.35,10.45-17.9.44-.75,10.15-17.39,10.42-17.86.44-.74,10.17-17.43,10.41-17.82.42-.75L269,324.46l10.38-17.78.43-.74L290,288.43l4.63-7.93Zm15.06,46.2-9,15.41-.42.74-10.39,17.78-10.19,17.47-.44.75-10.4,17.81h0l-10.17,17.42-.43.75-10.43,17.86h0l-10.15,17.38-.43.75-4.46,7.64h.87l4-6.9.44-.74,10.14-17.39h0l10.44-17.86.42-.74,10.18-17.43,10.4-17.82.43-.74L290,360.45l10.38-17.77.43-.75,8.86-15.17C309.54,326.43,309.44,326.11,309.35,325.78Zm13.45,48.94-1.44,2.46-.44.75L310.55,395.7h0l-10.2,17.46-.42.75-10.41,17.82-10.17,17.43-.44.74-4.46,7.65h.87l4-6.91.43-.73L290,432.49h0l10.4-17.82.43-.74L311,396.45l10.38-17.78.43-.74,1.27-2.18C323,375.41,322.89,375.07,322.8,374.72Zm12.28,50.94-3.53,6-10.19,17.47-.44.75-4.46,7.64h.86l4-6.91.43-.73L332,432.45h0l3.34-5.71ZM325,383.43l-3.21-5.5-.43-.75-10-17.06-10.61-18.19-.44-.74-10-17.11-10.59-18.14-.43-.75-10-17.14L258.76,270l-.43-.75L248.3,252,237.75,234l-.43-.74-9.71-16.64-.76.18,10,17.2.43.74,10.54,18.07,10,17.18.45.75,10.56,18.1,10,17.14.44.75,10.59,18.14,10,17.11.43.75L311,360.86l10,17.07.44.74,4.3,7.37C325.44,385.17,325.23,384.3,325,383.43Zm-3.21,66.49-.43-.75-9.94-17h0l-10.64-18.22-.44-.75-10-17.05h0l-10.61-18.18-.43-.75-10-17.1h0l-10.59-18.14-.43-.74-10-17.15-10.56-18.1-.44-.75-10-17.18-10.54-18.07-.44-.74L206.25,252h0l-7.9-13.54-.48.65,8,13.62h0l10,17.23.43.75,10.55,18.05h0l10,17.18.43.75,10.57,18.11,10,17.14.45.75,10.58,18.13,10,17.12.44.74L290,396.85l10,17.07.43.74L311,432.88h0l9.93,17,.44.73,4,6.91h.86Zm-42,0-.43-.75-10-17.07-10.62-18.18-.43-.75-10-17.09h0l-10.58-18.14-.44-.75-10-17.15-10.56-18.1-.44-.74-10-17.19-10.54-18.06-.43-.75L185.25,288l-7.65-13.1c-.12.28-.25.56-.38.84l7.59,13h0l10.06,17.22.44.75,10.54,18.06,10,17.19.44.75,10.56,18.1,10,17.14.43.75,10.6,18.14,10,17.11.44.74,10.6,18.18h0l10,17.06.44.74,4,6.91h.86Zm-42,0-.44-.75-10-17.11-10.59-18.14-.44-.75-10-17.14h0l-10.56-18.09-.43-.75-10-17.19-10.54-18.06-.43-.74L164.24,324l-3.7-6.34-.33.93,3.59,6.16h0l10.06,17.22.44.75,10.54,18.05,10,17.2.44.74,10.56,18.1,10,17.15.43.75L226.9,432.8h0l10,17.11.43.74,4,6.9h.87Zm-42,0-.43-.75-10-17.14h0l-10.56-18.1-.43-.75-10-17.18h0l-10.54-18.05-.43-.75-7.54-12.91c-.1.33-.19.66-.29,1l7.4,12.67.43.74,10.54,18.05h0l10,17.19.44.75,10.56,18.1,10,17.14.44.75,4,6.9h.87Zm-42,0-.44-.75-10-17.19-10.54-18.06-.06-.11a2.49,2.49,0,0,0-.09.37c-.06.23-.12.46-.17.69l10.42,17.85h0l10,17.19.44.74,4,6.9h.87Z" style="fill:#030402;opacity:0.1"></path><path d="M216.31,237.6c1.74,2.35,3.55,4.64,5.39,6.9s3.77,4.43,5.7,6.61c3.87,4.34,7.86,8.56,12,12.59s8.45,7.95,12.93,11.64,9.08,7.2,13.81,10.55l-1.63.3c.08-.14.28-.5.41-.8s.28-.64.42-1c.27-.66.52-1.34.74-2,.47-1.38.87-2.79,1.26-4.21.78-2.84,1.43-5.73,2.06-8.62s1.18-5.81,1.76-8.73l1.63-8.78c-.15,3-.4,5.95-.69,8.92s-.67,5.93-1.08,8.89-1,5.9-1.65,8.83c-.35,1.46-.72,2.92-1.17,4.38-.21.73-.46,1.45-.72,2.18-.14.36-.27.73-.44,1.09-.08.19-.16.37-.25.56a5.5,5.5,0,0,1-.35.63l-.64,1-1-.69a175.41,175.41,0,0,1-14-10.64c-2.27-1.86-4.43-3.86-6.61-5.82-1.08-1-2.11-2-3.17-3.06s-2.1-2-3.1-3.11A165,165,0,0,1,226.33,252,131,131,0,0,1,216.31,237.6Z" style="fill:#263238"></path><path d="M257.59,263c-12.61,2.74-33.81-16.85-42-32.56-.55-1.08,1.29-12.29,2.88-26,.94-8.33,1.78-17.63,1.94-26.18,0-1.75,53.33,14,53.33,14s-5.59,17.81-5.78,32.7a18.64,18.64,0,0,0,.31,3.51c0,.17,0,.36.06.59C269.26,235.73,269.78,260.34,257.59,263Z" style="fill:#ad6359"></path><path d="M223.66,178.53c2.22,14.48,10.56,49.54,39.13,50.72a32.3,32.3,0,0,0,5.49-.2,2.55,2.55,0,0,0-.06-.59,20.53,20.53,0,0,1-.31-3.5c.19-14.92,5.79-32.72,5.79-32.72S235.25,180.87,223.66,178.53Z" style="fill:#263238"></path><path d="M214.94,113.8c-6.05,18.91,3.24,73.93,16.58,86.35,19.35,18,51.4,20.14,66.79-3.21,14.92-22.62,1.55-94.11-13.39-105.43C262.91,74.83,223.89,85.85,214.94,113.8Z" style="fill:#ad6359"></path><path d="M262.35,149c-.05-.13-.25.24-.21.39.86,3.66,1.23,8-1.85,9.89-.1.06-.05.24.07.2C264.31,158.08,263.76,152.33,262.35,149Z" style="fill:#263238"></path><path d="M258.28,145.82c-6,.76-4.06,12.73,1.51,12S263.33,145.19,258.28,145.82Z" style="fill:#263238"></path><path d="M284.36,145.34c0-.15.32.13.34.28.48,3.73,1.67,7.91,5.22,8.6.11,0,.13.21,0,.21C285.74,154.52,284.22,149,284.36,145.34Z" style="fill:#263238"></path><path d="M287,140.92c5.89-1.42,8.31,10.47,2.85,11.79S282.1,142.12,287,140.92Z" style="fill:#263238"></path><path d="M249.19,134.43a48.64,48.64,0,0,1,3.76-3.27c1.45-1.24,2.48-2.38,4.47-2.61a2.56,2.56,0,0,1,2.49,1.89c.51,2.38-.89,4.34-2.58,5.9a9.36,9.36,0,0,1-6.17,2.7C248.74,139.19,247.64,136.06,249.19,134.43Z" style="fill:#263238"></path><path d="M292,125.39a48.42,48.42,0,0,0-4.64-1.81c-1.79-.67-3.14-1.39-5.09-.94a2.58,2.58,0,0,0-1.71,2.63c.33,2.4,2.32,3.77,4.44,4.67a9.35,9.35,0,0,0,6.72.45C294.07,129.72,294,126.4,292,125.39Z" style="fill:#263238"></path><path d="M264.84,186.68c1,.77,2,1.86,3.4,1.81a10.09,10.09,0,0,0,3.9-1.42.13.13,0,0,1,.18.17,5.07,5.07,0,0,1-4.49,2.6c-1.73-.09-2.74-1.45-3.33-3C264.41,186.68,264.69,186.57,264.84,186.68Z" style="fill:#263238"></path><path d="M282.14,166.68s1.11,5.7,1.26,8.4c0,.26-7.27-.38-15.07,2.73-1.16.46-1.21-.54.09-1.42,2.58-1.75,5.48-3.14,12.52-3.54.15-.76-1.86-8.74-1.44-8.79,1.48-.21,4.45.64,6.23,1.06-2-11.94-5.81-23.47-7.58-35.39a.37.37,0,0,1,.7-.21c4.89,11.8,7.45,25.48,9.78,37.76C288.94,168.81,283.25,167.08,282.14,166.68Z" style="fill:#263238"></path><path d="M276.1,173.52s.17,7.86-3.77,10.27c-4.54,2.76-8.58-2.45-4.26-7.16C270.34,174.17,276.1,173.52,276.1,173.52Z" style="fill:#263238"></path><path d="M273.23,183.07a4.45,4.45,0,0,1-.9.72c-3.25,2-6.24-.13-6.09-3.21C271.26,179.65,272.87,181.32,273.23,183.07Z" style="fill:#ff99ba"></path><path d="M216.25,163.8c8.4,1.09,13.79-11.87,15.14-17.2s-3.78-27.83-.93-35.94,10.66-13.51,17.59-12.5,16.78,8.54,21.62,7.38,4.5-11.94,7.92-12.43c7.52-1.07,17.61,15.56,20.15,23.61,0,0-2.65-35.67-41.68-33.8-35.6,1.7-42.58,28.78-44.13,39.8C209,143.85,216.25,163.8,216.25,163.8Z" style="fill:#263238"></path><path d="M229.92,159s-12.53-17.67-20.56-13.19,1.48,30.15,11,33.6,12.85-5.25,12.85-5.25Z" style="fill:#ad6359"></path><path d="M212.27,153.13a.13.13,0,0,0-.05.25c6.65,2.65,10.18,8.77,12.67,15.13-2-2.44-4.69-3.77-8-1.4-.17.12,0,.39.19.35,2.71-.6,4.67-.14,6.52,2a28.43,28.43,0,0,1,3.15,5.25c.31.59,1.38.27,1.15-.42,0-.05,0-.1-.05-.15C228,165.71,221.35,153.92,212.27,153.13Z" style="fill:#263238"></path><path d="M268.26,224.66,256,256.58,216,217.1,205,230.15s39.57,63.12,39.77,60.24l12.62-27.55,19.18,18.71-2.31-47.71Z" style="fill:#ebebeb"></path><path d="M276.79,257.9c-.64-7.86-1.07-15.8-2.08-23.63,0-.28-.47-.39-.54-.07-1.45,7.63,1.17,37.7,1.26,44.92l-.09-.09c-.8-.8-17.75-16.45-17.92-16.19-2.76,4.39-12,24.45-12.65,26.27-6.26-10-32.78-49.53-40.15-59a.28.28,0,0,0-.47.29C209.71,241,244,293.14,244.46,293c.33.24,11.85-24.47,13.2-29.12,2.88,3.42,20,21.1,20.06,19.93A246.26,246.26,0,0,0,276.79,257.9Z" style="fill:#263238"></path><path d="M388.12,388.76C368.54,378,334.3,337.69,294.59,274c-6.49-10.4,49.65-60.34,57.73-50,10.17,13,65.61,89,67.8,93.19C438.62,352.58,401.14,395.92,388.12,388.76Z" style="fill:#ad6359"></path><path d="M279.33,237.61c.71,14.74,14.85,35.71,14.85,35.71L357,230.62s-11-21.16-11.2-33.85c-.05-3.68-1.09-23-.9-41.72.22-21.3-2.28-43.66-4-45.57-3.31-3.67-10.84-.28-14.37,14s-5.6,43.38-6.18,45.09a11.9,11.9,0,0,1-.91,1.57h0c-.6.52-21.19,4.24-25.29,12.76C290,191.63,278.31,235.11,279.33,237.61Z" style="fill:#ad6359"></path><path d="M324.48,197s15.84-32.2,14.71-39.58-1.18-52.73-4.41-56.47-10.84-.28-14.38,14-5.58,43.37-6.17,45.09-19,27.43-19.94,30.31S324.48,197,324.48,197Z" style="fill:#ad6359"></path><path d="M336,180.08c.92-3.82,1.67-7.68,2.45-11.54.35-1.93.69-3.87,1-5.82.14-1,.29-1.95.4-2.95.07-.49.1-1,.14-1.5a13.22,13.22,0,0,0,0-1.56c-.3-7.81-.64-15.68-1-23.52s-.81-15.65-1.45-23.54a24.86,24.86,0,0,0-1.32-5.91,11.12,11.12,0,0,0-1.44-2.75,5.07,5.07,0,0,0-2.58-2,4.09,4.09,0,0,0-3.17.48,9.08,9.08,0,0,0-2.32,2,21.39,21.39,0,0,0-3.12,5,25.34,25.34,0,0,1,3.52-4.66,8.6,8.6,0,0,1,2.27-1.66,3.22,3.22,0,0,1,2.51-.2c1.59.6,2.52,2.43,3.09,4.18a23.36,23.36,0,0,1,.95,5.61c.26,7.79.59,15.68,1,23.51s.83,15.67,1.53,23.53a28.47,28.47,0,0,1-.24,5.72c-.2,1.95-.45,3.89-.69,5.84Z" style="fill:#263238"></path><path d="M316.92,199.85s17.22-35.36,16.08-42.74-1.18-52.73-4.41-56.48-10.84-.27-14.37,14S308.63,158,308,159.75,292.3,188.13,291.32,191,316.92,199.85,316.92,199.85Z" style="fill:#ad6359"></path><path d="M330.21,184.64c.91-4.73,1.63-9.5,2.36-14.27.32-2.39.62-4.79.88-7.19.12-1.21.23-2.41.31-3.63a28.5,28.5,0,0,0,0-3.7q-.74-14.41-1.6-28.85l-1-14.43-.29-3.6a28.13,28.13,0,0,0-.45-3.69,14.64,14.64,0,0,0-1.19-3.64,6.51,6.51,0,0,0-2.73-3,3.79,3.79,0,0,0-2.2-.37,4.85,4.85,0,0,0-2,.76,11.15,11.15,0,0,0-2.76,2.67,33.51,33.51,0,0,0-3.64,6.38,41.8,41.8,0,0,0-3.44,14.07,44.71,44.71,0,0,1,4.35-13.63,32.55,32.55,0,0,1,3.75-6,9.9,9.9,0,0,1,2.48-2.25,2.64,2.64,0,0,1,2.7-.22,5,5,0,0,1,1.89,2.36,14.63,14.63,0,0,1,1,3.24c.38,2.22.38,4.7.56,7.08l.85,14.43c.61,9.61,1.21,19.22,2,28.84a26.17,26.17,0,0,1,.17,3.52c0,1.18-.09,2.38-.16,3.57-.16,2.4-.36,4.79-.58,7.19Z" style="fill:#263238"></path><path d="M318.14,200.13s7.77-34.2,6.72-41.07.85-37.84-2.16-41.32-10.09-.26-13.38,13-7.15,29.12-7.7,30.73-9.39,26.81-10.3,29.49S318.14,200.13,318.14,200.13Z" style="fill:#ad6359"></path><path d="M323,191.65c1-6.12,1.88-12.26,2.8-18.4q.69-4.6,1.29-9.22l.29-2.32a19,19,0,0,0,.16-2.38c0-1.58,0-3.13-.07-4.69-.23-6.22-.6-12.42-1.18-18.61-.29-3.1-.61-6.19-1-9.28-.19-1.55-.4-3.1-.65-4.64a28.78,28.78,0,0,0-1.07-4.73,3.91,3.91,0,0,0-2-2.27,4,4,0,0,0-3,0,11.46,11.46,0,0,0-4.15,2.93,20.3,20.3,0,0,0-4.85,8.4c-1.67,6-3.18,12-4.72,18s-3.06,12.1-4.46,18c-.86,3-1.83,5.91-2.77,8.86s-1.81,5.94-2.62,8.95c2.54-5.69,4.87-11.41,7.06-17.27L306.77,145c1.58-6,3.15-12,4.85-17.93a18.46,18.46,0,0,1,4.32-7.59,9.58,9.58,0,0,1,3.35-2.46,1.7,1.7,0,0,1,2.5,1.09,28.09,28.09,0,0,1,1,4.33c.26,1.51.48,3,.68,4.57.41,3.06.75,6.13,1.07,9.21.59,6.16,1.21,12.33,1.56,18.51.09,1.54.17,3.08.18,4.61a35.6,35.6,0,0,1-.32,4.57l-1,9.25Z" style="fill:#263238"></path><path d="M302.11,163.05c-3.66,8.81-6.38,18-9.4,27-4.26,13.62-8.78,27.24-11.78,41.18a22.53,22.53,0,0,0-.65,6.83c.18,1.69.52,3.53.86,5.2a84.09,84.09,0,0,0,5.16,15.1,121,121,0,0,0,6.48,12.74,101.29,101.29,0,0,1-7.37-12.32,77.34,77.34,0,0,1-5.84-15.14,49.82,49.82,0,0,1-1-5.37,23.88,23.88,0,0,1,.53-7.39c2.86-14.12,7.44-27.77,12.17-41.33,3.3-9,6.47-18.05,10.87-26.54Z" style="fill:#263238"></path><path d="M362.42,222.55,302.35,307.2s61.67,82.11,83.31,89.27c25.08,8.31,62.25-36.78,36.43-82.89Z" style="fill:#1E4C2B"></path><path d="M363.68,270.53l-10.27,17.6-.44.74h0l-10.32,17.69L332,288.39l-.44-.74-6.94-11.89,11.34-16,.47-.66,11.28-15.89,4.88,8.37h0l.43.73h0Zm25.22-7.59-.46-.7L377.9,246.17l-3.48,6-.44.75-10.3,17.65,10,17.07.43.74,10.64,18.23L395,288.91l.43-.74,4.7-8.06ZM353,324.38l-.43-.74-10-17.07L332.4,324.13l-.43.73h0l-6.7,11.47c3.68,4.52,7.63,9.29,11.7,14.08.17.21.34.41.52.61,4.18,4.92,8.49,9.85,12.77,14.57l2.74-4.7.43-.74h0l10.25-17.55Zm31.67-17.81-21,36,21,36,21-36Zm45.39,29.75c-.06-.38-.12-.76-.19-1.14a68,68,0,0,0-7.53-21.08l-5.9,10.11L416,325h0l-10.3,17.64,9.91,17h0l.44.74,7.82,13.39A59.76,59.76,0,0,0,430.68,350c0-.44.06-.88.08-1.33A60.43,60.43,0,0,0,430.1,336.32Zm-35,60.05h0l-.43-.73-9.92-17-7.55,12.93a32.64,32.64,0,0,0,8.5,4.9,20.22,20.22,0,0,0,7.93.93c.3,0,.6,0,.91-.08s.69-.08,1-.14Zm-28.85-168-2.84,4.87-.43.74L352.63,251.6h0l-10.27,17.6-.43.73L331.6,287.65,321.36,305.2l-.44.74-8.42,14.43.5.63,8.36-14.32.43-.74L332,288.39l10.33-17.7.42-.74,10.27-17.6h0l10.31-17.65.44-.74,2.87-4.91Zm22.23,33.9-4.06,7-.43.74L373.64,287.6l-10.27,17.6-.43.74-10.33,17.7-10.25,17.55-.43.74-5,8.49c.17.21.34.41.52.61l4.88-8.35.42-.75L353,324.38l10.33-17.7.44-.74,10.26-17.6,10.31-17.65.43-.75,4.09-7Zm22.23,33.91-5.28,9.05-.44.74-10.3,17.65-10.27,17.6-.43.74-10.33,17.7-10.25,17.56-.43.74-.37.64.54.54.26-.44.44-.74,10.24-17.56,10.33-17.69.43-.75,10.27-17.59,10.31-17.66.43-.74,5.3-9.09Zm19.24,39-3.51,6-.44.74-10.31,17.65h0l-10.26,17.6-.44.74-10.32,17.69h0l-1,1.77c.3,0,.6,0,.91-.08l.56-.95h0l10.33-17.69.43-.74,10.27-17.6,10.31-17.65.42-.75,3.28-5.61C430,335.94,430,335.56,429.91,335.18Zm-3.09,6.75-.42-.74-9.92-17-10.66-18.27-.43-.74-9.94-17-10.64-18.23-.43-.74-10-17.07L363.81,234l-.44-.74-3.84-6.59-.48.67,3.89,6.66.43.74L374,252.88l10,17.06.43.75L395,288.91l9.93,17,.44.74L416,325h0l9.92,17,.44.75,4.28,7.33c0-.44.06-.88.08-1.33Zm-21,36-.43-.74-9.92-17h0l-10.66-18.27-.43-.74-9.94-17h0l-10.63-18.22-.44-.74-10-17.07L342.79,270l-.43-.74-5.89-10.09-.47.66,5.93,10.16.44.75L353,288.87h0l10,17.06.43.74L374,324.91l9.94,17,.43.75L395,360.94l9.91,17,.44.74,6.19,10.61.57-.5Zm-42,0-.44-.74-9.94-17h0l-10.64-18.22-.43-.74-10-17.06-10.61-18.19-.43-.74-7.94-13.6-.47.67,8,13.67.44.74L332,324.86h0l10,17.06.44.75L353,360.9l9.94,17,.43.74.94,1.61c.67.66,1.34,1.3,2,1.93Z" style="fill:#030402;opacity:0.1"></path><path d="M371.43,248.63c-21.14,35.29-44.74,62.83-49.13,69.08-.21.3-.66-.07-.43-.36,4.62-5.9,27.95-41.69,49.09-69.12C371.2,247.92,371.64,248.29,371.43,248.63Z" style="fill:#263238"></path><path d="M365.53,381.26c-8.44-9.49-16.94-18.93-25.27-28.51s-16.39-19.36-24.3-29.28c-4.37-5.47-8.07-10.86-12.3-16.45,2.18-3.12,3.68-5.69,5.94-9.19.3-.46-.42-1-.77-.59-2.88,3.5-7.42,9.72-7.23,10q11.11,15.51,23.23,30.23t25.29,28.79q7.38,7.83,15.27,15.15C365.48,381.47,365.61,381.35,365.53,381.26Z" style="fill:#263238"></path><path d="M367.15,389.54c-.71-.76-.87-12.59.07-12.78s17,5.66,22,4.81,19.54-8.08,21.4-8,8.71,7.93,8.71,7.93-13.14,15.8-27,17.23C381.46,399.8,367.15,389.54,367.15,389.54Z" style="fill:#1E4C2B"></path><path d="M367.15,389.54c-.71-.76-.87-12.59.07-12.78s17,5.66,22,4.81,19.54-8.08,21.4-8,8.71,7.93,8.71,7.93-13.14,15.8-27,17.23C381.46,399.8,367.15,389.54,367.15,389.54Z" style="fill:#000102;opacity:0.1"></path><path d="M394.77,386a14.5,14.5,0,0,1-1.93-5.51,16,16,0,0,1-.18-2.86,10.14,10.14,0,0,1,.46-3,10.79,10.79,0,0,1,1.34,2.7,16.73,16.73,0,0,1,.85,5.68A9.33,9.33,0,0,1,394.77,386Z" style="fill:#263238"></path><path d="M413.35,382.77a14.6,14.6,0,0,1,3.15-4.9,16.31,16.31,0,0,1,2.15-1.91,10.78,10.78,0,0,1,2.63-1.47,10.69,10.69,0,0,1-1.3,2.72,16.44,16.44,0,0,1-1.8,2.25,14.61,14.61,0,0,1-2.16,1.91A8.93,8.93,0,0,1,413.35,382.77Z" style="fill:#263238"></path><path d="M411.13,381.5a14.6,14.6,0,0,1,2-5.49,16.37,16.37,0,0,1,1.67-2.34,10.57,10.57,0,0,1,2.23-2,10.46,10.46,0,0,1-.66,2.93,16.54,16.54,0,0,1-2.93,4.94A9.24,9.24,0,0,1,411.13,381.5Z" style="fill:#263238"></path><path d="M362.62,381.54a15,15,0,0,1,5.58,2,16.84,16.84,0,0,1,2.4,1.66,10.81,10.81,0,0,1,2.07,2.23,11,11,0,0,1-3-.65,16.84,16.84,0,0,1-2.65-1.24,16.2,16.2,0,0,1-2.4-1.68A9,9,0,0,1,362.62,381.54Z" style="fill:#263238"></path><path d="M387.28,376.92a15,15,0,0,1,5.58,2,16.84,16.84,0,0,1,2.4,1.66,11.13,11.13,0,0,1,2.08,2.23,10.13,10.13,0,0,1-3-.65,15.58,15.58,0,0,1-2.65-1.23,15.91,15.91,0,0,1-2.4-1.68A9.21,9.21,0,0,1,387.28,376.92Z" style="fill:#263238"></path><path d="M93.89,398.85c22.25-2.2,84-56.06,126.55-122.93,6.59-10.35-43.83-64.7-52.83-55.16-11.34,12-75.22,78.71-77.8,82.68C68.1,336.93,78.79,400.34,93.89,398.85Z" style="fill:#ad6359"></path><path d="M239.09,241.31c-2.11,14.61-18.18,34.14-18.18,34.14L162.44,227s13-20,14.37-32.63c.4-3.66,3.27-22.76,4.86-41.45,1.81-21.22,6.42-43.24,8.31-45,3.65-3.35,10.82.74,13,15.32s1.45,43.71,1.87,45.47a11,11,0,0,0,.75,1.65h0c.55.58,20.69,6.24,24,15.11C232.89,194.53,240.34,238.93,239.09,241.31Z" style="fill:#ad6359"></path><path d="M198,196.55S185.3,163,187.13,155.75s6.19-52.38,9.76-55.8,10.82.76,13,15.33,1.44,43.7,1.85,45.48,16.27,29.1,17,32.06S198,196.55,198,196.55Z" style="fill:#ad6359"></path><path d="M188.17,178.66c-.54-3.89-.93-7.8-1.33-11.72-.18-1.95-.32-3.92-.43-5.89-.06-1-.11-2-.13-3,0-.49,0-1,0-1.51s.1-1.11.17-1.55c1.05-7.75,2.14-15.54,3.26-23.31s2.3-15.51,3.69-23.3a25.51,25.51,0,0,1,1.87-5.76,11.19,11.19,0,0,1,1.7-2.6,5,5,0,0,1,2.75-1.71,4.14,4.14,0,0,1,3.12.77,9.2,9.2,0,0,1,2.12,2.2,21.52,21.52,0,0,1,2.62,5.31,24.67,24.67,0,0,0-3.06-5,8.64,8.64,0,0,0-2.1-1.87,3.23,3.23,0,0,0-2.48-.44c-1.64.45-2.74,2.19-3.47,3.87A23.69,23.69,0,0,0,195,108.7c-1,7.74-2.07,15.56-3.2,23.31s-2.32,15.53-3.76,23.29a28.11,28.11,0,0,0-.31,5.71c0,2,.08,3.92.14,5.88Z" style="fill:#263238"></path><path d="M205.26,200.15s-13.78-36.83-11.94-44.07,6.19-52.38,9.76-55.8,10.81.75,13,15.32,1.44,43.71,1.86,45.48,13,29.75,13.68,32.71S205.26,200.15,205.26,200.15Z" style="fill:#ad6359"></path><path d="M193.48,183.76c-.46-4.81-.73-9.62-1-14.44-.09-2.41-.17-4.82-.19-7.24,0-1.21,0-2.43,0-3.65a27.63,27.63,0,0,1,.37-3.68q2.1-14.28,4.34-28.56l2.34-14.27.62-3.56a31.37,31.37,0,0,1,.8-3.64,15.25,15.25,0,0,1,1.53-3.5,6.54,6.54,0,0,1,3-2.76,3.74,3.74,0,0,1,2.22-.15,4.94,4.94,0,0,1,1.89.94,11.09,11.09,0,0,1,2.49,2.92,32.91,32.91,0,0,1,3,6.7A41.87,41.87,0,0,1,217,123.19a44.89,44.89,0,0,0-3-14,34,34,0,0,0-3.16-6.33,10,10,0,0,0-2.26-2.47,2.6,2.6,0,0,0-2.66-.47,5,5,0,0,0-2.12,2.17,14.66,14.66,0,0,0-1.27,3.13c-.58,2.17-.83,4.64-1.23,7l-2.22,14.27c-1.52,9.52-3,19-4.75,28.52a26.66,26.66,0,0,0-.5,3.49c-.09,1.18-.14,2.38-.18,3.57-.08,2.4-.1,4.81-.11,7.21Z" style="fill:#263238"></path><path d="M204,200.32s-4.49-34.79-2.78-41.53,2.75-37.74,6.08-40.93,10.06.7,12.07,14.27,4.35,29.67,4.74,31.32,6.8,27.59,7.46,30.34S204,200.32,204,200.32Z" style="fill:#ad6359"></path><path d="M200,191.42c-.41-6.2-.71-12.4-1-18.59q-.24-4.65-.41-9.31l-.07-2.33a19.08,19.08,0,0,1,.07-2.39c.13-1.56.32-3.11.52-4.65.82-6.17,1.77-12.31,2.94-18.42.59-3,1.2-6.1,1.88-9.15.34-1.52.69-3,1.09-4.55a28.79,28.79,0,0,1,1.51-4.61,3.91,3.91,0,0,1,2.19-2.06,4,4,0,0,1,3,.3,11.51,11.51,0,0,1,3.84,3.31,20.14,20.14,0,0,1,4,8.82c1.1,6.15,2,12.27,3,18.41s1.9,12.33,2.73,18.35c.57,3,1.25,6.06,1.91,9.09s1.24,6.08,1.76,9.15c-2-5.9-3.76-11.82-5.39-17.86l-2.92-18.43c-1-6.11-2-12.26-3.12-18.31a18.59,18.59,0,0,0-3.58-8,9.69,9.69,0,0,0-3.1-2.76,1.69,1.69,0,0,0-2.59.84,27.83,27.83,0,0,0-1.4,4.22c-.4,1.48-.77,3-1.12,4.48-.7,3-1.33,6-1.93,9.07-1.18,6.08-2.38,12.16-3.32,18.27-.23,1.53-.45,3.06-.62,4.58a36.54,36.54,0,0,0-.11,4.58l.1,9.3Z" style="fill:#263238"></path><path d="M224.13,163.45c6.18,23.94,13.19,47.8,16,72.44a18.81,18.81,0,0,1-.65,7.64,82.69,82.69,0,0,1-9.25,20.37c-2.67,4.15-5.52,8.33-9.3,11.55a55.06,55.06,0,0,0,8.43-12.07,92.18,92.18,0,0,0,8.4-20.31,17.11,17.11,0,0,0,.46-7c-3-24.46-9.75-48.34-14.07-72.6Z" style="fill:#263238"></path><path d="M157.69,218.35l42.21,106S114.71,398,92.5,403.14c-25.74,5.94-34.32-60-4.32-103.5Z" style="fill:#1E4C2B"></path><path d="M107.46,277.09l-6.29,10.79-.44.74h0L90.26,306.57l-3.13-5.36c.34-.53.69-1,1.05-1.57l11.28-13.19.52-.61Zm35.4-24.54-.43-.74L137,242.53,125,256.64l-.52.6L112,271.77l9.39,16.08.43.74,10.5,18,10.45-17.9.43-.75,10.15-17.39Zm34,13.82-.35-.88L168.29,245l-4.07,7-.44.75-10.42,17.86,10.08,17.28.43.74,10.52,18,10.42-17.86h0l.44-.74.1-.17Zm-76,58.26-.44-.74h0l-10.1-17.31-10.1,17.3-.43.74h0l-7.86,13.46q-.77,3.44-1.29,6.83l8.76,15,.43.74,10.49,18,10.49-18,.44-.75,10.1-17.31Zm31.53-18.06-21,36,21,36,21-36Zm52.55,18-.43-.75-10.06-17.23L164.24,324l-.44.75h0L153.36,342.6l8,13.74c2.64-2.12,5.23-4.21,7.72-6.25l1.66-1.35,4.78-3.93.59-.48c5.22-4.31,9.88-8.21,13.65-11.39Zm-84.1,72.11h0l-.44-.74L90.26,378.64,80.19,395.9l-.44.75-1,1.64a16.7,16.7,0,0,0,3.85,3.31,12.25,12.25,0,0,0,1.28.69,12.79,12.79,0,0,0,8.58.85,26.61,26.61,0,0,0,4.55-1.59l1.19-.54c1.23-.57,2.54-1.24,3.92-2Zm31.55-18-.24.41.34-.25Zm27.09-155.93-6.13,10.5-.43.74-10.43,17.86L132.28,269.2l-.43.74L121.4,287.85l-10.12,17.34-.44.75-10.48,17.94h0l-10.09,17.3-.44.74-10.49,18-9.26,15.85.18,1.18,9.51-16.29,10.5-18,.43-.75,10.1-17.3,10.47-17.95.44-.75,10.12-17.34,10.45-17.9.44-.75,10.14-17.39,10.43-17.86.43-.74,6.05-10.37Zm17.05,42.78-2.17,3.71-.44.74-10.42,17.87-10.15,17.38-.43.75-10.45,17.9-10.13,17.35-.43.74-10.47,17.95-10.1,17.3-.44.75-10.5,18-3.29,5.64,1.19-.54,2.54-4.35h0l10.49-18,.44-.75,10.1-17.3h0l10.47-17.94.44-.74,10.12-17.35,10.45-17.9.43-.75,10.15-17.38,10.43-17.86.43-.75,2.09-3.57Zm17,42.78-9.06,15.53L174.3,341.19l-.44.74-4.76,8.16,1.66-1.35,3.54-6.06.43-.75,10.15-17.38,9-15.39Zm-5.86-14.71-1.87-4.7-.53-.9-10.52-18-.43-.74-10.08-17.28-10.5-18-.43-.74-3.37-5.77-.51.6,3.45,5.91.43.74,10.49,18,10.08,17.27.44.75,10.51,18h0Zm-12.92,48.37-.43-.74L164.24,324l-10.52-18-.43-.74-10.08-17.27-10.49-18-.44-.74L125,256.64l-.52.6,7.42,12.7.43.75,10.5,18,10.08,17.27.43.74,10.51,18h0l10.06,17.22.44.75,1.24,2.13.59-.48Zm-31.5,18h0l-10.51-18-.44-.74L122.2,323.92l-10.49-18-.43-.74-10.11-17.31-1.19-2-.52.61,1.27,2.17h0l10.11,17.31.43.74,10.5,18,10.08,17.27.43.74,10.52,18,4.14,7.09.59-.47Zm-31.52,18-.43-.74-10.09-17.27-10.49-18-.43-.74L80.16,323.87l-2.56-4.39c-.13.29-.25.58-.35.88l2.48,4.25h0l10.1,17.31.44.75,10.48,18,10.09,17.27.43.74,6.28,10.75.62-.42Zm-31.52,18-9.42-16.13c.17.82.35,1.62.53,2.4l8.45,14.48,2.89,5a12.25,12.25,0,0,0,1.28.69Z" style="fill:#030402;opacity:0.1"></path><path d="M177,327.37c-18.16-36.92-28.49-71.69-31.35-78.77-.14-.33.41-.51.53-.17,2.45,7.09,19.85,46.12,31.41,78.75C177.75,327.56,177.2,327.72,177,327.37Z" style="fill:#263238"></path><path d="M195.66,311.09a.53.53,0,0,0-1,.38c1.08,3.1,3.58,11,3.5,11.67,0,.43-14.22,12.38-18.91,16.47q-13.94,12.18-28.36,23.81c-9.69,7.8-7.36,8.08-2.38,4.08,10.07-8.09,19.91-15.34,29.67-23.81,4.84-4.2,22.32-19.89,22.54-20.32S196.32,312.65,195.66,311.09Z" style="fill:#263238"></path></g><g id="freepik--Plant--inject-97"><path d="M380.68,381.19l-1,22.82c-3.72.33-16.4-3.22-22.48-9.3-4.57-4.57-3.38-18.76-.84-36.33s7.6-19.61,11.83-18.59a6.22,6.22,0,0,1,2.66,1.35c2.25,1.95,3.21,5.6,3.59,10.31.5,6.25-2,22.65-1.35,26.53a3.32,3.32,0,0,0,1.6,2.36C376.62,381.53,379.69,381.19,380.68,381.19Z" style="fill:#455a64"></path><path d="M415.65,412.83s-18,6.59-36.76,0c0,0,1.78-72.49,4.06-84.66s7.44-18,15.72-18a14,14,0,0,1,1.6.09c6.58.69,11.18,5.75,12.59,15.37,1.08,7.38,2,48.17,2.49,71.25C415.54,406.34,415.65,412.83,415.65,412.83Z" style="fill:#455a64"></path><path d="M437.36,371.6c-6.08,6.09-18.75,9.63-22.47,9.29l-1-22.81c1.4,0,6.94.67,7.61-3.21s-1.86-20.28-1.35-26.53,2-10.65,6.25-11.66a6.41,6.41,0,0,1,1.08-.18c4-.39,8.43,2.66,10.75,18.77A203,203,0,0,1,440.4,356C440.67,363.48,439.92,369.05,437.36,371.6Z" style="fill:#455a64"></path><path d="M398.37,310.13a1.19,1.19,0,0,1,.79.24,3.65,3.65,0,0,1,.62.56,7.74,7.74,0,0,1,.93,1.4,20.2,20.2,0,0,1,1.23,3.1,52,52,0,0,1,1.51,6.51c.73,4.4,1.14,8.83,1.45,13.27s.44,8.88.52,13.33l.25,13.31c.1,8.88.24,17.76.29,26.64l.06,13.33c0,4.44,0,8.88,0,13.32-.18-4.44-.3-8.88-.45-13.32l-.35-13.31c-.21-8.88-.35-17.76-.52-26.64s-.1-17.76-.53-26.62c-.22-4.42-.55-8.85-1.17-13.23a51.27,51.27,0,0,0-1.27-6.51,20.35,20.35,0,0,0-1.12-3.12,7.77,7.77,0,0,0-.85-1.41,3.18,3.18,0,0,0-.58-.58A1.21,1.21,0,0,0,398.37,310.13Z" style="fill:#37474f"></path><path d="M411.43,414c-.12-4.45-.19-8.89-.27-13.33L411,387.34l-.28-26.65q-.07-6.66-.22-13.32l-.08-3.32-.13-3.33c-.11-2.21-.27-4.42-.46-6.63s-.43-4.41-.75-6.6a57.31,57.31,0,0,0-1.27-6.52,23.09,23.09,0,0,0-2.46-6.12,12.84,12.84,0,0,0-2.06-2.58,10.9,10.9,0,0,0-2.74-1.87,10.91,10.91,0,0,1,2.81,1.79,12.58,12.58,0,0,1,2.16,2.55,23.67,23.67,0,0,1,2.63,6.14A76.2,76.2,0,0,1,410.41,334q.66,6.64.92,13.32t.32,13.33c.1,4.44.13,8.88.14,13.32l0,13.33-.12,13.33C411.63,405.1,411.56,409.54,411.43,414Z" style="fill:#37474f"></path><path d="M398.37,310.13a1.18,1.18,0,0,0-.76.27,3.18,3.18,0,0,0-.58.58,7.24,7.24,0,0,0-.85,1.41,20.35,20.35,0,0,0-1.12,3.12,53.12,53.12,0,0,0-1.28,6.51c-.62,4.38-.94,8.81-1.16,13.23-.43,8.86-.39,17.74-.53,26.62s-.31,17.76-.52,26.64l-.35,13.31c-.15,4.44-.27,8.88-.45,13.32,0-4.44,0-8.88,0-13.32l.06-13.33c.06-8.88.2-17.76.3-26.64l.24-13.31c.09-4.45.2-8.89.52-13.33s.73-8.87,1.46-13.27a53.84,53.84,0,0,1,1.5-6.51,20.25,20.25,0,0,1,1.24-3.1,7.74,7.74,0,0,1,.93-1.4,3.65,3.65,0,0,1,.62-.56A1.17,1.17,0,0,1,398.37,310.13Z" style="fill:#37474f"></path><path d="M385.32,414c-.13-4.45-.2-8.89-.27-13.33l-.12-13.33L385,374q0-6.66.14-13.32t.32-13.33q.25-6.68.92-13.32a76.2,76.2,0,0,1,2.29-13.15,23.33,23.33,0,0,1,2.63-6.14,12.27,12.27,0,0,1,2.16-2.55,10.85,10.85,0,0,1,2.8-1.79,10.67,10.67,0,0,0-2.73,1.87,12.84,12.84,0,0,0-2.06,2.58A23.09,23.09,0,0,0,389,321a55.2,55.2,0,0,0-1.27,6.52c-.32,2.19-.56,4.39-.75,6.6s-.35,4.42-.47,6.63l-.12,3.33-.08,3.32q-.16,6.66-.22,13.32l-.28,26.65-.19,13.32C385.51,405.1,385.43,409.54,385.32,414Z" style="fill:#37474f"></path><path d="M398.37,415.72c-.11-4.4-.16-8.8-.24-13.2l-.14-13.2c-.09-8.8-.08-17.6-.12-26.4s0-17.59.11-26.39l.15-13.2c.08-4.4.13-8.8.24-13.2.12,4.4.17,8.8.25,13.2l.14,13.2c.08,8.8.08,17.59.12,26.39s0,17.6-.12,26.4l-.14,13.2C398.54,406.92,398.49,411.32,398.37,415.72Z" style="fill:#37474f"></path><path d="M368.18,339.79a7.61,7.61,0,0,1,1.21,1.26,8.25,8.25,0,0,1,.85,1.54,14.81,14.81,0,0,1,.89,3.4,39.92,39.92,0,0,1,.31,7,129.12,129.12,0,0,1-1.28,13.9c-.33,2.29-.63,4.57-.73,6.86a23.6,23.6,0,0,0,.51,6.78,9.19,9.19,0,0,0,1.34,3.05,6.21,6.21,0,0,0,1.1,1.25,7.28,7.28,0,0,0,1.37.95,11.61,11.61,0,0,0,3.22,1.12c1.13.22,2.28.35,3.44.47a27,27,0,0,1-3.48-.21,12,12,0,0,1-3.4-.94,7.36,7.36,0,0,1-1.53-.95,7,7,0,0,1-1.26-1.29,9.53,9.53,0,0,1-1.56-3.24,23.17,23.17,0,0,1-.71-7,66.86,66.86,0,0,1,.69-7c.32-2.29.62-4.59.88-6.89s.48-4.6.62-6.9a46.74,46.74,0,0,0,0-6.9,14.69,14.69,0,0,0-.65-3.36A7.22,7.22,0,0,0,368.18,339.79Z" style="fill:#37474f"></path><path d="M367.39,339.58a2.22,2.22,0,0,0-1,.53,5.11,5.11,0,0,0-.78.83,10.36,10.36,0,0,0-1.18,1.94,23.76,23.76,0,0,0-1.55,4.28,66.71,66.71,0,0,0-1.69,9c-.73,6.07-1.44,12.16-1.63,18.25a51.73,51.73,0,0,0,.39,9.07,17.39,17.39,0,0,0,1.13,4.32,11.65,11.65,0,0,0,2.56,3.58,26.21,26.21,0,0,0,7.54,4.95,41.09,41.09,0,0,0,8.69,2.83,38.43,38.43,0,0,1-8.89-2.37,25.64,25.64,0,0,1-7.89-4.84,11.89,11.89,0,0,1-2.82-3.79,17.8,17.8,0,0,1-1.27-4.53,51.26,51.26,0,0,1-.45-9.25A165.18,165.18,0,0,1,360.43,356a59.45,59.45,0,0,1,2-9,24.39,24.39,0,0,1,1.77-4.26,10.5,10.5,0,0,1,1.31-1.92,5.24,5.24,0,0,1,.84-.79A2.29,2.29,0,0,1,367.39,339.58Z" style="fill:#37474f"></path><path d="M426.51,316.68a7.19,7.19,0,0,0-1.81,2.89,14.9,14.9,0,0,0-.66,3.37,46.74,46.74,0,0,0,0,6.9q.21,3.45.62,6.9t.88,6.88a64.74,64.74,0,0,1,.68,7,23.55,23.55,0,0,1-.7,7,9.77,9.77,0,0,1-1.56,3.23,7.59,7.59,0,0,1-2.79,2.25,12,12,0,0,1-3.4.94,27.09,27.09,0,0,1-3.48.21c1.15-.12,2.3-.26,3.43-.48a11.37,11.37,0,0,0,3.22-1.11,6.67,6.67,0,0,0,1.38-1,6.19,6.19,0,0,0,1.1-1.24,9.28,9.28,0,0,0,1.34-3,24,24,0,0,0,.5-6.78c-.1-2.29-.39-4.57-.72-6.87a129,129,0,0,1-1.29-13.89,41.91,41.91,0,0,1,.31-7,15.36,15.36,0,0,1,.9-3.4,8,8,0,0,1,.85-1.54A6.89,6.89,0,0,1,426.51,316.68Z" style="fill:#37474f"></path><path d="M427.29,316.46a2.36,2.36,0,0,1,1,.48,5.77,5.77,0,0,1,.85.79,10.73,10.73,0,0,1,1.3,1.91,25.67,25.67,0,0,1,1.78,4.27,59.15,59.15,0,0,1,2,9,160.58,160.58,0,0,1,1.87,18.32,51.32,51.32,0,0,1-.44,9.26A18.24,18.24,0,0,1,434.4,365a12,12,0,0,1-2.81,3.79,25.69,25.69,0,0,1-7.9,4.84A38.16,38.16,0,0,1,414.8,376a41.66,41.66,0,0,0,8.69-2.83,26.39,26.39,0,0,0,7.55-4.95,11.54,11.54,0,0,0,2.55-3.59,17.33,17.33,0,0,0,1.14-4.31,51.73,51.73,0,0,0,.38-9.07c-.19-6.1-.89-12.18-1.63-18.25a64.9,64.9,0,0,0-1.69-9,24.92,24.92,0,0,0-1.54-4.29,10.28,10.28,0,0,0-1.18-1.93,5.59,5.59,0,0,0-.78-.83A2.27,2.27,0,0,0,427.29,316.46Z" style="fill:#37474f"></path><path d="M385.31,322.89a15.33,15.33,0,0,1,1.43,2c.22.35.41.72.61,1.08s.38.72.56,1.09l-.85-.1c.27-.32.53-.63.81-.93s.55-.61.85-.89a14.08,14.08,0,0,1,1.88-1.64,15.27,15.27,0,0,1-1.27,2.14c-.23.35-.48.67-.72,1s-.51.65-.77,1l-.5.62-.34-.72c-.18-.37-.35-.74-.51-1.12s-.32-.75-.46-1.14A15.73,15.73,0,0,1,385.31,322.89Z" style="fill:#37474f"></path><path d="M388.14,321.71a5.67,5.67,0,0,1,.22,1.45,8.39,8.39,0,0,1-.06,1.42A9.78,9.78,0,0,1,388,326a5.81,5.81,0,0,1-.57,1.35,5.67,5.67,0,0,1-.22-1.45,9.58,9.58,0,0,1,.06-1.42,9.78,9.78,0,0,1,.28-1.39A5.63,5.63,0,0,1,388.14,321.71Z" style="fill:#37474f"></path><path d="M403.14,392.73a15.15,15.15,0,0,1,1.65,1.86c.26.32.49.66.74,1s.46.68.68,1h-.85q.33-.51.69-1c.25-.32.48-.66.74-1a15.34,15.34,0,0,1,1.68-1.85,14.65,14.65,0,0,1-1,2.28c-.18.37-.39.72-.59,1.08s-.43.7-.65,1l-.43.67-.43-.67c-.21-.35-.43-.7-.63-1s-.41-.72-.59-1.09A16,16,0,0,1,403.14,392.73Z" style="fill:#37474f"></path><path d="M405.81,391.22a5.91,5.91,0,0,1,.39,1.42,8.36,8.36,0,0,1,.1,1.41,9.7,9.7,0,0,1-.11,1.42,5.37,5.37,0,0,1-.41,1.41,5.79,5.79,0,0,1-.39-1.42,9.55,9.55,0,0,1-.1-1.41,8.6,8.6,0,0,1,.12-1.42A5.75,5.75,0,0,1,405.81,391.22Z" style="fill:#37474f"></path><path d="M404.27,306.81a14.75,14.75,0,0,1,.66,2.4c.09.4.15.81.22,1.21s.11.82.16,1.22l-.76-.38c.35-.21.71-.41,1.07-.6s.72-.39,1.1-.56a15,15,0,0,1,2.31-.92,14.46,14.46,0,0,1-1.91,1.6c-.32.25-.67.47-1,.7s-.69.44-1,.65l-.68.41-.09-.79c0-.4-.08-.81-.1-1.22s-.06-.82-.05-1.23A14.89,14.89,0,0,1,404.27,306.81Z" style="fill:#37474f"></path><path d="M407.33,306.64a5.66,5.66,0,0,1-.28,1.44,8.76,8.76,0,0,1-.53,1.31,8.94,8.94,0,0,1-.73,1.22,5.56,5.56,0,0,1-1,1.09,5.65,5.65,0,0,1,.27-1.45,8.76,8.76,0,0,1,.53-1.31,10.09,10.09,0,0,1,.73-1.22A5.57,5.57,0,0,1,407.33,306.64Z" style="fill:#37474f"></path><path d="M441.55,349.53a16.81,16.81,0,0,1-.24,2.48c-.06.41-.15.81-.22,1.22s-.19.8-.29,1.19l-.57-.62c.4-.07.8-.14,1.21-.19s.82-.1,1.23-.13a15.87,15.87,0,0,1,2.49,0,16,16,0,0,1-2.35.82c-.4.12-.8.2-1.2.3s-.8.16-1.21.24l-.78.14.2-.77c.11-.4.22-.79.34-1.18s.24-.79.39-1.17A15.89,15.89,0,0,1,441.55,349.53Z" style="fill:#37474f"></path><path d="M444.47,350.46a6.25,6.25,0,0,1-.77,1.25,9.55,9.55,0,0,1-1,1,8,8,0,0,1-1.11.88,6,6,0,0,1-1.31.67,5.73,5.73,0,0,1,.77-1.25,8.71,8.71,0,0,1,1-1,8,8,0,0,1,1.11-.88A5.57,5.57,0,0,1,444.47,350.46Z" style="fill:#37474f"></path><path d="M421.64,341.05a16.63,16.63,0,0,1,2.06,1.41c.32.25.63.53.94.79s.62.55.91.83l-.82.2c.13-.39.27-.77.42-1.16s.31-.76.49-1.13a15.52,15.52,0,0,1,1.17-2.2,14.21,14.21,0,0,1-.43,2.46c-.09.4-.21.79-.32,1.19s-.24.78-.38,1.17l-.25.75-.57-.55c-.3-.28-.59-.57-.88-.87s-.56-.59-.83-.91A15.66,15.66,0,0,1,421.64,341.05Z" style="fill:#37474f"></path><path d="M423.87,339a5.64,5.64,0,0,1,.72,1.28,9.25,9.25,0,0,1,.44,1.35,9.09,9.09,0,0,1,.23,1.4,6,6,0,0,1-.05,1.46,5.48,5.48,0,0,1-.73-1.28,9.48,9.48,0,0,1-.43-1.34,8.34,8.34,0,0,1-.23-1.4A6.08,6.08,0,0,1,423.87,339Z" style="fill:#37474f"></path><path d="M423.51,313.07a15.6,15.6,0,0,1,2.06,1.41c.32.25.63.53.94.79s.62.55.91.83l-.82.2c.13-.39.27-.78.42-1.16s.31-.76.49-1.13a15.52,15.52,0,0,1,1.17-2.2,14.21,14.21,0,0,1-.43,2.46c-.09.4-.21.79-.32,1.19s-.24.78-.38,1.17l-.25.75-.57-.55c-.3-.28-.59-.57-.88-.87s-.56-.59-.83-.91A15.66,15.66,0,0,1,423.51,313.07Z" style="fill:#37474f"></path><path d="M425.74,311a5.64,5.64,0,0,1,.72,1.28,9.25,9.25,0,0,1,.44,1.35,9.09,9.09,0,0,1,.23,1.4,6,6,0,0,1-.05,1.46,5.48,5.48,0,0,1-.73-1.28,9.48,9.48,0,0,1-.43-1.34,8.34,8.34,0,0,1-.23-1.4A6.08,6.08,0,0,1,425.74,311Z" style="fill:#37474f"></path><path d="M407.56,333.52a14.66,14.66,0,0,1,1.78,1.74c.28.31.54.63.8.94s.51.65.76,1l-.85.06c.2-.36.4-.71.62-1.06s.43-.7.67-1a15.69,15.69,0,0,1,1.53-2,15.61,15.61,0,0,1-.84,2.35c-.16.38-.35.74-.53,1.11s-.37.73-.57,1.09l-.38.7-.47-.64c-.24-.33-.48-.67-.71-1s-.45-.68-.66-1A15.41,15.41,0,0,1,407.56,333.52Z" style="fill:#37474f"></path><path d="M410.12,331.83a5.77,5.77,0,0,1,.49,1.39,9.44,9.44,0,0,1,.2,1.4,8.43,8.43,0,0,1,0,1.42,5.87,5.87,0,0,1-.3,1.44,5.77,5.77,0,0,1-.49-1.39,8.29,8.29,0,0,1-.2-1.4,8.42,8.42,0,0,1,0-1.42A5.78,5.78,0,0,1,410.12,331.83Z" style="fill:#37474f"></path><path d="M377,343a15.4,15.4,0,0,1,2.46.41c.4.08.79.21,1.19.31s.78.24,1.17.37l-.66.53c0-.41-.08-.82-.1-1.23s-.05-.82,0-1.23a15,15,0,0,1,.14-2.49,15.06,15.06,0,0,1,.64,2.41c.09.4.14.81.21,1.21s.11.82.16,1.22l.08.8-.75-.26-1.16-.42c-.38-.16-.76-.3-1.14-.48A15.38,15.38,0,0,1,377,343Z" style="fill:#37474f"></path><path d="M378.08,340.15a5.58,5.58,0,0,1,1.19.86,7.84,7.84,0,0,1,1,1,9.3,9.3,0,0,1,.8,1.17,5.91,5.91,0,0,1,.57,1.36,5.58,5.58,0,0,1-1.19-.86,8.66,8.66,0,0,1-1-1,8.92,8.92,0,0,1-.8-1.17A5.83,5.83,0,0,1,378.08,340.15Z" style="fill:#37474f"></path><path d="M351.77,361.06a15.4,15.4,0,0,1,2.46.41c.4.09.79.21,1.19.31l1.18.37-.67.53c0-.41-.08-.81-.1-1.22s-.05-.82,0-1.24a14.8,14.8,0,0,1,.14-2.48,15.79,15.79,0,0,1,.65,2.4c.08.41.13.81.2,1.22s.11.81.16,1.22l.08.79-.75-.26c-.39-.13-.77-.27-1.15-.42s-.77-.3-1.14-.47A15,15,0,0,1,351.77,361.06Z" style="fill:#37474f"></path><path d="M352.9,358.21a5.91,5.91,0,0,1,1.2.86,9.3,9.3,0,0,1,1,1,7.89,7.89,0,0,1,.8,1.18,5.27,5.27,0,0,1,.57,1.35,5.84,5.84,0,0,1-1.19-.86,9.45,9.45,0,0,1-1-1,8.67,8.67,0,0,1-.79-1.18A5.29,5.29,0,0,1,352.9,358.21Z" style="fill:#37474f"></path><path d="M395.71,350.21a14.45,14.45,0,0,1,1.66,1.85c.27.32.5.66.74,1s.47.68.69,1H398q.33-.51.69-1c.24-.33.47-.67.73-1a14.54,14.54,0,0,1,1.67-1.85,16.06,16.06,0,0,1-1,2.28c-.18.37-.4.72-.6,1.08s-.42.7-.64,1.05l-.43.67-.42-.67c-.22-.35-.44-.69-.64-1.05s-.42-.71-.6-1.08A16.06,16.06,0,0,1,395.71,350.21Z" style="fill:#37474f"></path><path d="M398.37,348.69a5.75,5.75,0,0,1,.4,1.41,8.57,8.57,0,0,1,.11,1.42,8.37,8.37,0,0,1-.11,1.41,5.34,5.34,0,0,1-.4,1.41,5.72,5.72,0,0,1-.39-1.41,8.37,8.37,0,0,1-.11-1.41,8.57,8.57,0,0,1,.11-1.42A5.72,5.72,0,0,1,398.37,348.69Z" style="fill:#37474f"></path><path d="M367.87,397.27a14.94,14.94,0,0,1,2.47-.33c.41,0,.82,0,1.23-.06h1.23l-.48.71c-.16-.38-.31-.76-.46-1.14s-.28-.77-.4-1.17a13.93,13.93,0,0,1-.6-2.41,16.1,16.1,0,0,1,1.33,2.1c.2.36.37.74.56,1.1s.34.75.5,1.12l.32.73-.79,0q-.61,0-1.23-.06c-.41,0-.82-.06-1.23-.11A16,16,0,0,1,367.87,397.27Z" style="fill:#37474f"></path><path d="M368.11,394.22a5.67,5.67,0,0,1,1.39.46,9.29,9.29,0,0,1,1.23.7,9.41,9.41,0,0,1,1.11.89,5.46,5.46,0,0,1,1,1.12,5.75,5.75,0,0,1-1.4-.46,9.36,9.36,0,0,1-1.23-.71,8.41,8.41,0,0,1-1.11-.88A5.75,5.75,0,0,1,368.11,394.22Z" style="fill:#37474f"></path><path d="M368.18,353.9a15.25,15.25,0,0,1,1.66,1.85c.26.32.49.66.74,1s.46.68.68,1h-.85c.23-.34.45-.69.69-1s.48-.67.74-1a14.45,14.45,0,0,1,1.66-1.85,16.06,16.06,0,0,1-1,2.28c-.18.37-.39.72-.59,1.08s-.42.7-.65,1.05l-.42.67-.43-.67c-.22-.35-.44-.7-.64-1.05s-.41-.71-.59-1.08A15,15,0,0,1,368.18,353.9Z" style="fill:#37474f"></path><path d="M370.84,352.38a6.22,6.22,0,0,1,.4,1.41,9.59,9.59,0,0,1,.1,1.42,8.36,8.36,0,0,1-.1,1.41,5.75,5.75,0,0,1-.4,1.41,5.75,5.75,0,0,1-.4-1.41,9.16,9.16,0,0,1,0-2.83A5.75,5.75,0,0,1,370.84,352.38Z" style="fill:#37474f"></path><path d="M428,366.92a14.85,14.85,0,0,1,.06,2.49c0,.42-.05.82-.08,1.23s-.08.82-.13,1.23l-.65-.56,1.18-.33c.4-.09.8-.2,1.21-.27a15.31,15.31,0,0,1,2.47-.34,14.9,14.9,0,0,1-2.24,1.09c-.38.17-.77.3-1.16.44s-.77.26-1.17.38l-.76.24.11-.79c.06-.41.12-.81.2-1.21s.14-.81.24-1.21A16,16,0,0,1,428,366.92Z" style="fill:#37474f"></path><path d="M431,367.49a5.84,5.84,0,0,1-.61,1.34,9.29,9.29,0,0,1-.84,1.14,8.58,8.58,0,0,1-1,1,5.79,5.79,0,0,1-1.22.82,5.28,5.28,0,0,1,.61-1.34,9.38,9.38,0,0,1,1.83-2.15A5.79,5.79,0,0,1,431,367.49Z" style="fill:#37474f"></path><path d="M388.35,379.61a15.25,15.25,0,0,1,1.66,1.85c.26.32.49.66.74,1s.46.68.68,1h-.85c.23-.34.45-.69.69-1s.47-.67.74-1a14.45,14.45,0,0,1,1.66-1.85,16.06,16.06,0,0,1-1,2.28c-.18.37-.39.72-.59,1.08s-.43.7-.65,1l-.42.67-.43-.67c-.22-.35-.44-.7-.64-1s-.41-.71-.59-1.08A14.07,14.07,0,0,1,388.35,379.61Z" style="fill:#37474f"></path><path d="M391,378.09a6.22,6.22,0,0,1,.4,1.41,9.69,9.69,0,0,1,.1,1.42,8.36,8.36,0,0,1-.1,1.41,5.75,5.75,0,0,1-.4,1.41,5.75,5.75,0,0,1-.4-1.41,9.57,9.57,0,0,1-.11-1.41,9.7,9.7,0,0,1,.11-1.42A5.75,5.75,0,0,1,391,378.09Z" style="fill:#37474f"></path><path d="M356.37,376.78a16,16,0,0,1,1.66,1.85c.26.32.49.66.74,1s.46.68.69,1h-.86c.23-.34.45-.68.69-1s.48-.67.74-1a14.45,14.45,0,0,1,1.66-1.85,14.07,14.07,0,0,1-1,2.28c-.18.37-.39.72-.59,1.08s-.42.7-.64,1.05l-.43.67-.43-.67c-.22-.35-.43-.69-.64-1.05s-.41-.71-.59-1.08A16.06,16.06,0,0,1,356.37,376.78Z" style="fill:#37474f"></path><path d="M359,375.26a5.7,5.7,0,0,1,.4,1.42,9.09,9.09,0,0,1,0,2.82,5.82,5.82,0,0,1-.4,1.42,5.82,5.82,0,0,1-.4-1.42,9.09,9.09,0,0,1,0-2.82A5.7,5.7,0,0,1,359,375.26Z" style="fill:#37474f"></path><polygon points="369.59 413.87 421.84 413.87 416.57 457.56 374.85 457.56 369.59 413.87" style="fill:#1E4C2B"></polygon><polygon points="369.59 413.87 370.77 423.73 420.94 421.31 421.84 413.87 369.59 413.87" style="opacity:0.1"></polygon><rect x="366.31" y="408.35" width="58.81" height="7.81" style="fill:#1E4C2B"></rect></g><g id="freepik--speech-bubble--inject-97"><path d="M436.43,99.37a50.42,50.42,0,0,1-84.25,31.9L327,135l12.62-21.81a50.43,50.43,0,1,1,96.86-13.79Z" style="fill:#fff"></path><path d="M436.43,99.37a50.78,50.78,0,0,1-10.17,25.56,57.24,57.24,0,0,1-4.58,5.27,55.73,55.73,0,0,1-5.32,4.5,49.87,49.87,0,0,1-32.75,10.15,45.53,45.53,0,0,1-7-.73,50.93,50.93,0,0,1-24.95-12.32l.6.18-25.2,3.87-1.83.28.92-1.61,12.55-21.85-.06.86a51,51,0,0,1,3.11-44.95,51.73,51.73,0,0,1,15.79-16.82,51.32,51.32,0,0,1,44.33-6,51.51,51.51,0,0,1,19.45,11.92A50.71,50.71,0,0,1,436.43,99.37Zm0,0a49.88,49.88,0,0,0-57.19-54.58A49.64,49.64,0,0,0,358.42,53a51.86,51.86,0,0,0-15.09,16.46,49.73,49.73,0,0,0-2.85,43.31l.18.45-.24.41-12.7,21.77-.9-1.33,25.25-3.54.35-.05.25.23a49.62,49.62,0,0,0,24.15,12.44,42.46,42.46,0,0,0,6.84.83,46.74,46.74,0,0,0,6.9,0A49.82,49.82,0,0,0,404,141a47,47,0,0,0,12.16-6.56,56.49,56.49,0,0,0,5.33-4.44,56.63,56.63,0,0,0,4.59-5.21A50.7,50.7,0,0,0,436.43,99.37Z" style="fill:#263238"></path><path d="M381.25,70.77a12.13,12.13,0,0,1,0,16.72,10.82,10.82,0,0,1-7.9,3.53,11.16,11.16,0,0,1-8.1-3.53,12.32,12.32,0,0,1,0-16.72,11,11,0,0,1,8.1-3.54A10.68,10.68,0,0,1,381.25,70.77Zm-.43,8.36a8.56,8.56,0,0,0-2.25-5.79A7.12,7.12,0,0,0,373.35,71,7.22,7.22,0,0,0,368,73.34a8.42,8.42,0,0,0-2.25,5.79A8.27,8.27,0,0,0,368,84.88a7.26,7.26,0,0,0,5.35,2.38,7.16,7.16,0,0,0,5.22-2.38A8.4,8.4,0,0,0,380.82,79.13Z" style="fill:#263238"></path><path d="M389.78,89.21V69.71a1.79,1.79,0,0,1,1.81-1.82,1.81,1.81,0,0,1,1.85,1.82v7.93H402V69.71a1.8,1.8,0,0,1,1.82-1.82,1.81,1.81,0,0,1,1.85,1.82v19.5A1.81,1.81,0,0,1,403.82,91,1.79,1.79,0,0,1,402,89.21V81.27h-8.56v7.94A1.81,1.81,0,0,1,391.59,91,1.78,1.78,0,0,1,389.78,89.21Z" style="fill:#263238"></path><path d="M362.52,117.86a1.81,1.81,0,1,1-3.61,0V98.62a1.8,1.8,0,0,1,.73-1.52,1.82,1.82,0,0,1,2.51.4l10.68,14.77V98.65a1.8,1.8,0,0,1,1.78-1.78,1.83,1.83,0,0,1,1.82,1.78v19.21a1.83,1.83,0,0,1-1.82,1.81,1.77,1.77,0,0,1-1.35-.66.73.73,0,0,1-.17-.19l-10.57-14.68Z" style="fill:#263238"></path><path d="M401,99.42a12.13,12.13,0,0,1,0,16.72,10.82,10.82,0,0,1-7.9,3.53,11.16,11.16,0,0,1-8.1-3.53,12.32,12.32,0,0,1,0-16.72,11,11,0,0,1,8.1-3.54A10.68,10.68,0,0,1,401,99.42Zm-.43,8.36a8.56,8.56,0,0,0-2.25-5.79,7.13,7.13,0,0,0-5.22-2.34A7.22,7.22,0,0,0,387.7,102a8.42,8.42,0,0,0-2.25,5.79,8.27,8.27,0,0,0,2.25,5.75,7.26,7.26,0,0,0,5.35,2.38,7.17,7.17,0,0,0,5.22-2.38A8.4,8.4,0,0,0,400.52,107.78Z" style="fill:#263238"></path><path d="M410.43,111.71V98.36a1.84,1.84,0,0,1,1.82-1.82A1.81,1.81,0,0,1,414,98.36v13.35a1.79,1.79,0,0,1-1.79,1.82A1.82,1.82,0,0,1,410.43,111.71Zm1.82,8a1.81,1.81,0,0,1-1.82-1.81v-.66a1.83,1.83,0,0,1,1.82-1.82A1.81,1.81,0,0,1,414,117.2v.66A1.79,1.79,0,0,1,412.25,119.67Z" style="fill:#263238"></path></g><g id="freepik--Lines--inject-97"><polygon points="183.96 105.47 137.89 93.29 142.83 82.48 183.96 105.47" style="fill:#455a64"></polygon><polygon points="182.99 125.24 154.13 131.75 153.25 123.14 182.99 125.24" style="fill:#455a64"></polygon><polygon points="190.78 99.96 177.14 74.05 185.01 69.91 190.78 99.96" style="fill:#455a64"></polygon><polygon points="286.86 85.85 321.79 53.44 312.35 46.22 286.86 85.85" style="fill:#455a64"></polygon><polygon points="295.88 97.89 325.33 95.03 323.47 86.57 295.88 97.89" style="fill:#455a64"></polygon><polygon points="280.72 81.01 285.55 52.13 276.78 50.66 280.72 81.01" style="fill:#455a64"></polygon></g><g id="freepik--Table--inject-97"><path d="M54.84,457.56c125-.61,265.29-.62,390.32,0-125,.61-265.29.61-390.32,0Z" style="fill:#263238"></path></g></svg>
