<?xml version="1.0" encoding="UTF-8" standalone="no" ?>
<!DOCTYPE svg PUBLIC "-//W3C//DTD SVG 1.1//EN" "http://www.w3.org/Graphics/SVG/1.1/DTD/svg11.dtd">
<svg xmlns="http://www.w3.org/2000/svg" xmlns:xlink="http://www.w3.org/1999/xlink" version="1.1" width="300" height="300" viewBox="0 0 640 640" xml:space="preserve">
<desc>Created with Fabric.js 5.3.0</desc>
<defs>
</defs>
<g transform="matrix(0.733279721 0 0 0.733279721 369.5161393515 263.3993806709)" id="yNHJZWp3X_BJ344WiJNLC"  >
<g style=""   >
		<g transform="matrix(1 0 0 1 1.7585 172.036)" id="-2XTa8GX5ZvNKX2CwdqQb"  >
<path style="stroke: none; stroke-width: 1; stroke-dasharray: none; stroke-linecap: butt; stroke-dashoffset: 0; stroke-linejoin: miter; stroke-miterlimit: 4; fill: rgb(114,118,122); fill-rule: nonzero; opacity: 1;"  transform=" translate(-301.7585, -472.036)" d="M 369.759 517.104 L 233.758 517.104 L 246.596 472.14200000000005 L 354.762 472.14200000000005 L 369.759 517.104 z M 304.115 458.657 C 312.85200000000003 458.657 319.96000000000004 451.554 319.96000000000004 442.817 C 319.96000000000004 434.071 312.853 426.968 304.115 426.968 C 295.384 426.968 288.262 434.071 288.262 442.817 C 288.262 451.555 295.384 458.657 304.115 458.657 z" stroke-linecap="round" />
</g>
		<g transform="matrix(1 0 0 1 0 0)" id="9fxFlBK_MofRcJWCIpV3c"  >
<path style="stroke: none; stroke-width: 1; stroke-dasharray: none; stroke-linecap: butt; stroke-dashoffset: 0; stroke-linejoin: miter; stroke-miterlimit: 4; fill: rgb(186,186,186); fill-rule: nonzero; opacity: 1;"  transform=" translate(-300, -300)" d="M 436.179 534.994 C 436.179 542.9300000000001 429.71299999999997 549.4 421.772 549.4 L 182.995 549.4 C 175.05 549.4 168.59300000000002 542.929 168.59300000000002 534.994 C 168.59300000000002 527.053 175.05 520.587 182.995 520.587 L 421.772 520.587 C 429.713 520.587 436.179 527.053 436.179 534.994 z M 596.512 50.6 L 596.512 468.654 L 3.488 468.654 L 3.488 50.6 L 596.512 50.6 z M 323.055 442.817 C 323.055 432.38 314.562 423.883 304.116 423.883 C 293.676 423.883 285.178 432.38 285.178 442.817 C 285.178 453.26300000000003 293.676 461.747 304.116 461.747 C 314.562 461.747 323.055 453.264 323.055 442.817 z M 564.238 84.535 L 43.983 84.535 L 43.983 414.46799999999996 L 564.2379999999999 414.46799999999996 L 564.2379999999999 84.535 z" stroke-linecap="round" />
</g>
		<g transform="matrix(1 0 0 1 0 0)" id="tzS9z4rU_jTHYnIQgR1DD"  >
<path style="stroke: none; stroke-width: 1; stroke-dasharray: none; stroke-linecap: butt; stroke-dashoffset: 0; stroke-linejoin: miter; stroke-miterlimit: 4; fill: rgb(49,77,109); fill-rule: nonzero; opacity: 1;"  transform=" translate(-300, -300)" d="M 600 47.12 L 0 47.12 L 0 472.141 L 242.973 472.141 L 230.12300000000002 517.1030000000001 L 182.995 517.1030000000001 C 173.135 517.1030000000001 165.1 525.124 165.1 534.994 C 165.1 544.859 173.135 552.88 182.995 552.88 L 421.772 552.88 C 431.642 552.88 439.658 544.859 439.658 534.994 C 439.658 525.124 431.642 517.1030000000001 421.772 517.1030000000001 L 373.425 517.1030000000001 L 358.443 472.1410000000001 L 600 472.1410000000001 L 600 47.12 z M 596.512 468.653 L 3.488 468.653 L 3.488 50.6 L 596.5110000000001 50.6 L 596.5110000000001 468.653 z M 421.771 520.587 C 429.712 520.587 436.178 527.053 436.178 534.994 C 436.178 542.9300000000001 429.712 549.4 421.771 549.4 L 182.995 549.4 C 175.05 549.4 168.59300000000002 542.929 168.59300000000002 534.994 C 168.59300000000002 527.053 175.05 520.587 182.995 520.587 L 421.771 520.587 z M 233.758 517.104 L 246.596 472.14200000000005 L 354.762 472.14200000000005 L 369.759 517.104 L 233.758 517.104 z M 564.238 84.535 L 43.983 84.535 L 43.983 414.46799999999996 L 564.2379999999999 414.46799999999996 L 564.2379999999999 84.535 z M 560.755 410.975 L 47.477 410.975 L 47.477 88.027 L 560.755 88.027 L 560.755 410.975 z M 304.115 423.884 C 293.675 423.884 285.177 432.38100000000003 285.177 442.81800000000004 C 285.177 453.26400000000007 293.675 461.74800000000005 304.115 461.74800000000005 C 314.56100000000004 461.74800000000005 323.05400000000003 453.26500000000004 323.05400000000003 442.81800000000004 C 323.055 432.381 314.562 423.884 304.115 423.884 z M 304.115 458.657 C 295.384 458.657 288.262 451.554 288.262 442.817 C 288.262 434.071 295.384 426.968 304.115 426.968 C 312.85200000000003 426.968 319.96000000000004 434.071 319.96000000000004 442.817 C 319.96 451.555 312.853 458.657 304.115 458.657 z" stroke-linecap="round" />
</g>
</g>
</g>
<g transform="matrix(8.1328028913 0 0 5.11632925 372.4937937761 226.2831922456)" id="E59o6mhciO43dPWWTSWGf"  >
<path style="stroke: rgb(85,42,59); stroke-width: 0; stroke-dasharray: none; stroke-linecap: butt; stroke-dashoffset: 0; stroke-linejoin: miter; stroke-miterlimit: 4; fill: rgb(91,91,91); fill-rule: nonzero; opacity: 1;"  transform=" translate(0, 0)" d="M -23.14815 -23.14815 L 23.14815 -23.14815 L 23.14815 23.14815 L -23.14815 23.14815 z" stroke-linecap="round" />
</g>
<g transform="matrix(0.6469728903 0 0 0.6469728903 287.8071100843 114.5632689468)" id="My6m_JsWrcSXrCkarF25w"  >
<path style="stroke: rgb(85,42,59); stroke-width: 0; stroke-dasharray: none; stroke-linecap: butt; stroke-dashoffset: 0; stroke-linejoin: miter; stroke-miterlimit: 4; fill: rgb(215,251,232); fill-rule: nonzero; opacity: 1;"  transform=" translate(0, 0)" d="M 0 -54.7779 C 30.2374 -54.7779 54.7779 -30.2374 54.7779 0 C 54.7779 30.2374 30.2374 54.7779 0 54.7779 C -30.2374 54.7779 -54.7779 30.2374 -54.7779 0 C -54.7779 -30.2374 -30.2374 -54.7779 0 -54.7779 z" stroke-linecap="round" />
</g>
<g transform="matrix(0.5002011468 0 0 0.5002011468 288.0314121157 114.3389657239)" id="PGBX82E4QUcjQG4a62Yft"  >
<path style="stroke: rgb(85,42,59); stroke-width: 0; stroke-dasharray: none; stroke-linecap: butt; stroke-dashoffset: 0; stroke-linejoin: miter; stroke-miterlimit: 4; fill: rgb(98,210,162); fill-rule: nonzero; opacity: 1;"  transform=" translate(0, 0)" d="M 0 -54.7779 C 30.2374 -54.7779 54.7779 -30.2374 54.7779 0 C 54.7779 30.2374 30.2374 54.7779 0 54.7779 C -30.2374 54.7779 -54.7779 30.2374 -54.7779 0 C -54.7779 -30.2374 -30.2374 -54.7779 0 -54.7779 z" stroke-linecap="round" />
</g>
<g transform="matrix(0.6469728903 0 0 0.6469728903 462.202406764 114.5632672887)" id="vha3kLw6nPMVQ9x0rLFlA"  >
<path style="stroke: rgb(85,42,59); stroke-width: 0; stroke-dasharray: none; stroke-linecap: butt; stroke-dashoffset: 0; stroke-linejoin: miter; stroke-miterlimit: 4; fill: rgb(215,251,232); fill-rule: nonzero; opacity: 1;"  transform=" translate(0, 0)" d="M 0 -54.7779 C 30.2374 -54.7779 54.7779 -30.2374 54.7779 0 C 54.7779 30.2374 30.2374 54.7779 0 54.7779 C -30.2374 54.7779 -54.7779 30.2374 -54.7779 0 C -54.7779 -30.2374 -30.2374 -54.7779 0 -54.7779 z" stroke-linecap="round" />
</g>
<g transform="matrix(0.5002011468 0 0 0.5002011468 462.4267087954 114.3389640657)" id="Z3NYGKWnKVBN7TqfsaUIz"  >
<path style="stroke: rgb(85,42,59); stroke-width: 0; stroke-dasharray: none; stroke-linecap: butt; stroke-dashoffset: 0; stroke-linejoin: miter; stroke-miterlimit: 4; fill: rgb(98,210,162); fill-rule: nonzero; opacity: 1;"  transform=" translate(0, 0)" d="M 0 -54.7779 C 30.2374 -54.7779 54.7779 -30.2374 54.7779 0 C 54.7779 30.2374 30.2374 54.7779 0 54.7779 C -30.2374 54.7779 -54.7779 30.2374 -54.7779 0 C -54.7779 -30.2374 -30.2374 -54.7779 0 -54.7779 z" stroke-linecap="round" />
</g>
<g transform="matrix(0.7975950816 0 0 0.7975950816 375.0047592532 194.8451895679)" id="-cNEtsvWsJEBozBg6W1gH"  >
<path style="stroke: rgb(139,246,2); stroke-width: 0; stroke-dasharray: none; stroke-linecap: butt; stroke-dashoffset: 0; stroke-linejoin: miter; stroke-miterlimit: 4; fill: rgb(215,251,232); fill-rule: nonzero; opacity: 1;"  transform=" translate(0, 0)" d="M 0 -130.70422 C 90.32945 -130.70422 163.6403 -53.233019999999996 163.6403 37.09643 C 163.6403 127.42587999999999 90.32945 130.70423 0 130.70423 C -90.32945 130.70423 -163.6403 127.42587999999999 -163.6403 37.09643 C -163.6403 -53.233019999999996 -90.32945 -130.70422 0 -130.70422 z" stroke-linecap="round" />
</g>
<g transform="matrix(0.6469728903 0 0 0.6469728903 375.0047592532 195.0006300951)" id="gEN9C32UJKeHibBVvvh9z"  >
<path style="stroke: rgb(139,246,2); stroke-width: 0; stroke-dasharray: none; stroke-linecap: butt; stroke-dashoffset: 0; stroke-linejoin: miter; stroke-miterlimit: 4; fill: rgb(215,251,232); fill-rule: nonzero; opacity: 1;"  transform=" translate(0, 0)" d="M 0 -126.90735 C 90.32945 -126.90735 163.6403 -49.43615 163.6403 40.893299999999996 C 163.6403 131.22275 90.32945 126.87379 0 126.87379 C -90.32945 126.87379 -163.6403 131.22274 -163.6403 40.893299999999996 C -163.6403 -49.43615 -90.32945 -126.90735 0 -126.90735 z" stroke-linecap="round" />
</g>
<g transform="matrix(0.6469728903 0 0 0.6469728903 330.1442338157 173.6919658093)" id="tiBCQs1Oo6wh31dcCq1Ec"  >
<path style="stroke: rgb(188,9,197); stroke-width: 0; stroke-dasharray: none; stroke-linecap: butt; stroke-dashoffset: 0; stroke-linejoin: miter; stroke-miterlimit: 4; fill: rgb(85,42,59); fill-rule: nonzero; opacity: 1;"  transform=" translate(0, 0)" d="M 0 -20.11116 C 19.13759 -20.11116 34.66956 -4.579200000000002 34.66956 14.558399999999995 C 34.66956 33.695989999999995 16.364029999999996 -2.776380000000003 -2.7735600000000034 -2.776380000000003 C -21.911150000000003 -2.776380000000003 -34.66955 33.695989999999995 -34.66955 14.558399999999995 C -34.66955 -4.579190000000004 -19.137590000000003 -20.11116 0.000009999999996068709 -20.11116 z" stroke-linecap="round" />
</g>
<g transform="matrix(0.6469728903 0 0 0.6469728903 422.2975663043 173.6919650203)" id="ItleNULTfAn8ih-xdxU2U"  >
<path style="stroke: rgb(188,9,197); stroke-width: 0; stroke-dasharray: none; stroke-linecap: butt; stroke-dashoffset: 0; stroke-linejoin: miter; stroke-miterlimit: 4; fill: rgb(85,42,59); fill-rule: nonzero; opacity: 1;"  transform=" translate(0, 0)" d="M 0 -20.11116 C 19.13759 -20.11116 34.66956 -4.579200000000002 34.66956 14.558399999999995 C 34.66956 33.695989999999995 16.364029999999996 -2.776380000000003 -2.7735600000000034 -2.776380000000003 C -21.911150000000003 -2.776380000000003 -34.66955 33.695989999999995 -34.66955 14.558399999999995 C -34.66955 -4.579190000000004 -19.137590000000003 -20.11116 0.000009999999996068709 -20.11116 z" stroke-linecap="round" />
</g>
<g transform="matrix(0.6469728903 0 0 0.6469728903 375.0047592532 226.371119154)" id="kj28tQKtGwydMaPzmY5qs"  >
<path style="stroke: rgb(85,42,59); stroke-width: 0; stroke-dasharray: none; stroke-linecap: butt; stroke-dashoffset: 0; stroke-linejoin: miter; stroke-miterlimit: 4; fill: rgb(98,210,162); fill-rule: nonzero; opacity: 1;"  transform=" translate(0, 0)" d="M 3.12026 -52.4052 C 37.567930000000004 -52.4052 60 -42.04248 60 -7.5948100000000025 C 60 26.85286 34.44767 52.40519 0 52.40519 C -34.44767 52.40519 -60 26.852859999999996 -60 -7.5948100000000025 C -60 -42.042480000000005 -31.32741 -52.4052 3.120260000000002 -52.4052 z" stroke-linecap="round" />
</g>
<g transform="matrix(0.6469728903 0 0 0.6469728903 375.2290618804 217.6771214153)" id="MzNcu_yyTpnViWvJQtjpt"  >
<path style="stroke: rgb(59,68,215); stroke-width: 0; stroke-dasharray: none; stroke-linecap: butt; stroke-dashoffset: 0; stroke-linejoin: miter; stroke-miterlimit: 4; fill: rgb(85,42,59); fill-rule: nonzero; opacity: 1;"  transform=" translate(0, 0)" d="M -0.3467 -14.60623 C 18.79089 -14.60623 24.615380000000002 -23.342959999999998 24.615380000000002 -4.205360000000001 C 24.615380000000002 14.932229999999999 18.79089 16.59637 -0.34669999999999845 16.59637 C -19.484289999999998 16.59637 -24.615389999999998 14.93223 -24.615389999999998 -4.205359999999999 C -24.615389999999998 -23.34295 -19.484299999999998 -14.606229999999998 -0.34669999999999845 -14.606229999999998 z" stroke-linecap="round" />
</g>
<g transform="matrix(1.5567393712 0.7259194906 -0.3529441018 0.7568910688 250.9873984337 286.1258072771)" id="SF1XClWip4EF-cNFy0mmN"  >
<path style="stroke: rgb(85,42,59); stroke-width: 0; stroke-dasharray: none; stroke-linecap: butt; stroke-dashoffset: 0; stroke-linejoin: miter; stroke-miterlimit: 4; fill: rgb(215,251,232); fill-rule: nonzero; opacity: 1;"  transform=" translate(0, 0)" d="M -52.01432 -22.85747 C -51.82854 -31.23182 -49.773689999999995 -38.96091 -46.446079999999995 -43.80182 C -43.118469999999995 -48.64272 -38.890719999999995 -50.05335 -34.9897 -47.62435 L -9.05454 -31.47566 L 2.49967 -27.424500000000002 L 2.49967 -27.424500000000002 C 5.17892 -26.485100000000003 7.92195 -26.64214 10.57165 -27.88663 L 36.20717 -39.92696 L 46.91437 -31.79123 L 46.91437 -31.79123 C 50.747209999999995 -28.878899999999998 52.847519999999996 -20.39571 51.738299999999995 -12.30733 L 45.438779999999994 33.62849 L 29.698479999999996 48.79009 L -9.435860000000005 35.93139 L -39.26995000000001 15.37605 L -39.26995000000001 15.37605 C -47.193340000000006 9.916929999999999 -52.39519000000001 -5.68882 -52.01431000000001 -22.857480000000002 z" stroke-linecap="round" />
</g>
<g transform="matrix(0.6469728903 0 0 0.6469728903 362.2878548519 237.8754615486)" id="biauu6H8GR-NgJGYL10zB"  >
<path style="stroke: rgb(85,42,59); stroke-width: 5; stroke-dasharray: none; stroke-linecap: butt; stroke-dashoffset: 0; stroke-linejoin: miter; stroke-miterlimit: 4; fill: rgb(255,255,255); fill-opacity: 0; fill-rule: nonzero; opacity: 1;"  transform=" translate(0, 0)" d="M 20.0027 -14.6234 C 20.0027 -14.6234 26.8066 13.236609999999999 -20.343999999999998 14.62339" stroke-linecap="round" />
</g>
<g transform="matrix(-0.6469728903 0 0 0.6469728903 388.2437961419 238.0372039715)" id="L0Yi02oMLAVJkSap8HK6o"  >
<path style="stroke: rgb(85,42,59); stroke-width: 5; stroke-dasharray: none; stroke-linecap: butt; stroke-dashoffset: 0; stroke-linejoin: miter; stroke-miterlimit: 4; fill: rgb(255,255,255); fill-opacity: 0; fill-rule: nonzero; opacity: 1;"  transform=" translate(0, 0)" d="M 18.90288 -14.3734 C 18.90288 -14.3734 27.61364 12.986609999999999 -19.53695 14.37339" stroke-linecap="round" />
</g>
<g transform="matrix(0.0625906695 0 0 0.0448690501 452.6415060885 208.5180290603)" id="5lBQuu3CILOMGqq_2FYoR"  >
<path style="stroke: rgb(85,42,59); stroke-width: 0; stroke-dasharray: none; stroke-linecap: butt; stroke-dashoffset: 0; stroke-linejoin: miter; stroke-miterlimit: 4; fill: rgb(98,210,162); fill-rule: nonzero; opacity: 1;"  transform=" translate(0, 0)" d="M 4.83044 -56.70797 C 50.952040000000004 -56.70797 120.5 -19.27595 120.5 26.845659999999995 C 120.5 72.96726 46.1216 51.91175 0 51.91175 C -46.1216 51.91175 -120.5 72.96726 -120.5 26.84566 C -120.5 -19.275940000000002 -41.291160000000005 -56.70797 4.830439999999996 -56.70797 z" stroke-linecap="round" />
</g>
<g transform="matrix(0.0625906695 0 0 0.0448690501 299.2079209482 208.5180290603)" id="Sbo1UwZmxLKSxQ08LFp5C"  >
<path style="stroke: rgb(85,42,59); stroke-width: 0; stroke-dasharray: none; stroke-linecap: butt; stroke-dashoffset: 0; stroke-linejoin: miter; stroke-miterlimit: 4; fill: rgb(98,210,162); fill-rule: nonzero; opacity: 1;"  transform=" translate(0, 0)" d="M 4.83044 -56.70797 C 50.952040000000004 -56.70797 120.5 -19.27595 120.5 26.845659999999995 C 120.5 72.96726 46.1216 51.91175 0 51.91175 C -46.1216 51.91175 -120.5 72.96726 -120.5 26.84566 C -120.5 -19.275940000000002 -41.291160000000005 -56.70797 4.830439999999996 -56.70797 z" stroke-linecap="round" />
</g>
<g transform="matrix(1.3280828257 0 0 0.675437475 384.5264956196 306.5129879914)" id="PQKsxNWLwOln8PLiYjYyY"  >
<path style="stroke: rgb(85,42,59); stroke-width: 0; stroke-dasharray: none; stroke-linecap: butt; stroke-dashoffset: 0; stroke-linejoin: miter; stroke-miterlimit: 4; fill: rgb(215,251,232); fill-rule: nonzero; opacity: 1;"  transform=" translate(0, 0)" d="M -56.51137 -3.22968 C -56.51137 -32.65634 -44.37916 -56.51137 -29.41332 -56.51137 L 29.413330000000002 -56.51137 L 29.413330000000002 -56.51137 C 44.37917 -56.51137 56.51138 -32.65635 56.51138 -3.229680000000002 L 56.51138 56.51137 L -56.511359999999996 56.51137 z" stroke-linecap="round" />
</g>
<g transform="matrix(0.6541081823 0 0 0.5761459875 466.5221146197 323.6713192159)" id="cCfRoNBl8NnBI2WZSNP7P"  >
<path style="stroke: rgb(85,42,59); stroke-width: 0; stroke-dasharray: none; stroke-linecap: butt; stroke-dashoffset: 0; stroke-linejoin: miter; stroke-miterlimit: 4; fill: rgb(215,251,232); fill-rule: nonzero; opacity: 1;"  transform=" translate(0, 0)" d="M -56.51137 -3.13908 C -56.51137 -32.61578 -35.46386 -56.51137 -9.50045 -56.51137 L 9.500439999999998 -56.51137 L 9.500439999999998 -56.51137 C 35.46386 -56.51137 56.511359999999996 -32.61578 56.511359999999996 -3.13908 L 56.511359999999996 3.1390900000000004 L 56.511359999999996 3.1390900000000004 C 56.511359999999996 32.615790000000004 35.463849999999994 56.51138 9.500439999999998 56.51138 L -9.50045 56.51138 L -9.50045 56.51138 C -35.46387 56.51138 -56.51137 32.615790000000004 -56.51137 3.139090000000003 z" stroke-linecap="round" />
</g>
<g transform="matrix(0.1572223527 -0.1628085122 0.1434795886 0.1385566282 197.946349734 246.3867056819)" id="7mzQDkpM7aKhA9N1dmODs"  >
<path style="stroke: rgb(85,42,59); stroke-width: 0; stroke-dasharray: none; stroke-linecap: butt; stroke-dashoffset: 0; stroke-linejoin: miter; stroke-miterlimit: 4; fill: rgb(91,91,91); fill-rule: nonzero; opacity: 1;"  transform=" translate(0, 0)" d="M -30.07504 -12.78082 C -21.03635 -22.10256 -13.99991 -34.54868 0 -34.54868 C 10.44641 -34.54868 22.95266 -18.291809999999998 30.9576 -12.780819999999999 C 43.98334 -3.813259999999998 49.7191 -1.8281199999999984 49.7191 15.17042 C 49.7191 42.615359999999995 27.44494 32.86705 0 32.86705 C -27.44494 32.86705 -49.7191 42.615359999999995 -49.7191 15.17042 C -49.7191 1.7253900000000009 -38.75548 -3.82855 -30.075039999999998 -12.780819999999999 z" stroke-linecap="round" />
</g>
<g transform="matrix(0.0283727483 -0.0637262361 0.0901852548 0.0401530624 186.4466439743 241.8071386457)" id="Shi-HYQ44dcSDBRHcVtVo"  >
<path style="stroke: rgb(85,42,59); stroke-width: 0; stroke-dasharray: none; stroke-linecap: butt; stroke-dashoffset: 0; stroke-linejoin: miter; stroke-miterlimit: 4; fill: rgb(91,91,91); fill-rule: nonzero; opacity: 1;"  transform=" translate(0, 0)" d="M 0 -34.54869 C 27.44494 -34.54869 49.7191 -12.274530000000002 49.7191 15.170409999999997 C 49.7191 42.61534999999999 27.44494 32.867039999999996 0 32.867039999999996 C -27.44494 32.867039999999996 -49.7191 42.61534999999999 -49.7191 15.170409999999997 C -49.7191 -12.274530000000002 -27.44494 -34.54869 0 -34.54869 z" stroke-linecap="round" />
</g>
<g transform="matrix(0.0072915972 -0.0693749135 0.0981792529 0.0103190553 185.3752640893 251.0743926979)" id="sRpO5166wBhCBcKeeEZEd"  >
<path style="stroke: rgb(85,42,59); stroke-width: 0; stroke-dasharray: none; stroke-linecap: butt; stroke-dashoffset: 0; stroke-linejoin: miter; stroke-miterlimit: 4; fill: rgb(91,91,91); fill-rule: nonzero; opacity: 1;"  transform=" translate(0, 0)" d="M 0 -34.54869 C 27.44494 -34.54869 49.7191 -12.274530000000002 49.7191 15.170409999999997 C 49.7191 42.61534999999999 27.44494 32.867039999999996 0 32.867039999999996 C -27.44494 32.867039999999996 -49.7191 42.61534999999999 -49.7191 15.170409999999997 C -49.7191 -12.274530000000002 -27.44494 -34.54869 0 -34.54869 z" stroke-linecap="round" />
</g>
<g transform="matrix(-0.0626972212 0.030579478 0.0432760222 0.0887289947 193.1877648768 234.6626570216)" id="AB_eO_e0vvxO7wiT5Br3K"  >
<path style="stroke: rgb(85,42,59); stroke-width: 0; stroke-dasharray: none; stroke-linecap: butt; stroke-dashoffset: 0; stroke-linejoin: miter; stroke-miterlimit: 4; fill: rgb(91,91,91); fill-rule: nonzero; opacity: 1;"  transform=" translate(0, 0)" d="M 0 -34.54869 C 27.44494 -34.54869 49.7191 -12.274530000000002 49.7191 15.170409999999997 C 49.7191 42.61534999999999 27.44494 32.867039999999996 0 32.867039999999996 C -27.44494 32.867039999999996 -49.7191 42.61534999999999 -49.7191 15.170409999999997 C -49.7191 -12.274530000000002 -27.44494 -34.54869 0 -34.54869 z" stroke-linecap="round" />
</g>
<g transform="matrix(-0.0690781791 0.009708305 0.0137391757 0.0977593149 202.0987867731 233.5928314248)" id="1CSYzhUssrKZ-HTkm1qjU"  >
<path style="stroke: rgb(85,42,59); stroke-width: 0; stroke-dasharray: none; stroke-linecap: butt; stroke-dashoffset: 0; stroke-linejoin: miter; stroke-miterlimit: 4; fill: rgb(91,91,91); fill-rule: nonzero; opacity: 1;"  transform=" translate(0, 0)" d="M 0 -34.54869 C 27.44494 -34.54869 49.7191 -12.274530000000002 49.7191 15.170409999999997 C 49.7191 42.61534999999999 27.44494 32.867039999999996 0 32.867039999999996 C -27.44494 32.867039999999996 -49.7191 42.61534999999999 -49.7191 15.170409999999997 C -49.7191 -12.274530000000002 -27.44494 -34.54869 0 -34.54869 z" stroke-linecap="round" />
</g>
<g transform="matrix(0.8264023843 0 0 1.4686024346 579.6611271047 361.3089198213)" id="9akpBBQvh2JF9bYZMkjDR"  >
<path style="stroke: rgb(85,42,59); stroke-width: 0; stroke-dasharray: none; stroke-linecap: butt; stroke-dashoffset: 0; stroke-linejoin: miter; stroke-miterlimit: 4; fill: rgb(91,91,91); fill-rule: nonzero; opacity: 1;"  transform=" translate(0, 0)" d="M -62.80488 -57.35256 C -62.80488 -60.363789999999995 -58.46682 -62.804869999999994 -53.11555 -62.804869999999994 L 53.11556 -62.804869999999994 L 53.11556 -62.804869999999994 C 58.46683 -62.804869999999994 62.80489 -60.363789999999995 62.80489 -57.35256 L 62.80489 57.35257 L 62.80489 57.35257 C 62.80489 60.3638 58.46683 62.80488 53.11556 62.80488 L -53.11555 62.80488 L -53.11555 62.80488 C -58.46682 62.80488 -62.80488 60.3638 -62.80488 57.35257 z" stroke-linecap="round" />
</g>
<g transform="matrix(0.7181537034 0 0 1.2410743167 579.6611271047 355.9717371641)" id="Du2ZWCROzWLcuRya2Jm0c"  >
<path style="stroke: rgb(85,42,59); stroke-width: 0; stroke-dasharray: none; stroke-linecap: butt; stroke-dashoffset: 0; stroke-linejoin: miter; stroke-miterlimit: 4; fill: rgb(204,204,204); fill-rule: nonzero; opacity: 1;"  transform=" translate(0, 0)" d="M -62.80488 -57.1981 C -62.80488 -60.294639999999994 -58.46682 -62.80488 -53.11555 -62.80488 L 53.11556 -62.80488 L 53.11556 -62.80488 C 58.46683 -62.80488 62.80489 -60.294639999999994 62.80489 -57.1981 L 62.80489 57.19811 L 62.80489 57.19811 C 62.80489 60.29465 58.46683 62.80489 53.11556 62.80489 L -53.11555 62.80489 L -53.11555 62.80489 C -58.46682 62.80489 -62.80488 60.29465 -62.80488 57.19811 z" stroke-linecap="round" />
</g>
<g transform="matrix(0.2671136894 0 0 0.2671136894 579.6611271047 444.302808941)" id="7t4OOGisMZLo7QR--aJt0"  >
<path style="stroke: rgb(85,42,59); stroke-width: 0; stroke-dasharray: none; stroke-linecap: butt; stroke-dashoffset: 0; stroke-linejoin: miter; stroke-miterlimit: 4; fill: rgb(204,204,204); fill-rule: nonzero; opacity: 1;"  transform=" translate(0, 0)" d="M 0 -20.83333 C 11.5 -20.83333 20.83333 -11.5 20.83333 0 C 20.83333 11.5 11.5 20.83333 0 20.83333 C -11.5 20.83333 -20.83333 11.5 -20.83333 0 C -20.83333 -11.5 -11.5 -20.83333 0 -20.83333 z" stroke-linecap="round" />
</g>
<g transform="matrix(1.9119985674 0 0 1.4686024345 129.3504390621 356.9624040588)" id="gbdoWVD3JvbRphgBCdiFY"  >
<path style="stroke: rgb(85,42,59); stroke-width: 0; stroke-dasharray: none; stroke-linecap: butt; stroke-dashoffset: 0; stroke-linejoin: miter; stroke-miterlimit: 4; fill: rgb(91,91,91); fill-rule: nonzero; opacity: 1;"  transform=" translate(0, 0)" d="M -62.80488 -57.35256 C -62.80488 -58.79859999999999 -62.36365 -60.18541999999999 -61.578269999999996 -61.20793 C -60.79288 -62.230439999999994 -59.727669999999996 -62.80488 -58.616969999999995 -62.80488 L 58.616960000000006 -62.80488 L 58.616960000000006 -62.80488 C 59.72766000000001 -62.80488 60.792880000000004 -62.230439999999994 61.57826000000001 -61.20793 C 62.36365000000001 -60.18542 62.80487000000001 -58.79861 62.80487000000001 -57.35256 L 62.80487000000001 57.35257 L 62.80487000000001 57.35257 C 62.80487000000001 60.3638 60.92988000000001 62.80488 58.616960000000006 62.80488 L -58.616969999999995 62.80488 L -58.616969999999995 62.80488 C -60.92988999999999 62.80488 -62.80488 60.3638 -62.80488 57.35257 z" stroke-linecap="round" />
</g>
<g transform="matrix(1.7446876834 0 0 1.2192442245 129.4399001324 352.9962577106)" id="IybnLALsa1XPb-B4DFR0G"  >
<path style="stroke: rgb(85,42,59); stroke-width: 0; stroke-dasharray: none; stroke-linecap: butt; stroke-dashoffset: 0; stroke-linejoin: miter; stroke-miterlimit: 4; fill: rgb(204,204,204); fill-rule: nonzero; opacity: 1;"  transform=" translate(0, 0)" d="M -62.80488 -57.09772 C -62.80488 -60.249700000000004 -61.01923 -62.804880000000004 -58.81653 -62.804880000000004 L 58.81653 -62.804880000000004 L 58.81653 -62.804880000000004 C 61.01923 -62.804880000000004 62.80488 -60.249700000000004 62.80488 -57.09772 L 62.80488 57.09771 L 62.80488 57.09771 C 62.80488 60.24969 61.01923 62.80487 58.81653 62.80487 L -58.81653 62.80487 L -58.81653 62.80487 C -61.01923 62.80487 -62.80488 60.24969 -62.80488 57.09771 z" stroke-linecap="round" />
</g>
<g transform="matrix(0.2671134927 0 0 0.2735266374 129.3504390621 438.0015426724)" id="aUZ-qNnmHThmOPm4WXG3p"  >
<path style="stroke: rgb(85,42,59); stroke-width: 0; stroke-dasharray: none; stroke-linecap: butt; stroke-dashoffset: 0; stroke-linejoin: miter; stroke-miterlimit: 4; fill: rgb(204,204,204); fill-rule: nonzero; opacity: 1;"  transform=" translate(0, 0)" d="M 0 -20.83333 C 11.5 -20.83333 20.83333 -11.5 20.83333 0 C 20.83333 11.5 11.5 20.83333 0 20.83333 C -11.5 20.83333 -20.83333 11.5 -20.83333 0 C -20.83333 -11.5 -11.5 -20.83333 0 -20.83333 z" stroke-linecap="round" />
</g>
<g transform="matrix(1.7019954965 0 0 1.7019954965 124.2767295597 356.0018634987)" id="sPQPBiASL8IinJvA5DF6r"  >
<g style=""   >
		<g transform="matrix(1 0 0 1 0 0)" id="CFnKkgEgHb9_GscEB6OhE"  >
<path style="stroke: none; stroke-width: 1; stroke-dasharray: none; stroke-linecap: butt; stroke-dashoffset: 0; stroke-linejoin: miter; stroke-miterlimit: 4; fill: rgb(179,181,179); fill-rule: nonzero; opacity: 1;"  transform=" translate(-40, -40)" d="M 80 33.5 C 80 37.4 76.8 40.6 72.9 40.6 C 70.7 40.6 68.80000000000001 39.6 67.5 38.1 L 58.3 43.7 C 58.599999999999994 44.5 58.8 45.400000000000006 58.8 46.400000000000006 C 58.8 50.300000000000004 55.599999999999994 53.50000000000001 51.699999999999996 53.50000000000001 C 47.8 53.50000000000001 44.599999999999994 50.300000000000004 44.599999999999994 46.400000000000006 C 44.599999999999994 45.60000000000001 44.8 44.800000000000004 44.99999999999999 44.00000000000001 L 33.9 38 C 32.6 39.7 30.599999999999998 40.7 28.299999999999997 40.7 C 26.099999999999998 40.7 24.199999999999996 39.7 22.9 38.2 L 13.7 43.800000000000004 C 14 44.6 14.2 45.50000000000001 14.2 46.50000000000001 C 14.2 50.400000000000006 11 53.60000000000001 7.1 53.60000000000001 C 3.1999999999999997 53.60000000000001 0 50.400000000000006 0 46.50000000000001 C 0 42.60000000000001 3.2 39.400000000000006 7.1 39.400000000000006 C 9.3 39.400000000000006 11.2 40.400000000000006 12.5 41.900000000000006 L 21.7 36.300000000000004 C 21.4 35.50000000000001 21.2 34.6 21.2 33.6 C 21.2 29.700000000000003 24.4 26.5 28.299999999999997 26.5 C 32.199999999999996 26.5 35.4 29.7 35.4 33.6 C 35.4 34.4 35.199999999999996 35.2 35 36 L 46.1 42 C 47.4 40.3 49.4 39.3 51.7 39.3 C 53.900000000000006 39.3 55.800000000000004 40.3 57.1 41.8 L 66.3 36.199999999999996 C 66 35.4 65.8 34.49999999999999 65.8 33.49999999999999 C 65.8 29.599999999999994 69 26.39999999999999 72.89999999999999 26.39999999999999 C 76.8 26.4 80 29.6 80 33.5 z" stroke-linecap="round" />
</g>
		<g transform="matrix(1 0 0 1 32.9 -6.5)" id="pfbrMzPnsgVoaV3tPWVvB"  >
<path style="stroke: none; stroke-width: 1; stroke-dasharray: none; stroke-linecap: butt; stroke-dashoffset: 0; stroke-linejoin: miter; stroke-miterlimit: 4; fill: rgb(255,255,255); fill-rule: nonzero; opacity: 1;"  transform=" translate(-72.9, -33.5)" d="M 72.9 30.2 C 71.10000000000001 30.2 69.60000000000001 31.7 69.60000000000001 33.5 C 69.60000000000001 35.3 71.10000000000001 36.8 72.9 36.8 C 74.7 36.8 76.2 35.3 76.2 33.5 C 76.2 31.7 74.7 30.2 72.9 30.2 z" stroke-linecap="round" />
</g>
		<g transform="matrix(1 0 0 1 11.7 6.4)" id="1hujHEDbfHzLXQUE4w8Yc"  >
<path style="stroke: none; stroke-width: 1; stroke-dasharray: none; stroke-linecap: butt; stroke-dashoffset: 0; stroke-linejoin: miter; stroke-miterlimit: 4; fill: rgb(255,255,255); fill-rule: nonzero; opacity: 1;"  transform=" translate(-51.7, -46.4)" d="M 51.7 43.1 C 49.900000000000006 43.1 48.400000000000006 44.6 48.400000000000006 46.4 C 48.400000000000006 48.199999999999996 49.900000000000006 49.699999999999996 51.7 49.699999999999996 C 53.5 49.699999999999996 55 48.199999999999996 55 46.4 C 55 44.6 53.5 43.1 51.7 43.1 z" stroke-linecap="round" />
</g>
		<g transform="matrix(1 0 0 1 -11.7 -6.5)" id="Scby_cxbmMthDcNVIiwxT"  >
<path style="stroke: none; stroke-width: 1; stroke-dasharray: none; stroke-linecap: butt; stroke-dashoffset: 0; stroke-linejoin: miter; stroke-miterlimit: 4; fill: rgb(255,255,255); fill-rule: nonzero; opacity: 1;"  transform=" translate(-28.3, -33.5)" d="M 28.3 30.2 C 26.5 30.2 25 31.7 25 33.5 C 25 35.3 26.5 36.8 28.3 36.8 C 30.1 36.8 31.6 35.3 31.6 33.5 C 31.6 31.7 30.1 30.2 28.3 30.2 z" stroke-linecap="round" />
</g>
		<g transform="matrix(1 0 0 1 -32.8 6.5)" id="zUg96y13W4iRKL5Y_lDRW"  >
<path style="stroke: none; stroke-width: 1; stroke-dasharray: none; stroke-linecap: butt; stroke-dashoffset: 0; stroke-linejoin: miter; stroke-miterlimit: 4; fill: rgb(255,255,255); fill-rule: nonzero; opacity: 1;"  transform=" translate(-7.2, -46.5)" d="M 10.5 46.5 C 10.5 48.3 9 49.8 7.2 49.8 C 5.4 49.8 3.9000000000000004 48.3 3.9000000000000004 46.5 C 3.9000000000000004 44.7 5.4 43.2 7.2 43.2 C 9 43.2 10.5 44.6 10.5 46.5 z" stroke-linecap="round" />
</g>
</g>
</g>
<g transform="matrix(0.8849277836 0 0 0.8849277836 580 355.2201257862)" id="tzPKVk98KCH6kiJXfMijK"  >
<g style=""   >
		<g transform="matrix(1 0 0 1 0 3.95)" id="hB-ChkSunqGkNoflwQHDR"  >
<path style="stroke: none; stroke-width: 1; stroke-dasharray: none; stroke-linecap: butt; stroke-dashoffset: 0; stroke-linejoin: miter; stroke-miterlimit: 4; fill: rgb(179,181,179); fill-rule: nonzero; opacity: 1;"  transform=" translate(-40, -43.95)" d="M 70.1 8.6 L 66.19999999999999 8.6 L 66.19999999999999 10.6 C 66.19999999999999 13.899999999999999 63.499999999999986 16.6 60.19999999999999 16.6 C 56.89999999999999 16.6 54.19999999999999 13.900000000000002 54.19999999999999 10.600000000000001 L 54.19999999999999 8.600000000000001 L 46 8.600000000000001 L 46 10.600000000000001 C 46 13.900000000000002 43.3 16.6 40 16.6 C 36.7 16.6 34 13.900000000000002 34 10.600000000000001 L 34 8.600000000000001 L 25.7 8.600000000000001 L 25.7 10.600000000000001 C 25.7 13.900000000000002 23 16.6 19.7 16.6 C 16.4 16.6 13.7 13.900000000000002 13.7 10.600000000000001 L 13.7 8.600000000000001 L 9.9 8.600000000000001 C 4.4 8.6 0 13.1 0 18.5 L 0 69.4 C 0 74.9 4.4 79.30000000000001 9.9 79.30000000000001 L 70.10000000000001 79.30000000000001 C 75.60000000000001 79.30000000000001 80.00000000000001 74.9 80.00000000000001 69.4 L 80.00000000000001 18.5 C 80 13.1 75.6 8.6 70.1 8.6 z" stroke-linecap="round" />
</g>
		<g transform="matrix(1 0 0 1 0 8.9)" id="D-PEbYyJYQkWWhPv_fjhq"  >
<path style="stroke: none; stroke-width: 1; stroke-dasharray: none; stroke-linecap: butt; stroke-dashoffset: 0; stroke-linejoin: miter; stroke-miterlimit: 4; fill: rgb(255,255,255); fill-rule: nonzero; opacity: 1;"  transform=" translate(-40, -48.9)" d="M 70.1 24.1 L 9.9 24.1 C 7.5 24.1 5.6000000000000005 26 5.6000000000000005 28.400000000000002 L 5.6000000000000005 69.4 C 5.6000000000000005 71.80000000000001 7.5 73.7 9.9 73.7 L 70.10000000000001 73.7 C 72.50000000000001 73.7 74.4 71.8 74.4 69.4 L 74.4 69.4 L 74.4 28.400000000000006 C 74.4 26 72.5 24.1 70.1 24.1 z" stroke-linecap="round" />
</g>
		<g transform="matrix(1 0 0 1 0 8.9)" id="I5bC_eFARCQQuaV8IcErP"  >
<path style="stroke: none; stroke-width: 1; stroke-dasharray: none; stroke-linecap: butt; stroke-dashoffset: 0; stroke-linejoin: miter; stroke-miterlimit: 4; fill: rgb(179,181,179); fill-rule: nonzero; opacity: 1;"  transform=" translate(-40, -48.9)" d="M 22.1 61.5 L 22.1 65.6 C 22.1 67.5 20.5 69.1 18.6 69.1 L 14.500000000000002 69.1 C 12.600000000000001 69.1 11.000000000000002 67.5 11.000000000000002 65.6 L 11.000000000000002 61.49999999999999 C 11.000000000000002 59.599999999999994 12.600000000000001 57.99999999999999 14.500000000000002 57.99999999999999 L 18.6 57.99999999999999 C 20.5 58 22.1 59.6 22.1 61.5 z M 18.6 43.4 L 14.500000000000002 43.4 C 12.600000000000001 43.4 11.000000000000002 45 11.000000000000002 46.9 L 11.000000000000002 51 C 11.000000000000002 52.9 12.600000000000001 54.5 14.500000000000002 54.5 L 18.6 54.5 C 20.5 54.5 22.1 52.9 22.1 51 L 22.1 46.9 C 22.1 44.9 20.5 43.4 18.6 43.4 z M 34.2 43.4 L 30.1 43.4 C 28.200000000000003 43.4 26.6 45 26.6 46.9 L 26.6 51 C 26.6 52.9 28.200000000000003 54.5 30.1 54.5 L 34.2 54.5 C 36.1 54.5 37.7 52.9 37.7 51 L 37.7 46.9 C 37.7 44.9 36.1 43.4 34.2 43.4 z M 34.2 58 L 30.1 58 C 28.200000000000003 58 26.6 59.6 26.6 61.5 L 26.6 65.6 C 26.6 67.5 28.200000000000003 69.1 30.1 69.1 L 34.2 69.1 C 36.1 69.1 37.7 67.5 37.7 65.6 L 37.7 61.49999999999999 C 37.7 59.6 36.1 58 34.2 58 z M 34.2 28.7 L 30.1 28.7 C 28.200000000000003 28.7 26.6 30.3 26.6 32.2 L 26.6 36.300000000000004 C 26.6 38.2 28.200000000000003 39.800000000000004 30.1 39.800000000000004 L 34.2 39.800000000000004 C 36.1 39.800000000000004 37.7 38.2 37.7 36.300000000000004 L 37.7 32.2 C 37.7 30.3 36.1 28.7 34.2 28.7 z M 65.5 43.4 L 61.4 43.4 C 59.5 43.4 57.9 45 57.9 46.9 L 57.9 51 C 57.9 52.9 59.5 54.5 61.4 54.5 L 65.5 54.5 C 67.4 54.5 69 52.9 69 51 L 69 46.9 C 68.9 44.9 67.4 43.4 65.5 43.4 z M 65.5 28.7 L 61.4 28.7 C 59.5 28.7 57.9 30.3 57.9 32.2 L 57.9 36.300000000000004 C 57.9 38.2 59.5 39.800000000000004 61.4 39.800000000000004 L 65.5 39.800000000000004 C 67.4 39.800000000000004 69 38.2 69 36.300000000000004 L 69 32.2 C 68.9 30.3 67.4 28.7 65.5 28.7 z M 49.8 58 L 45.699999999999996 58 C 43.8 58 42.199999999999996 59.6 42.199999999999996 61.5 L 42.199999999999996 65.6 C 42.199999999999996 67.5 43.8 69.1 45.699999999999996 69.1 L 49.8 69.1 C 51.699999999999996 69.1 53.3 67.5 53.3 65.6 L 53.3 61.49999999999999 C 53.3 59.6 51.8 58 49.8 58 z M 49.8 43.4 L 45.699999999999996 43.4 C 43.8 43.4 42.199999999999996 45 42.199999999999996 46.9 L 42.199999999999996 51 C 42.199999999999996 52.9 43.8 54.5 45.699999999999996 54.5 L 49.8 54.5 C 51.699999999999996 54.5 53.3 52.9 53.3 51 L 53.3 46.9 C 53.3 44.9 51.8 43.4 49.8 43.4 z M 49.8 28.7 L 45.699999999999996 28.7 C 43.8 28.7 42.199999999999996 30.3 42.199999999999996 32.2 L 42.199999999999996 36.300000000000004 C 42.199999999999996 38.2 43.8 39.800000000000004 45.699999999999996 39.800000000000004 L 49.8 39.800000000000004 C 51.699999999999996 39.800000000000004 53.3 38.2 53.3 36.300000000000004 L 53.3 32.2 C 53.3 30.3 51.8 28.7 49.8 28.7 z M 65.5 58 L 61.4 58 C 59.5 58 57.9 59.6 57.9 61.5 L 57.9 65.6 C 57.9 67.5 59.5 69.1 61.4 69.1 L 65.5 69.1 C 67.4 69.1 69 67.5 69 65.6 L 69 61.49999999999999 C 68.9 59.6 67.4 58 65.5 58 z" stroke-linecap="round" />
</g>
		<g transform="matrix(1 0 0 1 0.05 -32.6)" id="A1Zgn8CV6XUBRlh30mQJV"  >
<path style="stroke: none; stroke-width: 1; stroke-dasharray: none; stroke-linecap: butt; stroke-dashoffset: 0; stroke-linejoin: miter; stroke-miterlimit: 4; fill: rgb(179,181,179); fill-rule: nonzero; opacity: 1;"  transform=" translate(-40.05, -7.4)" d="M 56.8 10.6 L 56.8 4.2 C 56.8 2.3000000000000003 58.3 0.7000000000000002 60.3 0.7000000000000002 C 62.3 0.7000000000000002 63.8 2.2 63.8 4.2 L 63.8 10.600000000000001 C 63.8 12.500000000000002 62.3 14.100000000000001 60.3 14.100000000000001 C 58.3 14.100000000000001 56.8 12.5 56.8 10.6 z M 40 14.1 C 41.9 14.1 43.5 12.6 43.5 10.6 L 43.5 4.2 C 43.5 2.3000000000000003 42 0.7000000000000002 40 0.7000000000000002 C 38 0.7000000000000002 36.5 2.2 36.5 4.2 L 36.5 10.600000000000001 C 36.5 12.5 38.1 14.1 40 14.1 z M 19.8 14.1 C 21.7 14.1 23.3 12.6 23.3 10.6 L 23.3 4.2 C 23.3 2.3000000000000003 21.8 0.7000000000000002 19.8 0.7000000000000002 C 17.8 0.7000000000000002 16.3 2.2 16.3 4.2 L 16.3 10.600000000000001 C 16.3 12.5 17.8 14.1 19.8 14.1 z" stroke-linecap="round" />
</g>
</g>
</g>
<g transform="matrix(2.2041509434 0 0 1.0089270356 371.905938092 325.970339937)" id="31JtwAEuj9xu-A68kuMYe"  >
<path style="stroke: rgb(85,42,59); stroke-width: 0; stroke-dasharray: none; stroke-linecap: butt; stroke-dashoffset: 0; stroke-linejoin: miter; stroke-miterlimit: 4; fill: rgb(98,210,162); fill-rule: nonzero; opacity: 1;"  transform=" translate(0, 0)" d="M -24.36532 3.67787 C -20.94825 -9.39537 -14.661470000000001 -17.63755 -7.773350000000001 -18.07477 L -0.5265400000000007 -18.534750000000003 L 7.26725 -18.25326 L 7.26725 -18.25326 C 14.81147 -17.980790000000002 21.68653 -8.737400000000001 25.19726 5.853300000000001 L 28.24859 18.53474 L -28.24859 18.53474 z" stroke-linecap="round" />
</g>
</svg>