<svg xmlns="http://www.w3.org/2000/svg" data-name="Layer 1" viewBox="0 0 32 32" id="schedule"><path d="M14.5,25h-3a.5.5,0,0,0-.5.5v3a.5.5,0,0,0,.5.5h3a.5.5,0,0,0,.5-.5v-3A.5.5,0,0,0,14.5,25ZM14,28H12V26h2Zm10,.653a.5.5,0,0,0,.416.275h.031a.5.5,0,0,0,.416-.223l2-3a.5.5,0,1,0-.832-.555l-1.522,2.283L23.9,26.206a.5.5,0,1,0-.895.447ZM23.5,23h3a.5.5,0,0,0,.5-.5v-3a.5.5,0,0,0-.5-.5h-3a.5.5,0,0,0-.5.5v3A.5.5,0,0,0,23.5,23Zm.5-3h2v2H24Zm-.5-3h3a.5.5,0,0,0,.5-.5v-3a.5.5,0,0,0-.5-.5h-3a.5.5,0,0,0-.5.5v3A.5.5,0,0,0,23.5,17Zm.5-3h2v2H24ZM5.5,23h3a.5.5,0,0,0,.5-.5v-3a.5.5,0,0,0-.5-.5h-3a.5.5,0,0,0-.5.5v3A.5.5,0,0,0,5.5,23ZM6,20H8v2H6Zm-.5,9h3a.5.5,0,0,0,.5-.5v-3a.5.5,0,0,0-.5-.5h-3a.5.5,0,0,0-.5.5v3A.5.5,0,0,0,5.5,29ZM6,26H8v2H6Zm-.5-9h3a.5.5,0,0,0,.5-.5v-3a.5.5,0,0,0-.5-.5h-3a.5.5,0,0,0-.5.5v3A.5.5,0,0,0,5.5,17ZM6,14H8v2H6ZM27.5,4H27V2a2,2,0,0,0-4,0V4H9V2A2,2,0,0,0,5,2V4H4.5A2.5,2.5,0,0,0,2,6.5v23A2.5,2.5,0,0,0,4.5,32h23A2.5,2.5,0,0,0,30,29.5V6.5A2.5,2.5,0,0,0,27.5,4ZM24,2a1,1,0,0,1,2,0V6a1,1,0,0,1-2,0ZM6,2A1,1,0,0,1,8,2V6A1,1,0,0,1,6,6ZM29,29.5A1.5,1.5,0,0,1,27.5,31H4.5A1.5,1.5,0,0,1,3,29.5V11H29ZM29,10H3V6.5A1.5,1.5,0,0,1,4.5,5H5V6A2,2,0,0,0,9,6V5H23V6a2,2,0,0,0,4,0V5h.5A1.5,1.5,0,0,1,29,6.5ZM12,16.653a.5.5,0,0,0,.416.275h.031a.5.5,0,0,0,.416-.223l2-3a.5.5,0,1,0-.832-.555l-1.522,2.283L11.9,14.206a.5.5,0,1,0-.895.447ZM17.5,17h3a.5.5,0,0,0,.5-.5v-3a.5.5,0,0,0-.5-.5h-3a.5.5,0,0,0-.5.5v3A.5.5,0,0,0,17.5,17Zm.5-3h2v2H18Zm-.5,15h3a.5.5,0,0,0,.5-.5v-3a.5.5,0,0,0-.5-.5h-3a.5.5,0,0,0-.5.5v3A.5.5,0,0,0,17.5,29Zm.5-3h2v2H18Zm-.5-3h3a.5.5,0,0,0,.5-.5v-3a.5.5,0,0,0-.5-.5h-3a.5.5,0,0,0-.5.5v3A.5.5,0,0,0,17.5,23Zm.5-3h2v2H18Zm-3.5-1h-3a.5.5,0,0,0-.5.5v3a.5.5,0,0,0,.5.5h3a.5.5,0,0,0,.5-.5v-3A.5.5,0,0,0,14.5,19ZM14,22H12V20h2Z" fill="#fdb813" class="color000000 svgShape"></path></svg>