<?xml version="1.0" encoding="utf-8"?><svg xmlns="http://www.w3.org/2000/svg" xmlns:xlink="http://www.w3.org/1999/xlink" width="1920" height="495" preserveAspectRatio="xMidYMid" viewBox="0 0 1920 495" style="z-index:1;margin-right:-2px;display:block;animation-play-state:paused" ><g transform="translate(960,247.5) scale(1,-1) translate(-960,-247.5)" style="transform:matrix(1, 0, 0, -1, 0, 495);animation-play-state:paused" ><linearGradient id="lg-0.9305208611020217" x1="0" x2="1" y1="0" y2="0" style="animation-play-state:paused" ><stop stop-color="#fdb813" offset="0" style="animation-play-state:paused" ></stop>

  
<stop stop-color="#fdb813" offset="1" style="animation-play-state:paused" ></stop></linearGradient>
<path d="M 0 0 L 0 385.035 Q 240 350.22 480 331.922 T 960 399.942 T 1440 384.83 T 1920 342.211 L 1920 0 Z" fill="url(#lg-0.9305208611020217)" opacity="0.52" style="opacity:0.52;animation-play-state:paused" ></path>
<path d="M 0 0 L 0 386.985 Q 240 422.787 480 402.808 T 960 374.353 T 1440 375.27 T 1920 347.148 L 1920 0 Z" fill="url(#lg-0.9305208611020217)" opacity="0.52" style="opacity:0.52;animation-play-state:paused" ></path>
<path d="M 0 0 L 0 341.715 Q 240 390.735 480 348.15 T 960 350.507 T 1440 351.765 T 1920 330.648 L 1920 0 Z" fill="url(#lg-0.9305208611020217)" opacity="0.52" style="opacity:0.52;animation-play-state:paused" ></path></g></svg>