<?xml version="1.0" encoding="utf-8"?><svg xmlns="http://www.w3.org/2000/svg" xmlns:xlink="http://www.w3.org/1999/xlink" width="1920" height="704" preserveAspectRatio="xMidYMid" viewBox="0 0 1920 704" style="z-index:1;margin-right:-2px;display:block;background-color:rgb(241, 242, 243);animation-play-state:paused" ><g transform="translate(960,352) scale(1,1) translate(-960,-352)" style="transform:matrix(1, 0, 0, 1, 0, 0);animation-play-state:paused" ><linearGradient id="lg-0.8964909612395116" x1="0" x2="1" y1="0" y2="0" style="animation-play-state:paused" ><stop stop-color="#1e4c2b" offset="0" style="animation-play-state:paused" ></stop>

  
<stop stop-color="#1e4c2b" offset="1" style="animation-play-state:paused" ></stop></linearGradient>
<path d="M 0 0 L 0 518.725 Q 240 534.027 480 504.15 T 960 542.181 T 1440 481.865 T 1920 530.579 L 1920 0 Z" fill="url(#lg-0.8964909612395116)" opacity="0.52" style="opacity:0.52;animation-play-state:paused" ></path>
<path d="M 0 0 L 0 523.103 Q 240 544.418 480 513.148 T 960 568.328 T 1440 515.05 T 1920 481.661 L 1920 0 Z" fill="url(#lg-0.8964909612395116)" opacity="0.52" style="opacity:0.52;animation-play-state:paused" ></path>
<path d="M 0 0 L 0 546.382 Q 240 568.568 480 539.729 T 960 536.765 T 1440 527.155 T 1920 482.472 L 1920 0 Z" fill="url(#lg-0.8964909612395116)" opacity="0.52" style="opacity:0.52;animation-play-state:paused" ></path></g></svg>